<svg width="96" height="95" fill="none" xmlns="http://www.w3.org/2000/svg"><circle cx="48" cy="47.5" r="46.5" stroke="#FF803D" stroke-width="2"/><path fill-rule="evenodd" clip-rule="evenodd" d="M26.582 28.375v15.376l-3.541 5.668-3.541 5.67 4.002 9.718c3.263 7.925 3.824 10.221 3.041 12.443-.529 1.499-.961 3.178-.961 3.732 0 .554 3.6 1.008 8 1.008h8v-5.21c0-2.866.281-5.513.624-5.882.343-.371 2.461.337 4.708 1.572 2.705 1.488 4.21 1.837 4.459 1.032.909-2.938 2.209-.798 2.209 3.637v4.851h8c4.4 0 8-.454 8-1.008s-.432-2.233-.961-3.732c-.783-2.222-.222-4.519 3.046-12.454l4.006-9.73-3.947-6.265c-3.09-4.905-3.732-6.68-2.955-8.177.749-1.442.555-2.256-.793-3.318-1.711-1.35-1.71-1.53.042-4.412 2.174-3.578 2.139-3.618-8.688-9.939-5.847-3.414-6.75-4.343-6.75-6.947V13h-26v15.375zm24 7.262V56.12h-5c-2.75 0-5-.485-5-1.078 0-.593.848-1.078 1.883-1.078 1.043 0 2.117-.963 2.407-2.156.287-1.186 1.24-2.156 2.116-2.156 1.376 0 1.594-1.9 1.594-13.888 0-12.981-.131-13.925-2-14.452-1.1-.31-2-1.337-2-2.28 0-1.344-1.092-1.72-5-1.72s-5 .376-5 1.72c0 .944-.9 1.97-2 2.28-1.869.527-2 1.47-2 14.453 0 11.625.244 13.887 1.5 13.887 1 0 1.5 1.078 1.5 3.234 0 2.73-.389 3.234-2.5 3.234h-2.5V15.156h22v20.481zm-6.314-13.826c2.138 2.167 2.313 3.21 2.297 13.744-.017 10.766-.158 11.544-2.532 13.972-1.383 1.414-2.612 2.384-2.732 2.156l-1.359-2.571c-.82-1.55-2.014-2.08-4.25-1.882l-3.11.274V35.98c0-10.346.222-11.777 2.174-14.018 2.73-3.131 6.509-3.19 9.512-.15zm22.307 8.8c.015 2.036-7.322 14.842-9.088 15.861-2.672 1.541-2.449.77 2.232-7.725 4.654-8.443 4.661-8.42-3.387-12.375-2.062-1.013-3.75-2.524-3.75-3.358 0-1.056 2.121-.271 6.993 2.588 3.847 2.259 6.997 4.513 7 5.01zm-9.55-1.335c1.956 1.244 3.557 2.531 3.557 2.861 0 .948-7.048 14.28-7.549 14.28-.248 0-.451-4.366-.451-9.702s.199-9.701.443-9.701c.243 0 2.043 1.017 4 2.262zm-22.443 4.205c-1.511 3.044.43 6.707 3.318 6.264 1.539-.236 2.275-1.208 2.498-3.3.174-1.63.793-2.964 1.375-2.964.643 0 .823 1.27.459 3.234-.681 3.669.74 4.32 2.35 1.078 1.511-3.043-.43-6.707-3.318-6.264-1.539.236-2.275 1.209-2.498 3.3-.174 1.63-.793 2.964-1.375 2.964-.643 0-.823-1.27-.459-3.234.681-3.668-.74-4.32-2.35-1.078zm31.955 6.199c-.133 2.379-4.736 10.147-5.364 9.051-.76-1.324 3.216-9.86 4.593-9.86.449 0 .796.363.771.809zm3.816 10.642l3.007 4.985-3.919 9.52c-2.775 6.737-3.733 10.32-3.281 12.263.626 2.69.532 2.744-4.852 2.744h-5.491L55.136 72c-.416-4.781-.267-9.008.382-10.85.585-1.657 1.064-5.166 1.064-7.795 0-3.532.392-4.781 1.5-4.781 1.118 0 1.508 1.303 1.532 5.12.031 5.061 1.661 8.894 3.782 8.894.659 0 .431-1.244-.575-3.134-1.596-2.997-1.565-3.37.717-8.624 1.312-3.02 2.706-5.49 3.097-5.49.39 0 2.064 2.243 3.718 4.983zm-40.716 7.953c3.144 0 3.682.93 1.745 3.018-.933 1.006-.902 1.294.14 1.294 2.354 0 3.995-3.623 4.028-8.894.024-3.817.414-5.12 1.532-5.12 1.108 0 1.5 1.25 1.5 4.78 0 2.63.479 6.139 1.064 7.797.649 1.84.798 6.068.382 10.85l-.681 7.834h-5.491c-5.384 0-5.478-.054-4.852-2.745.452-1.942-.505-5.523-3.277-12.253l-3.915-9.51 2.135-3.646 2.135-3.646.305 5.12c.29 4.875.446 5.12 3.25 5.12zm24.041-2.457c-.876 1.623-1.04 1.408-1.066-1.406-.016-1.828.307-3.693.72-4.145 1.194-1.307 1.489 3.434.346 5.551zm-9.44 4.283c2.431 1.717 2.661 1.717 3.825 0 .682-1.004 1.989-1.826 2.905-1.826 1.528 0 1.538.266.114 3.234-.853 1.778-1.953 3.234-2.445 3.234-1.554 0-7.003-3.716-7.508-5.12-.648-1.803.026-1.7 3.109.478zm8.344 5.514c0 1.072-.583 2.809-1.296 3.86-1.239 1.827-1.457 1.827-5 .006-2.037-1.047-3.704-2.542-3.704-3.321 0-1.783.851-1.74 4 .2 3.32 2.045 3.754 1.994 4.5-.54.79-2.684 1.5-2.78 1.5-.205z" fill="#FF803D"/></svg>