<svg width="96" height="95" fill="none" xmlns="http://www.w3.org/2000/svg"><circle cx="48" cy="47.5" r="46.5" stroke="#FF803D" stroke-width="2"/><path d="M43.153 62.13a.285.285 0 01.07.193l-.29 2.587c-.05.423.005.852.161 1.243.157.39.409.729.73.978.326.256.71.415 1.112.46a2.15 2.15 0 001.177-.201l2.24-1.078a.236.236 0 01.24 0l2.24 1.078c.37.175.776.244 1.177.198a2.224 2.224 0 001.113-.457c.32-.25.573-.587.73-.978a2.53 2.53 0 00.16-1.243l-.29-2.587a.282.282 0 01.06-.183l1.69-1.865a2.41 2.41 0 00.557-1.11 2.525 2.525 0 00-.057-1.261 2.428 2.428 0 00-.647-1.068 2.17 2.17 0 00-1.063-.56l-2.43-.518a.23.23 0 01-.098-.044.252.252 0 01-.072-.085l-1.19-2.328c-.2-.372-.488-.68-.834-.894a2.154 2.154 0 00-1.136-.327c-.398 0-.79.113-1.136.327a2.376 2.376 0 00-.834.894l-1.21 2.274a.253.253 0 01-.07.086.231.231 0 01-.1.043l-2.43.518a2.17 2.17 0 00-1.062.56 2.428 2.428 0 00-.648 1.068c-.14.41-.171.854-.09 1.283.081.428.272.824.55 1.142l1.68 1.854zm-.27-3.623a.249.249 0 01.076-.119.22.22 0 01.124-.053l2.39-.507c.318-.069.618-.209.882-.411.263-.203.484-.463.648-.764l1.21-2.274c.13-.238.33-.238.46 0l1.21 2.274c.17.308.401.573.676.776a2.2 2.2 0 00.914.399l2.42.507a.22.22 0 01.125.053.25.25 0 01.08.245.256.256 0 01-.055.111l-1.68 1.908a2.46 2.46 0 00-.492.895 2.591 2.591 0 00-.098 1.035l.29 2.587a.219.219 0 01-.017.125.2.2 0 01-.083.09.238.238 0 01-.28 0l-2.24-1.077a2.141 2.141 0 00-1.88 0l-2.24 1.078a.238.238 0 01-.28 0 .2.2 0 01-.082-.09.22.22 0 01-.018-.126l.29-2.587a2.593 2.593 0 00-.097-1.035 2.46 2.46 0 00-.493-.895l-1.68-1.908a.25.25 0 01-.07-.106.265.265 0 01-.01-.13z" fill="#FF803D"/><path d="M52.872 47.813a.935.935 0 00-.765.025.988.988 0 00-.318.244c-.09.103-.16.224-.207.356a1.152 1.152 0 00.023.825c.053.13.13.246.226.343a.993.993 0 00.33.223c2.29.927 4.205 2.69 5.412 4.983a12.012 12.012 0 011.19 7.563c-.436 2.594-1.703 4.94-3.58 6.63-1.878 1.688-4.246 2.614-6.691 2.614-2.445 0-4.813-.926-6.69-2.615-1.878-1.69-3.145-4.035-3.582-6.629a12.013 12.013 0 011.191-7.563c1.207-2.293 3.122-4.056 5.41-4.983a.992.992 0 00.341-.223c.098-.098.177-.217.232-.348a1.149 1.149 0 00.018-.841 1.096 1.096 0 00-.205-.36 1.006 1.006 0 00-.317-.247.94.94 0 00-.768-.03c-2.73 1.105-5.014 3.208-6.453 5.943-1.44 2.734-1.943 5.926-1.422 9.02.52 3.092 2.032 5.89 4.271 7.905 2.239 2.015 5.063 3.118 7.979 3.118 2.916 0 5.74-1.103 7.979-3.118 2.238-2.015 3.75-4.813 4.27-7.906.521-3.093.018-6.285-1.42-9.02-1.44-2.734-3.724-4.837-6.454-5.941v.032z" fill="#FF803D"/><path d="M48.477 48.956c.552 0 1-.483 1-1.078 0-.596-.448-1.078-1-1.078-.553 0-1 .482-1 1.078 0 .595.447 1.078 1 1.078z" fill="#FF803D"/><path d="M65.934 15.496a1.035 1.035 0 00-.361-.364.944.944 0 00-.479-.132h-33.24a.944.944 0 00-.479.133 1.034 1.034 0 00-.361.363l-6.38 10.78a1.143 1.143 0 000 1.078l11.39 21.15a6.577 6.577 0 01-.66 1.509 7.212 7.212 0 01-1.42 1.369c-1.07.69-1.91 1.728-2.4 2.964a6.822 6.822 0 00.32 3.827c.23.694.367 1.42.41 2.156a8.606 8.606 0 01-.41 2.156 6.776 6.776 0 00-.32 3.816c.49 1.236 1.33 2.273 2.4 2.964a7.21 7.21 0 011.42 1.369c.343.594.609 1.236.79 1.908a6.58 6.58 0 001.86 3.352 5.709 5.709 0 003.51.874 6.605 6.605 0 011.94.215 6.65 6.65 0 011.61 1.013 5.844 5.844 0 003.4 1.467 5.867 5.867 0 003.4-1.563 6.637 6.637 0 011.6-1.014 6.611 6.611 0 011.94-.215 5.71 5.71 0 003.51-.874 6.58 6.58 0 001.86-3.352 7.983 7.983 0 01.79-1.908 7.204 7.204 0 011.42-1.369c1.07-.691 1.91-1.729 2.4-2.964a6.824 6.824 0 00-.31-3.773 8.44 8.44 0 01-.41-2.156 8.6 8.6 0 01.41-2.156 6.776 6.776 0 00.32-3.816c-.49-1.236-1.33-2.274-2.4-2.965a7.207 7.207 0 01-1.42-1.369 6.57 6.57 0 01-.66-1.509l11.41-21.063a1.144 1.144 0 000-1.078l-6.4-10.823zm1.26 6.133l-12 22.25a4.14 4.14 0 01-3.06-1.078l13-24.653 2.06 3.482zm-5.53-1.24h-26.38l-1.71-3.233h29.8l-1.71 3.234zm-1.14 2.157l-1.71 3.234h-20.68l-1.66-3.234h24.05zm-2.85 5.39l-7.26 13.722a3.612 3.612 0 00-1.94-.57c-.682 0-1.352.197-1.94.57l-7.26-13.722h18.4zm-25.87-9.767l13 24.653a4.14 4.14 0 01-3.06 1.078l-12-22.249 2.06-3.482zm-5.16 8.689l1.9-3.234 11.02 20.481a3.518 3.518 0 00-1.493.656 3.854 3.854 0 00-1.087 1.284l-10.34-19.187zm35.16 26.237a4.798 4.798 0 011.67 1.92 5.138 5.138 0 01-.33 2.532 9.926 9.926 0 00-.47 2.728c.039.93.207 1.85.5 2.727.31.8.414 1.675.3 2.533a4.788 4.788 0 01-1.7 1.919 8.725 8.725 0 00-1.84 1.822 9.711 9.711 0 00-1.06 2.468 4.937 4.937 0 01-1.14 2.307 4.2 4.2 0 01-2.38.464 8.02 8.02 0 00-2.52.323 8.111 8.111 0 00-2.14 1.304c-.629.598-1.396 1-2.22 1.165a4.499 4.499 0 01-2.25-1.165 8.113 8.113 0 00-2.14-1.304 7.985 7.985 0 00-2.52-.323 4.2 4.2 0 01-2.38-.464 4.936 4.936 0 01-1.14-2.307 9.711 9.711 0 00-1.06-2.468 8.725 8.725 0 00-1.84-1.822 4.797 4.797 0 01-1.67-1.919 5.137 5.137 0 01.33-2.533 9.93 9.93 0 00.47-2.727 9.92 9.92 0 00-.5-2.727 5.141 5.141 0 01-.3-2.534 4.788 4.788 0 011.7-1.919 8.725 8.725 0 001.84-1.821 9.712 9.712 0 001.06-2.469 4.936 4.936 0 011.14-2.307 4.2 4.2 0 012.38-.463c.85.027 1.7-.082 2.52-.324a8.113 8.113 0 002.14-1.304c.629-.597 1.396-1 2.22-1.164a4.499 4.499 0 012.25 1.164c.649.548 1.37.987 2.14 1.304.82.242 1.67.351 2.52.324a4.2 4.2 0 012.38.463c.57.641.965 1.44 1.14 2.307.24.874.597 1.706 1.06 2.469a8.725 8.725 0 001.84 1.821zm-1.84-7.093a3.844 3.844 0 00-1.093-1.26 3.512 3.512 0 00-1.487-.637l11-20.384 1.9 3.234-10.32 19.047z" fill="#FF803D"/></svg>