<svg width="96" height="95" fill="none" xmlns="http://www.w3.org/2000/svg"><circle cx="48" cy="47.5" r="46.5" stroke="#FF803D" stroke-width="2"/><path fill-rule="evenodd" clip-rule="evenodd" d="M70.75 22.222c-.392-.19-.728-.157-.995.052-.283-1.916-1.935-3.41-3.925-3.41H29.355c-2.186 0-3.976 1.797-3.976 3.983v1.669h-1.676a3.989 3.989 0 00-3.976 3.976v44.782a3.989 3.989 0 003.976 3.976h36.838a3.636 3.636 0 003.621-3.621v-6.447l5.284-5.19c.236-.237.355-.343.352-.664l.017-24.132 1.874-3.245c.147-.158.725-.787 1.332-1.6 1.36-2.022 2.445-4.117 3.088-6.114a.941.941 0 00-.191-.91c-.072-.084-.152-.17-.223-.25l1.214-2.105c.783-1.356.27-3.091-1.065-3.862-1.689-.799-3.153-.193-3.918 1.074l-1.176 2.038zm3.79-1.602a.93.93 0 01.363.118c.497.286.652.82.378 1.295l-1.014 1.756a9.118 9.118 0 00-1.683-.97l.977-1.691c.205-.356.6-.546.978-.508zm-8.71.127c1.169 0 2.1.932 2.1 2.1v1.558c-1.24 1.91-2.277 3.91-2.872 5.768l-4.91 8.488-.062.067c-.752.82-1.069 1.198-1.287 1.679-.203.447-.272.79-.602 1.61l-.025.028a19.814 19.814 0 00-3.692 5.788c-.176.413-.185.836-.235 1.212l-.546 4.618a2.092 2.092 0 001.017 2.04 2.1 2.1 0 002.28-.134l3.723-2.788c.39-.209.675-.558.936-.804 1.363-2.004 2.539-4.16 3.17-6.12.552-.706.814-.932 1.101-1.335.45-.8.618-1.36.83-2.028l1.175-2.035v19.844h-8.648a.942.942 0 00-.946.938v8.474H29.002a1.724 1.724 0 01-1.739-1.738v-4.21c.521-.14.997-.1 1.35.017.469.156.536.442.536.285a.942.942 0 001.883 0c0-1.099-.876-1.756-1.82-2.071-.72-.224-1.296-.203-1.948-.133v-3.759c.563-.177 1.073-.181 1.405-.092.431.117.48.208.48.403a.942.942 0 001.883 0c0-1.105-.896-1.959-1.878-2.224-.635-.195-1.3-.099-1.89-.032v-3.699c.563-.179 1.073-.188 1.405-.099.431.117.48.21.48.405a.942.942 0 001.883 0c0-1.105-.896-1.96-1.878-2.226-.636-.193-1.3-.097-1.89-.032v-3.7c.563-.179 1.073-.187 1.405-.098.431.117.48.208.48.403a.942.942 0 101.883 0c0-1.105-.896-1.953-1.878-2.218-.635-.194-1.3-.1-1.89-.037v-3.702c.563-.179 1.073-.187 1.405-.098.431.117.48.208.48.403a.942.942 0 101.883 0c0-1.105-.896-1.953-1.878-2.218-.636-.193-1.3-.097-1.89-.032v-3.706c.563-.177 1.073-.182 1.405-.092.431.116.48.207.48.403a.942.942 0 001.883-.008c0-1.105-.896-1.951-1.878-2.216-.635-.195-1.3-.1-1.89-.032v-3.706c.563-.178 1.073-.182 1.405-.092.431.116.48.207.48.403a.942.942 0 001.883 0c0-1.105-.896-1.96-1.878-2.224-.635-.195-1.3-.099-1.89-.032v-3.699c.563-.18 1.073-.189 1.405-.1.431.117.48.21.48.406a.942.942 0 001.883 0c0-1.105-.896-1.961-1.878-2.226-.604-.183-1.228-.104-1.793-.046.256-.868 1.038-1.497 1.517-1.497l36.953-.002zM48.333 22.84l-3.371 2.696a6.594 6.594 0 00-5.458-2.906c-3.629 0-6.59 2.96-6.59 6.59s2.961 6.59 6.59 6.59c3.63 0 6.59-2.96 6.59-6.59 0-.677-.102-1.331-.294-1.947l3.708-2.967a.942.942 0 00.146-1.32c-.29-.343-.914-.433-1.32-.146zM70.6 24.206a7.18 7.18 0 013.474 2.007c-.895 2.361-1.909 4.295-3.38 5.985-1.178-.678-2.355-1.358-3.532-2.038.761-2.186 1.91-4.213 3.438-5.954zm-31.095.31a4.68 4.68 0 013.978 2.203l-3.763 3.01-1.314-1.967a.942.942 0 10-1.57 1.043l1.883 2.822a.942.942 0 001.37.215l4.074-3.26a4.697 4.697 0 01-4.659 5.352 4.697 4.697 0 01-4.706-4.713 4.69 4.69 0 014.706-4.705zm-15.802 1.883h1.676v41.577A3.636 3.636 0 0029 71.598h30.185c.389.008.515-.046.758-.27l2.336-2.296v4.596c0 .972-.767 1.738-1.739 1.738H23.703a2.076 2.076 0 01-2.091-2.093V28.492c0-1.169.923-2.093 2.091-2.093zm26.16 3.767a.942.942 0 000 1.885h1.884a.942.942 0 000-1.885h-1.884zm5.65 0a.942.942 0 100 1.885h6.59a.942.942 0 100-1.885h-6.59zm10.76 1.659l3.348 1.933-3.916 6.78a9.111 9.111 0 00-3.346-1.934l3.915-6.78zm-32.42 7.754a.942.942 0 000 1.884h21.66a.942.942 0 000-1.884h-21.66zm27.377.73a7.19 7.19 0 013.567 2.06c-.165.49-.317.93-.405 1.054-.068.095-.234.277-.467.548a9.118 9.118 0 00-3.655-2.11c.118-.337.195-.572.243-.678.063-.138.375-.486.717-.874zm-27.378 3.037a.942.942 0 000 1.885h1.886a.942.942 0 000-1.885h-1.886zm5.653 0a.942.942 0 100 1.885h1.883a.942.942 0 000-1.885h-1.883zm5.652 0a.942.942 0 100 1.885H50.8a.942.942 0 100-1.885h-5.644zm14.195.3a7.183 7.183 0 013.488 2.014c-.63 1.854-1.5 3.62-2.686 5.172-.236.309-1.065.489-1.429.3a25.993 25.993 0 01-2.056-1.187c-.346-.22-.604-1.03-.454-1.388.75-1.803 1.846-3.44 3.137-4.911zm-25.5 3.469a.942.942 0 000 1.883h7.433a.942.942 0 100-1.883h-7.433zm11.305 0a.942.942 0 100 1.883h4.706a.942.942 0 000-1.883h-4.706zm-11.305 3.767a.942.942 0 000 1.885h15.072a.942.942 0 000-1.885H33.852zm21.984.757c.602.379 1.216.733 1.844 1.065l-1.81 1.356c-.097.072-.14.05-.21.011-.07-.04-.104-.064-.09-.184l.267-2.248zM33.85 54.647a.942.942 0 000 1.883h1.884a.942.942 0 100-1.883H33.85zm5.653 0a.942.942 0 000 1.883h1.883a.942.942 0 100-1.883h-1.883zm5.65 0a.942.942 0 000 1.883h5.652a.942.942 0 000-1.883h-5.652zM33.85 58.415a.942.942 0 000 1.884h7.439a.942.942 0 000-1.884H33.85zm11.303 0a.942.942 0 000 1.884h9.42a.942.942 0 000-1.884h-9.42zM33.85 62.182a.942.942 0 000 1.884h15.072a.942.942 0 000-1.884H33.85zm18.838 0a.942.942 0 100 1.884h1.886a.942.942 0 000-1.884h-1.886zm7.532.003h6.348l-3.997 3.923-2.35 2.305v-6.228z" fill="#FF803D"/></svg>