<svg width="102" height="95" viewBox="0 0 102 95" fill="none" xmlns="http://www.w3.org/2000/svg">
<path fill-rule="evenodd" clip-rule="evenodd" d="M47.8999 0.107492C39.5904 1.13672 34.0267 5.40087 30.3494 13.559C28.3096 18.085 26.8282 23.57 24.5624 34.9881L23.1588 42.062L20.5914 42.0663C17.7549 42.0709 16.9509 42.2876 15.9022 43.3297C14.7477 44.4773 14.7056 44.6756 14.5995 49.4728L14.5017 53.8999L13.7336 55.1511C13.3113 55.8392 11.412 58.8709 9.51291 61.8881C4.79516 69.3839 4.77344 69.4207 3.45531 72.1138C2.18082 74.7181 1.43605 77 1.11141 79.2954C0.515352 83.5117 1.22627 86.2848 3.47214 88.5036C5.41372 90.4215 8.44252 91.5358 12.6904 91.895C13.8966 91.9968 14.9136 92.1691 14.9504 92.2777C15.2944 93.2927 16.6622 94.4611 17.9031 94.8002C18.878 95.0666 83.1156 95.0666 84.0905 94.8002C85.331 94.4613 86.6992 93.2927 87.043 92.2783C87.0796 92.1701 88.0623 92.0003 89.2271 91.9008C92.0907 91.6562 93.8368 91.2462 95.7651 90.3657C99.2042 88.7954 101.092 85.8565 101.092 82.0726C101.092 78.6599 100.258 75.5797 98.2594 71.6087C96.6521 68.4151 92.7392 62.0363 91.9721 61.3588C91.1005 60.589 89.8936 60.9648 89.6439 62.0835C89.5315 62.5865 89.7679 63.0654 91.4265 65.6924C93.7338 69.3474 95.822 72.9109 95.7169 73.014C95.6749 73.0556 95.2598 72.8327 94.7949 72.5188C93.5305 71.6653 91.2328 70.5654 89.2531 69.8659L87.4919 69.2436L87.3941 57.1447C87.2866 43.8693 87.3542 44.5848 86.0914 43.3297C85.0425 42.2874 84.2389 42.0709 81.3999 42.0663L78.8299 42.062L77.7192 36.4318C75.3339 24.3421 74.1171 19.5448 72.3143 15.1245C71.1129 12.1787 69.9361 10.0286 68.4362 8.03851C66.6234 5.63358 65.7639 5.19029 64.7837 6.15465C64.0321 6.89379 64.1718 7.37693 65.6819 9.2581C67.9879 12.131 70.42 17.5456 71.8135 22.9096C72.2489 24.5852 73.5005 30.1279 73.5005 30.3798C73.5005 30.498 72.8678 29.6544 72.0945 28.5052C67.1323 21.1305 60.2642 17.571 50.9968 17.571C45.0359 17.571 40.0125 19.067 35.8959 22.0681C33.9789 23.4653 31.4988 26.1278 29.8991 28.5052C29.1258 29.6544 28.4931 30.489 28.4931 30.3598C28.4931 30.2307 28.7604 28.9346 29.0872 27.4798C32.0722 14.189 35.6708 7.80926 41.8975 4.76932C45.1267 3.19266 49.3028 2.53936 53.3849 2.97207C56.1044 3.26042 58.0821 3.78052 60.1292 4.74622C61.6093 5.44437 61.8422 5.50269 62.3418 5.29904C63.121 4.98163 63.4903 4.06636 63.1106 3.39401C62.5547 2.40963 59.0146 0.920939 55.9363 0.377165C53.9489 0.0262622 49.7059 -0.116178 47.8999 0.107492ZM53.4429 20.5114C57.0548 20.8473 59.9433 21.7145 62.64 23.273L64.0098 24.0645L61.2702 24.1875C57.5239 24.356 55.4265 25.007 53.5777 26.5751C52.7402 27.2856 52.7212 27.2908 50.9878 27.2908C49.2591 27.2908 49.2341 27.2839 48.4648 26.6004C46.7338 25.062 44.4678 24.3558 40.7234 24.1875L37.9838 24.0645L39.1669 23.3525C41.5681 21.9077 45.0214 20.8275 48.2036 20.5259C50.6819 20.2908 51.059 20.2899 53.4429 20.5114ZM43.3266 27.3439C44.9451 27.7093 46.5121 28.5258 46.8238 29.1664C46.9933 29.5148 47.0091 30.0345 46.881 31.0397C46.4898 34.1043 44.9897 35.6031 41.7948 36.1221C39.2818 36.5303 36.4393 35.8103 35.1086 34.4286C33.9294 33.2042 33.0721 30.2266 33.4604 28.7042C33.606 28.1339 34.4094 27.6642 35.8313 27.3187C37.2651 26.9701 41.7372 26.9851 43.3266 27.3439ZM65.9081 27.2642C67.4016 27.5757 68.3824 28.1133 68.5329 28.7031C68.9215 30.2264 68.0648 33.2038 66.885 34.4286C64.6953 36.7024 59.1159 36.8387 56.7012 34.6777C55.5461 33.6438 54.6164 30.3028 55.1684 29.1695C55.4698 28.5512 56.8253 27.8163 58.4328 27.3998C59.9415 27.009 64.3041 26.9299 65.9081 27.2642ZM52.211 31.4549C52.6335 35.2232 54.6682 37.6323 58.3408 38.7131C59.8523 39.158 63.5807 39.1726 64.9393 38.7391C65.4506 38.5759 65.8686 38.4989 65.8686 38.568C65.8684 38.6371 65.7363 39.4298 65.5753 40.3296C65.4142 41.2295 65.2822 41.9875 65.282 42.0139C65.282 42.0403 63.5711 42.062 61.4802 42.062H57.6784L57.273 42.5692C56.7673 43.2015 56.7568 43.81 57.2413 44.3986L57.6154 44.8531L70.6347 44.9052L83.654 44.9574L84.0565 45.4606C84.4565 45.9608 84.4588 46.0756 84.4588 65.6462C84.4588 84.7374 84.4477 85.3424 84.0849 85.7832L83.7107 86.2377L68.437 86.3339C54.3929 86.4224 53.1362 86.4565 52.8302 86.7578C52.3083 87.2713 52.4046 88.2414 53.0298 88.7704L53.5626 89.2212H69.0107H84.4588V90.1623C84.4588 90.8021 84.3391 91.2488 84.0847 91.5578L83.7107 92.0123H50.9968H18.2829L17.9089 91.5578C17.6546 91.2488 17.5348 90.8021 17.5348 90.1623V89.2212H32.9674C48.284 89.2212 48.404 89.2181 48.9157 88.8222C49.5035 88.3673 49.6147 87.4243 49.1537 86.8038C48.884 86.4409 48.4361 86.4275 33.5793 86.3339L18.2829 86.2377L17.9087 85.7832C17.5459 85.3424 17.5348 84.7374 17.5348 65.6462C17.5348 46.0253 17.536 45.962 17.9404 45.4565L18.3459 44.9493H34.3989C47.1594 44.9493 50.4328 44.9986 50.3599 45.1899C49.5489 47.3173 44.1479 64.3342 44.1479 64.7621C44.1479 65.0963 44.3179 65.5201 44.5392 65.7379C44.9052 66.0978 45.1914 66.1228 48.9421 66.1228C52.0216 66.1228 52.9533 66.1786 52.9523 66.3634C52.9515 66.4959 51.8508 69.9708 50.5062 74.0856C49.1617 78.2006 48.0615 81.7342 48.0615 81.9383C48.0615 82.4593 48.9296 83.2541 49.4986 83.2541C50.5602 83.2541 50.6947 82.9515 53.6444 73.9185C55.2003 69.1545 56.4738 64.9814 56.4746 64.6451C56.4756 64.2126 56.3249 63.9165 55.9603 63.6346C55.478 63.2613 55.1938 63.2355 51.5574 63.2355C48.9969 63.2355 47.6702 63.1672 47.6702 63.0353C47.6702 62.9252 49.0791 58.5271 50.8011 53.2618C52.5231 47.9966 53.9321 43.5509 53.9321 43.3825C53.9321 43.2141 53.7495 42.8481 53.5264 42.5692L53.121 42.062H44.9163C40.4038 42.062 36.7117 42.0403 36.7117 42.0139C36.7115 41.9875 36.5794 41.2295 36.4183 40.3296C36.2573 39.4298 36.1252 38.6371 36.125 38.568C36.125 38.4989 36.543 38.5759 37.0543 38.7391C38.4129 39.1726 42.1413 39.158 43.6528 38.7131C45.9325 38.0423 47.5952 36.8501 48.5977 35.1672C49.1938 34.1666 49.8227 32.0676 49.8227 31.0784C49.8227 30.6969 49.8853 30.3229 49.962 30.2476C50.0385 30.1721 50.5448 30.1361 51.0872 30.1673L52.0731 30.2241L52.211 31.4549ZM31.1233 33.3503C31.1945 33.6423 31.5699 34.3922 31.9573 35.0164C32.5365 35.9494 32.742 36.5833 33.112 38.5774C33.3596 39.9118 33.6081 41.2416 33.6645 41.5327L33.7668 42.062H30.0537C28.0115 42.062 26.3406 42.0383 26.3406 42.0095C26.3406 41.8849 27.5889 38.7834 28.1374 37.5451C29.0397 35.5084 30.6593 32.6158 30.837 32.7237C30.9231 32.7761 31.0519 33.0581 31.1233 33.3503ZM72.7698 35.3585C73.4913 36.7692 74.4294 38.8331 74.8544 39.9447L75.6274 41.9658L71.9918 42.0183C69.9923 42.0472 68.3327 42.0472 68.3039 42.0183C68.2751 41.9895 68.4931 40.6598 68.7886 39.0635C69.2528 36.555 69.423 36.006 70.0433 35.0174C70.438 34.3884 70.7609 33.8161 70.7609 33.7456C70.7609 33.4042 71.1699 32.6183 71.3049 32.7003C71.3893 32.7515 72.0485 33.9478 72.7698 35.3585ZM14.5563 66.7045L14.5017 69.2338L13.189 69.685C11.1027 70.4022 9.50763 71.1602 9.30627 71.5303C8.94973 72.1858 9.092 73.0025 9.636 73.4233C9.91955 73.6427 10.2534 73.8223 10.378 73.8223C10.5025 73.8223 11.4668 73.4758 12.5208 73.0523C13.5747 72.6289 14.4737 72.2824 14.5183 72.2824C14.5629 72.2824 14.6015 75.2923 14.6038 78.9713C14.6077 85.0377 14.6414 85.7324 14.9664 86.4359C15.314 87.1887 15.3138 87.2313 14.9621 87.8765C14.7627 88.2422 14.5995 88.6817 14.5995 88.8532C14.5995 89.1107 14.4215 89.1509 13.5722 89.0857C5.67574 88.4784 3.02187 85.7832 4.03943 79.4044C4.60731 75.8451 6.10899 72.7473 11.0903 64.8595L14.5017 59.4578L14.5563 61.8165C14.5864 63.1139 14.5864 65.3134 14.5563 66.7045ZM89.9499 73.2414C94.7857 75.2996 97.8135 78.3632 98.1015 81.4892C98.4753 85.5437 95.8968 88.1144 90.7397 88.8279C88.1355 89.1885 87.3941 89.1941 87.3941 88.8532C87.3941 88.6817 87.2309 88.2422 87.0315 87.8765C86.6798 87.2313 86.6796 87.1887 87.0272 86.4359C87.3522 85.7324 87.3859 85.0371 87.3898 78.9584L87.3941 72.2564L87.8344 72.3923C88.0766 72.4672 89.0284 72.8491 89.9499 73.2414Z" fill="#FF7730"/>
</svg>
