<svg width="96" height="95" viewBox="0 0 96 95" fill="none" xmlns="http://www.w3.org/2000/svg">
<g clip-path="url(#clip0_2301_6746)">
<path fill-rule="evenodd" clip-rule="evenodd" d="M38.4626 0.184464C34.7616 0.842925 31.4942 2.64665 29.1227 5.34046C27.169 7.55954 26.5992 9.36096 27.1259 11.6517C27.2988 12.4033 27.3822 13.1657 27.3114 13.3462C27.2407 13.5267 26.5316 14.2905 25.7354 15.0438C23.9261 16.7558 23.0474 18.3543 22.8914 20.2178C22.8014 21.2945 22.9111 21.9986 23.5046 24.1548L24.2272 26.7808L23.572 27.9801C22.9983 29.0299 22.9183 29.3708 22.9282 30.7183C22.9404 32.3642 23.4114 33.5206 24.5845 34.7846C25.3092 35.5653 27.3505 36.5163 28.6333 36.6705L29.6938 36.7981L29.9454 37.7579C30.7004 40.6399 33.0468 43.3496 35.985 44.7326C36.9853 45.2033 37.0064 45.2315 36.8758 45.9204C36.5304 47.7429 36.6573 47.6067 35.0819 47.8427C33.0305 48.1498 29.9925 49.089 27.7773 50.1009C20.192 53.5656 14.6045 60.3468 13.1844 67.8111C12.9958 68.8035 12.3953 75.3272 11.8503 82.3078L10.8594 95H37.9644H65.0696V85.7888V76.5776L66.3057 77.6946C72.5959 83.3786 83.3416 81.8312 87.2287 74.6814C88.8073 71.7782 88.7266 73.4045 88.7308 44.3749L88.7344 18.3679H87.044H85.3537V25.383V32.3979L84.8783 32.2824C84.6167 32.219 83.8563 32.1657 83.188 32.1644L81.973 32.1617V26.7974V21.4332H80.2827H78.5923V26.9658V32.4983L77.9513 32.7391C77.1386 33.0443 75.768 34.4457 75.4772 35.2682C75.3101 35.7412 75.2495 34.4815 75.2332 30.198L75.2117 24.4985H73.5213H71.831V30.629V36.7596H73.5213C75.5459 36.7596 75.6577 36.9506 74.208 37.9319C73.6107 38.3363 72.9477 39.0316 72.5705 39.6492C72.0243 40.5435 71.9366 40.8857 71.9366 42.1239C71.9366 44.1826 72.6774 45.3336 74.9797 46.8517C75.1058 46.935 73.4429 59.7492 73.3058 59.7492C73.2411 59.7492 72.7968 59.2105 72.3182 58.5519C68.2838 53.0001 61.6245 48.9907 54.5675 47.8644C52.9061 47.5992 53.0388 47.7358 52.6997 45.9415C52.5717 45.2641 52.5848 45.2495 53.9899 44.5046C56.6944 43.071 58.7759 40.6495 59.5029 38.0901L59.8697 36.7991L60.934 36.6711C62.2201 36.5163 64.2612 35.5663 64.9866 34.7846C66.1516 33.529 66.6262 32.364 66.6408 30.7233C66.6528 29.3652 66.5753 29.0431 65.9649 27.9168L65.2754 26.6448L66.0177 22.5704C66.4259 20.3297 66.7583 18.0579 66.7564 17.5221C66.746 14.7833 65.4109 11.964 63.165 9.93839C61.9953 8.88355 60.7147 8.13025 54.7877 5.01094C50.9397 2.98575 47.2813 1.146 46.6582 0.922622C44.3084 0.0802442 40.8166 -0.234331 38.4626 0.184464ZM44.7367 3.57754C46.6384 4.12891 59.1057 10.7262 60.6209 11.9829C62.0213 13.1445 62.9047 14.635 63.2377 16.3977C63.4374 17.4552 63.3911 18.0436 62.8819 20.9123C62.124 25.1834 62.2389 24.888 61.4174 24.6744C61.0453 24.5776 60.4518 24.4985 60.0983 24.4985C59.524 24.4985 59.3947 24.3816 58.8788 23.3969C57.6359 21.0253 55.5997 19.5099 52.3693 18.5528C50.0691 17.8711 49.3271 17.4859 48.2685 16.4236C47.3384 15.49 46.7343 14.3267 46.5513 13.1169L46.4184 12.2373H44.7568H43.0952V12.7703C43.0952 13.0634 43.2207 13.7418 43.3739 14.2779L43.6528 15.2522L41.3138 15.3521C37.7812 15.5026 35.3644 16.413 33.1457 18.4286C31.685 19.7553 30.5343 21.5276 30.0682 23.168L29.7014 24.459L28.6333 24.61C28.0459 24.6929 27.476 24.7665 27.3672 24.7734C27.1342 24.7882 26.2041 21.5972 26.1982 20.7627C26.1893 19.4929 26.6209 18.7649 28.4163 17.0211C29.892 15.5879 30.2579 15.1051 30.5434 14.2148C30.858 13.2338 30.8595 13.0106 30.562 11.6651C30.1825 9.94988 30.3133 9.14448 31.1597 7.98484C32.8961 5.60561 35.5715 3.93637 38.7637 3.24036C40.0501 2.95969 43.2245 3.13901 44.7367 3.57754ZM92.1151 30.629V45.9555H93.8054H95.4957V30.629V15.3026H93.8054H92.1151V30.629ZM46.063 18.8563C47.0206 19.7804 48.7862 20.6776 50.8245 21.2759C53.0488 21.9288 54.2079 22.6084 55.2895 23.894C56.5288 25.3673 56.657 26.166 56.5805 31.9339L56.5123 37.0684L55.7231 38.5153C54.7727 40.2583 53.5485 41.3447 51.5849 42.188L50.1735 42.7944H44.7855H39.3976L37.9862 42.188C36.0218 41.3443 34.7984 40.2583 33.848 38.5145L33.0588 37.0669V30.639V24.2111L33.7276 22.9314C34.5765 21.3064 35.7853 20.1169 37.362 19.3549C39.0435 18.5424 39.8033 18.4097 42.9 18.3871C45.4875 18.3685 45.5703 18.3808 46.063 18.8563ZM36.8526 24.9688C35.8043 25.9191 36.547 27.5638 38.0242 27.5638C38.4358 27.5638 38.8689 27.39 39.1958 27.0934C39.5229 26.7971 39.7145 26.4043 39.7145 26.0311C39.7145 25.6579 39.5229 25.2652 39.1958 24.9688C38.8689 24.6722 38.4358 24.4985 38.0242 24.4985C37.6126 24.4985 37.1794 24.6722 36.8526 24.9688ZM50.3753 24.9688C49.3271 25.9191 50.0698 27.5638 51.5469 27.5638C51.9585 27.5638 52.3917 27.39 52.7185 27.0934C53.0456 26.7971 53.2372 26.4043 53.2372 26.0311C53.2372 25.6579 53.0456 25.2652 52.7185 24.9688C52.3917 24.6722 51.9585 24.4985 51.5469 24.4985C51.1353 24.4985 50.7022 24.6722 50.3753 24.9688ZM29.5725 30.629C29.5725 34.011 29.6014 33.9505 28.2352 33.433C25.6061 32.437 25.5763 28.865 28.1885 27.8333C29.5943 27.2781 29.5725 27.2344 29.5725 30.629ZM61.8871 28.1046C62.9227 28.7979 63.2736 29.437 63.2736 30.629C63.2736 31.4628 63.1619 31.8862 62.8379 32.2795C62.2311 33.0165 61.4916 33.4771 60.6853 33.6202L59.9986 33.7422V30.629V27.5159L60.6853 27.6379C61.0631 27.705 61.6038 27.9149 61.8871 28.1046ZM49.7661 34.3593C49.5933 35.1936 48.7139 36.1571 47.8132 36.4983C47.3196 36.6853 46.0696 36.7596 43.4189 36.7596H39.7145V38.3093V39.859L43.9932 39.7941L48.2719 39.7291L49.6032 39.0745C50.3356 38.7145 51.1729 38.1633 51.4639 37.8499C52.2577 36.9943 52.9678 35.6134 53.1356 34.5984L53.2852 33.6943H51.5944H49.9037L49.7661 34.3593ZM84.835 35.6973C85.3537 36.1674 85.3537 36.168 85.3537 40.2952V44.4228H81.2648C77.3582 44.4228 77.1439 44.4033 76.4608 43.986C75.5269 43.4153 75.1726 42.7745 75.2911 41.8694C75.413 40.9393 75.8595 40.4966 77.3774 39.8011L78.5923 39.2446V37.706C78.5923 36.328 78.6464 36.1184 79.1111 35.6973C79.5994 35.2546 79.7667 35.227 81.973 35.227C84.1793 35.227 84.3467 35.2546 84.835 35.6973ZM49.2937 46.2298C49.3575 46.3808 49.4682 47.0059 49.5398 47.6188L49.67 48.7334L47.2805 51.454C45.9665 52.9504 44.8437 54.1746 44.7855 54.1746C44.7274 54.1746 43.6046 52.9504 42.2906 51.454L39.9011 48.7334L40.0313 47.6188C40.2417 45.8156 39.8421 45.9555 44.7855 45.9555C48.4027 45.9555 49.198 46.0039 49.2937 46.2298ZM85.3537 58.7819C85.3537 66.3172 85.2757 70.4136 85.1192 71.091C84.0128 75.882 78.4085 79.0745 73.2452 77.8551C70.0715 77.1056 68.1124 75.5349 66.2734 72.2652L65.0696 70.1254V65.7036V61.2819H63.3793H61.6889V76.6083V91.9347H55.0075C49.6941 91.9347 48.3676 91.8857 48.5299 91.6952C48.6421 91.5636 49.7471 90.3042 50.9855 88.8966C52.2241 87.4891 53.2372 86.1902 53.2372 86.0103C53.2372 85.8306 52.4863 81.2681 51.5682 75.8717C49.9161 66.1578 49.9028 66.0503 50.2373 65.102L50.5752 64.1439L52.5334 65.912C53.6104 66.8845 54.5259 67.6414 54.5682 67.5943C54.6102 67.5469 54.9523 64.3615 55.3282 60.5156C55.7041 56.6696 56.0658 53.0324 56.1322 52.4328L56.2528 51.3427L57.9672 51.909C63.5806 53.7633 68.4714 57.8409 71.0822 62.8429C72.5356 65.6277 72.5959 65.9639 72.1952 69.0585C72.0064 70.5168 71.8766 71.7324 71.9068 71.76C72.0061 71.8498 75.0614 72.2104 75.1379 72.1412C75.1971 72.0874 78.381 47.9885 78.381 47.5941C78.381 47.5358 79.9499 47.4881 81.8674 47.4881H85.3537V58.7819ZM39.9457 53.6411L42.5152 56.5372L40.0982 58.7287L37.6815 60.9202L37.2145 56.1678C36.9576 53.5541 36.7495 51.2645 36.752 51.0802C36.7624 50.3001 37.5219 50.9092 39.9457 53.6411ZM52.8191 51.0802C52.8216 51.2645 52.6135 53.5541 52.3566 56.1678L51.8896 60.9202L49.4729 58.7287L47.0559 56.5372L49.6254 53.6411C52.0491 50.9092 52.8087 50.3001 52.8191 51.0802ZM34.133 59.4619C34.5698 63.8874 34.9613 67.5469 35.0033 67.5943C35.0452 67.6414 35.9607 66.8845 37.0377 65.912L38.9959 64.1439L39.3338 65.102C39.6683 66.0503 39.6549 66.1578 38.0028 75.8717C37.0848 81.2681 36.3338 85.8306 36.3338 86.0103C36.3338 86.1902 37.347 87.4891 38.5856 88.8966C39.824 90.3042 40.929 91.5636 41.0412 91.6952C41.2035 91.8857 39.877 91.9347 34.5636 91.9347H27.8822V76.6083V61.2819H26.1918H24.5015V76.6083V91.9347H19.5361H14.5707V91.3224C14.5707 89.3605 16.3274 69.0208 16.6004 67.8226C18.0615 61.4089 22.9396 55.6872 29.4225 52.7826C30.7392 52.1927 33.1898 51.3151 33.3045 51.3923C33.3234 51.4052 33.6963 55.0364 34.133 59.4619ZM46.3956 60.347L47.9101 61.7108L47.4375 62.9812L46.965 64.2514H44.7839H42.6029L42.1336 63.0061L41.6643 61.7608L43.1668 60.3719C43.9932 59.6079 44.7171 58.9829 44.7752 58.9829C44.8335 58.9829 45.5627 59.5967 46.3956 60.347ZM46.7844 67.8435C47.1163 69.2026 49.6531 84.8217 49.6015 85.189C49.547 85.5781 45.0556 90.9592 44.7855 90.9592C44.5155 90.9592 40.0241 85.5781 39.9696 85.189C39.918 84.8217 42.4548 69.2026 42.7867 67.8435C42.8862 67.4356 42.9938 67.4124 44.7855 67.4124C46.5773 67.4124 46.6849 67.4356 46.7844 67.8435Z" fill="#FF7730"/>
</g>
<defs>
<clipPath id="clip0_2301_6746">
<rect width="95" height="95" fill="white" transform="translate(0.5)"/>
</clipPath>
</defs>
</svg>
