<svg width="100" height="98" viewBox="0 0 100 98" fill="none" xmlns="http://www.w3.org/2000/svg">
<path d="M42.828 11.7547L13.274 22.7319C12.1471 23.1505 11.3188 24.1248 11.0871 25.3044L2.26722 70.2055C1.89956 72.0773 3.11855 73.8928 4.99019 74.261L52.8808 83.6821C54.7532 84.0504 56.5696 82.8308 56.9374 80.9583L65.7666 36.0099C65.993 34.8571 65.618 33.6682 64.7712 32.8539L42.828 11.7547ZM42.828 11.7547L45.5167 1M42.828 11.7547L41.0355 19.8208" stroke="#FF803D" stroke-width="3.45455"/>
<path d="M40.1406 80.7642L42.9749 92.8099C43.3957 94.5983 45.1427 95.7445 46.9507 95.4184L95.003 86.7532C96.8777 86.4152 98.125 84.6233 97.791 82.7479L87.0829 22.6178C86.8725 21.4366 86.0643 20.4491 84.948 20.0093L57.1689 9.06604M57.1689 9.06604L47.3104 16.2358M57.1689 9.06604L55.3765 1" stroke="#FF803D" stroke-width="3.45455"/>
<path d="M44.6205 36.8492C42.2194 33.9679 36.9622 30.2761 32.013 33.7772C29.1244 35.8206 27.5118 39.9631 29.7023 42.7418C30.5693 43.8416 31.7676 44.7998 33.0729 45.6192C36.8873 48.014 41.5862 49.9618 42.52 54.3678C43.2063 57.6057 42.3168 61.3019 37.449 63.7358C34.4616 64.9308 27.4113 64.9905 23.1094 59.2547" stroke="#FF803D" stroke-width="3.45455"/>
<path d="M38.3417 26.9905L31.1719 70.0093" stroke="#FF803D" stroke-width="3.45455" stroke-linecap="round"/>
</svg>
