<svg width="96" height="95" viewBox="0 0 96 95" fill="none" xmlns="http://www.w3.org/2000/svg">
<g clip-path="url(#clip0_2301_6742)">
<path fill-rule="evenodd" clip-rule="evenodd" d="M16.8065 0.354668L16.3694 0.709151L16.3211 24.2558L16.2726 47.8027L16.6584 48.2941C17.1413 48.9092 18.1309 48.968 18.6833 48.4145C19.0494 48.0476 19.0535 47.7962 19.0535 25.413V2.78244H53.2981H87.5427V44.1091C87.5427 80.8607 87.5108 85.5582 87.2554 86.5413C86.285 90.2752 82.517 92.7349 78.8219 92.0461C75.3929 91.4071 73.0011 88.838 72.5604 85.32C72.2749 83.0425 75.563 83.2877 45.318 83.2877H19.0535V68.3876V53.4876L18.6251 53.0842C18.0963 52.5865 17.3834 52.5674 16.8065 53.0354L16.3694 53.39L16.32 68.3388L16.2704 83.2877H12.2854C8.30141 83.2877 8.30048 83.2879 7.84623 83.7431C7.0712 84.5196 7.34774 86.7289 8.52872 89.1941C9.85167 91.9563 12.5265 94.0728 15.4889 94.7019C17.3603 95.0994 80.3507 95.0994 82.2222 94.7019C86.0805 93.8825 89.423 90.4316 90.1214 86.5462C90.258 85.7864 90.3192 72.3611 90.3192 43.1781V0.9106L89.8648 0.455393L89.4106 0H53.3269C18.0757 0 17.2333 0.00816181 16.8065 0.354668ZM25.6916 9.25829L25.2545 9.61259L25.2014 16.1231L25.1483 22.6337L25.6096 23.0959L26.0707 23.558H53.3688H80.6669L81.0504 23.0692C81.4218 22.5962 81.4342 22.3742 81.4342 16.1975V9.81441L80.9797 9.3592L80.5255 8.90381H53.3269C26.8281 8.90381 26.1173 8.9129 25.6916 9.25829ZM78.6576 16.2309V20.7756H53.2981H27.9386V16.2309V11.6863H53.2981H78.6576V16.2309ZM25.7117 30.2129C25.0635 30.8625 25.0217 31.3056 25.5457 31.973L25.9292 32.4618H31.0063C35.8365 32.4618 36.1012 32.4438 36.4534 32.0908C36.9521 31.5911 36.9425 30.5866 36.4344 30.1255C36.0756 29.7999 35.6599 29.7679 31.1533 29.717L26.2615 29.6619L25.7117 30.2129ZM42.0786 30.1138C41.425 30.6772 41.3861 31.6247 41.9962 32.1198C42.4 32.4472 43.2324 32.4618 61.5423 32.4618H80.6669L81.0504 31.973C81.2615 31.7042 81.4342 31.3742 81.4342 31.2398C81.4342 30.7493 81.0121 30.0863 80.5721 29.8853C80.251 29.7387 74.7132 29.6794 61.3518 29.6794H42.5827L42.0786 30.1138ZM26.1536 35.7963C25.6849 35.9892 25.162 36.6848 25.162 37.1155C25.162 37.283 25.3347 37.6401 25.5457 37.9089L25.9292 38.3977H34.7084C43.2407 38.3977 43.4978 38.3873 43.8577 38.0267C44.3565 37.5268 44.3467 36.5225 43.8384 36.0614C43.4688 35.726 43.0197 35.7061 34.9996 35.6705C30.3525 35.6499 26.3718 35.7065 26.1536 35.7963ZM48.4853 35.7468C47.8717 35.9731 47.5598 36.4286 47.5598 37.0992C47.5598 38.4928 46.3227 38.3977 64.4518 38.3977H80.6669L81.0504 37.9089C81.2615 37.6401 81.4342 37.3101 81.4342 37.1756C81.4342 36.6852 81.0121 36.0222 80.5721 35.8211C80.1042 35.6076 49.0584 35.5357 48.4853 35.7468ZM34.935 43.2974C34.3541 43.5875 34.053 44.2714 34.0498 45.3074C34.0471 46.1811 34.0419 46.1885 33.4321 46.1885C31.6903 46.1885 29.6471 47.6248 28.7371 49.4889C28.3119 50.3596 28.221 50.7909 28.221 51.9389C28.221 53.7096 28.8324 55.0669 30.1746 56.2762C31.4587 57.4331 32.4785 57.7301 35.6205 57.862C38.3985 57.9786 38.6952 58.0777 39.5182 59.1627C40.0647 59.8831 40.0247 61.8424 39.4468 62.6541C38.6047 63.8372 38.3252 63.8971 33.357 63.9616L28.8722 64.0199L28.4979 64.4968C27.985 65.1503 28.028 65.5983 28.6647 66.2364L29.2058 66.7786H31.6264H34.0471V67.7203C34.0471 68.5139 34.1322 68.7474 34.5881 69.2043C35.2278 69.8454 35.6719 69.8855 36.3359 69.362C36.7629 69.0255 36.8236 68.8433 36.8236 67.8988V66.8199L37.5178 66.6973C39.8405 66.2876 41.2597 65.272 42.2084 63.3412C42.7542 62.2298 42.7885 62.0455 42.7133 60.6125C42.5901 58.2576 41.5903 56.6789 39.5488 55.6147C38.8852 55.2689 38.3482 55.1901 35.9907 55.0929C33.924 55.0077 33.0645 54.8992 32.6288 54.6681C30.9439 53.7746 30.4727 51.5212 31.6557 50.0142C32.368 49.1069 32.5756 49.0691 37.4062 48.971C41.5574 48.8866 42.0036 48.8463 42.3577 48.5248C42.887 48.0444 42.887 46.9294 42.3577 46.4491C42.0225 46.1449 41.6101 46.0869 39.3961 46.0316L36.8236 45.9674V45.0064C36.8236 44.4604 36.7059 43.8767 36.5513 43.6556C36.2174 43.1777 35.4948 43.0177 34.935 43.2974ZM52.9934 43.1787C52.3203 43.2848 52.0273 43.8004 51.9666 44.9858L51.9098 46.0958L50.9585 46.2121C47.246 46.6662 44.9779 50.8254 46.5404 54.314C47.6936 56.8894 49.6783 57.8748 53.7118 57.8748C55.7953 57.8748 56.5768 58.1317 57.2116 59.0248C58.4549 60.7746 57.6271 63.2274 55.6032 63.7904C55.1769 63.9091 53.2079 63.9945 50.8867 63.995C46.3009 63.9963 46.0789 64.0561 46.0789 65.2916C46.0789 65.8465 46.1898 66.0971 46.5667 66.3941C47.0048 66.7394 47.3058 66.7786 49.5284 66.7786H52.0023V67.878C52.0023 68.845 52.0612 69.024 52.4901 69.362C53.1207 69.8593 53.5306 69.8474 54.1492 69.3141C54.5553 68.9641 54.6671 68.6829 54.7374 67.8344C54.8233 66.7945 54.8291 66.7862 55.4956 66.678C57.649 66.3293 59.6089 64.7639 60.2488 62.8813C61.195 60.0978 60.0657 57.1382 57.522 55.7351C56.5911 55.2218 56.3851 55.1862 53.7464 55.0851C50.6318 54.9658 50.0515 54.7753 49.2726 53.6173C48.7176 52.7918 48.6965 51.2203 49.2291 50.357C50.0028 49.1023 50.1259 49.0735 55.1906 48.971C59.5933 48.8817 59.7827 48.8628 60.1731 48.4712C60.7049 47.9377 60.7047 47.0361 60.1729 46.5028C59.8031 46.1319 59.5469 46.09 57.2943 46.0318L54.8219 45.9676L54.7391 44.968C54.6253 43.5918 54.0585 43.0108 52.9934 43.1787ZM70.7578 43.1794C70.1277 43.2786 69.8726 43.7405 69.7725 44.9644L69.6799 46.0958L68.7287 46.2121C66.945 46.4302 65.3 47.6282 64.3598 49.3935C64.0112 50.0478 63.9426 50.4666 63.9422 51.9389C63.9417 53.5434 63.9905 53.7894 64.487 54.6878C65.1534 55.8933 66.0082 56.6689 67.347 57.2832C68.2324 57.6893 68.7109 57.7633 71.0667 57.8584C74.0471 57.9786 74.4747 58.1224 75.1489 59.2296C76.2325 61.01 75.3449 63.2417 73.33 63.8025C72.9515 63.9078 70.8298 63.9945 68.6156 63.995C64.837 63.9961 64.5668 64.019 64.2193 64.3671C63.7206 64.8669 63.7303 65.8711 64.2382 66.3325C64.5736 66.637 64.9819 66.6942 67.1999 66.7463L69.7725 66.8066V67.8213C69.7725 68.6512 69.8552 68.9188 70.2269 69.2911C70.7308 69.7962 71.0192 69.8454 71.687 69.5406C72.264 69.277 72.5491 68.6423 72.5491 67.6209C72.5491 66.8122 72.55 66.811 73.3358 66.6823C75.322 66.3571 77.1327 64.9741 77.9456 63.1614C78.511 61.9011 78.5245 59.8125 77.9751 58.5941C77.4464 57.421 76.3673 56.2728 75.2448 55.6889C74.3935 55.2459 74.0503 55.191 71.5005 55.0892C68.8838 54.9846 68.6441 54.9443 67.966 54.4947C66.6427 53.6171 66.2359 51.8497 67.0309 50.4321C67.7848 49.0878 67.8383 49.0747 72.9819 48.971L77.5795 48.8782L78.026 48.3577C78.5896 47.7007 78.5896 47.2731 78.0258 46.6163C77.5834 46.1006 77.5562 46.0952 75.0641 46.0312L72.5491 45.9667V45.0824C72.5491 43.7485 71.8514 43.0074 70.7578 43.1794ZM25.6164 74.8393C25.1124 75.3442 25.0633 75.6332 25.3674 76.3025C25.7351 77.1107 26.156 77.1664 31.902 77.1664C37.112 77.1664 37.3486 77.151 37.8167 76.7818C38.428 76.3001 38.4855 75.3073 37.9343 74.7549C37.58 74.3999 37.3173 74.3839 31.8174 74.3839H26.0707L25.6164 74.8393ZM41.9962 74.726C41.3848 75.2222 41.425 76.1686 42.0816 76.7345L42.5886 77.1716L61.6345 77.1226C82.609 77.0686 81.1115 77.1597 81.3581 75.9241C81.4532 75.4479 81.3851 75.2454 81.0005 74.8599L80.5255 74.3839H61.4716C43.2303 74.3839 42.3998 74.3986 41.9962 74.726ZM70.055 87.1327C70.3556 88.4705 71.2854 90.2956 72.1918 91.3275L72.9508 92.1915H44.9304C14.4205 92.1915 15.7593 92.2357 13.942 91.1685C12.356 90.2375 10.8287 88.2392 10.4344 86.5797L10.3131 86.0691L40.075 86.116L69.8371 86.1629L70.055 87.1327Z" fill="#FF7730"/>
</g>
<defs>
<clipPath id="clip0_2301_6742">
<rect width="95" height="95" fill="white" transform="translate(0.5)"/>
</clipPath>
</defs>
</svg>
