<svg width="96" height="95" viewBox="0 0 96 95" fill="none" xmlns="http://www.w3.org/2000/svg">
<circle cx="48" cy="47.5" r="46.5" stroke="#FF803D" stroke-width="2"/>
<path d="M43.1534 62.1292C43.199 62.1818 43.224 62.2512 43.2234 62.3232L42.9334 64.9103C42.8821 65.3326 42.9378 65.7619 43.0945 66.1529C43.2512 66.5438 43.503 66.8818 43.8234 67.131C44.1503 67.3872 44.5342 67.5461 44.9362 67.5915C45.3382 67.6369 45.7442 67.5673 46.1134 67.3897L48.3534 66.3117C48.3902 66.29 48.4314 66.2786 48.4734 66.2786C48.5153 66.2786 48.5566 66.29 48.5934 66.3117L50.8334 67.3897C51.2029 67.5651 51.6086 67.6336 52.0102 67.5882C52.4119 67.5428 52.7956 67.3852 53.1234 67.131C53.4437 66.8818 53.6956 66.5438 53.8523 66.1529C54.0089 65.7619 54.0646 65.3326 54.0134 64.9103L53.7234 62.3232C53.7215 62.2562 53.7429 62.1909 53.7834 62.1399L55.4734 60.275C55.7494 59.9665 55.9419 59.5824 56.0301 59.1644C56.1182 58.7464 56.0986 58.3104 55.9733 57.9035C55.8507 57.4914 55.627 57.1226 55.3261 56.8361C55.0251 56.5496 54.6579 56.356 54.2634 56.2758L51.8334 55.7583C51.7978 55.7519 51.7641 55.7369 51.7347 55.7145C51.7052 55.6921 51.6809 55.6629 51.6634 55.629L50.4734 53.3005C50.2727 52.9292 49.9851 52.6211 49.6394 52.4069C49.2938 52.1928 48.9021 52.0801 48.5034 52.0801C48.1047 52.0801 47.713 52.1928 47.3673 52.4069C47.0216 52.6211 46.7341 52.9292 46.5334 53.3005L45.3234 55.5751C45.3059 55.609 45.2815 55.6382 45.2521 55.6606C45.2226 55.683 45.1889 55.698 45.1534 55.7044L42.7234 56.2219C42.3288 56.3021 41.9617 56.4957 41.6607 56.7822C41.3597 57.0687 41.1361 57.4375 41.0134 57.8496C40.8731 58.26 40.8418 58.7044 40.9231 59.1329C41.0044 59.5614 41.1949 59.957 41.4734 60.275L43.1534 62.1292ZM42.8834 58.5072C42.8971 58.4603 42.9234 58.4188 42.9591 58.3881C42.9947 58.3574 43.0379 58.3388 43.0834 58.3347L45.4734 57.828C45.7907 57.7593 46.0911 57.6191 46.3547 57.4166C46.6184 57.2141 46.8394 56.9539 47.0034 56.653L48.2134 54.3785C48.3434 54.1414 48.5434 54.1414 48.6734 54.3785L49.8834 56.653C50.0537 56.9612 50.2841 57.2259 50.5587 57.4288C50.8332 57.6316 51.1453 57.7679 51.4734 57.828L53.8934 58.3347C53.9388 58.3388 53.9821 58.3574 54.0177 58.3881C54.0533 58.4188 54.0796 58.4603 54.0934 58.5072C54.1046 58.548 54.1059 58.5913 54.0972 58.6328C54.0884 58.6743 54.0699 58.7127 54.0434 58.7443L52.3634 60.6523C52.1409 60.9084 51.9728 61.2137 51.8709 61.547C51.769 61.8802 51.7357 62.2334 51.7734 62.5819L52.0634 65.1691C52.07 65.2118 52.0639 65.2557 52.0459 65.2944C52.0279 65.3331 51.999 65.3647 51.9634 65.3847C51.922 65.4148 51.8733 65.4309 51.8234 65.4309C51.7735 65.4309 51.7247 65.4148 51.6834 65.3847L49.4434 64.3067C49.148 64.1626 48.8276 64.0881 48.5034 64.0881C48.1792 64.0881 47.8587 64.1626 47.5634 64.3067L45.3234 65.3847C45.282 65.4148 45.2333 65.4309 45.1834 65.4309C45.1335 65.4309 45.0847 65.4148 45.0434 65.3847C45.0077 65.3647 44.9788 65.3331 44.9608 65.2944C44.9429 65.2557 44.9368 65.2118 44.9434 65.1691L45.2334 62.5819C45.271 62.2334 45.2377 61.8802 45.1358 61.547C45.0339 61.2137 44.8659 60.9084 44.6434 60.6523L42.9634 58.7443C42.9316 58.7161 42.9074 58.6792 42.8933 58.6375C42.8792 58.5958 42.8758 58.5508 42.8834 58.5072Z" fill="#FF803D"/>
<path d="M52.8719 47.8132C52.7491 47.7629 52.6183 47.7392 52.487 47.7434C52.3558 47.7476 52.2265 47.7797 52.1067 47.8377C51.9869 47.8958 51.8789 47.9787 51.7889 48.0818C51.6988 48.1848 51.6285 48.306 51.5819 48.4384C51.5352 48.5707 51.5133 48.7117 51.5172 48.8532C51.5211 48.9947 51.5508 49.1341 51.6047 49.2632C51.6585 49.3923 51.7355 49.5087 51.8311 49.6058C51.9267 49.7029 52.0391 49.7787 52.1619 49.829C54.4512 50.7556 56.3661 52.5191 57.5726 54.812C58.7792 57.1048 59.2008 59.7815 58.7639 62.3751C58.3271 64.9688 57.0595 67.3148 55.1823 69.0041C53.305 70.6934 50.9373 71.6187 48.4919 71.6187C46.0465 71.6187 43.6787 70.6934 41.8015 69.0041C39.9242 67.3148 38.6567 64.9688 38.2198 62.3751C37.783 59.7815 38.2046 57.1048 39.4111 54.812C40.6177 52.5191 42.5326 50.7556 44.8219 49.829C44.948 49.7799 45.0636 49.7041 45.162 49.606C45.2603 49.5078 45.3393 49.3893 45.3944 49.2576C45.4494 49.1259 45.4793 48.9836 45.4823 48.8391C45.4853 48.6947 45.4614 48.5511 45.4119 48.4168C45.3663 48.2835 45.2966 48.1612 45.207 48.057C45.1174 47.9528 45.0095 47.8687 44.8896 47.8096C44.7697 47.7505 44.6402 47.7175 44.5084 47.7126C44.3767 47.7076 44.2453 47.7308 44.1219 47.7808C41.3916 48.8855 39.1076 50.9884 37.6685 53.7227C36.2293 56.4569 35.7262 59.649 36.247 62.7422C36.7678 65.8354 38.2794 68.6333 40.5181 70.648C42.7568 72.6628 45.5806 73.7664 48.4969 73.7664C51.4132 73.7664 54.237 72.6628 56.4757 70.648C58.7144 68.6333 60.226 65.8354 60.7468 62.7422C61.2675 59.649 60.7645 56.4569 59.3253 53.7227C57.8861 50.9884 55.6022 48.8855 52.8719 47.7808V47.8132Z" fill="#FF803D"/>
<path d="M48.4766 48.9557C49.0288 48.9557 49.4766 48.4731 49.4766 47.8778C49.4766 47.2824 49.0288 46.7998 48.4766 46.7998C47.9243 46.7998 47.4766 47.2824 47.4766 47.8778C47.4766 48.4731 47.9243 48.9557 48.4766 48.9557Z" fill="#FF803D"/>
<path d="M65.934 15.4959C65.8436 15.3441 65.7194 15.2191 65.5726 15.1325C65.4259 15.0459 65.2613 15.0003 65.094 15H31.854C31.6867 15.0003 31.5221 15.0459 31.3753 15.1325C31.2286 15.2191 31.1043 15.3441 31.014 15.4959L24.634 26.2756C24.5462 26.4394 24.5 26.6253 24.5 26.8145C24.5 27.0038 24.5462 27.1897 24.634 27.3535L36.024 48.5033C35.8666 49.0355 35.6447 49.5429 35.364 50.0125C34.9507 50.5364 34.473 50.997 33.944 51.3815C32.8743 52.0725 32.0344 53.1099 31.544 54.3459C31.2821 55.6265 31.3939 56.9632 31.864 58.1727C32.0933 58.8672 32.2313 59.5929 32.274 60.3286C32.2295 61.0641 32.0915 61.7895 31.864 62.4846C31.3934 63.6902 31.2816 65.0235 31.544 66.3006C32.0344 67.5365 32.8743 68.574 33.944 69.265C34.473 69.6494 34.9507 70.1101 35.364 70.634C35.7068 71.2282 35.9726 71.8702 36.154 72.542C36.4386 73.8395 37.0883 75.0104 38.014 75.8945C39.0748 76.5624 40.2989 76.8669 41.524 76.7677C42.1768 76.743 42.8296 76.8155 43.464 76.9833C44.0417 77.2389 44.5835 77.5799 45.074 77.9965C46.0406 78.8503 47.2278 79.3622 48.474 79.4626C49.7303 79.3345 50.9186 78.7883 51.874 77.8995C52.3613 77.4837 52.8998 77.1427 53.474 76.8862C54.1084 76.7185 54.7612 76.646 55.414 76.6706C56.639 76.7698 57.8631 76.4653 58.924 75.7975C59.8497 74.9134 60.4993 73.7424 60.784 72.445C60.9654 71.7732 61.2312 71.1312 61.574 70.537C61.9872 70.013 62.465 69.5524 62.994 69.168C64.0637 68.477 64.9036 67.4395 65.394 66.2036C65.6485 64.9412 65.5404 63.6252 65.084 62.4307C64.8547 61.7362 64.7167 61.0105 64.674 60.2747C64.7185 59.5392 64.8564 58.8138 65.084 58.1188C65.5546 56.9132 65.6664 55.5798 65.404 54.3028C64.9136 53.0668 64.0737 52.0293 63.004 51.3384C62.475 50.9539 61.9972 50.4933 61.584 49.9693C61.3033 49.4998 61.0813 48.9924 60.924 48.4602L72.334 27.3967C72.4217 27.2328 72.468 27.0469 72.468 26.8577C72.468 26.6684 72.4217 26.4826 72.334 26.3187L65.934 15.4959ZM67.194 21.6295L55.194 43.8788C54.0835 43.9556 52.9881 43.5697 52.134 42.8008L65.134 18.1477L67.194 21.6295ZM61.664 20.3898H35.284L33.574 17.1559H63.374L61.664 20.3898ZM60.524 22.5458L58.814 25.7797H38.134L36.474 22.5458H60.524ZM57.674 27.9356L50.414 41.6582C49.8262 41.2846 49.1563 41.0876 48.474 41.0876C47.7916 41.0876 47.1218 41.2846 46.534 41.6582L39.274 27.9356H57.674ZM31.804 18.1692L44.804 42.8224C43.9499 43.5913 42.8545 43.9772 41.744 43.9004L29.744 21.6511L31.804 18.1692ZM26.644 26.8577L28.544 23.6238L39.564 44.1052C39.0272 44.2015 38.517 44.4256 38.0707 44.7613C37.6244 45.097 37.2531 45.5357 36.984 46.0455L26.644 26.8577ZM61.804 53.0954C62.5117 53.56 63.089 54.2233 63.474 55.0142C63.5787 55.8753 63.4647 56.7508 63.144 57.5475C62.8615 58.426 62.703 59.3454 62.674 60.2747C62.7127 61.2057 62.8812 62.1251 63.174 63.002C63.4845 63.8017 63.5882 64.6771 63.474 65.5352C63.0808 66.3304 62.4928 66.994 61.774 67.454C61.0803 67.9596 60.4602 68.5736 59.934 69.2758C59.471 70.0386 59.1139 70.8702 58.874 71.7443C58.6989 72.612 58.3043 73.4105 57.734 74.0512C56.9951 74.438 56.1717 74.5983 55.354 74.5147C54.5038 74.4877 53.6545 74.5967 52.834 74.8381C52.0642 75.1552 51.3429 75.5949 50.694 76.1424C50.0654 76.7399 49.2981 77.1423 48.474 77.3066C47.6393 77.1479 46.861 76.7452 46.224 76.1424C45.5751 75.5949 44.8537 75.1552 44.084 74.8381C43.2635 74.5961 42.4142 74.4871 41.564 74.5147C40.7462 74.5983 39.9229 74.438 39.184 74.0512C38.6136 73.4105 38.2191 72.612 38.044 71.7443C37.8041 70.8702 37.447 70.0386 36.984 69.2758C36.4578 68.5736 35.8377 67.9596 35.144 67.454C34.4362 66.9894 33.859 66.3262 33.474 65.5352C33.3692 64.6742 33.4833 63.7986 33.804 63.002C34.0865 62.1234 34.2449 61.2041 34.274 60.2747C34.2353 59.3437 34.0667 58.4243 33.774 57.5475C33.4635 56.7478 33.3598 55.8724 33.474 55.0142C33.8672 54.2191 34.4552 53.5554 35.174 53.0954C35.8677 52.5898 36.4878 51.9759 37.014 51.2737C37.477 50.5109 37.8341 49.6792 38.074 48.8051C38.2491 47.9374 38.6436 47.139 39.214 46.4983C39.9529 46.1115 40.7762 45.9511 41.594 46.0347C42.4442 46.0617 43.2934 45.9527 44.114 45.7114C44.8837 45.3942 45.6051 44.9546 46.254 44.407C46.8826 43.8095 47.6499 43.4071 48.474 43.2428C49.3087 43.4015 50.087 43.8042 50.724 44.407C51.3729 44.9546 52.0942 45.3942 52.864 45.7114C53.6844 45.9534 54.5337 46.0624 55.384 46.0347C56.2017 45.9511 57.0251 46.1115 57.764 46.4983C58.3343 47.139 58.7289 47.9374 58.904 48.8051C59.1439 49.6792 59.501 50.5109 59.964 51.2737C60.4902 51.9759 61.1103 52.5898 61.804 53.0954ZM59.964 46.0024C59.6904 45.5006 59.3172 45.0703 58.8711 44.7423C58.4251 44.4142 57.9172 44.1967 57.384 44.1052L68.384 23.7208L70.284 26.9547L59.964 46.0024Z" fill="#FF803D"/>
</svg>
