<svg width="96" height="95" viewBox="0 0 96 95" fill="none" xmlns="http://www.w3.org/2000/svg">
<circle cx="48" cy="47.5" r="46.5" stroke="#FF803D" stroke-width="2"/>
<path d="M29.1388 58.24C27.4388 58.24 25.9688 57.99 24.7288 57.49C23.4888 56.99 22.5288 56.28 21.8488 55.36C21.1688 54.42 20.8288 53.32 20.8288 52.06C20.8288 50.82 21.1488 49.77 21.7888 48.91C22.4488 48.03 23.3988 47.37 24.6388 46.93C25.8788 46.47 27.3788 46.24 29.1388 46.24C30.8988 46.24 32.3988 46.47 33.6388 46.93C34.8988 47.37 35.8588 48.03 36.5188 48.91C37.1788 49.79 37.5088 50.84 37.5088 52.06C37.5088 53.32 37.1688 54.42 36.4888 55.36C35.8088 56.28 34.8388 56.99 33.5788 57.49C32.3188 57.99 30.8388 58.24 29.1388 58.24ZM29.1388 55.81C30.8188 55.81 32.1288 55.47 33.0688 54.79C34.0288 54.09 34.5088 53.15 34.5088 51.97C34.5088 50.81 34.0288 49.9 33.0688 49.24C32.1288 48.56 30.8188 48.22 29.1388 48.22C27.4788 48.22 26.1788 48.56 25.2388 49.24C24.2988 49.9 23.8288 50.81 23.8288 51.97C23.8288 53.15 24.2988 54.09 25.2388 54.79C26.1788 55.47 27.4788 55.81 29.1388 55.81ZM29.1388 47.86C27.5388 47.86 26.1788 47.65 25.0588 47.23C23.9388 46.79 23.0788 46.17 22.4788 45.37C21.8788 44.55 21.5788 43.58 21.5788 42.46C21.5788 41.28 21.8888 40.27 22.5088 39.43C23.1488 38.57 24.0388 37.91 25.1788 37.45C26.3188 36.99 27.6388 36.76 29.1388 36.76C30.6588 36.76 31.9888 36.99 33.1288 37.45C34.2688 37.91 35.1588 38.57 35.7988 39.43C36.4388 40.27 36.7588 41.28 36.7588 42.46C36.7588 43.58 36.4588 44.55 35.8588 45.37C35.2588 46.17 34.3888 46.79 33.2488 47.23C32.1088 47.65 30.7388 47.86 29.1388 47.86ZM29.1388 45.94C30.5988 45.94 31.7388 45.64 32.5588 45.04C33.3988 44.44 33.8188 43.62 33.8188 42.58C33.8188 41.52 33.3888 40.69 32.5288 40.09C31.6688 39.49 30.5388 39.19 29.1388 39.19C27.7388 39.19 26.6188 39.49 25.7788 40.09C24.9588 40.69 24.5488 41.52 24.5488 42.58C24.5488 43.62 24.9488 44.44 25.7488 45.04C26.5688 45.64 27.6988 45.94 29.1388 45.94ZM48.8354 58.24C47.1954 58.24 45.7254 57.82 44.4254 56.98C43.1454 56.14 42.1254 54.92 41.3654 53.32C40.6254 51.72 40.2554 49.78 40.2554 47.5C40.2554 45.22 40.6254 43.28 41.3654 41.68C42.1254 40.08 43.1454 38.86 44.4254 38.02C45.7254 37.18 47.1954 36.76 48.8354 36.76C50.4554 36.76 51.9154 37.18 53.2154 38.02C54.5154 38.86 55.5354 40.08 56.2754 41.68C57.0154 43.28 57.3854 45.22 57.3854 47.5C57.3854 49.78 57.0154 51.72 56.2754 53.32C55.5354 54.92 54.5154 56.14 53.2154 56.98C51.9154 57.82 50.4554 58.24 48.8354 58.24ZM48.8354 55.57C49.9354 55.57 50.8954 55.27 51.7154 54.67C52.5554 54.07 53.2054 53.17 53.6654 51.97C54.1454 50.77 54.3854 49.28 54.3854 47.5C54.3854 45.72 54.1454 44.23 53.6654 43.03C53.2054 41.83 52.5554 40.93 51.7154 40.33C50.8954 39.73 49.9354 39.43 48.8354 39.43C47.7354 39.43 46.7654 39.73 45.9254 40.33C45.0854 40.93 44.4254 41.83 43.9454 43.03C43.4854 44.23 43.2554 45.72 43.2554 47.5C43.2554 49.28 43.4854 50.77 43.9454 51.97C44.4254 53.17 45.0854 54.07 45.9254 54.67C46.7654 55.27 47.7354 55.57 48.8354 55.57ZM66.5003 54.07V40.93H69.0203V54.07H66.5003ZM61.0403 48.7V46.33H74.4803V48.7H61.0403Z" fill="#FF803D"/>
</svg>
