<svg width="96" height="96" viewBox="0 0 96 96" fill="none" xmlns="http://www.w3.org/2000/svg">
<path d="M58.3906 22.3814H25.7344C25.3672 22.3814 25.0151 22.2356 24.7555 21.976C24.4959 21.7164 24.35 21.3642 24.35 20.9971C24.35 20.6299 24.4959 20.2778 24.7555 20.0182C25.0151 19.7585 25.3672 19.6127 25.7344 19.6127H58.3906C58.7578 19.6127 59.1099 19.7585 59.3695 20.0182C59.6291 20.2778 59.775 20.6299 59.775 20.9971C59.775 21.3642 59.6291 21.7164 59.3695 21.976C59.1099 22.2356 58.7578 22.3814 58.3906 22.3814Z" fill="#FF7730" stroke="#FF7730" stroke-width="0.2"/>
<path d="M58.3906 31.2877H25.7344C25.3672 31.2877 25.0151 31.1418 24.7555 30.8822C24.4959 30.6226 24.35 30.2705 24.35 29.9033C24.35 29.5362 24.4959 29.184 24.7555 28.9244C25.0151 28.6648 25.3672 28.5189 25.7344 28.5189H58.3906C58.7578 28.5189 59.1099 28.6648 59.3695 28.9244C59.6291 29.184 59.775 29.5362 59.775 29.9033C59.775 30.2705 59.6291 30.6226 59.3695 30.8822C59.1099 31.1418 58.7578 31.2877 58.3906 31.2877Z" fill="#FF7730" stroke="#FF7730" stroke-width="0.2"/>
<path d="M58.3906 40.1939H25.7344C25.3672 40.1939 25.0151 40.0481 24.7555 39.7885C24.4959 39.5289 24.35 39.1767 24.35 38.8096C24.35 38.4424 24.4959 38.0903 24.7555 37.8307C25.0151 37.571 25.3672 37.4252 25.7344 37.4252H58.3906C58.7578 37.4252 59.1099 37.571 59.3695 37.8307C59.6291 38.0903 59.775 38.4424 59.775 38.8096C59.775 39.1767 59.6291 39.5289 59.3695 39.7885C59.1099 40.0481 58.7578 40.1939 58.3906 40.1939Z" fill="#FF7730" stroke="#FF7730" stroke-width="0.2"/>
<path d="M58.3906 49.1002H25.7344C25.3672 49.1002 25.0151 48.9543 24.7555 48.6947C24.4959 48.4351 24.35 48.083 24.35 47.7158C24.35 47.3487 24.4959 46.9965 24.7555 46.7369C25.0151 46.4773 25.3672 46.3314 25.7344 46.3314H58.3906C58.7578 46.3314 59.1099 46.4773 59.3695 46.7369C59.6291 46.9965 59.775 47.3487 59.775 47.7158C59.775 48.083 59.6291 48.4351 59.3695 48.6947C59.1099 48.9543 58.7578 49.1002 58.3906 49.1002Z" fill="#FF7730" stroke="#FF7730" stroke-width="0.2"/>
<path d="M37.6094 58.0064H25.7344C25.3672 58.0064 25.0151 57.8606 24.7555 57.601C24.4959 57.3414 24.35 56.9892 24.35 56.6221C24.35 56.2549 24.4959 55.9028 24.7555 55.6432C25.0151 55.3835 25.3672 55.2377 25.7344 55.2377H37.6094C37.9765 55.2377 38.3287 55.3835 38.5883 55.6432C38.8479 55.9028 38.9937 56.2549 38.9937 56.6221C38.9937 56.9892 38.8479 57.3414 38.5883 57.601C38.3287 57.8606 37.9765 58.0064 37.6094 58.0064Z" fill="#FF7730" stroke="#FF7730" stroke-width="0.2"/>
<mask id="path-6-inside-1_2097_4186" fill="white">
<path d="M84.39 38.2557C83.3708 37.6598 82.1568 37.4925 81.0144 37.7906C79.8719 38.0888 78.8945 38.828 78.2965 39.846L74.7171 45.9531V9.12207C74.7171 8.72839 74.5607 8.35083 74.2823 8.07246C74.004 7.79408 73.6264 7.6377 73.2327 7.6377H61.9726C61.9726 7.6377 57.5125 3.09551 57.334 3.2484C57.1948 3.20613 57.0501 3.18463 56.9046 3.18457H13.8577C13.464 3.18457 13.0865 3.34096 12.8081 3.61933C12.5297 3.89771 12.3733 4.27526 12.3733 4.66895V9.31003C11.0983 9.63871 9.9687 10.3819 9.16218 11.4227C8.35565 12.4635 7.91797 13.7429 7.91797 15.0596C7.91797 16.3763 8.35565 17.6557 9.16218 18.6965C9.9687 19.7372 11.0983 20.4804 12.3733 20.8091V24.1538C11.0983 24.4825 9.9687 25.2256 9.16218 26.2664C8.35565 27.3072 7.91797 28.5866 7.91797 29.9033C7.91797 31.22 8.35565 32.4994 9.16218 33.5402C9.9687 34.581 11.0983 35.3242 12.3733 35.6529V38.9975C11.0983 39.3262 9.9687 40.0694 9.16218 41.1102C8.35565 42.151 7.91797 43.4304 7.91797 44.7471C7.91797 46.0638 8.35565 47.3432 9.16218 48.3839C9.9687 49.4247 11.0983 50.1679 12.3733 50.4966V52.3569C11.0983 52.6856 9.9687 53.4288 9.16218 54.4696C8.35565 55.5104 7.91797 56.7897 7.91797 58.1064C7.91797 59.4232 8.35565 60.7025 9.16218 61.7433C9.9687 62.7841 11.0983 63.5273 12.3733 63.856V72.9502C12.3733 73.3439 12.5297 73.7214 12.8081 73.9998C13.0865 74.2782 13.464 74.4346 13.8577 74.4346H15.3421V78.8877C15.3421 79.2814 15.4985 79.6589 15.7769 79.9373C16.0552 80.2157 16.4328 80.3721 16.8265 80.3721H54.5467L53.5295 82.1077C53.4384 82.2634 53.3767 82.4345 53.3475 82.6125C53.346 82.6211 53.3436 82.6283 53.3423 82.637L53.3386 82.6613V82.6669L52.1511 90.5415C52.1069 90.8349 52.1516 91.1348 52.2794 91.4025C52.4073 91.6702 52.6124 91.8934 52.8684 92.0434C53.1243 92.1934 53.4194 92.2632 53.7154 92.244C54.0114 92.2247 54.2949 92.1171 54.5292 91.9352L60.843 87.0332C61.2475 86.7191 61.4451 86.5268 61.4138 86.2689L64.8694 80.3721H73.2327C73.6264 80.3721 74.004 80.2157 74.2823 79.9373C74.5607 79.6589 74.7171 79.2814 74.7171 78.8877V63.5686L85.9798 44.3491C86.5756 43.3299 86.7428 42.116 86.4448 40.9737C86.1468 39.8314 85.4078 38.8539 84.39 38.2557ZM81.7636 40.6613C82.0477 40.5872 82.3474 40.599 82.6247 40.6951C82.9021 40.7913 83.1448 40.9676 83.322 41.2017C83.4992 41.4358 83.603 41.7171 83.6202 42.0102C83.6375 42.3033 83.5675 42.5949 83.4191 42.8482L82.6685 44.1285L80.108 42.6274L80.8587 41.3471C80.9567 41.1786 81.0872 41.0313 81.2425 40.9136C81.3978 40.7959 81.5749 40.7101 81.7636 40.6613ZM59.4024 83.8292L56.8419 82.3281L76.3547 49.0312L78.9153 50.5322L59.4024 83.8292ZM58.389 8.2526L63.7116 13.5752H58.389V8.2526ZM77.8558 46.4697L78.6062 45.1894L81.1676 46.6905L80.4171 47.9708L77.8558 46.4697ZM71.7484 10.6064V50.6846C71.7485 50.7809 71.7579 50.8769 71.7766 50.9714L68.7796 56.0855V15.0596C68.7798 14.8649 68.7416 14.6722 68.6673 14.4923C68.5929 14.3125 68.4838 14.1491 68.3462 14.0114L68.3449 14.0099L64.9414 10.6064H71.7484ZM15.3421 6.15332H55.4202V15.0596C55.4202 15.4533 55.5766 15.8308 55.855 16.1092C56.1334 16.3876 56.5109 16.5439 56.9046 16.5439H65.8109V61.1513L59.7661 71.4658H15.3421V63.8562C16.3697 63.5915 17.3076 63.0561 18.0579 62.3057C18.8082 61.5553 19.3435 60.6174 19.608 59.5897C19.7061 59.2083 19.6487 58.8036 19.4484 58.4645C19.2482 58.1255 18.9214 57.8799 18.54 57.7817C18.3512 57.7332 18.1546 57.7222 17.9615 57.7496C17.7685 57.777 17.5827 57.8421 17.4148 57.9413C17.0758 58.1416 16.8302 58.4684 16.732 58.8497C16.6337 59.2314 16.4601 59.5896 16.2214 59.9033C15.9827 60.2169 15.6837 60.4797 15.3421 60.6763V50.4968C16.3697 50.2322 17.3076 49.6967 18.0579 48.9463C18.8082 48.1959 19.3435 47.258 19.608 46.2303C19.7061 45.849 19.6487 45.4442 19.4484 45.1052C19.2482 44.7661 18.9214 44.5205 18.54 44.4224C18.1586 44.3242 17.7539 44.3816 17.4148 44.5819C17.0758 44.7822 16.8302 45.109 16.732 45.4904C16.6337 45.872 16.4601 46.2302 16.2214 46.5439C15.9827 46.8575 15.6837 47.1204 15.3421 47.3169V35.653C16.3697 35.3884 17.3076 34.853 18.0579 34.1026C18.8082 33.3522 19.3435 32.4143 19.608 31.3866C19.7061 31.0052 19.6487 30.6005 19.4484 30.2614C19.2482 29.9223 18.9214 29.6767 18.54 29.5786C18.1586 29.4805 17.7539 29.5379 17.4148 29.7382C17.0758 29.9385 16.8302 30.2652 16.732 30.6466C16.6337 31.0283 16.4601 31.3865 16.2214 31.7001C15.9827 32.0138 15.6837 32.2766 15.3421 32.4731V20.8093C16.3697 20.5447 17.3076 20.0092 18.0579 19.2588C18.8082 18.5084 19.3435 17.5705 19.608 16.5428C19.7061 16.1615 19.6487 15.7567 19.4484 15.4177C19.2482 15.0786 18.9214 14.833 18.54 14.7349C18.1586 14.6367 17.7539 14.6941 17.4148 14.8944C17.0758 15.0947 16.8302 15.4215 16.732 15.8029C16.6337 16.1845 16.4601 16.5427 16.2214 16.8564C15.9827 17.17 15.6837 17.4329 15.3421 17.6294V6.15332ZM10.889 15.0596C10.8897 14.5391 11.0272 14.028 11.2877 13.5774C11.5482 13.1269 11.9226 12.7528 12.3733 12.4925V17.6266C11.9226 17.3664 11.5482 16.9922 11.2877 16.5417C11.0272 16.0911 10.8897 15.58 10.889 15.0596ZM10.889 29.9033C10.8897 29.3829 11.0272 28.8717 11.2877 28.4212C11.5482 27.9706 11.9226 27.5965 12.3733 27.3363V32.4704C11.9226 32.2101 11.5482 31.836 11.2877 31.3854C11.0272 30.9349 10.8897 30.4238 10.889 29.9033ZM10.889 44.7471C10.8897 44.2266 11.0272 43.7155 11.2877 43.2649C11.5482 42.8144 11.9226 42.4403 12.3733 42.18V47.3141C11.9226 47.0539 11.5482 46.6797 11.2877 46.2292C11.0272 45.7786 10.8897 45.2675 10.889 44.7471ZM10.889 58.1064C10.8897 57.586 11.0272 57.0749 11.2877 56.6243C11.5482 56.1738 11.9226 55.7996 12.3733 55.5394V60.6735C11.9226 60.4133 11.5482 60.0391 11.2877 59.5886C11.0272 59.138 10.8897 58.6269 10.889 58.1064ZM18.3108 77.4033V74.4346H58.0262L56.2864 77.4033H18.3108ZM55.9511 85.2475L57.2905 86.0325L55.6392 87.3143L55.9511 85.2475ZM71.7484 77.4033H66.6087L71.7484 68.6342V77.4033Z"/>
</mask>
<path d="M84.39 38.2557C83.3708 37.6598 82.1568 37.4925 81.0144 37.7906C79.8719 38.0888 78.8945 38.828 78.2965 39.846L74.7171 45.9531V9.12207C74.7171 8.72839 74.5607 8.35083 74.2823 8.07246C74.004 7.79408 73.6264 7.6377 73.2327 7.6377H61.9726C61.9726 7.6377 57.5125 3.09551 57.334 3.2484C57.1948 3.20613 57.0501 3.18463 56.9046 3.18457H13.8577C13.464 3.18457 13.0865 3.34096 12.8081 3.61933C12.5297 3.89771 12.3733 4.27526 12.3733 4.66895V9.31003C11.0983 9.63871 9.9687 10.3819 9.16218 11.4227C8.35565 12.4635 7.91797 13.7429 7.91797 15.0596C7.91797 16.3763 8.35565 17.6557 9.16218 18.6965C9.9687 19.7372 11.0983 20.4804 12.3733 20.8091V24.1538C11.0983 24.4825 9.9687 25.2256 9.16218 26.2664C8.35565 27.3072 7.91797 28.5866 7.91797 29.9033C7.91797 31.22 8.35565 32.4994 9.16218 33.5402C9.9687 34.581 11.0983 35.3242 12.3733 35.6529V38.9975C11.0983 39.3262 9.9687 40.0694 9.16218 41.1102C8.35565 42.151 7.91797 43.4304 7.91797 44.7471C7.91797 46.0638 8.35565 47.3432 9.16218 48.3839C9.9687 49.4247 11.0983 50.1679 12.3733 50.4966V52.3569C11.0983 52.6856 9.9687 53.4288 9.16218 54.4696C8.35565 55.5104 7.91797 56.7897 7.91797 58.1064C7.91797 59.4232 8.35565 60.7025 9.16218 61.7433C9.9687 62.7841 11.0983 63.5273 12.3733 63.856V72.9502C12.3733 73.3439 12.5297 73.7214 12.8081 73.9998C13.0865 74.2782 13.464 74.4346 13.8577 74.4346H15.3421V78.8877C15.3421 79.2814 15.4985 79.6589 15.7769 79.9373C16.0552 80.2157 16.4328 80.3721 16.8265 80.3721H54.5467L53.5295 82.1077C53.4384 82.2634 53.3767 82.4345 53.3475 82.6125C53.346 82.6211 53.3436 82.6283 53.3423 82.637L53.3386 82.6613V82.6669L52.1511 90.5415C52.1069 90.8349 52.1516 91.1348 52.2794 91.4025C52.4073 91.6702 52.6124 91.8934 52.8684 92.0434C53.1243 92.1934 53.4194 92.2632 53.7154 92.244C54.0114 92.2247 54.2949 92.1171 54.5292 91.9352L60.843 87.0332C61.2475 86.7191 61.4451 86.5268 61.4138 86.2689L64.8694 80.3721H73.2327C73.6264 80.3721 74.004 80.2157 74.2823 79.9373C74.5607 79.6589 74.7171 79.2814 74.7171 78.8877V63.5686L85.9798 44.3491C86.5756 43.3299 86.7428 42.116 86.4448 40.9737C86.1468 39.8314 85.4078 38.8539 84.39 38.2557ZM81.7636 40.6613C82.0477 40.5872 82.3474 40.599 82.6247 40.6951C82.9021 40.7913 83.1448 40.9676 83.322 41.2017C83.4992 41.4358 83.603 41.7171 83.6202 42.0102C83.6375 42.3033 83.5675 42.5949 83.4191 42.8482L82.6685 44.1285L80.108 42.6274L80.8587 41.3471C80.9567 41.1786 81.0872 41.0313 81.2425 40.9136C81.3978 40.7959 81.5749 40.7101 81.7636 40.6613ZM59.4024 83.8292L56.8419 82.3281L76.3547 49.0312L78.9153 50.5322L59.4024 83.8292ZM58.389 8.2526L63.7116 13.5752H58.389V8.2526ZM77.8558 46.4697L78.6062 45.1894L81.1676 46.6905L80.4171 47.9708L77.8558 46.4697ZM71.7484 10.6064V50.6846C71.7485 50.7809 71.7579 50.8769 71.7766 50.9714L68.7796 56.0855V15.0596C68.7798 14.8649 68.7416 14.6722 68.6673 14.4923C68.5929 14.3125 68.4838 14.1491 68.3462 14.0114L68.3449 14.0099L64.9414 10.6064H71.7484ZM15.3421 6.15332H55.4202V15.0596C55.4202 15.4533 55.5766 15.8308 55.855 16.1092C56.1334 16.3876 56.5109 16.5439 56.9046 16.5439H65.8109V61.1513L59.7661 71.4658H15.3421V63.8562C16.3697 63.5915 17.3076 63.0561 18.0579 62.3057C18.8082 61.5553 19.3435 60.6174 19.608 59.5897C19.7061 59.2083 19.6487 58.8036 19.4484 58.4645C19.2482 58.1255 18.9214 57.8799 18.54 57.7817C18.3512 57.7332 18.1546 57.7222 17.9615 57.7496C17.7685 57.777 17.5827 57.8421 17.4148 57.9413C17.0758 58.1416 16.8302 58.4684 16.732 58.8497C16.6337 59.2314 16.4601 59.5896 16.2214 59.9033C15.9827 60.2169 15.6837 60.4797 15.3421 60.6763V50.4968C16.3697 50.2322 17.3076 49.6967 18.0579 48.9463C18.8082 48.1959 19.3435 47.258 19.608 46.2303C19.7061 45.849 19.6487 45.4442 19.4484 45.1052C19.2482 44.7661 18.9214 44.5205 18.54 44.4224C18.1586 44.3242 17.7539 44.3816 17.4148 44.5819C17.0758 44.7822 16.8302 45.109 16.732 45.4904C16.6337 45.872 16.4601 46.2302 16.2214 46.5439C15.9827 46.8575 15.6837 47.1204 15.3421 47.3169V35.653C16.3697 35.3884 17.3076 34.853 18.0579 34.1026C18.8082 33.3522 19.3435 32.4143 19.608 31.3866C19.7061 31.0052 19.6487 30.6005 19.4484 30.2614C19.2482 29.9223 18.9214 29.6767 18.54 29.5786C18.1586 29.4805 17.7539 29.5379 17.4148 29.7382C17.0758 29.9385 16.8302 30.2652 16.732 30.6466C16.6337 31.0283 16.4601 31.3865 16.2214 31.7001C15.9827 32.0138 15.6837 32.2766 15.3421 32.4731V20.8093C16.3697 20.5447 17.3076 20.0092 18.0579 19.2588C18.8082 18.5084 19.3435 17.5705 19.608 16.5428C19.7061 16.1615 19.6487 15.7567 19.4484 15.4177C19.2482 15.0786 18.9214 14.833 18.54 14.7349C18.1586 14.6367 17.7539 14.6941 17.4148 14.8944C17.0758 15.0947 16.8302 15.4215 16.732 15.8029C16.6337 16.1845 16.4601 16.5427 16.2214 16.8564C15.9827 17.17 15.6837 17.4329 15.3421 17.6294V6.15332ZM10.889 15.0596C10.8897 14.5391 11.0272 14.028 11.2877 13.5774C11.5482 13.1269 11.9226 12.7528 12.3733 12.4925V17.6266C11.9226 17.3664 11.5482 16.9922 11.2877 16.5417C11.0272 16.0911 10.8897 15.58 10.889 15.0596ZM10.889 29.9033C10.8897 29.3829 11.0272 28.8717 11.2877 28.4212C11.5482 27.9706 11.9226 27.5965 12.3733 27.3363V32.4704C11.9226 32.2101 11.5482 31.836 11.2877 31.3854C11.0272 30.9349 10.8897 30.4238 10.889 29.9033ZM10.889 44.7471C10.8897 44.2266 11.0272 43.7155 11.2877 43.2649C11.5482 42.8144 11.9226 42.4403 12.3733 42.18V47.3141C11.9226 47.0539 11.5482 46.6797 11.2877 46.2292C11.0272 45.7786 10.8897 45.2675 10.889 44.7471ZM10.889 58.1064C10.8897 57.586 11.0272 57.0749 11.2877 56.6243C11.5482 56.1738 11.9226 55.7996 12.3733 55.5394V60.6735C11.9226 60.4133 11.5482 60.0391 11.2877 59.5886C11.0272 59.138 10.8897 58.6269 10.889 58.1064ZM18.3108 77.4033V74.4346H58.0262L56.2864 77.4033H18.3108ZM55.9511 85.2475L57.2905 86.0325L55.6392 87.3143L55.9511 85.2475ZM71.7484 77.4033H66.6087L71.7484 68.6342V77.4033Z" fill="#FF7730" stroke="#FF7730" stroke-width="0.4" mask="url(#path-6-inside-1_2097_4186)"/>
</svg>
