<svg width="96" height="96" viewBox="0 0 96 96" fill="none" xmlns="http://www.w3.org/2000/svg">
<g clip-path="url(#clip0_2097_4194)">
<path d="M94.1084 80.6721H91.6462V30.6772C91.6462 27.0155 88.6663 24.0365 85.0036 24.0365H81.7348C82.0922 23.2887 82.2892 22.4594 82.2892 21.5975C82.2892 19.499 81.1376 17.5849 79.2834 16.602L61.0868 6.96285C60.4077 6.60289 59.5653 6.86191 59.2057 7.5412C58.846 8.2203 59.105 9.0625 59.7841 9.42227L77.9803 19.0612C78.9357 19.5676 79.506 20.5157 79.506 21.5975C79.506 22.6792 78.9357 23.6272 77.9807 24.1334L60.2921 33.5038L49.0465 20.68C48.5398 20.102 47.6604 20.0445 47.0827 20.5512C46.5049 21.0579 46.4472 21.9372 46.9539 22.515L57.7646 34.8429L51.0715 38.3885C49.1483 39.4059 46.8522 39.4059 44.9296 38.3889L18.0197 24.1337C17.0645 23.6274 16.494 22.6792 16.494 21.5977C16.494 20.5161 17.0643 19.568 18.0193 19.0616L44.9286 4.80642C46.8518 3.78889 49.148 3.78889 51.0704 4.80605L54.9224 6.84707C55.6015 7.20703 56.4439 6.94819 56.8036 6.26909C57.1634 5.58999 56.9046 4.74761 56.2257 4.38783L52.373 2.34644C49.6347 0.897509 46.365 0.897509 43.6265 2.34663L16.7162 16.6024C14.8624 17.585 13.7109 19.4991 13.7109 21.5977C13.7109 22.4595 13.908 23.2887 14.2654 24.0367H10.9964C7.33369 24.0367 4.35381 27.0156 4.35381 30.6774V80.6723H1.8916C1.12307 80.6723 0.5 81.2953 0.5 82.0639V85.1482C0.5 90.1248 4.54863 94.1736 9.52519 94.1736H86.4746C91.4512 94.1736 95.5 90.125 95.5 85.1482V82.0639C95.5 81.2952 94.8769 80.6721 94.1084 80.6721ZM59.9707 56.5295L61.7852 59.6723C62.1602 60.3219 61.9101 60.8954 61.7852 61.1117C61.6603 61.3281 61.2887 61.8315 60.5385 61.8315H59.4028C58.6526 61.8315 58.2812 61.3281 58.1561 61.1117C58.031 60.8952 57.7811 60.3219 58.1561 59.6723L59.9707 56.5295ZM61.3623 36.0867L67.1206 33.0363V38.5624C67.1206 42.5313 64.8777 46.0893 61.3623 47.7789V36.0867ZM47.9998 41.9353C49.5018 41.9353 51.0042 41.5729 52.3735 40.8485L58.5791 37.5612V48.8556C50.9758 51.3742 42.5637 51.0915 35.1423 48.0069C31.3377 46.4257 28.8794 42.7185 28.8794 38.5626V33.0361L43.6272 40.8487C44.9962 41.5733 46.4978 41.9353 47.9998 41.9353ZM7.13701 30.6772C7.13701 28.5501 8.86835 26.8197 10.9964 26.8197H17.1449L24.1498 30.5306H12.2396C11.471 30.5306 10.8479 31.1537 10.8479 31.9222V75.5703C10.8479 76.3388 11.471 76.9619 12.2396 76.9619H19.5854C20.3539 76.9619 20.977 76.3388 20.977 75.5703C20.977 74.8018 20.3539 74.1787 19.5854 74.1787H13.6312V33.3138H26.0962V38.5624C26.0962 43.8466 29.2277 48.5625 34.0743 50.5769C38.4993 52.4161 43.2496 53.3356 48.0002 53.3356C51.5727 53.3356 55.145 52.8152 58.5793 51.775V53.3733L55.746 58.2807C54.9827 59.6027 54.9827 61.1813 55.746 62.5033C56.5094 63.8254 57.8763 64.6147 59.403 64.6147H60.5387C62.0654 64.6147 63.4323 63.8254 64.1956 62.5033C64.959 61.1813 64.959 59.6027 64.1956 58.2807L61.3623 53.3733V50.8027C61.5505 50.7283 61.7388 50.6547 61.9258 50.5769C66.7723 48.5625 69.9038 43.8466 69.9038 38.5624V33.3138H82.3689V74.1787H25.1518C24.3832 74.1787 23.7602 74.8018 23.7602 75.5703C23.7602 76.3388 24.3832 76.9619 25.1518 76.9619H83.7605C84.529 76.9619 85.1521 76.3388 85.1521 75.5703V31.9222C85.1521 31.1537 84.529 30.5306 83.7605 30.5306H71.85L78.855 26.8197H85.0034C87.1315 26.8197 88.8628 28.5501 88.8628 30.6772V80.6721H7.13701V30.6772ZM56.6057 83.456C56.0915 84.9525 54.6697 86.031 53.001 86.031H42.9991C41.3303 86.031 39.9087 84.9525 39.3943 83.456H56.6057ZM92.7168 85.148C92.7168 88.5899 89.9165 91.3902 86.4746 91.3902H9.52519C6.08329 91.3902 3.2832 88.5899 3.2832 85.148V83.4553H5.73112C5.73595 83.4553 5.74059 83.456 5.74541 83.456H36.5234C37.1034 86.5031 39.7857 88.8142 42.9991 88.8142H53.001C56.2143 88.8142 58.8966 86.5029 59.4766 83.456H90.2546C90.2594 83.456 90.2641 83.4553 90.2689 83.4553H92.7168V85.148Z" fill="#FF7730"/>
<path d="M48.4195 69.0771C48.4195 68.3086 47.7964 67.6855 47.0279 67.6855H19.1689C18.4004 67.6855 17.7773 68.3086 17.7773 69.0771C17.7773 69.8457 18.4004 70.4688 19.1689 70.4688H47.0281C47.7964 70.4688 48.4195 69.8457 48.4195 69.0771Z" fill="#FF7730"/>
<path d="M19.1689 64.6128H37.796C38.5645 64.6128 39.1876 63.9897 39.1876 63.2212C39.1876 62.4527 38.5645 61.8296 37.796 61.8296H19.1689C18.4004 61.8296 17.7773 62.4527 17.7773 63.2212C17.7773 63.9897 18.4002 64.6128 19.1689 64.6128Z" fill="#FF7730"/>
</g>
<defs>
<clipPath id="clip0_2097_4194">
<rect width="95" height="95" fill="white" transform="translate(0.5 0.21582)"/>
</clipPath>
</defs>
</svg>
