<svg width="96" height="96" viewBox="0 0 96 96" fill="none" xmlns="http://www.w3.org/2000/svg">
<path d="M42.459 23.9658C41.9893 23.9658 41.5301 24.1051 41.1395 24.3661C40.7489 24.627 40.4445 24.998 40.2648 25.4319C40.085 25.8659 40.038 26.3435 40.1296 26.8042C40.2213 27.2649 40.4475 27.688 40.7796 28.0202C41.1118 28.3523 41.5349 28.5785 41.9956 28.6702C42.4564 28.7618 42.9339 28.7148 43.3679 28.535C43.8018 28.3553 44.1728 28.0509 44.4337 27.6603C44.6947 27.2697 44.834 26.8106 44.834 26.3408C44.8333 25.7111 44.5829 25.1074 44.1376 24.6622C43.6924 24.2169 43.0887 23.9665 42.459 23.9658Z" fill="#FF7730"/>
<path d="M56.709 23.9658C56.2392 23.9658 55.7801 24.1051 55.3895 24.3661C54.9989 24.627 54.6945 24.998 54.5148 25.4319C54.335 25.8659 54.288 26.3435 54.3796 26.8042C54.4713 27.2649 54.6975 27.688 55.0296 28.0202C55.3617 28.3523 55.7849 28.5785 56.2456 28.6702C56.7063 28.7618 57.1839 28.7148 57.6178 28.535C58.0518 28.3553 58.4227 28.0509 58.6837 27.6603C58.9447 27.2697 59.084 26.8106 59.084 26.3408C59.0833 25.7111 58.8328 25.1074 58.3876 24.6622C57.9423 24.2169 57.3387 23.9665 56.709 23.9658Z" fill="#FF7730"/>
<path d="M49.5859 33.4647C49.1662 33.4642 48.7637 33.2972 48.4669 33.0004C48.17 32.7036 48.0031 32.3011 48.0026 31.8813H44.8359C44.8359 33.1411 45.3364 34.3493 46.2272 35.2401C47.118 36.1309 48.3262 36.6313 49.5859 36.6313C50.8457 36.6313 52.0539 36.1309 52.9447 35.2401C53.8355 34.3493 54.3359 33.1411 54.3359 31.8813H51.1693C51.1688 32.3011 51.0018 32.7036 50.705 33.0004C50.4082 33.2972 50.0057 33.4642 49.5859 33.4647Z" fill="#FF7730"/>
<path d="M94.94 57.5918C94.7645 57.4433 94.5588 57.3347 94.3371 57.2736C94.1155 57.2125 93.8832 57.2003 93.6563 57.2379L79.3416 59.6238C78.3998 59.7798 77.4983 60.1214 76.6896 60.6288L75.5984 57.8738C75.1679 56.7676 74.5536 55.7421 73.7816 54.8404L74.1946 51.0964C74.3006 50.1423 74.3563 49.1832 74.3617 48.2232C74.3592 44.7148 73.6424 41.2436 72.2548 38.0212C70.8936 34.8306 70.2761 31.3722 70.4489 27.9077L70.7182 22.4272C70.7346 22.0818 70.7517 21.7246 70.7517 21.3701C70.7435 15.7597 68.5102 10.3817 64.5417 6.41584C60.5733 2.45 55.1937 0.22027 49.5833 0.21582C46.716 0.216357 43.8787 0.79949 41.2436 1.92983C38.6084 3.06017 36.2305 4.71415 34.254 6.79138C32.2774 8.86862 30.7436 11.3258 29.7455 14.0138C28.7475 16.7018 28.306 19.5646 28.4478 22.4284L28.7162 27.8909C28.732 28.2988 28.7467 28.6839 28.7467 29.0651C28.7521 32.1442 28.1276 35.1919 26.9114 38.0206C25.1418 42.1408 24.4734 46.6502 24.9718 51.1065L25.3837 54.7988C24.9046 55.3587 24.4844 55.9663 24.1297 56.6121L21.9682 51.209C21.7349 50.625 21.3859 50.0942 20.9421 49.6485C20.4983 49.2028 19.969 48.8516 19.386 48.6158C18.8029 48.38 18.1782 48.2645 17.5494 48.2764C16.9206 48.2883 16.3007 48.4272 15.727 48.6849C15.1533 48.9425 14.6376 49.3135 14.211 49.7756C13.7844 50.2377 13.4556 50.7813 13.2445 51.3738C13.0334 51.9662 12.9444 52.5952 12.9826 53.223C13.0209 53.8507 13.1858 54.4642 13.4673 55.0266L13.7715 55.6324H10.6593C9.43046 55.631 8.21868 55.3449 7.11895 54.7966L5.54116 54.0077C5.01008 53.7422 4.41995 53.6168 3.82679 53.6435C3.23363 53.6702 2.65714 53.8481 2.15206 54.1602C1.64698 54.4724 1.23007 54.9085 0.940935 55.4271C0.651797 55.9457 0.500024 56.5296 0.500027 57.1233V61.5919C0.497019 62.4747 0.741425 63.3406 1.20553 64.0915C1.66963 64.8424 2.33487 65.4483 3.12579 65.8404L5.70286 67.129C7.24248 67.8965 8.93895 68.297 10.6593 68.2991H11.5834V72.9879L10.4459 87.7741C10.373 88.7236 10.497 89.678 10.8103 90.5773C11.1236 91.4766 11.6193 92.3015 12.2664 93.0002C12.9135 93.699 13.698 94.2564 14.5707 94.6377C15.4434 95.0189 16.3854 95.2157 17.3378 95.2157C17.4549 95.2157 17.5714 95.2128 17.6873 95.2068C17.7882 95.2116 17.889 95.2155 17.9893 95.2155C19.296 95.2157 20.5712 94.8142 21.6421 94.0655C22.7131 93.3167 23.5279 92.2568 23.9763 91.0294L31.204 77.5909C31.6345 79.594 32.504 81.4767 33.75 83.1032V95.2157H36.9167V82.5491C36.9166 82.1787 36.7868 81.8201 36.5497 81.5355C34.722 79.3373 33.841 76.5038 34.0998 73.6567C34.3587 70.8096 35.7362 68.1815 37.9304 66.3488L35.9029 63.916C35.1813 64.5175 34.5223 65.1902 33.9358 65.9241C33.8762 65.9856 33.8214 66.0518 33.7722 66.122L33.7686 66.12L33.7405 66.1693C33.7334 66.1804 33.7276 66.1927 33.7207 66.2039C32.8358 67.3699 32.141 68.6687 31.6624 70.052L24.25 83.8355V64.5994L26.4999 58.997C26.8766 58.0412 27.4435 57.1718 28.1662 56.4415C28.908 55.6877 29.7918 55.0882 30.7664 54.6776C31.7411 54.267 32.7874 54.0534 33.845 54.0491H39.1434L48.1933 70.6406C48.3296 70.8903 48.5305 71.0987 48.7751 71.2439C49.0197 71.3891 49.2989 71.4657 49.5833 71.4657C49.8677 71.4657 50.1469 71.3891 50.3915 71.2439C50.6361 71.0987 50.8371 70.8903 50.9733 70.6406L54.3333 64.4807V85.7157C54.3333 86.0818 54.4601 86.4365 54.6922 86.7196C54.9242 87.0027 55.2472 87.1966 55.6061 87.2684L62.25 88.5972V95.2157H65.4166V89.2303L71.4745 90.4402C71.514 90.4471 71.6975 90.4657 71.75 90.4657H74.7454L75.0494 91.0322C75.5047 92.2595 76.3246 93.3182 77.399 94.066C78.4734 94.8138 79.7509 95.215 81.06 95.2157C81.4097 95.2176 81.7589 95.1888 82.1036 95.1294C83.2212 94.9395 84.2686 94.4569 85.1392 93.7307C86.0097 93.0045 86.6723 92.0606 87.0596 90.9952L91.2705 90.2934C91.9828 90.1763 92.6335 89.8184 93.1138 89.2795C93.594 88.7405 93.8748 88.053 93.9093 87.3319L94.226 87.2684C94.5851 87.1968 94.9083 87.003 95.1406 86.7199C95.3729 86.4368 95.4999 86.0819 95.4999 85.7157V58.7991C95.4998 58.5693 95.4497 58.3423 95.353 58.1338C95.2563 57.9253 95.1154 57.7404 94.94 57.5918ZM42.5713 53.7215C43.2438 53.4235 43.8154 52.9368 44.2168 52.3205C44.6183 51.7042 44.8325 50.9847 44.8333 50.2491V45.4035C47.9254 46.3754 51.2412 46.3754 54.3333 45.4035V50.2491C54.3343 50.9845 54.5485 51.7038 54.9499 52.32C55.3514 52.9362 55.9228 53.4227 56.5951 53.7208L54.6896 57.2158H44.4771L42.5713 53.7215ZM49.5833 42.9658C46.2251 42.962 43.0054 41.6263 40.6308 39.2516C38.2562 36.877 36.9204 33.6574 36.9167 30.2991V23.2106C39.7676 21.1506 42.1113 18.4677 43.7693 15.3657C49.1317 19.6581 55.4863 22.535 62.25 23.7323V30.2991C62.2462 33.6574 60.9105 36.877 58.5358 39.2516C56.1612 41.6263 52.9416 42.962 49.5833 42.9658ZM70.9811 56.4686L71.0103 56.4987C71.7279 57.2207 72.2873 58.0841 72.6531 59.034L73.3333 60.7514C72.4778 60.1763 71.5088 59.7916 70.4918 59.6232L58.1088 57.5593L60.0232 54.0491H65.3058C66.3662 54.0479 67.4158 54.2617 68.3913 54.6775C69.3667 55.0934 70.2477 55.7027 70.9811 56.4686ZM71.9067 65.1324L64.7026 63.6918L57.4984 62.251V60.6676L69.9695 62.7458C70.6367 62.8549 71.2654 63.1309 71.7973 63.5482C72.3292 63.9655 72.747 64.5104 73.0119 65.1324H71.9067ZM79.863 62.7467L92.3333 60.668V62.2514L84.8863 63.7409L77.9265 65.1324H76.8214C77.0862 64.5108 77.5039 63.9661 78.0355 63.5491C78.5671 63.132 79.1955 62.856 79.8624 62.7467H79.863ZM7.11895 64.2966L4.54188 63.0082C4.27826 62.8774 4.05654 62.6755 3.90186 62.4251C3.74717 62.1748 3.6657 61.8862 3.66669 61.5919V57.1233C3.66539 57.0691 3.67863 57.0155 3.70505 56.9682C3.73147 56.9208 3.77009 56.8814 3.81691 56.854C3.86227 56.8242 3.9148 56.8072 3.96899 56.8048C4.02318 56.8024 4.07702 56.8146 4.12487 56.8401L5.70286 57.629C7.24248 58.3965 8.93895 58.797 10.6593 58.7991H16.3333C16.6032 58.7991 16.8686 58.7301 17.1044 58.5987C17.3401 58.4672 17.5383 58.2777 17.6802 58.0481C17.8221 57.8185 17.9029 57.5565 17.915 57.2869C17.9271 57.0173 17.8701 56.749 17.7494 56.5076L16.3001 53.6085C16.1998 53.4081 16.1459 53.1877 16.1422 52.9636C16.1385 52.7396 16.1852 52.5175 16.2789 52.3139C16.3725 52.1103 16.5107 51.9303 16.6832 51.7873C16.8557 51.6442 17.0582 51.5418 17.2756 51.4875C17.6267 51.4009 17.9972 51.4438 18.3191 51.6084C18.6411 51.773 18.8928 52.0482 19.0282 52.3834L21.0833 57.5208V65.1324H10.6593C9.43046 65.131 8.21868 64.8449 7.11895 64.2966ZM21.0833 68.2991V71.4658H14.75V68.2991H21.0833ZM13.6035 88.0163L14.6328 74.6324H21.0833V88.3035C21.0819 89.2491 20.723 90.1593 20.0786 90.8514C19.4342 91.5435 18.552 91.9664 17.6089 92.0354C17.5494 92.0351 17.49 92.0381 17.4308 92.0443C17.3995 92.0443 17.3692 92.0491 17.3378 92.0491C16.8217 92.0491 16.3112 91.9425 15.8382 91.7359C15.3653 91.5293 14.9402 91.2272 14.5896 90.8485C14.2389 90.4699 13.9703 90.0228 13.8006 89.5355C13.6309 89.0481 13.5638 88.5309 13.6035 88.0163ZM33.7753 66.124C33.8068 66.0816 33.8405 66.0407 33.8761 66.0017C33.8436 66.043 33.8121 66.085 33.7801 66.1266L33.7753 66.124ZM28.3006 52.3783L28.1191 50.7512C27.6816 46.8406 28.2681 42.8835 29.8212 39.2679C31.2072 36.0449 31.9192 32.5725 31.9133 29.0641C31.9133 28.6218 31.8967 28.188 31.8797 27.7513L31.6105 22.2722C31.4914 19.8744 31.8532 17.477 32.6746 15.2211C33.4961 12.9652 34.7605 10.8964 36.3935 9.13658C38.0265 7.37674 39.9951 5.96138 42.1834 4.97382C44.3716 3.98627 46.7354 3.44648 49.1354 3.38623C51.5354 3.32598 53.9233 3.74649 56.1583 4.62301C58.3934 5.49952 60.4305 6.81433 62.1498 8.49002C63.869 10.1657 65.2356 12.1684 66.1692 14.3803C67.1028 16.5921 67.5844 18.9683 67.5858 21.3691C67.5858 21.6482 67.5714 21.9528 67.5561 22.273L67.2871 27.7478C67.0906 31.6931 67.7939 35.6314 69.3439 39.2647C70.5628 42.094 71.1929 45.1418 71.1958 48.2224C71.1904 49.0689 71.1407 49.9145 71.047 50.7558L70.8671 52.3874C69.1786 51.4039 67.2599 50.8846 65.3058 50.8824H58.1333C57.966 50.8802 57.8062 50.8128 57.6879 50.6945C57.5696 50.5762 57.5022 50.4164 57.5 50.2491V44.0023C59.9053 42.613 61.9029 40.6155 63.2925 38.2103C64.682 35.8052 65.4146 33.0768 65.4166 30.2991V22.3825C65.4166 22.0013 65.2792 21.6329 65.0294 21.345C64.7797 21.057 64.4345 20.8689 64.0571 20.815C57.1016 19.8228 50.5595 16.9145 45.1628 12.4156L44.2637 11.6661C44.0803 11.5132 43.8647 11.4038 43.633 11.3461C43.4013 11.2883 43.1596 11.2837 42.9259 11.3326C42.6922 11.3815 42.4726 11.4826 42.2835 11.6284C42.0944 11.7741 41.9407 11.9608 41.8339 12.1743L41.2204 13.4014C39.6693 16.5002 37.3376 19.1414 34.4552 21.0649C34.2383 21.2095 34.0604 21.4054 33.9374 21.6353C33.8144 21.8651 33.75 22.1218 33.75 22.3825V30.2991C33.7521 33.0768 34.4846 35.8052 35.8742 38.2103C37.2637 40.6155 39.2613 42.613 41.6667 44.0023V50.2491C41.6645 50.4164 41.597 50.5762 41.4787 50.6945C41.3604 50.8128 41.2006 50.8802 41.0333 50.8824H33.845C31.898 50.8886 29.9865 51.4043 28.3006 52.3783ZM49.5833 66.5758L46.2051 60.3824H52.9616L49.5833 66.5758ZM57.5 65.4806L70.1666 68.0139V86.9509L57.5 84.4176V65.4806ZM73.3333 68.2991H76.5V87.2991H73.3333V68.2991ZM81.5603 92.0095C81.395 92.0375 81.2276 92.0507 81.06 92.0491C80.4963 92.0485 79.9425 91.9011 79.4531 91.6213C78.9638 91.3416 78.5558 90.9391 78.2693 90.4537C78.2992 90.4503 78.3287 90.4454 78.3582 90.4402C78.3699 90.438 78.3816 90.4372 78.3932 90.4351H78.3958L78.4067 90.4329L81.6614 89.7819C82.0155 90.4159 82.5792 90.9068 83.2558 91.1703C82.7846 91.6095 82.1952 91.9012 81.5603 92.0095ZM90.7499 87.1696L84.4166 88.2253V82.3403C84.4164 82.2271 84.4564 82.1176 84.5296 82.0312C84.6027 81.9449 84.7042 81.8874 84.8158 81.869L90.1938 80.9727C90.2206 80.9682 90.2478 80.9659 90.2749 80.9657C90.4012 80.9666 90.522 81.0173 90.611 81.1069C90.7 81.1965 90.7499 81.3176 90.7499 81.4439L90.7511 87.1692L90.7499 87.1696ZM89.6729 77.8492L84.2951 78.7453C83.4432 78.885 82.6688 79.3236 82.1108 79.9823C81.5528 80.6411 81.2477 81.477 81.25 82.3403V86.6351L79.6666 86.9517V68.0139L92.3333 65.4806V78.4399C91.5567 77.9054 90.6029 77.6936 89.6731 77.8492H89.6729Z" fill="#FF7730"/>
</svg>
