<svg width="96" height="96" viewBox="0 0 96 96" fill="none" xmlns="http://www.w3.org/2000/svg">
<path d="M8.16114 84.4563H48V81.3912H8.16114C5.62253 81.3912 3.56438 79.333 3.56438 76.7944V9.375C3.56438 6.83563 5.62253 4.77825 8.16114 4.77825H75.5805C78.1203 4.77825 80.1773 6.83563 80.1773 9.375V44.6167H83.2424V9.375C83.2375 5.14579 79.8101 1.71886 75.5805 1.71387H8.16114C3.93269 1.71886 0.505377 5.14579 0.5 9.375V76.7944C0.505377 81.0236 3.93269 84.4505 8.16114 84.4563Z" fill="#FF7730"/>
<path d="M6.63086 7.84375H9.69485V10.9077H6.63086V7.84375Z" fill="#FF7730"/>
<path d="M12.7578 7.84375H15.823V10.9077H12.7578V7.84375Z" fill="#FF7730"/>
<path d="M18.8867 7.84375H21.9515V10.9077H18.8867V7.84375Z" fill="#FF7730"/>
<path d="M6.63086 13.9736H77.1143V17.0388H6.63086V13.9736Z" fill="#FF7730"/>
<path d="M22.4014 20.5518L18.5094 24.4438C15.2196 22.2658 10.8141 22.9341 8.31736 25.9896C5.821 29.0448 6.04491 33.4952 8.83468 36.2846C11.6241 39.0751 16.0749 39.299 19.1304 36.8023C22.1856 34.3059 22.8542 29.8997 20.6759 26.6106L24.5675 22.7186L22.4014 20.5518ZM14.2906 35.4251C11.7524 35.4251 9.6942 33.3673 9.6942 30.8287C9.6942 28.2897 11.7524 26.2323 14.2906 26.2323C14.9742 26.2346 15.6467 26.3913 16.26 26.6913L13.2079 29.7437L15.374 31.9106L18.4284 28.86C18.7283 29.473 18.8854 30.1455 18.8877 30.8287C18.8877 33.3673 16.8303 35.4251 14.2906 35.4251Z" fill="#FF7730"/>
<path d="M26.5488 26.2295H52.5966V29.2935H26.5488V26.2295Z" fill="#FF7730"/>
<path d="M26.5488 32.3594H37.2743V35.4234H26.5488V32.3594Z" fill="#FF7730"/>
<path d="M40.3379 32.3594H61.7889V35.4234H40.3379V32.3594Z" fill="#FF7730"/>
<path d="M55.6621 26.2295H70.9848V29.2935H55.6621V26.2295Z" fill="#FF7730"/>
<path d="M22.4014 38.938L18.5094 42.83C15.2196 40.652 10.8141 41.3203 8.31736 44.3758C5.821 47.4314 6.04491 51.8814 8.83468 54.6716C11.6241 57.4614 16.0749 57.6853 19.1304 55.1885C22.1856 52.6918 22.8542 48.2871 20.6759 44.9969L24.5675 41.1048L22.4014 38.938ZM14.2906 53.8117C11.7524 53.8117 9.6942 51.7535 9.6942 49.2149C9.6942 46.6759 11.7524 44.6178 14.2906 44.6178C14.9742 44.6205 15.6467 44.7776 16.26 45.0775L13.2079 48.1307L15.374 50.2968L18.4284 47.2459C18.7283 47.8592 18.8854 48.5317 18.8877 49.2149C18.8877 51.7535 16.8303 53.8117 14.2906 53.8117Z" fill="#FF7730"/>
<path d="M26.5488 44.6157H52.5966V47.6805H26.5488V44.6157Z" fill="#FF7730"/>
<path d="M26.5488 50.7456H37.2743V53.81H26.5488V50.7456Z" fill="#FF7730"/>
<path d="M40.3379 50.7456H52.5954V53.81H40.3379V50.7456Z" fill="#FF7730"/>
<path d="M55.6621 44.6157H61.7909V47.6805H55.6621V44.6157Z" fill="#FF7730"/>
<path d="M22.4014 57.3237L18.5094 61.2158C15.2196 59.0378 10.8141 59.706 8.31736 62.7616C5.821 65.8171 6.04491 70.2672 8.83468 73.0573C11.6241 75.8475 16.0749 76.0706 19.1304 73.5743C22.1856 71.0775 22.8542 66.6724 20.6759 63.3822L24.5675 59.4906L22.4014 57.3237ZM14.2906 72.1974C11.7524 72.1974 9.6942 70.1393 9.6942 67.6007C9.6942 65.0617 11.7524 63.0039 14.2906 63.0039C14.9742 63.0062 15.6467 63.1629 16.26 63.4632L13.2079 66.5165L15.374 68.6826L18.4284 65.6316C18.7283 66.245 18.8854 66.9178 18.8877 67.6007C18.8877 70.1393 16.8303 72.1974 14.2906 72.1974Z" fill="#FF7730"/>
<path d="M26.5488 63.0049H46.4679V66.07H26.5488V63.0049Z" fill="#FF7730"/>
<path d="M26.5488 69.1313H37.2743V72.1957H26.5488V69.1313Z" fill="#FF7730"/>
<path d="M40.3379 69.1313H46.4667V72.1957H40.3379V69.1313Z" fill="#FF7730"/>
<path d="M72.5174 93.6505C85.2116 93.6505 95.5008 83.3594 95.5008 70.6663C95.5008 57.9721 85.2116 47.6821 72.5174 47.6821C59.8232 47.6821 49.5332 57.9721 49.5332 70.6663C49.5482 83.3536 59.8293 93.6352 72.5174 93.6505ZM72.5174 50.7469C83.5179 50.7469 92.4368 59.6651 92.4368 70.6663C92.4368 81.6676 83.5179 90.5854 72.5174 90.5854C61.5157 90.5854 52.5972 81.6676 52.5972 70.6663C52.6103 59.6704 61.5207 50.7592 72.5174 50.7469Z" fill="#FF7730"/>
<path d="M63.1687 71.5116L60.4258 72.8812L63.4905 79.0103C63.7102 79.4512 64.1296 79.7596 64.6162 79.8383C64.6953 79.8506 64.7744 79.8571 64.8539 79.8583C65.2599 79.8583 65.6497 79.6966 65.9377 79.4093L84.324 61.0223L82.1579 58.8555L65.2733 75.7393L63.1687 71.5116Z" fill="#FF7730"/>
</svg>
