<svg width="833" height="309" viewBox="0 0 833 309" fill="none" xmlns="http://www.w3.org/2000/svg">
<path d="M0.0280376 140.478C12.219 126.601 51.5164 96.1534 111.178 85.3794C129.253 82.817 177.006 81.6039 223.422 97.2506C237.934 102.756 275.559 114.409 309.966 116.975C317.206 117.515 322.195 117.969 325.442 118.349C343.037 114.724 372.896 106.546 402.381 92.2974C438.644 74.7735 492.954 75.9592 515.576 78.7426C546.972 82.8632 620.726 79.4281 664.576 32.7224C719.39 -25.6597 806.564 3.77993 830.766 54.6105C850.128 95.275 850.298 167.291 847.963 198.216L20.1281 308.332L0.0280376 140.478Z" fill="white"/>
</svg>
