<svg width="96" height="95" viewBox="0 0 96 95" fill="none" xmlns="http://www.w3.org/2000/svg">
<path fill-rule="evenodd" clip-rule="evenodd" d="M82.1284 0.377572C81.3582 0.579277 80.2808 0.982305 79.7341 1.27308C78.4557 1.95271 76.0107 4.39712 75.3318 5.67401C74.6208 7.01144 74.0469 9.34934 74.0469 10.9082C74.0469 12.4759 74.6239 14.8159 75.3357 16.1345C76.0584 17.4735 77.8817 19.3867 79.1917 20.1805C81.0485 21.3057 82.4845 21.6965 84.7735 21.6992C87.0483 21.702 88.7737 21.2231 90.5143 20.1064C91.734 19.3235 93.5334 17.3904 94.2113 16.1345C94.9231 14.8159 95.5 12.4759 95.5 10.9082C95.5 9.34934 94.9261 7.01144 94.2151 5.67401C93.5369 4.39827 91.0916 1.9529 89.8159 1.27462C88.4996 0.57468 86.1384 -0.0128131 84.6949 0.000212527C84.0535 0.00595912 82.8984 0.175867 82.1284 0.377572ZM44.0701 1.65159C36.2691 2.63062 29.8487 6.98596 26.1882 13.7815C25.1709 15.6702 24.092 18.936 23.832 20.9132C23.7177 21.7844 23.594 22.605 23.5576 22.7366C23.5081 22.9146 22.7569 22.976 20.6357 22.976C19.0654 22.976 17.5088 23.0304 17.1764 23.0969C16.6068 23.2109 16.4386 23.0854 14.222 20.8941L11.8718 18.5703H6.57977H1.28757L0.890685 19.0751C0.164921 19.9976 0.335205 20.3803 2.40906 22.488C3.46256 23.5586 4.32452 24.511 4.32452 24.6042C4.32452 24.6975 3.46256 25.6499 2.40906 26.7205C0.301684 28.8621 0.140212 29.2483 0.956002 30.1964L1.41839 30.7339H6.60371H11.789L14.0933 28.4353L16.3976 26.1367H19.9862H23.5746L23.7223 27.4775C24.5239 34.7558 29.4313 41.635 36.2831 45.0855C37.7484 45.8235 40.8677 46.9202 41.5015 46.9202C41.8246 46.9202 41.8674 47.0679 41.8674 48.1856C41.8674 49.2891 41.8093 49.4968 41.4128 49.8086C40.372 50.6273 40.335 50.9156 40.335 58.2218C40.335 65.528 40.372 65.8163 41.4128 66.635C41.8654 66.9911 41.8674 67.0089 41.8674 71.0356V75.0785H38.6251H35.3828L36.0413 73.9849C36.8267 72.6806 37.0542 71.955 37.2069 70.2686C37.6333 65.5541 33.6614 61.2913 28.8423 61.2913C24.032 61.2913 20.0521 65.5627 20.4777 70.2686C20.6298 71.9485 20.8579 72.6806 21.6287 73.9608L22.2727 75.03L20.4122 75.1197C18.8496 75.1948 18.3502 75.3034 17.2937 75.798C15.5401 76.6186 14.4245 77.7118 13.5637 79.4528L12.8483 80.8998L12.7897 87.9499L12.7309 95H14.2741H15.8172V88.5573C15.8172 84.1732 15.8892 81.8744 16.0425 81.3628C16.3254 80.4182 17.4982 79.0695 18.446 78.5985C19.1233 78.2619 19.9259 78.233 31.0792 78.1433C42.7328 78.0497 43.0004 78.0391 43.5177 77.6526C44.8195 76.6802 44.8306 76.6329 44.8942 71.8085L44.9522 67.4164H46.4744H47.9968V73.0928C47.9968 76.9898 47.9238 79.0164 47.7639 79.5578C47.453 80.61 45.8663 82.1968 44.8141 82.5077C44.3469 82.6458 42.841 82.7406 41.1182 82.7406C38.2864 82.7406 38.1983 82.7529 37.7405 83.2109L37.2703 83.6809V89.3406V95H38.8026H40.335V90.4253V85.8507L42.7772 85.7738C45.0296 85.7028 45.3188 85.6503 46.4989 85.0971C48.2742 84.2648 49.3869 83.1775 50.2503 81.4311L50.9658 79.9843L51.0253 73.4792L51.0851 66.9741L51.5277 66.6258C52.5556 65.8175 52.5939 65.515 52.5939 58.2218C52.5939 50.9156 52.5569 50.6273 51.5161 49.8086C51.1207 49.4975 51.0615 49.2883 51.0615 48.2024V46.9539L51.8756 46.8181C53.1009 46.6135 55.1698 45.8318 57.0789 44.852C66.6933 39.9172 71.549 28.6573 68.5684 18.2087C67.5997 14.8124 65.5975 11.3191 63.1314 8.72239C59.615 5.01948 54.9018 2.55093 49.913 1.7989C48.2387 1.54643 45.4652 1.47651 44.0701 1.65159ZM87.9204 3.78626C89.6487 4.59519 90.7669 5.69509 91.6241 7.4296C92.3089 8.81491 92.3393 8.95953 92.3338 10.8025C92.329 12.4113 92.2527 12.8969 91.8696 13.7558L91.4113 14.7837L90.9552 13.8865C90.7043 13.3928 90.1147 12.6205 89.6447 12.1703L88.7904 11.3516L89.0804 10.6571C89.7349 9.09094 89.3173 7.39665 87.9342 6.00483C86.8401 4.90378 85.5487 4.44463 84.1678 4.66549C81.3029 5.12368 79.4248 8.16382 80.4666 10.6571L80.7566 11.3516L79.9023 12.1703C79.4322 12.6205 78.8427 13.3928 78.5917 13.8865L78.1357 14.7837L77.6773 13.7558C77.2948 12.8981 77.218 12.4109 77.2132 10.8124C77.2078 9.05301 77.2569 8.79269 77.8137 7.61732C78.5833 5.99257 79.6791 4.80321 81.1085 4.04141C82.6172 3.23727 83.4428 3.05529 85.2043 3.13919C86.3539 3.19398 86.9663 3.33975 87.9204 3.78626ZM49.6249 4.86911C57.5515 6.15941 63.7428 11.8746 65.8367 19.8344C66.4575 22.1949 66.4658 26.9038 65.8526 29.1416C64.3458 34.6416 61.3611 38.7163 56.7849 41.5207C50.2279 45.5385 41.7032 45.3113 35.2355 40.946C33.9158 40.0553 31.6358 37.8494 30.521 36.3848C28.6486 33.9248 26.7353 29.0718 26.7353 26.7826V26.0409H35.5464H44.3575V24.5085V22.976H35.4824H26.6072L26.7698 21.7788C27.3163 17.7547 29.1593 13.9332 32.0028 10.9287C36.6401 6.02896 43.1011 3.80714 49.6249 4.86911ZM44.3575 7.77669C37.6041 8.80188 32.3298 13.2614 30.3574 19.6139C30.1628 20.2407 30.0354 20.7853 30.0743 20.8239C30.1726 20.9222 32.3217 21.4285 32.6732 21.4363C32.8615 21.4404 33.1463 20.9167 33.4995 19.9166C34.7639 16.3364 37.7394 13.1967 41.1983 11.793C47.3829 9.28307 54.3188 11.435 57.9753 16.9982C62.1438 23.3404 60.3555 31.8438 53.9744 36.0231C48.3719 39.6925 41.0476 38.8102 36.4614 33.9135C35.0487 32.4052 33.9893 30.669 33.416 28.923C33.1896 28.2334 32.9837 27.6438 32.9584 27.6132C32.8904 27.5304 30.3005 28.1809 30.1513 28.3181C29.9092 28.5407 31.0983 31.6126 32.0281 33.1659C34.259 36.8937 37.9794 39.662 42.3462 40.8439C44.553 41.4412 48.4027 41.4335 50.6472 40.8274C56.7125 39.1895 61.145 34.7391 62.7992 28.6269C63.3534 26.579 63.3827 22.5744 62.858 20.5977C61.0801 13.9006 55.9852 9.12484 49.3376 7.92457C48.002 7.68341 45.4676 7.60813 44.3575 7.77669ZM85.5259 7.93204C86.4457 8.40767 86.5907 9.49148 85.8356 10.2464C84.9054 11.1768 83.2411 10.5243 83.2411 9.22962C83.2411 8.62776 83.5171 8.19351 84.1031 7.87304C84.6197 7.59031 84.8867 7.60142 85.5259 7.93204ZM44.9321 13.339C41.9382 13.839 39.2388 15.4237 37.5271 17.6861C36.5438 18.9862 35.6337 20.8462 35.8714 21.0703C35.9561 21.1498 36.6018 21.3858 37.3065 21.5946L38.5877 21.974L39.1139 20.8948C39.4033 20.3012 40.1197 19.3358 40.7058 18.7496C43.9851 15.4702 48.9547 15.4871 52.2652 18.7887C55.5008 22.0154 55.4653 27.0188 52.184 30.3095C48.9829 33.5195 43.9372 33.5011 40.7058 30.2679C40.1197 29.6814 39.4041 28.7173 39.1156 28.1256L38.591 27.0496L37.3082 27.4325C36.6026 27.6432 35.9576 27.8762 35.8749 27.9501C35.6473 28.1539 36.4171 29.7971 37.358 31.1157C38.6802 32.9686 40.4392 34.266 42.769 35.1063C47.9817 36.9868 53.9803 34.5801 56.4204 29.6298C58.1544 26.1116 58.1587 22.9144 56.4342 19.4153C55.3941 17.3049 53.6677 15.5785 51.5574 14.5383C49.3541 13.4522 46.9065 13.0093 44.9321 13.339ZM87.0645 14.065C88.0589 14.5791 88.4128 15.2346 88.4128 16.5613V17.757L87.4072 18.1978C85.9842 18.8215 83.5627 18.8215 82.1397 18.1978L81.1341 17.757V16.578C81.1341 15.2597 81.3998 14.7306 82.3537 14.1489C83.1273 13.6771 86.2085 13.6223 87.0645 14.065ZM44.8327 19.0973C43.023 19.7279 43.0354 19.6999 43.973 21.0366C44.4256 21.6819 44.8568 22.2098 44.9313 22.2098C45.0056 22.2098 45.3401 22.1144 45.6745 21.9978C47.6147 21.3214 49.5805 23.2609 48.9814 25.2605C48.572 26.6269 46.9973 27.4802 45.7121 27.0322C45.1489 26.8358 45.1319 26.8502 44.3755 28.1623L43.6093 29.4911L44.3186 29.8066C45.4431 30.3066 47.6779 30.2422 48.8507 29.6762C50.0592 29.0927 51.0485 28.1033 51.632 26.8948C51.9901 26.1524 52.0903 25.6315 52.0903 24.5085C52.0903 22.8284 51.6003 21.5994 50.4869 20.4859C49.0342 19.0331 46.6774 18.4544 44.8327 19.0973ZM12.1254 23.0191C12.8918 23.7804 13.5187 24.4981 13.5187 24.6142C13.5187 24.7301 12.8391 25.4865 12.0083 26.2951L10.498 27.7649H8.17745C6.90118 27.7649 5.85688 27.7076 5.85688 27.6375C5.85688 27.5674 6.37405 26.9715 7.00615 26.3131C8.51591 24.7408 8.51342 24.4652 6.97569 22.8636L5.79616 21.6352H8.26422H10.7323L12.1254 23.0191ZM75.5793 32.1706V33.703H77.1117H78.644V32.1706V30.6382H77.1117H75.5793V32.1706ZM72.3895 41.1807C66.2691 42.2716 62.2215 48.2678 63.6148 54.1795C64.0571 56.0555 65.1334 57.9469 66.5692 59.3711C70.7144 63.4824 77.4015 63.4824 81.5191 59.3711C85.1432 55.7527 85.7862 50.2271 83.075 46.0021C82.3272 44.8368 80.5622 43.1343 79.4102 42.4675C77.4522 41.3341 74.5317 40.7989 72.3895 41.1807ZM76.7152 44.5987C80.8746 46.1793 82.7996 50.8336 81.0349 55.0426L80.7213 55.7902L80.1798 54.842C79.882 54.3204 79.2893 53.5784 78.8626 53.193L78.0868 52.4921L78.3898 51.6027C79.234 49.1251 77.6016 46.3568 74.9461 45.7624C71.5902 45.0114 68.5804 48.4302 69.7297 51.6879L70.0096 52.4812L69.1386 53.284C68.6597 53.7255 68.0663 54.4783 67.8204 54.957L67.3729 55.8274L67.0692 55.1118C65.1064 50.488 67.7386 45.2437 72.5232 44.2453C73.6589 44.0084 75.5898 44.1712 76.7152 44.5987ZM9.68778 45.9624V47.4948H11.2201H12.7525V45.9624V44.43H11.2201H9.68778V45.9624ZM47.9968 48.2611V49.0273H46.4644H44.9321V48.2611V47.4948H46.4644H47.9968V48.2611ZM75.1483 49.3408C75.6854 49.9316 75.6967 50.5503 75.1822 51.2043C74.8761 51.5937 74.6164 51.709 74.0469 51.709C72.7994 51.709 72.1177 50.4453 72.8224 49.4393C73.4455 48.5497 74.3927 48.5095 75.1483 49.3408ZM49.5292 58.2218V64.3515H46.4644H43.3997V58.2218V52.0921H46.4644H49.5292V58.2218ZM76.1472 55.024C77.1933 55.3843 77.7147 56.3274 77.6465 57.7355L77.5905 58.8922L76.3455 59.3165C75.654 59.552 74.6319 59.7406 74.0469 59.7406C73.462 59.7406 72.4399 59.552 71.7484 59.3165L70.5034 58.8922L70.4474 57.7355C70.3442 55.601 71.3303 54.7955 74.0469 54.7955C74.8371 54.7955 75.7822 54.8984 76.1472 55.024ZM30.5597 64.6547C32.0057 65.084 33.425 66.5297 33.9037 68.0604C35.5801 73.4225 29.0513 77.4005 25.0752 73.4394C22.9354 71.3078 22.9463 68.1286 25.1007 65.9722C26.607 64.4643 28.4341 64.0234 30.5597 64.6547ZM90.9029 81.2082V82.7406H92.4353H93.9676V81.2082V79.6758H92.4353H90.9029V81.2082ZM18.8819 88.8703V95H20.4143H21.9467V88.8703V82.7406H20.4143H18.8819V88.8703Z" fill="#FF7451"/>
</svg>
