<svg width="96" height="95" viewBox="0 0 96 95" fill="none" xmlns="http://www.w3.org/2000/svg">
<path fill-rule="evenodd" clip-rule="evenodd" d="M13.4196 0.159822C11.8818 0.626883 10.6178 1.87015 10.1777 3.34927C9.97695 4.02453 9.88845 5.10561 9.88845 6.88609V9.45019H7.31955C5.53574 9.45019 4.45263 9.53851 3.77611 9.73892C2.6441 10.0746 1.49202 11.0332 0.904912 12.1282L0.5 12.8831V52.2223V91.5615L0.901937 92.3038C1.37582 93.1787 2.28734 94.0739 3.19569 94.5561C3.81905 94.8872 4.84063 94.9037 27.515 94.9508L51.1835 95L51.7297 94.4548C52.4377 93.748 52.4386 93.087 51.7325 92.3823L51.1891 91.8399H27.9217H4.65434L4.11093 91.2975L3.56751 90.7551V52.247V13.7389L4.01612 13.2182L4.4649 12.6975L24.6445 12.6487L44.8243 12.5999L44.8784 20.4423C44.9312 28.1055 44.9418 28.3022 45.3398 29.0446C45.5638 29.4625 46.0597 30.0784 46.4417 30.4132C47.8416 31.6397 47.6841 31.6191 56.1178 31.6807L63.7707 31.7366L63.833 33.8466C63.8901 35.78 63.933 35.9969 64.346 36.435C64.947 37.0728 65.8805 37.0828 66.5064 36.4579C66.9567 36.0086 66.9628 35.9587 66.9628 32.7039V29.4054L57.0181 19.4741L47.0734 9.54297L30.0476 9.49379L13.0216 9.44443L13.0816 6.74023C13.1419 4.03845 13.1424 4.03548 13.6635 3.58846L14.1852 3.14107H34.7669H55.3487L64.4092 12.1917L73.4697 21.2423V27.5128C73.4697 31.1721 73.5442 33.9221 73.6485 34.1168C73.9549 34.6882 74.8608 34.957 75.5375 34.6772C76.5807 34.246 76.6301 33.8943 76.6301 26.911C76.6301 22.9808 76.5569 20.4114 76.4357 20.0857C76.2161 19.496 57.4784 0.66548 56.7006 0.252789C56.2723 0.0256606 53.0878 -0.0110807 35.0421 0.00246534C23.406 0.0111868 13.6758 0.0820716 13.4196 0.159822ZM60.2256 28.5266C59.4833 28.5575 56.6305 28.5575 53.8863 28.5266L48.8968 28.4703L48.4484 27.9496L48 27.429V21.1775V14.9261L54.7878 21.6982L61.5757 28.4703L60.2256 28.5266ZM20.8571 17.7081C13.0692 19.2798 7.35841 25.7813 6.79398 33.7188C6.36806 39.7084 9.40695 45.8193 14.5362 49.2878C17.7959 51.4919 22.0925 52.5517 26.0048 52.1162C33.3914 51.2941 39.3645 46.0589 41.1535 38.839C41.7261 36.5282 41.7261 33.0307 41.1535 30.7199C39.5095 24.0853 34.0251 18.9053 27.364 17.6955C25.6257 17.3798 22.4534 17.3859 20.8571 17.7081ZM27.8288 21.0343C28.4423 21.1961 29.739 21.7172 30.7104 22.1924C32.2237 22.9326 32.7308 23.311 34.2533 24.8355C35.7651 26.3493 36.1594 26.8775 36.8976 28.3775C38.0574 30.7331 38.4018 32.2217 38.4011 34.8722C38.4007 36.515 38.305 37.3454 37.9856 38.4801C37.5072 40.1788 36.3479 42.5053 35.4812 43.5061L34.8839 44.196L34.1116 42.6423C33.357 41.1242 31.9798 39.4482 30.8314 38.6508L30.3017 38.2829L30.7767 37.5842C32.1132 35.6186 32.4782 32.7219 31.6589 30.5822C31.0601 29.0185 29.9429 27.5885 28.6431 26.7221C27.0548 25.6635 25.8512 25.3492 23.7395 25.4414C22.2777 25.5052 21.8512 25.6028 20.8185 26.1102C16.4738 28.2452 14.9671 33.6672 17.6303 37.5842L18.1053 38.2829L17.5756 38.6508C16.4273 39.4482 15.0501 41.1242 14.2955 42.6423L13.5232 44.196L12.9259 43.5061C12.0629 42.5096 10.902 40.1839 10.4172 38.4801C10.0898 37.3296 9.9987 36.538 10.0022 34.8722C10.008 32.2166 10.3562 30.7182 11.5116 28.3775C12.2389 26.9044 12.6581 26.3371 14.0632 24.9255C16.3031 22.6752 18.4842 21.4657 21.4149 20.8489C22.9261 20.5309 26.2876 20.6281 27.8288 21.0343ZM26.1556 28.9162C28.6235 30.061 29.6527 33.1407 28.3445 35.4657C27.256 37.3996 25.2617 38.3222 23.1767 37.8564C21.0637 37.3846 19.5134 35.4748 19.5037 33.3317C19.4976 31.9402 19.8841 30.9554 20.8198 29.9791C21.7871 28.9697 22.7449 28.5713 24.2035 28.5713C24.9907 28.5713 25.6711 28.6915 26.1556 28.9162ZM72.1051 38.209C65.9184 39.3296 60.7558 43.6046 58.601 49.3919C57.793 51.5613 57.6339 52.679 57.5372 56.8614L57.4429 60.9437L56.5405 61.7398C55.9651 62.2475 55.4165 62.9853 55.0261 63.7767L54.4139 65.0178L54.3609 77.1682C54.3096 88.9497 54.3195 89.3565 54.6876 90.5656C55.1668 92.1405 56.4559 93.6244 58.0038 94.3832L59.0616 94.9016H74.9569H90.8523L91.7292 94.4973C92.9588 93.9302 94.3808 92.5372 94.9865 91.3064L95.5 90.2626V77.6404V65.0185L94.8878 63.7771C94.497 62.9847 93.9491 62.2479 93.373 61.7398L92.4706 60.9437L92.3812 56.7686C92.2802 52.0442 92.0599 50.8718 90.7494 48.0761C88.4968 43.2717 84.5653 39.993 79.3258 38.5495C77.8439 38.1411 73.5873 37.9405 72.1051 38.209ZM22.5303 40.9106C23.8968 41.2576 25.2316 41.1899 26.7642 40.6959L27.741 40.381L28.7626 41.0832C30.4265 42.227 31.8124 44.4344 31.8844 46.0551L31.9188 46.8315L30.5245 47.5348C26.6235 49.5023 21.8006 49.504 17.8844 47.5395C17.0752 47.1334 16.4661 46.7054 16.4303 46.5172C16.3144 45.9104 16.9478 44.2003 17.7114 43.0592C18.5855 41.7525 20.3567 40.3582 20.9501 40.5092C21.1546 40.5612 21.8657 40.7419 22.5303 40.9106ZM78.954 41.7367C81.4582 42.5246 83.0719 43.5128 85.0041 45.4413C86.3727 46.8074 86.9543 47.5526 87.5483 48.7016C88.8576 51.2349 89.1166 52.4457 89.2231 56.5366L89.3161 60.1087H87.7366H86.1569L86.0658 56.7222C85.9914 53.9592 85.9026 53.1136 85.5832 52.1295C83.7713 46.5454 77.8999 43.2676 72.2791 44.7024C68.5315 45.6592 65.6224 48.3752 64.4233 52.0367C63.9951 53.3446 63.9265 53.9133 63.8468 56.815L63.7562 60.1087H62.1747H60.5932L60.6934 56.6294C60.8012 52.8866 61.0204 51.6567 61.9462 49.599C63.8128 45.4506 67.7511 42.3417 72.3682 41.3714C73.8013 41.0702 77.4848 41.2745 78.954 41.7367ZM76.8755 47.7679C78.9979 48.3196 80.4432 49.3719 81.6683 51.257C82.6378 52.7487 82.9511 54.2733 82.9511 57.501V60.1087H74.9569H66.9628L66.9665 57.8356C66.9734 53.5188 67.5105 51.7454 69.3756 49.8796C71.4382 47.8159 74.1375 47.0561 76.8755 47.7679ZM7.66311 57.1915C6.64154 57.7075 6.47589 58.9447 7.32308 59.7324C7.7239 60.1054 7.89903 60.1087 26.5374 60.1087C45.2852 60.1087 45.3487 60.1074 45.8369 59.724C46.3283 59.3382 46.488 58.517 46.2114 57.7975C45.8817 56.9402 46.2011 56.954 26.5832 56.9569C12.19 56.959 8.02117 57.0107 7.66311 57.1915ZM90.2603 63.5321C91.1867 63.8619 91.6643 64.302 92.0828 65.2117C92.4026 65.9066 92.4245 66.6971 92.4284 77.6039C92.4317 86.9759 92.3834 89.3711 92.1813 89.854C91.8478 90.6508 90.729 91.6092 89.9731 91.746C89.6386 91.8065 82.6657 91.8315 74.4777 91.8016L59.5902 91.7471L58.8874 91.2119C57.4398 90.1097 57.4896 90.5964 57.4896 77.5516C57.4896 66.6904 57.5113 65.9068 57.8311 65.2117C58.2496 64.302 58.7272 63.8619 59.6536 63.5321C60.7003 63.1595 89.2136 63.1595 90.2603 63.5321ZM7.20931 65.5043C6.57777 66.2534 6.59729 66.8726 7.274 67.5481L7.82002 68.0931L26.7181 68.0441L45.6161 67.9951L45.9715 67.557C46.4781 66.9324 46.4324 65.9496 45.8704 65.3889L45.4142 64.9333H26.5523H7.69063L7.20931 65.5043ZM73.0724 68.3675C69.1593 69.6204 67.386 74.4696 69.6323 77.7739C70.0264 78.3534 70.0826 78.6839 70.1649 80.9091C70.2754 83.8841 70.5273 84.6348 71.7983 85.7755C72.7692 86.6467 73.7167 87.0158 74.9785 87.0141C76.3987 87.0125 77.2126 86.6716 78.2368 85.6495C79.4766 84.4127 79.7906 83.4079 79.7906 80.6788C79.7906 78.7139 79.8033 78.6549 80.4878 77.4187C81.1563 76.2116 81.1849 76.0873 81.184 74.397C81.1833 72.8292 81.126 72.5256 80.6664 71.6536C79.5387 69.5136 77.6002 68.2614 75.246 68.1523C74.4327 68.1146 73.6069 68.1964 73.0724 68.3675ZM76.4517 71.6698C78.3474 72.6703 78.6504 75.1255 77.0864 76.8093C76.6814 77.2452 76.6517 77.4436 76.5963 80.0886C76.54 82.7731 76.5162 82.9264 76.0865 83.3823C75.532 83.9707 74.6467 84.0156 73.9763 83.4892C73.5119 83.1246 73.5018 83.0648 73.4399 80.2882L73.3767 77.4588L72.6872 76.5731C71.5531 75.1166 71.5195 73.6373 72.5924 72.4176C73.671 71.1912 75.0419 70.9257 76.4517 71.6698ZM7.34186 73.191C6.84659 73.5373 6.6512 74.3569 6.90497 75.0233C7.31881 76.1096 6.66942 76.0769 26.8847 76.0233L45.3673 75.9743L45.8472 75.5245C46.4843 74.9268 46.5075 73.8889 45.8966 73.3159L45.4662 72.9125H26.6033C10.1301 72.9125 7.6897 72.9478 7.34186 73.191ZM7.66311 80.9435C6.64154 81.4595 6.47589 82.6966 7.32308 83.4844C7.71833 83.8521 7.94198 83.8607 17.0895 83.8607H26.4514L26.9076 83.4051C27.5473 82.7668 27.514 81.9407 26.8206 81.2485L26.2772 80.7061L17.1997 80.7089C10.3123 80.711 8.01151 80.7675 7.66311 80.9435Z" fill="#FF7451"/>
</svg>
