<svg width="96" height="95" viewBox="0 0 96 95" fill="none" xmlns="http://www.w3.org/2000/svg">
<path fill-rule="evenodd" clip-rule="evenodd" d="M18.8887 21.1716V42.3448L14.0127 50.1496L9.13672 57.9559L14.6475 71.3391C19.1407 82.2522 19.9132 85.4139 18.835 88.4732C18.1066 90.5365 17.5117 92.8491 17.5117 93.6121C17.5117 94.3751 22.4689 95 28.5278 95H39.5439V87.826C39.5439 83.8791 39.9308 80.2349 40.4031 79.7258C40.8755 79.2152 43.792 80.1904 46.8861 81.8915C50.6109 83.9399 52.6833 84.4209 53.0262 83.312C54.2779 79.2656 56.068 82.2136 56.068 88.3203V95H67.0841C73.143 95 78.1002 94.3751 78.1002 93.6121C78.1002 92.8491 77.5053 90.5365 76.7769 88.4732C75.6987 85.4139 76.4712 82.2507 80.9713 71.3242L86.4876 57.9262L81.0525 49.2991C76.7976 42.5437 75.9135 40.1004 76.9835 38.0386C78.0148 36.0525 77.7477 34.9318 75.8915 33.4697C73.5354 31.6112 73.5368 31.3619 75.9493 27.3941C78.9429 22.4675 78.8947 22.4126 63.9858 13.7082C55.9345 9.00719 54.691 7.72766 54.691 4.14141V0H36.7899H18.8887V21.1716ZM51.937 31.1719V59.375H45.0519C41.2652 59.375 38.1669 58.707 38.1669 57.8906C38.1669 57.0742 39.3346 56.4062 40.7598 56.4062C42.196 56.4062 43.6749 55.0807 44.0743 53.4375C44.4695 51.8047 45.7817 50.4688 46.988 50.4688C48.8828 50.4688 49.183 47.8533 49.183 31.3455C49.183 13.4692 49.0026 12.1704 46.4289 11.4445C44.9142 11.0185 43.6749 9.60391 43.6749 8.30359C43.6749 6.45406 42.1712 5.9375 36.7899 5.9375C31.4085 5.9375 29.9048 6.45406 29.9048 8.30359C29.9048 9.60391 28.6655 11.0185 27.1508 11.4445C24.5771 12.1704 24.3968 13.4692 24.3968 31.3455C24.3968 47.3545 24.7327 50.4688 26.4623 50.4688C27.8393 50.4688 28.5278 51.9531 28.5278 54.9219C28.5278 58.6818 27.9921 59.375 25.0853 59.375H21.6427V31.1719V2.96875H36.7899H51.937V31.1719ZM43.2425 12.1333C46.1866 15.1169 46.4276 16.5523 46.4055 31.0591C46.3821 45.8835 46.188 46.9552 42.9189 50.298C41.0145 52.2455 39.3222 53.5815 39.1569 53.2668C38.9903 52.9521 38.149 51.3594 37.2856 49.7266C36.1564 47.592 34.5123 46.8632 31.4333 47.1348L27.1508 47.5119V31.6439C27.1508 17.3969 27.4565 15.4271 30.1444 12.3411C33.9036 8.02899 39.1074 7.94734 43.2425 12.1333ZM73.9595 24.2517C73.9802 27.0542 63.8771 44.6886 61.4453 46.0913C57.7659 48.214 58.073 47.1527 64.5187 35.4543C70.9274 23.8272 70.937 23.8598 59.8548 18.4137C57.0154 17.0184 54.691 14.9373 54.691 13.7898C54.691 12.3352 57.6117 13.4158 64.3205 17.3538C69.6178 20.4636 73.9554 23.5674 73.9595 24.2517ZM60.8091 22.4126C63.5025 24.1255 65.7071 25.8979 65.7071 26.3521C65.7071 27.6569 56.0019 46.0156 55.312 46.0156C54.9705 46.0156 54.691 40.0039 54.691 32.6562C54.691 25.3086 54.965 19.2969 55.301 19.2969C55.6356 19.2969 58.1143 20.6981 60.8091 22.4126ZM29.9048 28.2031C27.8241 32.3935 30.4969 37.4389 34.4737 36.8288C36.593 36.5037 37.6064 35.1648 37.9135 32.2852C38.1531 30.0408 39.0055 28.2031 39.8069 28.2031C40.6923 28.2031 40.9402 29.9517 40.4389 32.6562C39.5012 37.7076 41.4579 38.6056 43.6749 34.1406C45.7556 29.9502 43.0828 24.9048 39.106 25.5149C36.9868 25.84 35.9733 27.1789 35.6662 30.0586C35.4266 32.303 34.5743 34.1406 33.7728 34.1406C32.8874 34.1406 32.6396 32.392 33.1408 29.6875C34.0785 24.6362 32.1218 23.7381 29.9048 28.2031ZM73.9072 36.7383C73.7241 40.0143 67.3857 50.7107 66.5209 49.2026C65.4744 47.3783 70.9494 35.625 72.8455 35.625C73.4638 35.625 73.9416 36.1252 73.9072 36.7383ZM79.1619 51.3935L83.3026 58.2573L77.9061 71.3658C74.0848 80.6431 72.7657 85.5772 73.3881 88.252C74.2501 91.957 74.1206 92.0312 66.7068 92.0312H59.1456L58.2079 81.2428C57.6351 74.6581 57.8402 68.8379 58.7339 66.3026C59.5395 64.0196 60.1991 59.188 60.1991 55.5676C60.1991 50.7048 60.7388 48.9844 62.2646 48.9844C63.8041 48.9844 64.3411 50.779 64.3742 56.0352C64.4168 63.0043 66.6614 68.2812 69.582 68.2812C70.4895 68.2812 70.1755 66.5683 68.7902 63.9662C66.5925 59.8396 66.6352 59.3245 69.7775 52.0912C71.5842 47.9334 73.5037 44.5312 74.0422 44.5312C74.5792 44.5312 76.8843 47.6202 79.1619 51.3935ZM23.0955 62.3438C27.4248 62.3438 28.1656 63.6248 25.4984 66.5C24.2136 67.8849 24.2563 68.2812 25.6911 68.2812C28.9326 68.2812 31.1923 63.2923 31.2378 56.0352C31.2708 50.779 31.8078 48.9844 33.3473 48.9844C34.8731 48.9844 35.4129 50.7048 35.4129 55.5676C35.4129 59.188 36.0724 64.0196 36.878 66.3026C37.7717 68.8379 37.9768 74.6581 37.404 81.2428L36.4663 92.0312H28.9051C21.4913 92.0312 21.3618 91.957 22.2238 88.252C22.8462 85.5772 21.5284 80.6461 17.7114 71.3791L12.3204 58.284L15.2603 53.2623L18.2002 48.2422L18.6202 55.293C19.0195 62.0053 19.2343 62.3438 23.0955 62.3438ZM56.2002 58.9609C54.994 61.1963 54.7681 60.8995 54.7323 57.0252C54.7103 54.5077 55.1551 51.9398 55.7238 51.3178C57.3679 49.5173 57.7741 56.0455 56.2002 58.9609ZM43.2012 64.8583C46.5487 67.2229 46.8655 67.2229 48.4683 64.8583C49.4074 63.4763 51.2072 62.3438 52.4685 62.3438C54.5726 62.3438 54.5864 62.7104 52.6255 66.7969C51.4509 69.2461 49.9362 71.25 49.2587 71.25C47.1188 71.25 39.6155 66.1334 38.9201 64.1992C38.0278 61.7173 38.9559 61.8598 43.2012 64.8583ZM54.691 72.4509C54.691 73.9278 53.8882 76.3191 52.9064 77.7664C51.2003 80.2824 50.9001 80.2824 46.0213 77.7753C43.2164 76.3325 40.9209 74.2752 40.9209 73.202C40.9209 70.7468 42.0927 70.8047 46.4289 73.4766C51.0006 76.2939 51.5982 76.2227 52.6255 72.7344C53.7133 69.0383 54.691 68.9047 54.691 72.4509Z" fill="#FF7451"/>
</svg>
