<svg width="100" height="89" viewBox="0 0 100 89" fill="none" xmlns="http://www.w3.org/2000/svg">
<path fill-rule="evenodd" clip-rule="evenodd" d="M73.097 3.41319C72.6965 3.50579 70.3536 4.39622 67.8905 5.39193C62.5052 7.56857 61.9091 8.0439 62.9441 9.33579C63.2247 9.68613 63.5245 9.83478 63.9507 9.83478C64.2847 9.83478 66.5563 9.00874 68.9987 7.99901C75.2209 5.42697 73.7287 5.2518 84.969 9.87379C89.9316 11.9143 94.2783 13.7766 94.6281 14.0121C95.3894 14.5242 96.0387 15.412 96.2956 16.2914C96.5939 17.3125 96.5472 78.4157 96.2475 79.4069C95.9375 80.4318 94.5155 81.8282 93.4719 82.1327C93.0353 82.26 91.8904 82.3641 90.9276 82.3641C89.3716 82.3641 89.1188 82.4132 88.6539 82.8059C87.9798 83.3754 87.9586 84.3722 88.6094 84.8898C88.9974 85.1985 89.3408 85.2327 91.4697 85.1754C93.7415 85.114 93.9665 85.0725 95.1582 84.4963C96.6866 83.757 98.0411 82.402 98.7625 80.8904L99.2793 79.8076L99.331 48.1825C99.3817 17.0453 99.3767 16.5385 98.9977 15.3266C98.5631 13.9356 97.5362 12.5112 96.3868 11.7046C95.4955 11.0793 78.1203 3.90688 76.4801 3.48742C75.2739 3.17875 74.2112 3.15546 73.097 3.41319ZM55.6615 10.3919C53.4104 11.3259 52.3538 12.0429 51.4527 13.2482C49.9725 15.2287 50.0101 14.7838 50.0101 30.3038V44.1111H47.0212C45.3773 44.1111 44.0322 44.0878 44.0322 44.0594C44.0322 44.031 44.2482 43.1716 44.5122 42.1497C45.5849 37.9962 45.5925 32.7673 44.5325 27.919C43.5654 23.4957 42.9397 22.1244 41.3713 20.992C39.1692 19.4015 36.4184 19.5372 34.3799 21.3372C32.8739 22.6668 32.4664 23.6714 32.4641 26.0598C32.4605 29.687 31.8388 32.3872 30.4993 34.5925C29.5068 36.2266 27.0968 38.4727 23.3022 41.3C21.3933 42.7224 19.3109 44.3349 18.6745 44.8837L17.5175 45.8811L17.4606 44.6244C17.4113 43.5325 17.3382 43.317 16.9043 42.9818C16.4217 42.609 16.1582 42.5961 8.99811 42.5961H1.59115L1.11794 43.061L0.644531 43.5257V64.1549C0.644531 84.181 0.65533 84.797 1.01304 85.231L1.38154 85.6781L8.88511 85.7317C18.1344 85.7978 17.4211 86.0353 17.4211 82.8912V80.7944L18.6722 80.9092C20.4212 81.0696 22.2715 81.7545 24.0502 82.9002C26.5674 84.5218 25.7566 84.4465 40.741 84.4535C53.3114 84.4593 54.0155 84.4777 55.0238 84.826C56.0341 85.175 56.7439 85.1926 70.0026 85.1985L83.921 85.2047L84.3205 84.7057C84.5404 84.4313 84.7203 84.0944 84.7203 83.9571C84.7203 83.4564 84.2806 82.7796 83.8223 82.5743C83.4937 82.4274 79.6985 82.3641 71.2111 82.3641H59.07L59.6983 81.2752C60.2801 80.267 60.3267 80.0587 60.3267 78.4663C60.3267 76.9087 60.2695 76.637 59.7203 75.5903L59.1138 74.4344L59.8545 73.9303C60.7055 73.3514 61.8231 71.8097 62.1608 70.7494C62.6348 69.2611 62.2478 66.9563 61.2795 65.4995C60.9596 65.0183 60.9645 65.0088 62.1058 63.8879C62.9505 63.0584 63.3442 62.4936 63.5957 61.7503C64.2176 59.9115 63.937 57.6195 62.9179 56.2142L62.5121 55.6544L63.4827 54.7975C64.9191 53.5291 65.5283 52.1806 65.5292 50.2666C65.5298 49.1141 65.4305 48.5384 65.115 47.8652C64.5276 46.6125 63.2634 45.3431 61.9932 44.7303C60.9276 44.2165 60.8233 44.2044 56.9039 44.1419L52.9026 44.0779L52.9038 30.5072C52.9044 21.1681 52.9713 16.7001 53.1182 16.1787C53.4661 14.945 54.8078 13.8091 56.9292 12.9526C58.4306 12.3462 58.7793 12.126 58.98 11.6571C59.2912 10.9305 59.0311 10.1524 58.3797 9.86092C57.7038 9.55849 57.6408 9.5708 55.6615 10.3919ZM72.3841 13.0043C71.0586 13.4637 69.5901 15.0124 69.1861 16.377C68.113 20.0023 70.6235 23.3646 74.4036 23.3646C78.1838 23.3646 80.6943 20.0023 79.6212 16.377C79.2014 14.9592 77.7541 13.4647 76.3441 12.9927C75.1769 12.6023 73.5303 12.607 72.3841 13.0043ZM75.8133 15.8996C76.9807 16.5986 77.334 18.1984 76.5692 19.3227C75.4291 20.9986 73.2422 20.9604 72.1776 19.2458C70.805 17.0349 73.5265 14.5303 75.8133 15.8996ZM39.0729 22.9717C40.0682 23.3881 40.5034 24.0218 41.0366 25.8304C42.0223 29.1742 42.3677 31.6135 42.3652 35.2106C42.3627 38.7962 42.0461 40.8429 41.0489 43.7181C40.4606 45.4147 40.437 46.0722 40.9469 46.5729C41.322 46.9412 41.5896 46.9516 50.6441 46.9516C59.9176 46.9516 59.9592 46.9533 60.8146 47.3777C62.8862 48.4054 63.3215 50.9606 61.6964 52.5565C60.8169 53.4202 59.9793 53.5774 56.2504 53.5785C53.3267 53.5794 52.8947 53.62 52.5062 53.9288C51.8706 54.4343 51.9111 55.4016 52.592 55.9767C53.0914 56.3986 53.2561 56.4202 55.9702 56.4202C58.6117 56.4202 58.8708 56.4518 59.4609 56.8463C61.5713 58.2567 61.6268 60.8697 59.5784 62.3737C59.1082 62.7189 58.6877 62.7752 55.9571 62.8589L52.8679 62.9535L52.3891 63.501C51.8366 64.1326 51.8951 64.8266 52.5465 65.368C52.8629 65.6309 53.3099 65.6994 54.7089 65.6994C56.8116 65.6994 57.6008 65.8935 58.3529 66.5952C59.1514 67.3405 59.459 68.0128 59.459 69.0134C59.459 70.0139 59.1464 70.6977 58.3674 71.4022C57.5235 72.1651 56.7315 72.3274 53.852 72.3274C51.2115 72.3274 51.1926 72.3305 50.7955 72.8264C50.3395 73.3957 50.3088 73.6371 50.6098 74.2861C50.9247 74.9648 51.5705 75.168 53.4129 75.168C55.3422 75.168 56.1415 75.4625 56.9147 76.4582C57.3571 77.0276 57.4342 77.3117 57.4342 78.3726C57.4342 79.8466 56.9805 80.634 55.7867 81.2323C55.063 81.5947 54.6069 81.6066 41.4654 81.6066C31.5661 81.6066 27.7142 81.5464 27.2362 81.3841C26.8758 81.2616 26.1035 80.8459 25.5202 80.4602C23.5486 79.1566 22.0646 78.5792 19.7301 78.2072C18.9374 78.0811 18.0935 77.9404 17.855 77.895L17.4211 77.812V69.213V60.6138L16.913 60.2215C16.2516 59.7104 15.8289 59.7261 15.1661 60.2859L14.625 60.7428L14.5724 71.8375L14.5195 82.9323H9.02839H3.53705V64.1845V45.4367H9.02395H14.5109L14.5679 50.5448C14.6235 55.5141 14.6366 55.6641 15.0481 56.0682C15.5678 56.578 16.5011 56.6111 17.0329 56.1384C17.3899 55.8212 17.4211 55.5591 17.4211 52.8839V49.9746L18.6286 48.7944C20.2174 47.2419 21.3497 46.3161 24.9417 43.6335C30.0333 39.8305 31.7873 38.1025 33.2997 35.3983C34.6453 32.9925 35.1181 31.0376 35.324 27.0271C35.4575 24.4298 35.4993 24.2064 35.9413 23.7364C36.8399 22.78 37.9609 22.5064 39.0729 22.9717ZM72.991 43.0343C72.6201 43.4221 72.5717 43.6842 72.5717 45.3067V47.141H71.8224C70.1731 47.141 68.042 48.8266 67.5669 50.5071C67.4572 50.8951 67.3689 52.1925 67.3706 53.3903C67.3731 55.1707 67.4452 55.7229 67.7657 56.4168C68.5222 58.0545 68.7902 58.2069 73.7287 59.8039C76.2406 60.6161 77.3675 61.0699 77.5372 61.3374C77.6762 61.5567 77.7779 62.3392 77.7775 63.1876C77.7767 64.8649 77.4161 65.6712 76.4465 66.1636C75.6453 66.5705 72.3907 66.5705 71.5894 66.1636C70.8875 65.8072 70.2595 64.8467 70.2585 64.1286C70.2575 63.4292 69.476 62.6695 68.7575 62.6695C68.4181 62.6695 68.0307 62.8503 67.7569 63.1367C67.3673 63.5438 67.3237 63.7355 67.4175 64.6274C67.6566 66.9014 69.5232 68.8672 71.7801 69.2215L72.5717 69.346V71.0952C72.5717 73.1915 72.9144 73.8424 74.018 73.8424C75.1216 73.8424 75.4642 73.1915 75.4642 71.0952V69.346L76.2533 69.2219C77.3887 69.0437 78.3573 68.5031 79.255 67.5469C80.3873 66.3403 80.7207 65.1953 80.6399 62.7901C80.5799 61.0051 80.5246 60.7599 79.9891 59.9101C79.2178 58.6862 78.5882 58.3651 74.2627 56.9893C71.7113 56.1778 70.5929 55.7345 70.4542 55.48C70.1891 54.9933 70.2037 51.5755 70.4731 51.058C70.9656 50.1122 71.3538 49.9903 73.883 49.9857C75.5657 49.9827 76.4091 50.06 76.7861 50.2514C77.3451 50.5353 77.7783 51.2536 77.7783 51.8967C77.7783 52.4957 78.0999 52.9396 78.7152 53.1899C79.1809 53.3793 79.3832 53.3683 79.8562 53.1282C80.1725 52.9676 80.4851 52.6983 80.551 52.5296C80.9004 51.6354 80.4081 49.8761 79.5088 48.8044C78.7981 47.958 77.1722 47.141 76.1978 47.141H75.4642V45.3675C75.4642 43.8601 75.4043 43.5191 75.0645 43.0951C74.5421 42.4429 73.5837 42.4149 72.991 43.0343Z" fill="#FF7451"/>
</svg>
