<svg width="96" height="95" fill="none" xmlns="http://www.w3.org/2000/svg"><g clip-path="url(#clip0_2301_6746)"><path fill-rule="evenodd" clip-rule="evenodd" d="M38.463.184c-3.701.659-6.969 2.463-9.34 5.156-1.954 2.22-2.524 4.021-1.997 6.312.173.751.256 1.514.185 1.694-.07.18-.78.944-1.576 1.698-1.809 1.712-2.688 3.31-2.844 5.174-.09 1.076.02 1.78.614 3.937l.722 2.626-.655 1.2c-.574 1.049-.654 1.39-.644 2.737.012 1.646.483 2.803 1.656 4.067.725.78 2.767 1.731 4.05 1.886l1.06.127.251.96c.755 2.882 3.102 5.592 6.04 6.975 1 .47 1.021.498.89 1.187-.345 1.823-.218 1.687-1.793 1.923-2.051.307-5.09 1.246-7.305 2.258-7.585 3.465-13.173 10.246-14.593 17.71-.188.992-.789 7.516-1.334 14.497L10.86 95h54.21V76.578l1.236 1.117c6.29 5.684 17.036 4.136 20.923-3.014 1.578-2.903 1.498-1.276 1.502-30.306l.003-26.007h-3.38v14.03l-.476-.116c-.261-.063-1.022-.116-1.69-.118l-1.215-.002V21.433h-3.38v11.065l-.642.241c-.812.305-2.183 1.707-2.474 2.53-.167.472-.228-.788-.244-5.071l-.021-5.7H71.83V36.76h1.69c2.025 0 2.137.192.687 1.173a6.183 6.183 0 00-1.638 1.717c-.546.895-.633 1.237-.633 2.475 0 2.059.74 3.21 3.043 4.728.126.083-1.537 12.897-1.674 12.897-.065 0-.51-.538-.988-1.197C68.284 53 61.624 48.99 54.568 47.864c-1.662-.265-1.53-.128-1.868-1.922-.128-.678-.115-.693 1.29-1.437 2.704-1.434 4.786-3.855 5.513-6.415l.367-1.29 1.064-.129c1.286-.155 3.327-1.105 4.053-1.886 1.165-1.256 1.64-2.421 1.654-4.062.012-1.358-.066-1.68-.676-2.806l-.69-1.272.743-4.075c.408-2.24.74-4.512.738-5.048-.01-2.739-1.345-5.558-3.591-7.584-1.17-1.054-2.45-1.808-8.377-4.927-3.848-2.025-7.507-3.865-8.13-4.088-2.35-.843-5.841-1.157-8.195-.739zm6.274 3.394c1.901.55 14.369 7.148 15.884 8.405 1.4 1.162 2.284 2.652 2.617 4.415.2 1.057.153 1.646-.356 4.514-.758 4.271-.643 3.976-1.465 3.762a6.33 6.33 0 00-1.319-.175c-.574 0-.703-.117-1.22-1.102-1.242-2.372-3.278-3.887-6.509-4.844-2.3-.682-3.042-1.067-4.1-2.13-.93-.933-1.535-2.096-1.718-3.306l-.133-.88h-3.323v.533c0 .293.126.972.279 1.508l.279.974-2.34.1c-3.532.15-5.949 1.061-8.167 3.077-1.461 1.326-2.612 3.099-3.078 4.739l-.367 1.291-1.068.151a35.37 35.37 0 01-1.266.163c-.233.015-1.163-3.176-1.169-4.01-.009-1.27.423-1.998 2.218-3.742 1.476-1.433 1.842-1.916 2.127-2.806.315-.981.317-1.204.019-2.55-.38-1.715-.249-2.52.598-3.68 1.736-2.38 4.412-4.049 7.604-4.745 1.286-.28 4.46-.101 5.973.338zm47.378 27.051v15.326h3.38V15.303h-3.38v15.326zM46.063 18.856c.958.924 2.723 1.822 4.761 2.42 2.225.653 3.384 1.332 4.465 2.618 1.24 1.473 1.368 2.272 1.291 8.04l-.068 5.134-.789 1.447c-.95 1.743-2.175 2.83-4.138 3.673l-1.412.606H39.398l-1.412-.606c-1.964-.844-3.188-1.93-4.138-3.674l-.79-1.447V24.21l.67-1.28c.849-1.625 2.057-2.814 3.634-3.576 1.681-.813 2.441-.945 5.538-.968 2.587-.018 2.67-.006 3.163.47zm-9.21 6.113c-1.049.95-.306 2.595 1.171 2.595.412 0 .845-.174 1.172-.47.327-.297.519-.69.519-1.063s-.192-.766-.52-1.062a1.789 1.789 0 00-1.17-.47c-.412 0-.846.173-1.172.47zm13.522 0c-1.048.95-.305 2.595 1.172 2.595.412 0 .845-.174 1.172-.47.327-.297.518-.69.518-1.063s-.191-.766-.519-1.062a1.788 1.788 0 00-1.171-.47c-.412 0-.845.173-1.172.47zm-20.802 5.66c0 3.382.028 3.321-1.338 2.804a2.977 2.977 0 01-.046-5.6c1.405-.555 1.384-.599 1.384 2.796zm32.314-2.524c1.036.693 1.387 1.332 1.387 2.524 0 .834-.112 1.257-.436 1.65-.607.737-1.346 1.198-2.153 1.341l-.686.122v-6.226l.686.122c.378.067.919.277 1.202.467zm-12.12 6.254c-.174.835-1.053 1.798-1.954 2.14-.493.186-1.743.26-4.394.26h-3.704v3.1l4.278-.065 4.279-.065 1.331-.654c.733-.36 1.57-.912 1.86-1.225.795-.856 1.505-2.237 1.673-3.252l.15-.904h-3.383l-.138.665zm35.068 1.338c.519.47.519.471.519 4.598v4.128h-4.09c-3.906 0-4.12-.02-4.803-.437-.934-.57-1.288-1.211-1.17-2.117.122-.93.569-1.372 2.086-2.068l1.215-.556v-1.539c0-1.378.054-1.588.52-2.009.487-.442.655-.47 2.861-.47 2.206 0 2.374.028 2.862.47zM49.294 46.23c.064.15.174.776.246 1.389l.13 1.114-2.39 2.721c-1.313 1.496-2.436 2.72-2.495 2.72-.058 0-1.18-1.224-2.494-2.72l-2.39-2.72.13-1.115c.21-1.803-.189-1.663 4.755-1.663 3.617 0 4.412.048 4.508.274zm36.06 12.552c0 7.535-.078 11.632-.235 12.309-1.106 4.791-6.71 7.984-11.874 6.764-3.174-.75-5.133-2.32-6.972-5.59l-1.203-2.14v-8.843h-3.381v30.653h-6.681c-5.314 0-6.64-.05-6.478-.24.112-.131 1.217-1.39 2.456-2.798 1.238-1.408 2.251-2.707 2.251-2.887 0-.18-.75-4.742-1.669-10.138-1.652-9.714-1.665-9.822-1.33-10.77l.337-.958 1.958 1.768c1.077.972 1.993 1.73 2.035 1.682.042-.047.384-3.232.76-7.078s.738-7.484.804-8.083l.12-1.09 1.715.566c5.614 1.854 10.504 5.932 13.115 10.934 1.454 2.785 1.514 3.12 1.113 6.215-.189 1.459-.318 2.674-.288 2.702.1.09 3.154.45 3.23.381.06-.054 3.244-24.153 3.244-24.547 0-.058 1.569-.106 3.486-.106h3.487v11.294zm-45.408-5.14l2.57 2.895-2.418 2.192-2.416 2.191-.468-4.752c-.256-2.614-.465-4.904-.462-5.088.01-.78.77-.17 3.194 2.561zm12.873-2.562c.003.184-.206 2.474-.462 5.088l-.467 4.752-2.417-2.191-2.417-2.192 2.57-2.896c2.423-2.732 3.183-3.34 3.193-2.56zm-18.686 8.382c.437 4.425.828 8.085.87 8.132.042.047.958-.71 2.035-1.682l1.958-1.768.338.958c.334.948.32 1.056-1.331 10.77-.918 5.396-1.67 9.959-1.67 10.138 0 .18 1.014 1.48 2.253 2.887a823.409 823.409 0 012.455 2.798c.163.19-1.164.24-6.477.24h-6.682V61.282h-3.38v30.653H14.57v-.613c0-1.962 1.756-22.301 2.03-23.5 1.46-6.413 6.339-12.135 12.822-15.04 1.316-.59 3.767-1.467 3.881-1.39.02.013.392 3.644.829 8.07zm12.263.885l1.514 1.364-.472 1.27-.473 1.27h-4.362l-.47-1.245-.469-1.245 1.503-1.39c.826-.763 1.55-1.388 1.608-1.388.059 0 .788.614 1.62 1.364zm.388 7.497c.332 1.359 2.87 16.978 2.818 17.345-.055.39-4.546 5.77-4.816 5.77-.27 0-4.762-5.38-4.816-5.77-.052-.367 2.485-15.986 2.817-17.345.1-.408.207-.432 1.998-.432 1.792 0 1.9.024 2 .431z" fill="#FF7730"/></g><defs><clipPath id="clip0_2301_6746"><path fill="#fff" transform="translate(.5)" d="M0 0h95v95H0z"/></clipPath></defs></svg>