<svg width="96" height="95" fill="none" xmlns="http://www.w3.org/2000/svg"><g clip-path="url(#clip0_2301_6742)"><path fill-rule="evenodd" clip-rule="evenodd" d="M16.806.355l-.437.354-.048 23.547-.048 23.547.385.491c.483.615 1.473.674 2.025.12.366-.366.37-.618.37-23.001V2.783h68.49v41.326c0 36.752-.032 41.45-.288 42.432-.97 3.734-4.738 6.194-8.433 5.505-3.43-.639-5.82-3.208-6.262-6.726-.285-2.277 3.003-2.032-27.242-2.032H19.054v-29.8l-.429-.404c-.529-.498-1.242-.517-1.819-.049l-.437.355-.049 14.949-.05 14.949h-3.985c-3.984 0-3.985 0-4.439.455-.775.777-.498 2.986.683 5.451 1.323 2.762 3.998 4.879 6.96 5.508 1.871.397 64.862.397 66.733 0 3.859-.82 7.201-4.27 7.9-8.156.136-.76.197-14.185.197-43.368V.911l-.454-.456L89.41 0H53.327c-35.251 0-36.094.008-36.52.355zm8.886 8.903l-.438.355-.053 6.51-.053 6.51.462.463.46.462h54.598l.383-.489c.372-.473.384-.695.384-6.871V9.814l-.454-.455-.455-.455H53.327c-26.499 0-27.21.009-27.635.354zm52.966 6.973v4.545h-50.72v-9.09h50.72v4.545zM25.712 30.213c-.648.65-.69 1.093-.166 1.76l.383.489h5.077c4.83 0 5.095-.018 5.447-.371.5-.5.49-1.504-.019-1.966-.358-.325-.774-.357-5.28-.408l-4.892-.055-.55.55zm16.367-.1c-.654.564-.693 1.512-.083 2.007.404.327 1.236.342 19.546.342h19.125l.383-.489c.212-.269.384-.599.384-.733 0-.49-.422-1.154-.862-1.355-.321-.146-5.859-.206-19.22-.206h-18.77l-.503.435zm-15.925 5.683c-.47.193-.992.889-.992 1.32 0 .167.173.524.384.793l.383.489h8.78c8.532 0 8.789-.01 9.149-.371.498-.5.489-1.505-.02-1.966-.37-.335-.818-.355-8.838-.39-4.648-.021-8.628.035-8.846.125zm22.331-.05c-.613.227-.925.683-.925 1.353 0 1.394-1.237 1.299 16.892 1.299h16.215l.383-.49c.212-.268.384-.598.384-.732 0-.49-.422-1.154-.862-1.355-.468-.213-31.514-.285-32.087-.074zm-13.55 7.551c-.58.29-.882.974-.885 2.01-.003.874-.008.881-.618.881-1.742 0-3.785 1.437-4.695 3.3-.425.872-.516 1.303-.516 2.45 0 1.772.611 3.129 1.954 4.338 1.284 1.157 2.303 1.454 5.445 1.586 2.779.117 3.075.216 3.898 1.3.547.721.507 2.68-.071 3.492-.842 1.183-1.122 1.243-6.09 1.308l-4.485.058-.374.477c-.513.653-.47 1.101.167 1.74l.54.542h4.842v.941c0 .794.085 1.027.541 1.484.64.641 1.084.681 1.748.158.427-.337.488-.519.488-1.463v-1.08l.694-.122c2.322-.41 3.742-1.425 4.69-3.356.546-1.111.58-1.296.505-2.729-.123-2.354-1.123-3.933-3.164-4.997-.664-.346-1.2-.425-3.558-.522-2.067-.085-2.926-.194-3.362-.425-1.685-.893-2.156-3.147-.973-4.654.712-.907.92-.945 5.75-1.043 4.151-.084 4.598-.125 4.952-.446.529-.48.529-1.596 0-2.076-.335-.304-.748-.362-2.962-.417l-2.572-.065v-.96c0-.547-.118-1.13-.273-1.351-.334-.478-1.056-.638-1.616-.359zm18.058-.118c-.673.106-.966.621-1.026 1.807l-.057 1.11-.951.116c-3.713.454-5.981 4.613-4.419 8.102 1.154 2.575 3.138 3.56 7.172 3.56 2.083 0 2.865.258 3.5 1.15 1.243 1.75.415 4.203-1.609 4.766-.426.12-2.395.205-4.716.205-4.586.001-4.808.061-4.808 1.297 0 .555.11.805.488 1.102.438.345.739.385 2.961.385h2.474v1.099c0 .967.06 1.146.488 1.484.63.497 1.04.485 1.66-.048.405-.35.517-.631.587-1.48.086-1.04.092-1.048.759-1.156 2.153-.349 4.113-1.914 4.753-3.797.946-2.783-.183-5.743-2.727-7.146-.93-.513-1.137-.549-3.776-.65-3.114-.12-3.695-.31-4.473-1.468-.555-.825-.577-2.397-.044-3.26.774-1.255.897-1.283 5.962-1.386 4.402-.09 4.592-.108 4.982-.5a1.414 1.414 0 000-1.968c-.37-.371-.626-.413-2.879-.471l-2.472-.064-.083-1c-.114-1.376-.68-1.957-1.746-1.79zm17.765 0c-.63.1-.885.561-.986 1.785l-.092 1.132-.951.116c-1.784.218-3.429 1.416-4.37 3.181-.348.655-.416 1.074-.417 2.546 0 1.604.048 1.85.545 2.749.666 1.205 1.521 1.98 2.86 2.595.885.406 1.364.48 3.72.575 2.98.12 3.408.264 4.082 1.372 1.084 1.78.196 4.012-1.819 4.573-.379.105-2.5.192-4.714.192-3.779.001-4.05.024-4.397.372-.498.5-.489 1.504.02 1.965.335.305.743.362 2.96.414l2.573.06v1.015c0 .83.083 1.098.455 1.47.504.505.792.554 1.46.25.577-.264.862-.899.862-1.92 0-.809.001-.81.787-.939 1.986-.325 3.797-1.708 4.61-3.52.565-1.26.579-3.35.03-4.568-.53-1.173-1.609-2.321-2.731-2.905-.852-.443-1.195-.498-3.745-.6-2.616-.104-2.856-.145-3.534-.594-1.323-.878-1.73-2.645-.935-4.063.754-1.344.807-1.357 5.95-1.461l4.599-.093.446-.52c.564-.657.564-1.085 0-1.742-.443-.515-.47-.52-2.962-.585l-2.515-.064v-.885c0-1.334-.698-2.075-1.791-1.903zM25.616 74.84c-.504.505-.553.794-.249 1.463.368.809.789.864 6.535.864 5.21 0 5.447-.015 5.915-.384.611-.482.669-1.475.117-2.027-.354-.355-.617-.371-6.117-.371h-5.746l-.455.455zm16.38-.113c-.611.496-.571 1.443.086 2.008l.507.438 19.046-.05c20.974-.053 19.477.038 19.723-1.198.095-.476.027-.679-.358-1.064l-.475-.476H61.472c-18.242 0-19.072.015-19.476.342zm28.059 12.407c.3 1.338 1.23 3.163 2.137 4.195l.759.864H44.93c-30.51 0-29.172.044-30.989-1.023-1.586-.931-3.113-2.93-3.508-4.59l-.12-.51 29.761.047 29.762.047.218.97z" fill="#FF7730"/></g><defs><clipPath id="clip0_2301_6742"><path fill="#fff" transform="translate(.5)" d="M0 0h95v95H0z"/></clipPath></defs></svg>