<svg width="102" height="95" fill="none" xmlns="http://www.w3.org/2000/svg"><path fill-rule="evenodd" clip-rule="evenodd" d="M47.9.107c-8.31 1.03-13.873 5.294-17.55 13.452-2.04 4.526-3.522 10.011-5.788 21.43l-1.403 7.073-2.568.004c-2.836.005-3.64.222-4.689 1.264-1.154 1.147-1.196 1.346-1.302 6.143l-.098 4.427-.768 1.251c-.423.688-2.322 3.72-4.221 6.737-4.718 7.496-4.74 7.533-6.058 10.226C2.181 74.718 1.436 77 1.111 79.295c-.596 4.217.115 6.99 2.361 9.209 1.942 1.917 4.97 3.032 9.218 3.391 1.207.102 2.224.274 2.26.383.344 1.015 1.712 2.183 2.953 2.522.975.267 65.213.267 66.188 0 1.24-.339 2.608-1.507 2.952-2.522.037-.108 1.02-.278 2.184-.377 2.864-.245 4.61-.655 6.538-1.535 3.44-1.57 5.327-4.51 5.327-8.293 0-3.413-.834-6.493-2.833-10.464-1.607-3.194-5.52-9.573-6.287-10.25-.871-.77-2.078-.394-2.328.724-.113.504.124.982 1.782 3.61 2.308 3.654 4.396 7.218 4.29 7.321-.041.042-.456-.181-.921-.495-1.264-.854-3.562-1.954-5.542-2.653l-1.761-.622-.098-12.1c-.107-13.275-.04-12.56-1.303-13.814-1.048-1.043-1.852-1.26-4.691-1.264l-2.57-.004-1.11-5.63c-2.386-12.09-3.603-16.887-5.406-21.308-1.201-2.945-2.378-5.095-3.878-7.085-1.813-2.405-2.672-2.849-3.652-1.884-.752.739-.612 1.222.898 3.103 2.306 2.873 4.738 8.288 6.132 13.652.435 1.675 1.687 7.218 1.687 7.47 0 .118-.633-.726-1.407-1.875-4.962-7.374-11.83-10.934-21.097-10.934-5.961 0-10.984 1.496-15.101 4.497-1.917 1.397-4.397 4.06-5.997 6.437-.773 1.15-1.406 1.984-1.406 1.855 0-.13.267-1.425.594-2.88 2.985-13.291 6.584-19.67 12.81-22.71 3.23-1.577 7.406-2.23 11.488-1.798 2.72.288 4.697.809 6.744 1.774 1.48.698 1.713.757 2.213.553.779-.317 1.148-1.233.769-1.905-.556-.984-4.096-2.473-7.175-3.017-1.987-.35-6.23-.493-8.036-.27zm5.543 20.404c3.612.336 6.5 1.204 9.197 2.762l1.37.791-2.74.123c-3.746.169-5.844.82-7.692 2.388-.838.71-.857.716-2.59.716-1.729 0-1.754-.007-2.523-.69-1.731-1.539-3.997-2.245-7.742-2.413l-2.74-.123 1.184-.713c2.401-1.444 5.854-2.524 9.037-2.826 2.478-.235 2.855-.236 5.239-.015zm-10.116 6.833c1.618.365 3.185 1.182 3.497 1.822.17.349.185.869.057 1.874-.391 3.064-1.891 4.563-5.086 5.082-2.513.408-5.356-.312-6.686-1.693-1.18-1.225-2.037-4.202-1.649-5.725.146-.57.95-1.04 2.371-1.385 1.434-.349 5.906-.334 7.496.025zm22.581-.08c1.494.312 2.474.85 2.625 1.44.388 1.522-.468 4.5-1.648 5.725-2.19 2.273-7.77 2.41-10.184.249-1.155-1.034-2.085-4.375-1.533-5.508.302-.619 1.657-1.354 3.265-1.77 1.508-.391 5.871-.47 7.475-.136zm-13.697 4.19c.422 3.77 2.457 6.178 6.13 7.26 1.511.444 5.24.459 6.598.025.512-.163.93-.24.93-.171 0 .07-.133.862-.294 1.762-.16.9-.293 1.657-.293 1.684 0 .026-1.71.048-3.802.048h-3.802l-.405.507c-.506.633-.516 1.241-.032 1.83l.374.454 13.02.052 13.019.052.403.504c.4.5.402.615.402 20.185 0 19.091-.011 19.696-.374 20.137l-.374.455-15.274.096c-14.044.088-15.3.123-15.607.424-.522.513-.425 1.483.2 2.012l.533.451h30.896v.941c0 .64-.12 1.087-.374 1.396l-.374.454H18.283l-.374-.454c-.254-.31-.374-.756-.374-1.396v-.94h15.432c15.317 0 15.437-.004 15.949-.4.588-.455.699-1.398.238-2.018-.27-.363-.718-.377-15.575-.47l-15.296-.096-.374-.455c-.363-.44-.374-1.046-.374-20.137 0-19.62.001-19.684.405-20.19l.406-.507h16.053c12.76 0 16.034.05 15.96.24-.81 2.128-6.211 19.145-6.211 19.573 0 .334.17.758.391.976.366.36.652.385 4.403.385 3.08 0 4.011.056 4.01.24 0 .133-1.101 3.608-2.446 7.723-1.344 4.115-2.444 7.648-2.444 7.852 0 .521.868 1.316 1.437 1.316 1.061 0 1.196-.303 4.145-9.336 1.556-4.764 2.83-8.937 2.83-9.273.002-.432-.15-.728-.514-1.01-.482-.374-.766-.4-4.403-.4-2.56 0-3.887-.068-3.887-.2 0-.11 1.41-4.508 3.131-9.773 1.722-5.265 3.131-9.711 3.131-9.88 0-.168-.183-.534-.406-.813l-.405-.507h-8.205c-4.512 0-8.204-.022-8.204-.048 0-.027-.133-.785-.294-1.684-.16-.9-.293-1.693-.293-1.762 0-.07.418.008.93.171 1.358.434 5.086.419 6.598-.026 2.28-.67 3.942-1.863 4.945-3.546.596-1 1.225-3.1 1.225-4.089 0-.381.062-.755.139-.83.076-.076.583-.112 1.125-.08l.986.056.138 1.23zM31.123 33.35c.072.292.447 1.042.834 1.666.58.933.785 1.567 1.155 3.561.248 1.335.496 2.665.552 2.956l.103.529h-3.713c-2.042 0-3.713-.024-3.713-.052 0-.125 1.248-3.227 1.796-4.465.903-2.037 2.522-4.93 2.7-4.821.086.052.215.334.286.626zm41.647 2.008c.721 1.411 1.66 3.475 2.084 4.587l.773 2.02-3.635.053c-2 .03-3.66.03-3.688 0-.029-.029.19-1.358.485-2.955.464-2.508.634-3.057 1.254-4.046.395-.629.718-1.2.718-1.271 0-.342.409-1.128.544-1.046.084.051.743 1.248 1.465 2.658zM14.556 66.704l-.054 2.53-1.313.451c-2.086.717-3.681 1.475-3.883 1.845-.356.656-.214 1.472.33 1.893.284.22.617.4.742.4.124 0 1.089-.347 2.143-.77 1.054-.424 1.953-.77 1.997-.77.045 0 .083 3.01.086 6.688.004 6.067.037 6.761.362 7.465.348.753.348.795-.004 1.44-.2.366-.362.806-.362.977 0 .258-.178.298-1.028.233-7.896-.608-10.55-3.303-9.533-9.682.568-3.559 2.07-6.657 7.051-14.544l3.412-5.402.054 2.358c.03 1.298.03 3.497 0 4.888zm75.394 6.537c4.836 2.059 7.864 5.122 8.151 8.248.374 4.055-2.204 6.625-7.361 7.339-2.605.36-3.346.366-3.346.025 0-.171-.163-.61-.363-.977-.351-.645-.351-.687-.004-1.44.325-.704.359-1.399.363-7.478l.004-6.702.44.136c.243.075 1.194.457 2.116.85z" fill="#FF7730"/></svg>