<svg width="100" height="98" fill="none" xmlns="http://www.w3.org/2000/svg"><path d="M42.828 11.755L13.274 22.732a3.455 3.455 0 00-2.187 2.572l-8.82 44.901a3.455 3.455 0 002.723 4.056l47.89 9.421a3.455 3.455 0 004.057-2.724l8.83-44.948a3.455 3.455 0 00-.996-3.156l-21.943-21.1zm0 0L45.517 1m-2.689 10.755l-1.793 8.066" stroke="#FF803D" stroke-width="3.455"/><path d="M40.14 80.764l2.835 12.046a3.455 3.455 0 003.976 2.608l48.052-8.665a3.454 3.454 0 002.788-4.005l-10.708-60.13a3.455 3.455 0 00-2.135-2.609L57.168 9.066m0 0l-9.858 7.17m9.859-7.17L55.377 1M44.62 36.85c-2.4-2.882-7.658-6.574-12.607-3.073-2.889 2.044-4.501 6.186-2.31 8.965.866 1.1 2.065 2.058 3.37 2.877 3.814 2.395 8.513 4.343 9.447 8.749.686 3.238-.203 6.934-5.071 9.368-2.987 1.195-10.038 1.255-14.34-4.481" stroke="#FF803D" stroke-width="3.455"/><path d="M38.342 26.99l-7.17 43.02" stroke="#FF803D" stroke-width="3.455" stroke-linecap="round"/></svg>