<svg width="72" height="72" fill="none" xmlns="http://www.w3.org/2000/svg"><circle cx="36" cy="36" r="35" stroke="#FF803D" stroke-width="2"/><path fill-rule="evenodd" clip-rule="evenodd" d="M34.307 12.024c-.181.02-.73.082-1.222.135-3.1.336-6.533 1.499-9.303 3.151a24.293 24.293 0 00-8.495 8.491c-1.64 2.747-2.729 5.938-3.173 9.3-.152 1.15-.152 4.672 0 5.823.444 3.361 1.533 6.553 3.173 9.3a24.293 24.293 0 008.495 8.49c2.747 1.64 5.94 2.728 9.303 3.172 1.151.152 4.675.152 5.826 0 5.85-.773 10.81-3.342 14.858-7.695 2.24-2.41 3.991-5.405 5.066-8.665.848-2.569 1.165-4.615 1.165-7.514 0-2.144-.09-3.091-.476-4.977-1.32-6.467-5.477-12.246-11.31-15.725-2.72-1.622-5.962-2.733-9.21-3.156-.823-.107-4.115-.199-4.697-.13zm4.98 1.588c.542.082 1.558.29 2.257.464 7.967 1.976 14.387 8.377 16.392 16.343.52 2.065.654 3.213.654 5.594 0 2.38-.135 3.528-.654 5.593-1.597 6.342-6.025 11.796-11.93 14.692-1.625.797-2.822 1.242-4.413 1.642-2.065.52-3.214.654-5.595.654s-3.53-.134-5.595-.654c-7.95-1.999-14.343-8.39-16.342-16.334-.52-2.065-.655-3.214-.655-5.593 0-2.38.135-3.529.654-5.594 1.597-6.342 6.025-11.796 11.93-14.692 2.667-1.308 5.078-1.977 8.27-2.295.8-.08 4.088.038 5.027.18zM34.26 16.58c-3.808.354-7.352 1.764-10.321 4.107-3.702 2.92-6.236 7.08-7.112 11.673-.811 4.255-.181 8.618 1.809 12.528.734 1.443 2.074 3.415 2.636 3.881.237.197.728.1.94-.186.254-.342.176-.576-.466-1.406-2.648-3.426-4.066-7.814-3.843-11.899.22-4.009 1.505-7.463 3.909-10.501 6.175-7.804 17.421-9.139 25.355-3.01.831.642 1.065.72 1.407.465.285-.212.383-.702.186-.94-.22-.266-1.348-1.128-2.155-1.649-3.658-2.358-8.091-3.458-12.345-3.063zm1.297 3.129l-.264.226-.03 1.535c-.034 1.773.056 2.224.477 2.372.166.058.35.058.516 0 .42-.148.511-.6.477-2.372l-.03-1.535-.264-.226c-.145-.125-.343-.227-.441-.227-.098 0-.296.102-.441.227zm-7.89 2.071c-.355.25-.335.594.08 1.348.525.954.714 1.153 1.102 1.164.38.011.666-.278.666-.673 0-.254-.84-1.762-1.06-1.901-.185-.118-.575-.087-.787.062zm15.874-.062c-.22.14-1.06 1.647-1.06 1.901 0 .395.287.684.666.673.388-.01.577-.21 1.102-1.164.415-.754.435-1.098.08-1.348-.213-.149-.603-.18-.788-.062zm6.277 1.674c-.317.403-.267.56.48 1.518 2.575 3.298 4.015 7.792 3.795 11.837-.22 4.009-1.505 7.463-3.909 10.501-6.175 7.804-17.421 9.139-25.355 3.01-.831-.642-1.065-.72-1.407-.465-.285.212-.383.702-.186.94.224.27 1.353 1.131 2.155 1.645 1.6 1.024 2.983 1.678 4.72 2.23a19.479 19.479 0 0017.946-3.27c3.702-2.92 6.236-7.08 7.112-11.673.811-4.255.181-8.618-1.809-12.528-.725-1.426-1.647-2.808-2.458-3.687-.366-.396-.8-.419-1.084-.058zm-23.079 2.943a.689.689 0 00-.45.673c0 .25.479.764 3.878 4.162 3.526 3.525 3.869 3.895 3.774 4.072-.057.107-.104.462-.103.788.002 1.248.903 2.14 2.164 2.142.528 0 .687-.042 1.122-.304.408-.247.562-.415.794-.87.159-.31.292-.574.296-.587.005-.013 1.778-.296 3.94-.63 3.108-.479 3.967-.641 4.097-.774.469-.478.182-1.155-.489-1.155-.203 0-2.046.258-4.095.573-3.523.542-3.73.564-3.82.405-.144-.26-.543-.602-.929-.8-.394-.201-1.372-.244-1.69-.074-.178.095-.547-.246-4.059-3.748-2.124-2.118-3.947-3.874-4.05-3.9a.711.711 0 00-.38.027zm-4.623 1.103c-.384.074-.635.694-.419 1.034.14.22 1.648 1.06 1.902 1.06.642 0 .92-.767.43-1.187-.228-.198-1.598-.986-1.667-.96a3.52 3.52 0 01-.246.053zm26.705.365c-.932.529-1.087.68-1.098 1.072-.01.37.283.657.674.657.254 0 1.762-.84 1.902-1.06.127-.199.082-.603-.089-.798-.309-.354-.582-.329-1.389.129zM20.05 35.327c-.246.048-.589.45-.589.693 0 .093.102.288.227.433l.226.264 1.536.03c1.774.035 2.225-.056 2.373-.476.14-.398-.028-.754-.417-.887-.311-.107-2.872-.15-3.356-.057zm16.483.138c.485.455.146 1.299-.52 1.299-.45 0-.766-.305-.766-.738a.759.759 0 011.286-.56zm12.06-.085c-.39.138-.557.495-.418.89.148.421.6.512 2.373.477l1.536-.03.226-.264c.286-.332.286-.549 0-.881l-.226-.264-1.583-.022c-1.07-.015-1.688.015-1.909.094zm-26.036 7.586c-.432.26-.819.524-.859.587-.117.184-.087.574.063.786.249.356.594.336 1.348-.08.954-.524 1.154-.713 1.165-1.1.01-.38-.279-.666-.674-.666-.14 0-.61.213-1.043.473zm25.371-.3c-.15.122-.21.266-.204.493.011.387.211.576 1.165 1.1.755.416 1.099.436 1.348.08.15-.212.18-.602.063-.786-.14-.22-1.648-1.06-1.902-1.06a.876.876 0 00-.47.173zm-19.235 5.067c-.398.062-1.362 1.662-1.273 2.112.09.46.72.705 1.08.42.247-.195 1.016-1.599 1.016-1.855 0-.469-.344-.752-.823-.677zm14.187.03c-.233.087-.397.362-.397.667 0 .24.778 1.648 1.015 1.835.2.158.59.149.831-.02.346-.242.336-.596-.034-1.271-.63-1.151-.916-1.395-1.415-1.21zm-7.344.547c-.25.25-.312.79-.274 2.399.032 1.38.033 1.381.296 1.607.145.125.343.227.441.227.098 0 .296-.102.441-.227.264-.226.264-.227.296-1.607.05-2.106-.086-2.58-.737-2.58a.75.75 0 00-.463.18z" fill="#FF803D"/></svg>