<svg width="72" height="72" fill="none" xmlns="http://www.w3.org/2000/svg"><circle cx="36" cy="36" r="35" stroke="#FF803D" stroke-width="2"/><path d="M32.138 47.719c.034.04.053.092.053.147l-.22 1.96c-.039.32.003.646.122.942.119.297.31.553.553.742a1.63 1.63 0 001.736.196l1.697-.817a.18.18 0 01.182 0l1.697.817a1.646 1.646 0 001.736-.197 1.77 1.77 0 00.552-.74c.12-.297.161-.622.123-.942l-.22-1.961a.214.214 0 01.045-.14l1.281-1.413a1.82 1.82 0 00.422-.841 1.914 1.914 0 00-.043-.956 1.84 1.84 0 00-.49-.809 1.644 1.644 0 00-.806-.425l-1.842-.392a.176.176 0 01-.074-.033.192.192 0 01-.054-.065l-.902-1.764a1.8 1.8 0 00-.632-.678 1.633 1.633 0 00-.861-.248c-.302 0-.6.086-.861.248a1.8 1.8 0 00-.632.678l-.918 1.723a.191.191 0 01-.053.065.175.175 0 01-.075.033l-1.842.393c-.3.06-.577.207-.805.424a1.841 1.841 0 00-.491.81c-.106.31-.13.647-.068.972.061.325.206.624.417.865l1.273 1.406zm-.205-2.745a.188.188 0 01.058-.09.167.167 0 01.094-.041l1.811-.384c.24-.052.468-.159.668-.312s.367-.35.492-.579l.917-1.724c.098-.18.25-.18.349 0l.916 1.724c.13.234.304.434.512.588.208.154.445.257.694.303l1.834.384a.167.167 0 01.094.04.19.19 0 01.06.186.194.194 0 01-.04.084L39.117 46.6a1.864 1.864 0 00-.373.679c-.077.252-.103.52-.074.784l.22 1.96a.165.165 0 01-.014.096.15.15 0 01-.062.068.18.18 0 01-.212 0l-1.698-.817a1.623 1.623 0 00-1.425 0l-1.697.817a.18.18 0 01-.213 0 .15.15 0 01-.062-.068.166.166 0 01-.014-.095l.22-1.961a1.966 1.966 0 00-.074-.784 1.865 1.865 0 00-.373-.679l-1.273-1.446a.187.187 0 01-.053-.08.2.2 0 01-.008-.1z" fill="#FF803D"/><path d="M39.505 36.869a.709.709 0 00-.58.018.761.761 0 00-.24.185.828.828 0 00-.157.27.874.874 0 00.017.626c.04.098.1.186.172.26a.751.751 0 00.25.169c1.735.702 3.187 2.038 4.101 3.776a9.105 9.105 0 01.903 5.732c-.331 1.966-1.292 3.744-2.714 5.024-1.423 1.28-3.218 1.982-5.071 1.982-1.853 0-3.648-.702-5.07-1.982-1.424-1.28-2.384-3.058-2.715-5.024a9.104 9.104 0 01.903-5.732c.914-1.738 2.365-3.074 4.1-3.776a.751.751 0 00.258-.17.819.819 0 00.176-.263.872.872 0 00.014-.638.832.832 0 00-.156-.273.763.763 0 00-.24-.187.713.713 0 00-.582-.022c-2.07.837-3.8 2.431-4.891 4.503a10.857 10.857 0 00-1.077 6.836c.394 2.345 1.54 4.465 3.237 5.992 1.696 1.527 3.836 2.364 6.047 2.364 2.21 0 4.35-.837 6.047-2.364s2.842-3.647 3.237-5.992a10.857 10.857 0 00-1.077-6.836c-1.091-2.072-2.822-3.666-4.892-4.503v.025z" fill="#FF803D"/><path d="M36.172 37.735c.419 0 .758-.366.758-.817 0-.452-.34-.817-.758-.817-.419 0-.758.365-.758.817 0 .45.34.817.758.817z" fill="#FF803D"/><path d="M49.403 12.376a.785.785 0 00-.274-.276.716.716 0 00-.363-.1H23.574a.715.715 0 00-.363.1.784.784 0 00-.274.276l-4.835 8.17a.867.867 0 000 .817l8.632 16.029c-.12.403-.288.788-.5 1.144a5.458 5.458 0 01-1.077 1.037 4.746 4.746 0 00-1.818 2.247 5.17 5.17 0 00.242 2.9c.174.527.279 1.077.31 1.634a6.517 6.517 0 01-.31 1.634 5.136 5.136 0 00-.242 2.892 4.745 4.745 0 001.819 2.247c.4.291.762.64 1.076 1.038.26.45.461.937.598 1.446.216.983.709 1.87 1.41 2.54a4.326 4.326 0 002.66.662 5.03 5.03 0 011.47.164c.438.194.85.452 1.22.768a4.43 4.43 0 002.578 1.11 4.447 4.447 0 002.577-1.184 5.03 5.03 0 011.212-.768 5.003 5.003 0 011.47-.163 4.327 4.327 0 002.66-.662 4.987 4.987 0 001.41-2.54 6.05 6.05 0 01.6-1.447 5.464 5.464 0 011.075-1.037 4.746 4.746 0 001.82-2.247 5.172 5.172 0 00-.236-2.86 6.401 6.401 0 01-.31-1.634 6.522 6.522 0 01.31-1.634 5.136 5.136 0 00.243-2.892 4.746 4.746 0 00-1.82-2.246c-.4-.292-.762-.64-1.075-1.038a4.988 4.988 0 01-.5-1.144l8.647-15.964a.867.867 0 000-.817l-4.85-8.202zm.955 4.649l-9.095 16.862a3.137 3.137 0 01-2.32-.817l9.853-18.684 1.562 2.639zm-4.192-.94H26.173l-1.296-2.451h22.585l-1.296 2.45zm-.864 1.634l-1.296 2.45H28.333l-1.258-2.45h18.227zm-2.16 4.085l-5.502 10.4a2.737 2.737 0 00-1.47-.432c-.517 0-1.025.149-1.47.432l-5.503-10.4h13.945zm-19.606-7.402l9.852 18.684a3.137 3.137 0 01-2.319.817l-9.095-16.862 1.562-2.64zm-3.911 6.585l1.44-2.451 8.352 15.523a2.665 2.665 0 00-1.132.497 2.92 2.92 0 00-.823.973l-7.837-14.542zm26.648 19.885c.536.352.973.855 1.265 1.455a3.893 3.893 0 01-.25 1.92 7.524 7.524 0 00-.356 2.066 7.52 7.52 0 00.379 2.067c.235.606.314 1.27.227 1.92a3.629 3.629 0 01-1.288 1.455 6.614 6.614 0 00-1.395 1.38 7.36 7.36 0 00-.803 1.871 3.741 3.741 0 01-.864 1.749 3.183 3.183 0 01-1.804.35 6.077 6.077 0 00-1.91.246 6.15 6.15 0 00-1.622.989 3.414 3.414 0 01-1.682.882 3.41 3.41 0 01-1.706-.883 6.146 6.146 0 00-1.621-.988 6.052 6.052 0 00-1.91-.245 3.183 3.183 0 01-1.804-.351 3.741 3.741 0 01-.864-1.749 7.36 7.36 0 00-.803-1.87 6.614 6.614 0 00-1.395-1.381 3.636 3.636 0 01-1.266-1.455 3.894 3.894 0 01.25-1.92 7.525 7.525 0 00.357-2.067 7.515 7.515 0 00-.38-2.067 3.897 3.897 0 01-.227-1.92 3.629 3.629 0 011.289-1.454 6.612 6.612 0 001.394-1.38 7.371 7.371 0 00.804-1.871 3.742 3.742 0 01.864-1.749 3.182 3.182 0 011.803-.35 6.082 6.082 0 001.91-.246 6.149 6.149 0 001.622-.989 3.413 3.413 0 011.683-.882 3.41 3.41 0 011.705.882 6.149 6.149 0 001.622.989 6.052 6.052 0 001.91.245 3.182 3.182 0 011.804.351c.432.486.73 1.091.864 1.749.181.662.452 1.292.803 1.87.399.533.869.998 1.395 1.381zm-1.395-5.375a2.913 2.913 0 00-.828-.956 2.662 2.662 0 00-1.127-.482l8.336-15.45 1.44 2.451-7.821 14.437z" fill="#FF803D"/></svg>