<svg width="72" height="72" fill="none" xmlns="http://www.w3.org/2000/svg"><circle cx="36" cy="36" r="35" stroke="#FF803D" stroke-width="2"/><path fill-rule="evenodd" clip-rule="evenodd" d="M53.241 16.841c-.297-.143-.552-.119-.754.04-.215-1.453-1.467-2.585-2.975-2.585H21.868a3.028 3.028 0 00-3.014 3.02v1.264h-1.27a3.023 3.023 0 00-3.014 3.014v33.94a3.023 3.023 0 003.014 3.013h27.919a2.755 2.755 0 002.745-2.745v-4.886l4.005-3.934c.179-.178.268-.26.266-.503l.013-18.29 1.42-2.458c.111-.12.55-.597 1.01-1.213 1.03-1.532 1.853-3.12 2.34-4.634a.714.714 0 00-.145-.69c-.054-.063-.114-.128-.168-.19l.92-1.594c.593-1.028.204-2.343-.807-2.927-1.28-.606-2.39-.146-2.97.814l-.891 1.544zm2.872-1.214c.095.011.189.04.276.09.376.217.493.621.285.981l-.768 1.331a6.911 6.911 0 00-1.275-.736l.74-1.28a.776.776 0 01.742-.386zm-6.6.096c.885 0 1.591.707 1.591 1.592v1.18c-.94 1.448-1.726 2.964-2.177 4.372l-3.72 6.434-.048.05c-.57.622-.81.908-.976 1.273-.154.339-.206.598-.456 1.22l-.02.02a15.017 15.017 0 00-2.797 4.388c-.133.313-.14.633-.178.918l-.414 3.5c-.079.658.27 1.258.77 1.547.5.288 1.2.294 1.729-.102l2.821-2.113c.296-.159.512-.423.71-.61 1.032-1.518 1.924-3.152 2.402-4.637.419-.536.617-.707.835-1.012.34-.607.468-1.032.629-1.538l.89-1.542v15.04H44.55a.714.714 0 00-.717.711v6.422H21.6a1.306 1.306 0 01-1.317-1.317v-3.191a1.8 1.8 0 011.023.013c.355.118.406.335.406.216a.714.714 0 001.427 0c0-.833-.664-1.331-1.38-1.57-.545-.17-.981-.154-1.476-.1v-2.85c.427-.134.814-.137 1.065-.069.327.088.364.157.364.305a.714.714 0 001.427 0c0-.837-.68-1.484-1.423-1.685-.482-.148-.986-.075-1.433-.024V39.76c.427-.136.814-.143 1.065-.075.327.088.364.159.364.307a.714.714 0 001.427 0c0-.837-.68-1.486-1.423-1.687-.482-.146-.986-.074-1.433-.024v-2.805c.427-.135.814-.141 1.065-.074.327.089.364.157.364.306a.714.714 0 101.427 0c0-.838-.68-1.48-1.423-1.681-.482-.148-.986-.077-1.433-.028v-2.806c.427-.136.814-.142 1.065-.074.327.088.364.157.364.305a.714.714 0 101.427 0c0-.837-.68-1.48-1.423-1.681-.482-.146-.986-.074-1.433-.024v-2.81c.427-.133.814-.137 1.065-.069.327.088.364.157.364.305a.714.714 0 101.427-.005c0-.838-.68-1.48-1.423-1.68-.482-.148-.986-.075-1.433-.024v-2.81c.427-.133.814-.137 1.065-.069.327.089.364.158.364.306a.714.714 0 001.427 0c0-.838-.68-1.485-1.423-1.686-.482-.148-.986-.075-1.433-.024V18.35c.427-.136.814-.143 1.065-.076.327.089.364.159.364.307a.714.714 0 001.427 0c0-.837-.68-1.486-1.423-1.687-.458-.138-.931-.079-1.36-.034.194-.658.788-1.135 1.15-1.135l28.007-.002zM36.25 17.31l-2.555 2.043a4.998 4.998 0 00-4.136-2.202 5.004 5.004 0 00-4.995 4.994 5.005 5.005 0 004.995 4.995 5.005 5.005 0 004.995-4.995c0-.513-.078-1.009-.223-1.476l2.81-2.248a.714.714 0 00.11-1.001c-.22-.26-.692-.328-1-.11zm16.876 1.035a5.441 5.441 0 012.633 1.521c-.678 1.79-1.447 3.255-2.562 4.536l-2.677-1.544a13.593 13.593 0 012.606-4.513zm-23.567.235c1.278 0 2.386.667 3.015 1.67l-2.852 2.28-.995-1.49a.714.714 0 10-1.19.79l1.427 2.139a.714.714 0 001.038.163l3.088-2.47a3.56 3.56 0 01-3.531 4.056 3.56 3.56 0 01-3.567-3.572 3.554 3.554 0 013.567-3.566zm-11.976 1.427h1.27v31.511a2.755 2.755 0 002.745 2.745h22.877c.294.006.39-.035.574-.205l1.77-1.74v3.484c0 .736-.58 1.317-1.317 1.317H17.584c-.886 0-1.585-.7-1.585-1.586v-33.94c0-.885.7-1.586 1.585-1.586zm19.827 2.855a.714.714 0 000 1.429h1.427a.714.714 0 000-1.43H37.41zm4.282 0a.714.714 0 100 1.429h4.995a.714.714 0 100-1.43h-4.995zm8.155 1.257l2.537 1.465-2.968 5.139a6.906 6.906 0 00-2.535-1.465l2.966-5.139zm-24.572 5.877a.714.714 0 000 1.428h16.417a.714.714 0 000-1.428H25.276zm20.75.554a5.45 5.45 0 012.703 1.561c-.125.371-.24.705-.307.799-.051.072-.177.21-.354.415a6.91 6.91 0 00-2.77-1.599c.09-.256.148-.434.184-.514.048-.105.285-.368.544-.662zm-20.75 2.301a.714.714 0 000 1.43h1.429a.714.714 0 000-1.43h-1.429zm4.284 0a.714.714 0 100 1.43h1.427a.714.714 0 000-1.43H29.56zm4.284 0a.714.714 0 100 1.43h4.278a.714.714 0 100-1.43h-4.278zm10.758.227a5.444 5.444 0 012.644 1.527c-.477 1.405-1.137 2.744-2.036 3.92-.179.234-.807.37-1.083.227a19.721 19.721 0 01-1.558-.9c-.263-.166-.458-.78-.345-1.052.569-1.366 1.4-2.606 2.379-3.722zm-19.326 2.63a.714.714 0 000 1.427h5.633a.714.714 0 100-1.428h-5.633zm8.568 0a.714.714 0 100 1.427h3.567a.714.714 0 000-1.428h-3.567zm-8.568 2.854a.714.714 0 000 1.43H36.7a.714.714 0 000-1.43H25.276zm16.661.575c.457.286.922.555 1.398.807l-1.373 1.027c-.073.055-.105.038-.159.009-.053-.031-.079-.049-.068-.14l.202-1.703zm-16.662 2.279a.714.714 0 000 1.427h1.427a.714.714 0 100-1.427h-1.427zm4.284 0a.714.714 0 000 1.427h1.427a.714.714 0 100-1.427h-1.428zm4.282 0a.714.714 0 000 1.427h4.284a.714.714 0 000-1.427H33.84zm-8.566 2.856a.714.714 0 000 1.428h5.637a.714.714 0 000-1.428h-5.637zm8.566 0a.714.714 0 000 1.428h7.14a.714.714 0 000-1.428h-7.14zm-8.566 2.855a.714.714 0 000 1.427h11.422a.714.714 0 000-1.427H25.275zm14.277 0a.714.714 0 100 1.427h1.429a.714.714 0 000-1.427h-1.429zm5.708.002h4.811l-3.03 2.974-1.78 1.746v-4.72z" fill="#FF803D"/></svg>