<svg width="96" height="95" fill="none" xmlns="http://www.w3.org/2000/svg"><path fill-rule="evenodd" clip-rule="evenodd" d="M18.889 21.172v21.173l-4.876 7.805-4.876 7.806 5.51 13.383c4.494 10.913 5.266 14.075 4.188 17.134-.728 2.064-1.323 4.376-1.323 5.14 0 .762 4.957 1.387 11.016 1.387h11.016v-7.174c0-3.947.387-7.591.86-8.1.471-.51 3.388.464 6.482 2.165 3.725 2.049 5.797 2.53 6.14 1.421 1.252-4.046 3.042-1.098 3.042 5.008V95h11.016c6.059 0 11.016-.625 11.016-1.388 0-.763-.595-3.075-1.323-5.139-1.078-3.06-.306-6.222 4.194-17.149l5.517-13.398-5.436-8.627c-4.254-6.755-5.139-9.199-4.069-11.26 1.032-1.986.765-3.107-1.092-4.57-2.356-1.858-2.354-2.107.058-6.075 2.994-4.926 2.946-4.981-11.963-13.686-8.051-4.7-9.295-5.98-9.295-9.567V0H18.889v21.172zm33.048 10v28.203h-6.885c-3.787 0-6.885-.668-6.885-1.484 0-.817 1.168-1.485 2.593-1.485 1.436 0 2.915-1.325 3.314-2.968.395-1.633 1.708-2.97 2.914-2.97 1.895 0 2.195-2.615 2.195-19.123 0-17.876-.18-19.175-2.754-19.9-1.515-.427-2.754-1.841-2.754-3.141 0-1.85-1.504-2.367-6.885-2.367s-6.885.517-6.885 2.367c0 1.3-1.24 2.714-2.754 3.14-2.574.726-2.754 2.025-2.754 19.902 0 16.009.336 19.123 2.065 19.123 1.377 0 2.066 1.484 2.066 4.453 0 3.76-.536 4.453-3.443 4.453h-3.442V2.969h30.294v28.203zm-8.694-19.039c2.944 2.984 3.185 4.42 3.163 18.926-.024 14.824-.218 15.896-3.487 19.239-1.904 1.947-3.597 3.283-3.762 2.969l-1.871-3.54c-1.13-2.135-2.774-2.864-5.853-2.592l-4.282.377V31.644c0-14.247.305-16.217 2.993-19.303 3.76-4.312 8.963-4.394 13.099-.208zM73.96 24.252c.02 2.802-10.083 20.437-12.515 21.84-3.68 2.122-3.372 1.06 3.074-10.638 6.408-11.627 6.418-11.594-4.664-17.04-2.84-1.396-5.164-3.477-5.164-4.624 0-1.455 2.92-.374 9.63 3.564 5.297 3.11 9.634 6.213 9.639 6.898zm-13.15-1.84c2.692 1.713 4.897 3.486 4.897 3.94 0 1.305-9.705 19.664-10.395 19.664-.341 0-.621-6.012-.621-13.36 0-7.347.274-13.36.61-13.36.335 0 2.813 1.402 5.508 3.117zm-30.905 5.791c-2.08 4.19.592 9.236 4.569 8.626 2.119-.325 3.132-1.664 3.44-4.544.24-2.244 1.091-4.082 1.893-4.082.885 0 1.133 1.749.632 4.453-.938 5.052 1.019 5.95 3.236 1.485 2.08-4.19-.592-9.236-4.569-8.626-2.12.325-3.133 1.664-3.44 4.544-.24 2.244-1.092 4.082-1.893 4.082-.886 0-1.133-1.749-.632-4.453.938-5.052-1.02-5.95-3.236-1.485zm44.002 8.535c-.183 3.276-6.521 13.973-7.386 12.465-1.047-1.825 4.428-13.578 6.325-13.578.618 0 1.096.5 1.061 1.113zm5.255 14.656l4.14 6.863-5.396 13.109c-3.821 9.277-5.14 14.211-4.518 16.886.862 3.705.733 3.78-6.681 3.78h-7.561l-.938-10.79c-.573-6.584-.368-12.404.526-14.94.805-2.282 1.465-7.114 1.465-10.734 0-4.863.54-6.584 2.066-6.584 1.54 0 2.076 1.795 2.11 7.051.042 6.97 2.286 12.246 5.207 12.246.908 0 .594-1.713-.792-4.315-2.198-4.126-2.155-4.642.987-11.875 1.807-4.158 3.727-7.56 4.265-7.56.537 0 2.842 3.09 5.12 6.863zm-56.067 10.95c4.33 0 5.07 1.28 2.403 4.156-1.284 1.385-1.242 1.781.193 1.781 3.242 0 5.501-4.989 5.547-12.246.033-5.256.57-7.05 2.11-7.05 1.525 0 2.065 1.72 2.065 6.583 0 3.62.66 8.452 1.465 10.735.894 2.535 1.099 8.355.526 14.94l-.938 10.788h-7.56c-7.415 0-7.544-.074-6.682-3.779.622-2.675-.696-7.606-4.513-16.873l-5.39-13.095 2.94-5.022 2.94-5.02.42 7.051c.399 6.712.613 7.05 4.475 7.05zM56.2 58.96c-1.206 2.235-1.432 1.939-1.468-1.936-.022-2.517.423-5.085.992-5.707 1.644-1.8 2.05 4.727.476 7.643zm-12.999 5.897c3.348 2.365 3.664 2.365 5.267 0 .94-1.382 2.74-2.514 4-2.514 2.105 0 2.118.366.157 4.453-1.174 2.45-2.689 4.453-3.366 4.453-2.14 0-9.644-5.117-10.339-7.05-.892-2.483.036-2.34 4.281.658zm11.49 7.593c0 1.477-.803 3.868-1.785 5.315-1.706 2.516-2.006 2.516-6.885.01-2.805-1.444-5.1-3.5-5.1-4.574 0-2.455 1.172-2.397 5.508.275 4.572 2.817 5.17 2.746 6.197-.743 1.087-3.696 2.065-3.83 2.065-.283z" fill="#FF7451"/></svg>