<svg width="96" height="95" fill="none" xmlns="http://www.w3.org/2000/svg"><path fill-rule="evenodd" clip-rule="evenodd" d="M13.42.16c-1.538.467-2.802 1.71-3.242 3.19-.201.675-.29 1.756-.29 3.536V9.45H7.32c-1.784 0-2.867.089-3.544.289-1.132.336-2.284 1.294-2.871 2.39l-.405.754v78.678l.402.743c.474.875 1.385 1.77 2.294 2.252.623.331 1.645.348 24.319.395L51.184 95l.546-.545c.708-.707.709-1.368.003-2.073l-.544-.542H4.654l-.543-.543-.543-.542V13.74l.448-.52.449-.521 20.18-.05 20.18-.048.053 7.842c.053 7.663.064 7.86.462 8.603.224.417.72 1.033 1.102 1.368 1.4 1.227 1.242 1.206 9.676 1.268l7.653.056.062 2.11c.057 1.933.1 2.15.513 2.588.601.638 1.534.648 2.16.023.45-.45.457-.5.457-3.754v-3.299l-9.945-9.93-9.945-9.932-17.025-.05-17.026-.049.06-2.704c.06-2.702.06-2.705.582-3.152l.521-.447H55.35l9.06 9.05 9.06 9.051v6.27c0 3.66.075 6.41.18 6.605.306.571 1.212.84 1.888.56 1.044-.431 1.093-.783 1.093-7.766 0-3.93-.073-6.5-.194-6.825C76.216 19.496 57.478.666 56.7.253c-.429-.227-3.613-.264-21.659-.25C23.406.01 13.676.082 13.42.16zm46.806 28.367c-.743.03-3.596.03-6.34 0l-4.99-.057-.448-.52-.448-.521V14.927l6.788 6.771 6.788 6.772-1.35.057zM20.857 17.708C13.07 19.28 7.358 25.781 6.794 33.718c-.426 5.99 2.613 12.101 7.742 15.57 3.26 2.204 7.557 3.264 11.469 2.828 7.386-.822 13.36-6.057 15.149-13.277.572-2.31.572-5.808 0-8.12-1.645-6.634-7.129-11.814-13.79-13.024-1.738-.315-4.91-.31-6.507.013zm6.972 3.326c.613.162 1.91.683 2.881 1.158 1.514.74 2.02 1.119 3.543 2.643 1.512 1.514 1.906 2.043 2.645 3.543 1.16 2.355 1.504 3.844 1.503 6.494 0 1.643-.096 2.473-.415 3.608-.479 1.699-1.638 4.025-2.505 5.026l-.597.69-.772-1.554c-.755-1.518-2.132-3.194-3.28-3.991l-.53-.368.475-.699c1.336-1.965 1.701-4.862.882-7.002-.599-1.564-1.716-2.994-3.016-3.86-1.588-1.059-2.792-1.373-4.904-1.28-1.461.063-1.888.16-2.92.668-4.345 2.135-5.852 7.557-3.189 11.474l.475.699-.53.368c-1.148.797-2.525 2.473-3.28 3.991l-.772 1.554-.597-.69c-.863-.996-2.024-3.322-2.509-5.026-.327-1.15-.418-1.942-.415-3.608.006-2.655.354-4.154 1.51-6.494.727-1.474 1.146-2.04 2.551-3.453 2.24-2.25 4.421-3.46 7.352-4.076 1.511-.318 4.873-.22 6.414.185zm-1.673 7.882c2.468 1.145 3.497 4.225 2.189 6.55-1.089 1.934-3.083 2.856-5.168 2.39-2.113-.471-3.664-2.381-3.673-4.524-.006-1.392.38-2.377 1.316-3.353.967-1.01 1.925-1.408 3.383-1.408.788 0 1.468.12 1.953.345zm45.95 9.293c-6.188 1.12-11.35 5.396-13.505 11.183-.808 2.17-.967 3.287-1.064 7.47l-.094 4.082-.902.796c-.576.508-1.124 1.245-1.515 2.037l-.612 1.24-.053 12.151c-.051 11.782-.041 12.188.327 13.398.479 1.575 1.768 3.058 3.316 3.817l1.058.519h31.79l.877-.405c1.23-.567 2.652-1.96 3.258-3.19l.513-1.044V65.019l-.612-1.242c-.391-.792-.939-1.53-1.515-2.037l-.902-.796-.09-4.175c-.1-4.725-.321-5.897-1.632-8.693-2.252-4.804-6.184-8.083-11.423-9.526-1.482-.409-5.739-.61-7.22-.341zM22.53 40.911c1.367.347 2.702.279 4.234-.215l.977-.315 1.022.702c1.663 1.144 3.05 3.351 3.121 4.972l.035.776-1.395.704c-3.9 1.967-8.723 1.969-12.64.005-.809-.407-1.418-.835-1.454-1.023-.116-.607.518-2.317 1.281-3.458.875-1.306 2.646-2.7 3.24-2.55l1.58.402zm56.424.826c2.504.788 4.118 1.776 6.05 3.704 1.369 1.366 1.95 2.112 2.544 3.26 1.31 2.534 1.569 3.745 1.675 7.836l.093 3.572h-3.16l-.09-3.387c-.075-2.763-.163-3.608-.483-4.593-1.812-5.584-7.683-8.861-13.304-7.427-3.748.957-6.657 3.673-7.856 7.335-.428 1.308-.497 1.876-.576 4.778l-.09 3.294h-3.164l.1-3.48c.108-3.742.327-4.972 1.253-7.03 1.867-4.148 5.805-7.257 10.422-8.228 1.433-.3 5.117-.096 6.586.366zm-2.078 6.03c2.122.553 3.567 1.605 4.792 3.49.97 1.492 1.283 3.016 1.283 6.244v2.608H66.963l.004-2.273c.006-4.317.543-6.09 2.409-7.956 2.062-2.064 4.761-2.824 7.5-2.112zM7.663 57.192c-1.021.517-1.187 1.754-.34 2.541.4.373.576.377 19.214.377 18.748 0 18.812-.002 19.3-.385.491-.386.651-1.207.374-1.926-.33-.858-.01-.844-19.628-.841-14.393.002-18.562.054-18.92.234zm82.597 6.341c.927.33 1.404.77 1.823 1.68.32.695.341 1.485.345 12.392.004 9.372-.045 11.767-.247 12.25-.333.797-1.452 1.755-2.208 1.892-.334.06-7.307.086-15.495.056l-14.888-.055-.703-.535c-1.447-1.102-1.397-.616-1.397-13.66 0-10.862.021-11.645.341-12.34.419-.91.896-1.35 1.823-1.68 1.046-.372 29.56-.372 30.606 0zM7.21 65.504c-.632.75-.613 1.369.064 2.044l.546.545 18.898-.049 18.898-.049.355-.438c.507-.625.461-1.607-.1-2.168l-.457-.456H7.691l-.482.571zm65.862 2.864c-3.913 1.252-5.686 6.102-3.44 9.406.394.58.45.91.533 3.135.11 2.975.362 3.726 1.633 4.866.971.872 1.919 1.24 3.18 1.24 1.42-.002 2.235-.343 3.259-1.365 1.24-1.237 1.554-2.242 1.554-4.971 0-1.965.012-2.024.697-3.26.668-1.207.697-1.332.696-3.022 0-1.568-.058-1.871-.518-2.743-1.127-2.14-3.066-3.393-5.42-3.502-.813-.037-1.64.044-2.174.216zm3.38 3.302c1.895 1 2.198 3.456.634 5.14-.405.435-.434.634-.49 3.279-.056 2.684-.08 2.837-.51 3.293-.554.589-1.44.634-2.11.107-.464-.364-.474-.424-.536-3.2l-.063-2.83-.69-.886c-1.134-1.456-1.168-2.936-.095-4.155 1.079-1.227 2.45-1.492 3.86-.748zm-69.11 1.52c-.495.346-.69 1.166-.437 1.832.414 1.087-.236 1.054 19.98 1l18.482-.049.48-.45c.637-.597.66-1.635.05-2.208l-.43-.404H26.602c-16.473 0-18.913.036-19.261.279zm.321 7.752c-1.021.517-1.187 1.754-.34 2.541.395.368.619.377 9.767.377h9.361l.457-.456c.64-.638.606-1.464-.087-2.156l-.544-.543-9.077.003c-6.888.002-9.188.058-9.537.234z" fill="#FF7451"/></svg>