<svg width="100" height="89" fill="none" xmlns="http://www.w3.org/2000/svg"><path fill-rule="evenodd" clip-rule="evenodd" d="M73.097 3.413c-.4.093-2.743.983-5.206 1.979-5.386 2.177-5.982 2.652-4.947 3.944.28.35.58.499 1.007.499.334 0 2.605-.826 5.048-1.836 6.222-2.572 4.73-2.747 15.97 1.875 4.963 2.04 9.31 3.903 9.66 4.138.76.512 1.41 1.4 1.667 2.28.298 1.02.251 62.124-.049 63.115-.31 1.025-1.731 2.421-2.775 2.726-.437.127-1.582.231-2.544.231-1.556 0-1.81.05-2.274.442-.674.57-.695 1.566-.045 2.084.388.308.732.343 2.86.285 2.273-.061 2.498-.102 3.69-.679 1.528-.739 2.882-2.094 3.603-3.606l.517-1.082.052-31.626c.05-31.137.046-31.644-.333-32.855-.435-1.391-1.462-2.816-2.611-3.622-.891-.626-18.267-7.798-19.907-8.218-1.206-.308-2.269-.332-3.383-.074zm-17.435 6.979c-2.252.934-3.308 1.65-4.21 2.856-1.48 1.98-1.442 1.536-1.442 17.056V44.11h-2.989c-1.644 0-2.989-.023-2.989-.052 0-.028.216-.887.48-1.91 1.073-4.153 1.08-9.382.02-14.23-.967-4.423-1.592-5.795-3.16-6.927-2.203-1.59-4.954-1.455-6.992.345-1.506 1.33-1.914 2.334-1.916 4.723-.003 3.627-.625 6.327-1.965 8.533-.992 1.634-3.402 3.88-7.197 6.707-1.909 1.422-3.991 3.035-4.628 3.584l-1.157.997-.056-1.257c-.05-1.092-.123-1.307-.557-1.642-.482-.373-.746-.386-7.906-.386H1.591l-.473.465-.473.465v20.629c0 20.026.01 20.642.368 21.076l.369.447 7.503.054c9.25.066 8.536.303 8.536-2.84v-2.098l1.251.115c1.75.16 3.6.845 5.378 1.991 2.517 1.622 1.707 1.546 16.691 1.553 12.57.006 13.275.025 14.283.373 1.01.349 1.72.367 14.979.373l13.918.006.4-.5c.22-.274.4-.61.4-.748 0-.5-.44-1.177-.899-1.383-.328-.147-4.124-.21-12.61-.21H59.07l.628-1.089c.582-1.008.629-1.216.629-2.809 0-1.557-.057-1.829-.607-2.876l-.606-1.156.74-.504c.852-.579 1.97-2.12 2.307-3.18.474-1.489.087-3.794-.882-5.25-.32-.482-.315-.491.827-1.612.844-.83 1.238-1.394 1.49-2.138.622-1.839.341-4.13-.678-5.536l-.406-.56.97-.857c1.437-1.268 2.046-2.616 2.047-4.53 0-1.153-.099-1.729-.414-2.402-.587-1.253-1.852-2.522-3.122-3.135-1.065-.513-1.17-.526-5.09-.588l-4-.064v-13.57c.001-9.34.068-13.808.215-14.33.348-1.233 1.69-2.369 3.811-3.225 1.502-.607 1.85-.827 2.051-1.296.311-.726.051-1.505-.6-1.796-.676-.303-.74-.29-2.719.53zm16.722 2.612c-1.325.46-2.794 2.008-3.198 3.373-1.073 3.625 1.438 6.988 5.218 6.988 3.78 0 6.29-3.363 5.217-6.988-.42-1.418-1.867-2.912-3.277-3.384-1.167-.39-2.814-.386-3.96.011zm3.43 2.896c1.167.699 1.52 2.298.755 3.423-1.14 1.676-3.327 1.637-4.391-.077-1.373-2.211 1.349-4.716 3.635-3.346zm-36.741 7.072c.995.416 1.43 1.05 1.964 2.858.985 3.344 1.33 5.784 1.328 9.38-.002 3.586-.319 5.633-1.316 8.508-.588 1.697-.612 2.354-.102 2.855.375.368.643.379 9.697.379 9.274 0 9.315.001 10.17.426 2.072 1.027 2.508 3.583.882 5.178-.88.864-1.717 1.021-5.446 1.023-2.923 0-3.355.041-3.744.35-.635.505-.595 1.473.086 2.048.5.422.664.443 3.378.443 2.642 0 2.9.032 3.49.426 2.111 1.41 2.167 4.024.118 5.528-.47.345-.89.401-3.62.485l-3.09.094-.479.548c-.552.632-.494 1.326.157 1.867.317.263.764.331 2.163.331 2.103 0 2.892.195 3.644.896.798.746 1.106 1.418 1.106 2.418 0 1-.313 1.685-1.092 2.39-.843.762-1.636.924-4.515.924-2.64 0-2.66.004-3.056.5-.456.569-.487.81-.186 1.46.315.678.96.881 2.803.881 1.93 0 2.729.294 3.502 1.29.442.57.52.854.52 1.915 0 1.474-.455 2.261-1.648 2.86-.724.362-1.18.374-14.322.374-9.899 0-13.75-.06-14.229-.223-.36-.122-1.133-.538-1.716-.924-1.971-1.303-3.455-1.88-5.79-2.253-.793-.126-1.637-.267-1.875-.312l-.434-.083V60.613l-.508-.392c-.661-.51-1.084-.495-1.747.065l-.541.457-.053 11.095-.052 11.094H3.537V45.437h10.974l.057 5.108c.056 4.97.069 5.12.48 5.523.52.51 1.453.543 1.985.07.357-.317.388-.579.388-3.254v-2.91l1.208-1.18c1.588-1.552 2.72-2.478 6.313-5.16 5.091-3.803 6.845-5.532 8.358-8.236 1.345-2.406 1.818-4.36 2.024-8.37.134-2.598.175-2.822.617-3.292.899-.956 2.02-1.23 3.132-.764zM72.99 43.034c-.37.388-.42.65-.42 2.273v1.834h-.749c-1.649 0-3.78 1.686-4.255 3.366-.11.388-.198 1.686-.196 2.883.002 1.78.074 2.333.395 3.027.756 1.637 1.024 1.79 5.963 3.387 2.512.812 3.639 1.266 3.808 1.533.14.22.24 1.002.24 1.85 0 1.678-.36 2.484-1.33 2.977-.802.406-4.056.406-4.858 0-.701-.357-1.33-1.317-1.33-2.035-.002-.7-.783-1.46-1.502-1.46-.339 0-.726.181-1 .468-.39.407-.433.599-.34 1.49.24 2.274 2.106 4.24 4.363 4.595l.792.124v1.75c0 2.096.342 2.746 1.446 2.746 1.104 0 1.446-.65 1.446-2.747v-1.749l.79-.124c1.135-.178 2.103-.719 3.001-1.675 1.132-1.207 1.466-2.352 1.385-4.757-.06-1.785-.115-2.03-.65-2.88-.772-1.224-1.402-1.545-5.727-2.92-2.552-.812-3.67-1.256-3.809-1.51-.265-.487-.25-3.904.02-4.422.492-.946.88-1.068 3.409-1.072 1.683-.003 2.526.074 2.903.265.56.284.992 1.003.992 1.646 0 .599.322 1.043.937 1.293.466.19.668.178 1.141-.062.317-.16.63-.43.695-.598.35-.895-.143-2.654-1.042-3.726-.71-.846-2.337-1.663-3.311-1.663h-.734v-1.773c0-1.508-.06-1.849-.4-2.273-.522-.652-1.48-.68-2.073-.06z" fill="#FF7451"/></svg>