<svg width="96" height="95" fill="none" xmlns="http://www.w3.org/2000/svg"><path fill-rule="evenodd" clip-rule="evenodd" d="M82.128.378c-.77.201-1.847.604-2.394.895-1.278.68-3.723 3.124-4.402 4.401-.711 1.337-1.285 3.675-1.285 5.234 0 1.568.577 3.908 1.289 5.226.722 1.34 2.546 3.253 3.856 4.046 1.857 1.126 3.293 1.517 5.582 1.52 2.274.002 4-.477 5.74-1.594 1.22-.783 3.02-2.716 3.697-3.972.712-1.318 1.289-3.658 1.289-5.226 0-1.559-.574-3.897-1.285-5.234-.678-1.276-3.123-3.721-4.4-4.4C88.5.575 86.139-.012 84.696 0c-.641.006-1.797.176-2.567.378zM44.07 1.652c-7.8.979-14.221 5.334-17.882 12.13-1.017 1.888-2.096 5.154-2.356 7.131-.114.871-.238 1.692-.274 1.824-.05.178-.801.239-2.922.239-1.57 0-3.127.054-3.46.12-.57.115-.737-.01-2.954-2.202l-2.35-2.324H1.288l-.397.505c-.726.923-.556 1.305 1.518 3.413 1.054 1.07 1.916 2.023 1.916 2.116 0 .094-.862 1.046-1.916 2.117C.302 28.861.14 29.248.956 30.196l.462.538H11.79l2.304-2.299 2.305-2.298h7.177l.147 1.34c.802 7.279 5.71 14.158 12.561 17.609 1.465.738 4.585 1.834 5.218 1.834.324 0 .366.148.366 1.266 0 1.103-.058 1.31-.454 1.623-1.041.818-1.078 1.107-1.078 8.413s.037 7.594 1.078 8.413c.452.356.454.374.454 4.4v4.044h-6.484l.658-1.094c.786-1.304 1.013-2.03 1.166-3.716.426-4.715-3.546-8.978-8.365-8.978-4.81 0-8.79 4.272-8.364 8.978.152 1.68.38 2.412 1.15 3.692l.645 1.069-1.86.09c-1.563.075-2.063.183-3.12.678-1.753.82-2.868 1.914-3.73 3.655l-.715 1.447-.058 7.05-.06 7.05h3.087v-6.443c0-4.384.072-6.683.226-7.194.282-.945 1.455-2.293 2.403-2.764.677-.337 1.48-.366 12.633-.456 11.654-.093 11.921-.104 12.439-.49 1.301-.973 1.313-1.02 1.376-5.845l.058-4.392h3.045v5.677c0 3.897-.073 5.923-.233 6.465-.311 1.052-1.898 2.639-2.95 2.95-.467.138-1.973.233-3.696.233-2.832 0-2.92.012-3.378.47l-.47.47V95h3.065v-9.149l2.442-.077c2.253-.071 2.542-.124 3.722-.677 1.775-.832 2.888-1.92 3.751-3.666l.716-1.447.06-6.505.06-6.505.442-.348c1.028-.809 1.066-1.111 1.066-8.404 0-7.306-.037-7.595-1.078-8.413-.395-.311-.454-.52-.454-1.607v-1.248l.814-.136c1.225-.204 3.294-.986 5.203-1.966 9.614-4.935 14.47-16.195 11.49-26.643-.97-3.397-2.972-6.89-5.438-9.487-3.516-3.703-8.23-6.171-13.218-6.923-1.674-.253-4.448-.322-5.843-.147zm43.85 2.134c1.729.81 2.847 1.91 3.704 3.644.685 1.385.715 1.53.71 3.373-.005 1.608-.081 2.094-.464 2.953l-.459 1.028-.456-.898c-.25-.493-.84-1.265-1.31-1.716l-.855-.818.29-.695c.655-1.566.237-3.26-1.146-4.652-1.094-1.101-2.385-1.56-3.766-1.34-2.865.459-4.743 3.499-3.701 5.992l.29.695-.855.818c-.47.45-1.06 1.223-1.31 1.716l-.456.898-.459-1.028c-.382-.858-.459-1.345-.464-2.944-.005-1.759.044-2.02.6-3.195.77-1.624 1.866-2.814 3.296-3.576 1.508-.804 2.334-.986 4.095-.902 1.15.055 1.762.2 2.716.647zM49.625 4.87c7.926 1.29 14.118 7.006 16.212 14.965.62 2.36.629 7.07.016 9.308-1.507 5.5-4.492 9.574-9.068 12.379-6.557 4.017-15.082 3.79-21.55-.575-1.32-.89-3.6-3.097-4.714-4.561-1.872-2.46-3.786-7.313-3.786-9.602v-.742h17.623v-3.065H26.607l.163-1.197c.546-4.024 2.39-7.846 5.233-10.85 4.637-4.9 11.098-7.122 17.622-6.06zm-5.267 2.908c-6.754 1.025-12.028 5.484-14 11.837-.195.627-.323 1.171-.284 1.21.099.098 2.248.604 2.6.612.188.004.472-.52.825-1.52 1.265-3.58 4.24-6.72 7.7-8.123 6.184-2.51 13.12-.358 16.776 5.205 4.169 6.342 2.38 14.846-4 19.025-5.603 3.67-12.927 2.787-17.514-2.11-1.412-1.508-2.472-3.244-3.045-4.99-.226-.69-.432-1.28-.458-1.31-.068-.083-2.657.568-2.807.705-.242.223.947 3.295 1.877 4.848 2.231 3.728 5.951 6.496 10.318 7.678 2.207.597 6.057.59 8.301-.017 6.066-1.637 10.498-6.088 12.152-12.2.554-2.048.584-6.053.059-8.03-1.778-6.696-6.873-11.472-13.52-12.672-1.336-.242-3.87-.317-4.98-.148zm41.168.155c.92.476 1.065 1.56.31 2.314-.93.93-2.595.278-2.595-1.016 0-.602.276-1.036.862-1.357.517-.283.784-.272 1.423.059zM44.932 13.34c-2.994.5-5.693 2.085-7.405 4.347-.983 1.3-1.893 3.16-1.656 3.384.085.08.73.316 1.435.525l1.282.379.526-1.08c.29-.593 1.006-1.558 1.592-2.144 3.28-3.28 8.249-3.263 11.56.039 3.235 3.226 3.2 8.23-.082 11.52-3.201 3.21-8.247 3.192-11.478-.041-.586-.587-1.302-1.55-1.59-2.142l-.525-1.076-1.283.383c-.705.21-1.35.443-1.433.517-.228.204.542 1.847 1.483 3.166 1.322 1.853 3.081 3.15 5.411 3.99 5.213 1.88 11.211-.526 13.651-5.476 1.734-3.518 1.739-6.716.014-10.215a10.76 10.76 0 00-4.877-4.877c-2.203-1.086-4.65-1.529-6.625-1.199zm42.132.726c.995.514 1.349 1.17 1.349 2.496v1.196l-1.006.44c-1.423.625-3.844.625-5.267 0l-1.006-.44v-1.179c0-1.318.266-1.847 1.22-2.43.773-.47 3.855-.526 4.71-.083zm-42.231 5.032c-1.81.63-1.798.603-.86 1.94.453.645.884 1.173.958 1.173.075 0 .41-.096.744-.212 1.94-.677 3.906 1.263 3.306 3.262-.409 1.367-1.984 2.22-3.269 1.772-.563-.196-.58-.182-1.337 1.13l-.766 1.33.71.315c1.124.5 3.359.435 4.532-.13a6 6 0 002.781-2.782c.358-.743.458-1.264.458-2.386 0-1.68-.49-2.91-1.603-4.023-1.453-1.453-3.81-2.032-5.654-1.389zM12.125 23.02c.767.761 1.394 1.48 1.394 1.595 0 .116-.68.872-1.51 1.681l-1.511 1.47h-2.32c-1.277 0-2.321-.057-2.321-.128 0-.07.517-.666 1.15-1.324 1.509-1.572 1.506-1.848-.031-3.45l-1.18-1.228h4.936l1.393 1.384zm63.454 9.152v1.532h3.065v-3.065h-3.065v1.533zm-3.19 9.01c-6.12 1.09-10.167 7.087-8.774 12.998.442 1.877 1.518 3.768 2.954 5.192 4.145 4.111 10.832 4.111 14.95 0 3.624-3.618 4.267-9.144 1.556-13.369-.748-1.165-2.513-2.868-3.665-3.535-1.958-1.133-4.878-1.668-7.02-1.286zm4.326 3.418c4.16 1.58 6.085 6.235 4.32 10.444l-.314.747-.541-.948c-.298-.522-.89-1.264-1.317-1.649l-.776-.7.303-.89c.844-2.478-.788-5.246-3.444-5.84-3.356-.752-6.366 2.667-5.216 5.925l.28.793-.871.803c-.48.441-1.073 1.194-1.319 1.673l-.447.87-.304-.715c-1.963-4.624.67-9.868 5.454-10.867 1.136-.237 3.067-.074 4.192.354zM9.688 45.962v1.533h3.064V44.43H9.688v1.532zm38.309 2.3v.765h-3.065v-1.532h3.065v.766zm27.151 1.079c.537.59.549 1.21.034 1.863-.306.39-.566.505-1.135.505-1.248 0-1.93-1.264-1.225-2.27.623-.89 1.57-.93 2.326-.098zM49.53 58.22v6.13H43.4V52.093h6.129v6.13zm26.618-3.197c1.046.36 1.568 1.303 1.5 2.712l-.056 1.156-1.245.424c-.692.236-1.714.425-2.3.425-.584 0-1.606-.189-2.298-.425l-1.245-.424-.056-1.157c-.103-2.134.883-2.94 3.6-2.94.79 0 1.735.103 2.1.229zm-45.587 9.63c1.446.43 2.865 1.876 3.344 3.406 1.676 5.362-4.853 9.34-8.829 5.38-2.14-2.132-2.129-5.311.026-7.468 1.506-1.508 3.333-1.949 5.459-1.317zm60.343 16.554v1.533h3.065v-3.065h-3.065v1.532zM18.882 88.87V95h3.065V82.74h-3.065v6.13z" fill="#FF7451"/></svg>