<svg width="96" height="96" fill="none" xmlns="http://www.w3.org/2000/svg"><path d="M42.459 23.966a2.375 2.375 0 100 4.75 2.375 2.375 0 000-4.75zm14.25 0a2.375 2.375 0 100 4.75 2.375 2.375 0 000-4.75zm-7.123 9.499a1.585 1.585 0 01-1.583-1.584h-3.167a4.75 4.75 0 009.5 0h-3.167a1.585 1.585 0 01-1.583 1.584z" fill="#FF7730"/><path d="M94.94 57.592a1.586 1.586 0 00-1.284-.354l-14.314 2.386a7.205 7.205 0 00-2.652 1.005l-1.092-2.755a10.544 10.544 0 00-1.816-3.034l.413-3.744c.106-.954.161-1.913.167-2.873a25.842 25.842 0 00-2.107-10.202 22.87 22.87 0 01-1.806-10.113l.27-5.48c.016-.346.033-.703.033-1.058A21.185 21.185 0 0049.583.216a21.165 21.165 0 00-21.135 22.212l.268 5.463c.016.408.03.793.03 1.174a22.548 22.548 0 01-1.835 8.956 25.873 25.873 0 00-1.94 13.085l.413 3.693c-.48.56-.9 1.167-1.254 1.813l-2.162-5.403a4.663 4.663 0 10-8.5 3.818l.303.605H10.66a7.955 7.955 0 01-3.54-.835l-1.578-.79A3.484 3.484 0 00.5 57.124v4.469a4.724 4.724 0 002.626 4.248l2.577 1.289a11.14 11.14 0 004.956 1.17h.924v4.689l-1.137 14.786a6.912 6.912 0 007.241 7.433 6.373 6.373 0 006.289-4.177l7.228-13.44a13.85 13.85 0 002.546 5.513v12.113h3.167V82.549c0-.37-.13-.729-.367-1.014a10.795 10.795 0 011.38-15.186l-2.027-2.433a13.96 13.96 0 00-1.967 2.008c-.06.062-.115.128-.164.198l-.003-.002-.029.05c-.007.01-.012.023-.02.034a13.864 13.864 0 00-2.058 3.848L24.25 83.835V64.6l2.25-5.602a7.59 7.59 0 011.666-2.556 8.013 8.013 0 015.679-2.392h5.298l9.05 16.592a1.584 1.584 0 002.78 0l3.36-6.16v21.235a1.583 1.583 0 001.273 1.552l6.644 1.33v6.618h3.167V89.23l6.058 1.21c.039.007.223.026.275.026h2.995l.304.566a6.415 6.415 0 007.055 4.097 6.417 6.417 0 004.956-4.134l4.21-.702a3.155 3.155 0 002.64-2.961l.316-.064a1.584 1.584 0 001.274-1.552V58.799a1.583 1.583 0 00-.56-1.207zm-52.369-3.87a3.802 3.802 0 002.262-3.473v-4.846a15.84 15.84 0 009.5 0v4.846a3.804 3.804 0 002.262 3.472l-1.905 3.495H44.477l-1.906-3.495zm7.012-10.756a12.68 12.68 0 01-12.666-12.667v-7.088a23.13 23.13 0 006.852-7.845 41.013 41.013 0 0018.481 8.366V30.3a12.68 12.68 0 01-12.667 12.667zm21.398 13.503l.03.03a7.336 7.336 0 011.642 2.535l.68 1.717a7.202 7.202 0 00-2.841-1.128L58.109 57.56l1.914-3.51h5.283a7.846 7.846 0 015.675 2.42zm.926 8.663l-7.204-1.44-7.205-1.441v-1.583l12.471 2.078a4.01 4.01 0 013.043 2.386h-1.105zm7.956-2.385l12.47-2.079v1.583l-7.447 1.49-6.96 1.391h-1.105a4.01 4.01 0 013.041-2.385h.001zm-72.744 1.55l-2.577-1.289a1.575 1.575 0 01-.875-1.416v-4.469a.303.303 0 01.15-.269.301.301 0 01.308-.014l1.578.789a11.14 11.14 0 004.956 1.17h5.674a1.584 1.584 0 001.416-2.291l-1.449-2.9a1.496 1.496 0 112.728-1.225l2.055 5.138v7.611H10.66a7.955 7.955 0 01-3.54-.835zm13.964 4.002v3.167H14.75v-3.167h6.333zm-7.48 19.717l1.03-13.384h6.45v13.671a3.747 3.747 0 01-3.474 3.732c-.06 0-.119.003-.178.01-.032 0-.062.004-.093.004a3.746 3.746 0 01-3.735-4.033zm20.172-21.892a1.98 1.98 0 01.101-.122l-.096.125-.005-.003zm-5.474-13.746l-.182-1.627a22.7 22.7 0 011.702-11.483A25.72 25.72 0 0031.88 27.75l-.27-5.479a18 18 0 1135.976-.903c0 .28-.015.584-.03.904l-.269 5.475a26.048 26.048 0 002.057 11.517 22.694 22.694 0 011.852 8.957 24.287 24.287 0 01-.149 2.534l-.18 1.631a11.074 11.074 0 00-5.561-1.505h-7.173a.642.642 0 01-.633-.633v-6.247A15.84 15.84 0 0065.417 30.3v-7.916a1.583 1.583 0 00-1.36-1.568 37.856 37.856 0 01-18.894-8.4l-.9-.749a1.582 1.582 0 00-2.43.508l-.613 1.227a19.947 19.947 0 01-6.765 7.664 1.583 1.583 0 00-.705 1.317V30.3a15.838 15.838 0 007.917 13.703v6.247a.642.642 0 01-.634.633h-7.188a11.154 11.154 0 00-5.544 1.496zm21.282 14.198l-3.378-6.194h6.757l-3.379 6.194zM57.5 65.48l12.667 2.533V86.95L57.5 84.418V65.48zm15.833 2.818H76.5v19h-3.167v-19zm8.227 23.71a3.244 3.244 0 01-3.291-1.556c.03-.003.06-.008.09-.013l.034-.005h.003l.01-.002 3.255-.651a3.125 3.125 0 001.595 1.388 3.3 3.3 0 01-1.696.84zm9.19-4.84l-6.333 1.056V82.34a.477.477 0 01.399-.471l5.378-.896a.478.478 0 01.556.471l.001 5.725h-.001zm-1.077-9.32l-5.378.896a3.633 3.633 0 00-3.045 3.595v4.295l-1.583.317V68.014l12.666-2.533V78.44a3.634 3.634 0 00-2.66-.59z" fill="#FF7730"/></svg>