<svg width="96" height="96" fill="none" xmlns="http://www.w3.org/2000/svg"><path d="M8.161 84.456H48v-3.065H8.161a4.597 4.597 0 01-4.597-4.597V9.375a4.596 4.596 0 014.597-4.597h67.42a4.596 4.596 0 014.596 4.597v35.242h3.065V9.375a7.67 7.67 0 00-7.662-7.661H8.162A7.67 7.67 0 00.5 9.375v67.42a7.672 7.672 0 007.661 7.661z" fill="#FF7730"/><path d="M6.63 7.844h3.065v3.064H6.63V7.844zm6.128 0h3.065v3.064h-3.065V7.844zm6.129 0h3.064v3.064h-3.064V7.844zM6.63 13.974h70.484v3.065H6.631v-3.065zm15.771 6.578l-3.892 3.892a7.684 7.684 0 102.167 2.167l3.892-3.892-2.167-2.167zm-8.11 14.873a4.597 4.597 0 010-9.193 4.513 4.513 0 011.969.46l-3.052 3.052 2.166 2.167 3.054-3.051c.3.613.457 1.285.46 1.969a4.596 4.596 0 01-4.597 4.596zm12.258-9.195h26.048v3.064H26.549V26.23zm0 6.13h10.725v3.063H26.55V32.36zm13.789 0h21.45v3.063h-21.45V32.36zm15.324-6.13h15.323v3.064H55.662V26.23zM22.401 38.938L18.51 42.83a7.684 7.684 0 102.167 2.167l3.892-3.892-2.167-2.167zm-8.11 14.874a4.597 4.597 0 010-9.194 4.51 4.51 0 011.969.46l-3.052 3.053 2.166 2.166 3.054-3.051c.3.613.457 1.286.46 1.969a4.597 4.597 0 01-4.597 4.597zm12.258-9.196h26.048v3.065H26.549v-3.065zm0 6.13h10.725v3.064H26.55v-3.064zm13.789 0h12.257v3.064H40.338v-3.064zm15.324-6.13h6.129v3.065h-6.129v-3.065zM22.401 57.324l-3.892 3.892a7.684 7.684 0 102.167 2.166l3.892-3.891-2.167-2.167zm-8.11 14.873a4.597 4.597 0 010-9.193 4.51 4.51 0 011.969.46l-3.052 3.052 2.166 2.167 3.054-3.051c.3.613.457 1.286.46 1.969a4.596 4.596 0 01-4.597 4.596zm12.258-9.192h19.919v3.065h-19.92v-3.065zm0 6.126h10.725v3.065H26.55V69.13zm13.789 0h6.129v3.065h-6.13V69.13zM72.517 93.65c12.695 0 22.984-10.29 22.984-22.984 0-12.694-10.29-22.984-22.984-22.984-12.694 0-22.984 10.29-22.984 22.984.015 12.688 10.296 22.97 22.984 22.984zm0-42.903c11 0 19.92 8.918 19.92 19.92 0 11-8.92 19.918-19.92 19.918-11.001 0-19.92-8.917-19.92-19.919.013-10.996 8.924-19.907 19.92-19.92z" fill="#FF7730"/><path d="M63.169 71.512l-2.743 1.37 3.064 6.128a1.531 1.531 0 001.364.848c.406 0 .796-.161 1.084-.449l18.386-18.387-2.166-2.166-16.885 16.883-2.104-4.227z" fill="#FF7730"/></svg>