<svg width="96" height="96" fill="none" xmlns="http://www.w3.org/2000/svg"><g clip-path="url(#clip0_2097_4194)" fill="#FF7730"><path d="M94.108 80.672h-2.462V30.677a6.65 6.65 0 00-6.642-6.64h-3.27a5.648 5.648 0 00-2.45-7.435l-18.197-9.64a1.391 1.391 0 10-1.303 2.46l18.196 9.64a2.827 2.827 0 011.526 2.535c0 1.082-.57 2.03-1.525 2.536l-17.689 9.37L49.047 20.68a1.391 1.391 0 10-2.093 1.835l10.81 12.328-6.693 3.545a6.562 6.562 0 01-6.141 0L18.02 24.135a2.828 2.828 0 01-1.526-2.536c0-1.082.57-2.03 1.525-2.536L44.93 4.806a6.561 6.561 0 016.141 0l3.852 2.041a1.391 1.391 0 101.304-2.46l-3.853-2.04a9.343 9.343 0 00-8.746 0l-26.91 14.255a5.65 5.65 0 00-2.45 7.434h-3.27a6.65 6.65 0 00-6.643 6.641v49.995H1.892c-.769 0-1.392.623-1.392 1.392v3.084c0 4.977 4.049 9.026 9.025 9.026h76.95c4.976 0 9.025-4.049 9.025-9.026v-3.084c0-.769-.623-1.392-1.392-1.392zM59.971 56.53l1.814 3.142c.375.65.125 1.223 0 1.44-.125.216-.496.72-1.246.72h-1.136c-.75 0-1.122-.504-1.247-.72a1.414 1.414 0 010-1.44l1.815-3.142zm1.391-20.443l5.759-3.05v5.525c0 3.97-2.243 7.527-5.759 9.217V36.087zM48 41.935a9.348 9.348 0 004.373-1.087l6.206-3.287v11.295c-7.603 2.518-16.015 2.236-23.437-.85-3.804-1.58-6.263-5.288-6.263-9.443v-5.527l14.748 7.813A9.34 9.34 0 0048 41.935zM7.137 30.677a3.863 3.863 0 013.86-3.857h6.148l7.005 3.71H12.24c-.769 0-1.392.624-1.392 1.392V75.57c0 .769.623 1.392 1.392 1.392h7.345a1.392 1.392 0 000-2.783h-5.954V33.314h12.465v5.248c0 5.285 3.132 10 7.978 12.015A36.325 36.325 0 0048 53.336c3.573 0 7.145-.52 10.58-1.561v1.598l-2.834 4.908a4.18 4.18 0 000 4.222 4.18 4.18 0 003.657 2.112h1.136a4.18 4.18 0 003.657-2.112 4.179 4.179 0 000-4.222l-2.834-4.908v-2.57c.188-.075.377-.148.564-.226 4.846-2.014 7.978-6.73 7.978-12.015v-5.248h12.465v40.865H25.152a1.392 1.392 0 000 2.783H83.76c.769 0 1.392-.623 1.392-1.392V31.922c0-.768-.623-1.391-1.392-1.391H71.85l7.005-3.711h6.148c2.129 0 3.86 1.73 3.86 3.857v49.995H7.137V30.677zm49.469 52.779A3.817 3.817 0 0153 86.031H42.999a3.817 3.817 0 01-3.605-2.575h17.212zm36.11 1.692a6.25 6.25 0 01-6.241 6.242H9.525a6.25 6.25 0 01-6.242-6.242v-1.693h2.448l.014.001h30.778c.58 3.047 3.263 5.358 6.476 5.358h10.002c3.213 0 5.896-2.311 6.476-5.358h33.24v1.692z"/><path d="M48.42 69.077c0-.768-.624-1.391-1.392-1.391h-27.86a1.392 1.392 0 000 2.783h27.86c.768 0 1.392-.623 1.392-1.392zm-29.251-4.464h18.627a1.392 1.392 0 000-2.783H19.169a1.392 1.392 0 000 2.783z"/></g><defs><clipPath id="clip0_2097_4194"><path fill="#fff" transform="translate(.5 .216)" d="M0 0h95v95H0z"/></clipPath></defs></svg>