<svg width="96" height="96" fill="none" xmlns="http://www.w3.org/2000/svg"><path d="M58.39 22.381H25.735a1.384 1.384 0 110-2.768h32.657a1.384 1.384 0 110 2.768zm0 8.907H25.735a1.384 1.384 0 010-2.77h32.657a1.384 1.384 0 010 2.77zm0 8.906H25.735a1.384 1.384 0 110-2.769h32.657a1.384 1.384 0 110 2.769zm0 8.906H25.735a1.384 1.384 0 010-2.769h32.657a1.384 1.384 0 010 2.77zm-20.78 8.906H25.733a1.384 1.384 0 110-2.768H37.61a1.384 1.384 0 110 2.768z" fill="#FF7730" stroke="#FF7730" stroke-width=".2"/><mask id="a" fill="#fff"><path d="M84.39 38.256a4.458 4.458 0 00-6.094 1.59l-3.579 6.107V9.123a1.484 1.484 0 00-1.484-1.485h-11.26s-4.46-4.542-4.639-4.39a1.48 1.48 0 00-.43-.063H13.859a1.484 1.484 0 00-1.485 1.484V9.31a5.937 5.937 0 000 11.5v3.344a5.937 5.937 0 000 11.499v3.345a5.938 5.938 0 000 11.499v1.86a5.938 5.938 0 000 11.499v9.094a1.484 1.484 0 001.485 1.485h1.484v4.453a1.484 1.484 0 001.484 1.484h37.72l-1.017 1.736a1.471 1.471 0 00-.182.504l-.005.025-.003.024v.006l-1.19 7.873a1.485 1.485 0 002.378 1.394l6.314-4.902c.404-.314.602-.506.57-.764l3.456-5.897h8.364a1.484 1.484 0 001.484-1.484v-15.32L85.98 44.35a4.458 4.458 0 00-1.59-6.093zm-2.626 2.405a1.485 1.485 0 011.655 2.187l-.75 1.28-2.561-1.5.75-1.28a1.474 1.474 0 01.906-.687zM59.402 83.83l-2.56-1.5 19.513-33.3 2.56 1.501L59.402 83.83zM58.39 8.253l5.323 5.322H58.39V8.253zM77.856 46.47l.75-1.28 2.562 1.5-.75 1.28-2.562-1.5zm-6.108-35.864v40.079c0 .096.01.192.029.286l-2.997 5.115V15.06a1.482 1.482 0 00-.434-1.049l-.001-.001-3.404-3.404h6.807zM15.342 6.153H55.42v8.907a1.484 1.484 0 001.485 1.484h8.906V61.15l-6.045 10.315H15.342v-7.61a5.934 5.934 0 004.266-4.266 1.485 1.485 0 00-2.876-.74 2.958 2.958 0 01-1.39 1.826v-10.18a5.933 5.933 0 004.266-4.266 1.485 1.485 0 00-2.876-.74 2.959 2.959 0 01-1.39 1.827V35.653a5.932 5.932 0 004.266-4.266 1.485 1.485 0 00-2.876-.74 2.957 2.957 0 01-1.39 1.826V20.81a5.933 5.933 0 004.266-4.266 1.485 1.485 0 00-2.876-.74 2.959 2.959 0 01-1.39 1.826V6.153zM10.89 15.06a2.97 2.97 0 011.484-2.568v5.135a2.969 2.969 0 01-1.484-2.567zm0 14.843a2.969 2.969 0 011.484-2.567v5.134a2.969 2.969 0 01-1.484-2.567zm0 14.844a2.97 2.97 0 011.484-2.567v5.134a2.969 2.969 0 01-1.484-2.567zm0 13.36a2.97 2.97 0 011.484-2.568v5.134a2.969 2.969 0 01-1.484-2.567zm7.422 19.296v-2.968h39.715l-1.74 2.968H18.311zm37.64 7.844l1.34.785-1.652 1.282.312-2.066zm15.797-7.844h-5.14l5.14-8.769v8.77z"/></mask><path d="M84.39 38.256a4.458 4.458 0 00-6.094 1.59l-3.579 6.107V9.123a1.484 1.484 0 00-1.484-1.485h-11.26s-4.46-4.542-4.639-4.39a1.48 1.48 0 00-.43-.063H13.859a1.484 1.484 0 00-1.485 1.484V9.31a5.937 5.937 0 000 11.5v3.344a5.937 5.937 0 000 11.499v3.345a5.938 5.938 0 000 11.499v1.86a5.938 5.938 0 000 11.499v9.094a1.484 1.484 0 001.485 1.485h1.484v4.453a1.484 1.484 0 001.484 1.484h37.72l-1.017 1.736a1.471 1.471 0 00-.182.504l-.005.025-.003.024v.006l-1.19 7.873a1.485 1.485 0 002.378 1.394l6.314-4.902c.404-.314.602-.506.57-.764l3.456-5.897h8.364a1.484 1.484 0 001.484-1.484v-15.32L85.98 44.35a4.458 4.458 0 00-1.59-6.093zm-2.626 2.405a1.485 1.485 0 011.655 2.187l-.75 1.28-2.561-1.5.75-1.28a1.474 1.474 0 01.906-.687zM59.402 83.83l-2.56-1.5 19.513-33.3 2.56 1.501L59.402 83.83zM58.39 8.253l5.323 5.322H58.39V8.253zM77.856 46.47l.75-1.28 2.562 1.5-.75 1.28-2.562-1.5zm-6.108-35.864v40.079c0 .096.01.192.029.286l-2.997 5.115V15.06a1.482 1.482 0 00-.434-1.049l-.001-.001-3.404-3.404h6.807zM15.342 6.153H55.42v8.907a1.484 1.484 0 001.485 1.484h8.906V61.15l-6.045 10.315H15.342v-7.61a5.934 5.934 0 004.266-4.266 1.485 1.485 0 00-2.876-.74 2.958 2.958 0 01-1.39 1.826v-10.18a5.933 5.933 0 004.266-4.266 1.485 1.485 0 00-2.876-.74 2.959 2.959 0 01-1.39 1.827V35.653a5.932 5.932 0 004.266-4.266 1.485 1.485 0 00-2.876-.74 2.957 2.957 0 01-1.39 1.826V20.81a5.933 5.933 0 004.266-4.266 1.485 1.485 0 00-2.876-.74 2.959 2.959 0 01-1.39 1.826V6.153zM10.89 15.06a2.97 2.97 0 011.484-2.568v5.135a2.969 2.969 0 01-1.484-2.567zm0 14.843a2.969 2.969 0 011.484-2.567v5.134a2.969 2.969 0 01-1.484-2.567zm0 14.844a2.97 2.97 0 011.484-2.567v5.134a2.969 2.969 0 01-1.484-2.567zm0 13.36a2.97 2.97 0 011.484-2.568v5.134a2.969 2.969 0 01-1.484-2.567zm7.422 19.296v-2.968h39.715l-1.74 2.968H18.311zm37.64 7.844l1.34.785-1.652 1.282.312-2.066zm15.797-7.844h-5.14l5.14-8.769v8.77z" fill="#FF7730" stroke="#FF7730" stroke-width=".4" mask="url(#a)"/></svg>