<svg width="160" height="50" fill="none" xmlns="http://www.w3.org/2000/svg"><path fill="#DCDCDC" d="M0 0h160v50H0z"/><path d="M66.168 31V19.8h1.184v10.176h6.272V31h-7.456zm12.48.08c-.81 0-1.54-.181-2.191-.544a4.155 4.155 0 01-1.52-1.52c-.374-.65-.56-1.392-.56-2.224 0-.843.186-1.584.56-2.224.373-.64.88-1.141 1.52-1.504s1.37-.544 2.192-.544c.832 0 1.568.181 2.208.544.65.363 1.157.864 1.52 1.504.373.64.56 1.381.56 2.224 0 .832-.187 1.573-.56 2.224a4 4 0 01-1.52 1.52c-.651.363-1.387.544-2.208.544zm0-1.008c.609 0 1.147-.133 1.617-.4a2.94 2.94 0 001.104-1.152c.277-.501.416-1.077.416-1.728 0-.661-.139-1.237-.416-1.728a2.83 2.83 0 00-1.104-1.136 3.085 3.085 0 00-1.6-.416c-.598 0-1.131.139-1.6.416a2.94 2.94 0 00-1.12 1.136c-.278.49-.416 1.067-.416 1.728 0 .65.138 1.227.416 1.728.277.49.65.875 1.12 1.152.469.267.997.4 1.584.4zm10.192 4.112a7.238 7.238 0 01-2.208-.336c-.704-.224-1.275-.544-1.712-.96l.576-.864c.395.352.88.63 1.456.832.587.213 1.205.32 1.856.32 1.066 0 1.85-.25 2.352-.752.501-.49.752-1.259.752-2.304v-2.096l.16-1.44-.112-1.44V22.6h1.088v7.376c0 1.45-.358 2.512-1.072 3.184-.704.683-1.75 1.024-3.136 1.024zm-.208-3.504c-.8 0-1.52-.17-2.16-.512a3.987 3.987 0 01-1.52-1.456c-.363-.619-.544-1.328-.544-2.128s.181-1.504.544-2.112a3.87 3.87 0 011.52-1.44c.64-.341 1.36-.512 2.16-.512.746 0 1.418.155 2.016.464a3.47 3.47 0 011.424 1.376c.352.608.528 1.35.528 2.224 0 .875-.176 1.616-.528 2.224a3.573 3.573 0 01-1.424 1.392c-.597.32-1.27.48-2.016.48zm.112-1.008c.618 0 1.168-.128 1.648-.384a3.01 3.01 0 001.136-1.088c.277-.47.416-1.008.416-1.616 0-.608-.139-1.141-.416-1.6a2.892 2.892 0 00-1.136-1.072c-.48-.267-1.03-.4-1.648-.4-.608 0-1.157.133-1.648.4-.48.256-.859.613-1.136 1.072-.267.459-.4.992-.4 1.6 0 .608.133 1.147.4 1.616a3.01 3.01 0 001.136 1.088c.49.256 1.04.384 1.648.384zm10.889 1.408c-.81 0-1.541-.181-2.192-.544a4.154 4.154 0 01-1.52-1.52c-.373-.65-.56-1.392-.56-2.224 0-.843.187-1.584.56-2.224.373-.64.88-1.141 1.52-1.504s1.37-.544 2.192-.544c.832 0 1.568.181 2.208.544a3.888 3.888 0 011.52 1.504c.373.64.56 1.381.56 2.224 0 .832-.187 1.573-.56 2.224a4 4 0 01-1.52 1.52c-.651.363-1.387.544-2.208.544zm0-1.008c.608 0 1.147-.133 1.616-.4a2.946 2.946 0 001.104-1.152c.277-.501.416-1.077.416-1.728 0-.661-.139-1.237-.416-1.728a2.835 2.835 0 00-1.104-1.136 3.085 3.085 0 00-1.6-.416 3.09 3.09 0 00-1.6.416 2.94 2.94 0 00-1.12 1.136c-.277.49-.416 1.067-.416 1.728 0 .65.139 1.227.416 1.728.277.49.65.875 1.12 1.152.47.267.997.4 1.584.4z" fill="#000"/></svg>