<svg width="96" height="95" viewBox="0 0 96 95" fill="none" xmlns="http://www.w3.org/2000/svg">
<circle cx="48" cy="47.5" r="46.5" stroke="#FF803D" stroke-width="2"/>
<path fill-rule="evenodd" clip-rule="evenodd" d="M23.0871 23.2483C21.3456 24.0801 20.9561 26.3935 22.325 27.7747C22.7589 28.2125 23.1384 28.4178 23.6928 28.5148L24.1268 28.5905L24.1787 47.9552C24.2336 68.4175 24.2136 67.6394 24.6941 67.9026C24.8225 67.973 26.8648 68.0115 30.4618 68.0115C33.5248 68.0115 36.0309 68.036 36.0309 68.0658C36.0309 68.0957 34.6741 69.8553 33.0159 71.9763C31.3576 74.0972 30.0008 75.8643 30.0008 75.9033C30.0008 75.9424 30.3109 76.2268 30.6898 76.5354C31.2769 77.0136 31.396 77.0727 31.4956 76.9356C31.5598 76.847 33.1535 74.8029 35.0371 72.393L38.4619 68.0115H42.8085H47.1552V69.0585C47.1552 70.0577 47.1439 70.111 46.9081 70.2209C46.4447 70.437 45.8751 71.0419 45.6322 71.5757C45.0124 72.9381 45.5618 74.55 46.8953 75.2809C47.4829 75.603 48.6982 75.6023 49.2936 75.2795C49.8085 75.0004 50.4217 74.3247 50.6357 73.8005C50.8769 73.2095 50.8382 72.2101 50.5496 71.5757C50.3067 71.0419 49.7371 70.437 49.2737 70.2209C49.0379 70.111 49.0266 70.0577 49.0266 69.0585V68.0115H53.3733H57.7199L61.1448 72.393C63.0283 74.8029 64.622 76.847 64.6863 76.9356C64.7859 77.0727 64.9049 77.0136 65.492 76.5354C65.871 76.2268 66.181 75.9424 66.181 75.9033C66.181 75.8643 64.8242 74.0972 63.166 71.9763C61.5077 69.8553 60.151 68.0957 60.151 68.0658C60.151 68.036 62.6571 68.0115 65.72 68.0115C69.317 68.0115 71.3593 67.973 71.4877 67.9026C71.9682 67.6394 71.9482 68.4175 72.0031 47.9552L72.0551 28.5905L72.489 28.5148C73.0435 28.4178 73.4229 28.2125 73.8568 27.7747C75.2257 26.3935 74.8362 24.0801 73.0947 23.2483L72.5749 23H48.0909H23.6069L23.0871 23.2483ZM72.5665 25.1181C73.0178 25.552 72.9083 26.293 72.3478 26.5986C72.0201 26.7772 24.1617 26.7772 23.834 26.5986C23.4889 26.4105 23.354 26.1755 23.3503 25.7566C23.3468 25.3512 23.6323 24.9802 24.0228 24.8827C24.1372 24.8541 35.0459 24.8374 48.2644 24.8455L72.2982 24.8601L72.5665 25.1181ZM70.1317 47.4202V66.2024H48.0909H26.0501V47.4202V28.6379H48.0909H70.1317V47.4202ZM36.1868 31.4639C36.0724 31.491 35.7216 31.5644 35.4071 31.627C35.0926 31.6895 34.4142 31.9487 33.8996 32.2028C29.637 34.3075 28.4404 39.8066 31.4049 43.6682C32.0218 44.4718 32.873 45.1521 33.9129 45.6726C34.9337 46.1836 35.8897 46.4055 37.0705 46.4055C38.3032 46.4055 39.2484 46.1762 40.3875 45.6007C42.0296 44.7709 43.3766 43.2087 43.984 41.4289C45.2229 37.7995 43.6135 33.8392 40.2256 32.1806C39.8166 31.9804 39.2318 31.747 38.926 31.662C38.3597 31.5045 36.5639 31.3747 36.1868 31.4639ZM55.4725 33.3201V34.2779H56.3562H57.2399V33.3201V32.3624H56.3562H55.4725V33.3201ZM59.1113 33.3215V34.2806L62.7761 34.2527L66.4409 34.2247L66.4709 33.2935L66.501 32.3624H62.8061H59.1113V33.3215ZM36.1608 36.0071L36.1188 38.5877L34.3542 40.39L32.5896 42.1924L32.3382 41.7734C31.6766 40.6706 31.4359 38.9235 31.76 37.5767C32.1775 35.8424 33.4769 34.3406 35.1204 33.6932C36.2982 33.2293 36.2093 33.0318 36.1608 36.0071ZM39.5137 33.9565C40.2657 34.329 41.4371 35.3152 41.4371 35.5759C41.4371 35.6495 38.1982 37.3639 38.0594 37.3639C38.0301 37.3639 38.0062 36.4742 38.0062 35.3868V33.4096L38.3441 33.4771C38.5299 33.5142 39.0563 33.7299 39.5137 33.9565ZM51.7297 37.0439V38.0024H59.1154H66.501L66.4709 37.0713L66.4409 36.1401L59.0853 36.1128L51.7297 36.0856V37.0439ZM42.4162 37.5393C42.4524 37.6357 42.5109 38.0638 42.5461 38.4906C42.7464 40.917 41.2695 43.3194 39.0458 44.1843C37.5114 44.7811 35.241 44.5527 34.2077 43.6978L33.8996 43.4429L35.8099 41.5473L37.7203 39.6518L39.9166 38.5135C41.1246 37.8875 42.1663 37.3728 42.2317 37.3696C42.2971 37.3665 42.3802 37.4428 42.4162 37.5393ZM51.7297 40.8224V41.7269H59.1113H66.4929V40.8224V39.9179H59.1113H51.7297V40.8224ZM51.7517 44.5735L51.7817 45.5047L57.2659 45.5322L62.7501 45.5598V44.6011V43.6424H57.2359H51.7216L51.7517 44.5735ZM33.4317 50.1869V51.0915H34.3154H35.1991V50.1869V49.2824H34.3154H33.4317V50.1869ZM37.0705 50.1869V51.0915H40.7613H44.4521V50.1869V49.2824H40.7613H37.0705V50.1869ZM57.3131 51.1585C57.2729 51.1997 57.2399 53.7394 57.2399 56.8025V62.3715H58.1765H59.1132L59.0862 56.7581L59.0593 51.1447L58.2228 51.1141C57.7627 51.0973 57.3533 51.1172 57.3131 51.1585ZM29.7328 53.15C29.7033 53.2286 29.6931 53.6476 29.71 54.0811L29.7409 54.8692L37.0965 54.8966L44.4521 54.9238V53.9654V53.007H37.1193C31.0765 53.007 29.777 53.0321 29.7328 53.15ZM60.9827 58.1681V62.3715H61.8664H62.7501V58.1681V53.9647H61.8664H60.9827V58.1681ZM53.6011 58.647V62.3715H54.5368H55.4725V58.647V54.9224H54.5368H53.6011V58.647ZM64.6215 59.1258V62.3715H65.5572H66.4929V59.1258V55.8802H65.5572H64.6215V59.1258ZM29.7589 56.8017C29.7204 56.8411 29.6889 57.2724 29.6889 57.7602V58.647H37.0746H44.4602L44.4302 57.7158L44.4001 56.7847L37.1145 56.7573C33.1074 56.7423 29.7975 56.7623 29.7589 56.8017ZM49.9623 60.0303V62.3715H50.846H51.7297V60.0303V57.6892H50.846H49.9623V60.0303ZM29.6889 61.467V62.3715H35.1991H40.7093V61.467V60.5624H35.1991H29.6889V61.467ZM48.7174 72.1113C49.2565 72.6988 48.8689 73.6515 48.0909 73.6515C47.8194 73.6515 47.641 73.575 47.4644 73.3826C46.9253 72.7952 47.3129 71.8424 48.0909 71.8424C48.3625 71.8424 48.5408 71.9189 48.7174 72.1113Z" fill="#FF803D"/>
</svg>
