<svg width="96" height="95" viewBox="0 0 96 95" fill="none" xmlns="http://www.w3.org/2000/svg">
<circle cx="48" cy="47.5" r="46.5" stroke="#FF803D" stroke-width="2"/>
<path fill-rule="evenodd" clip-rule="evenodd" d="M33.4672 21.118C25.957 21.9553 19.6752 27.5289 17.9666 34.8712C16.7992 39.8873 17.851 45.2702 20.8007 49.377L21.4637 50.2999V56.8339C21.4637 63.0686 21.4748 63.3973 21.706 64.0144C22.0715 64.9905 22.9448 65.72 23.9814 65.9155C24.658 66.043 25.547 65.8856 26.1469 65.532C26.3711 65.3999 28.2767 63.4164 30.3816 61.1246L34.2087 56.9575H35.8385H37.4684V58.2146V59.4716L37.0839 59.6308C36.4863 59.878 35.3657 61.0569 35.0099 61.8127C34.8348 62.1848 34.6346 62.8388 34.5653 63.2661C34.4076 64.2364 34.3967 77.5372 34.5526 78.6143C34.8617 80.7498 36.4918 82.489 38.5458 82.8753C39.4298 83.0416 57.5741 83.0416 58.4581 82.8753C60.5121 82.489 62.1422 80.7498 62.4512 78.6143C62.6072 77.5372 62.5963 64.2364 62.4386 63.2661C62.3693 62.8388 62.1691 62.1848 61.994 61.8127C61.6382 61.0569 60.5176 59.878 59.92 59.6308L59.5355 59.4716V58.2146V56.9575L61.3239 56.9555C66.3557 56.9494 70.7244 55.177 74.1963 51.7331C81.3496 44.637 81.2544 32.9743 73.9867 26.0497C70.9749 23.1802 67.496 21.5595 63.3898 21.1132C61.9741 20.9593 34.8515 20.9637 33.4672 21.118ZM64.8704 23.3323C71.209 24.8532 75.8553 29.5394 77.1983 35.7659C77.3699 36.5613 77.4185 37.3073 77.415 39.0925C77.4111 41.0926 77.3732 41.5443 77.1251 42.5444C75.9976 47.0912 73.3325 50.6349 69.3063 52.941C66.8923 54.3238 64.0287 55.0074 60.612 55.0165L59.4455 55.0196L59.3666 54.3219C59.323 53.9382 59.1043 53.0918 58.8804 52.4411C57.4878 48.394 53.9689 45.584 49.6571 45.076C44.6668 44.4881 39.788 47.6035 38.1235 52.4411C37.8996 53.0918 37.6799 53.9464 37.6352 54.3403L37.5541 55.0563L35.4642 54.9776L33.3742 54.8989L29.3506 59.2892C27.1377 61.7039 25.1727 63.7551 24.9839 63.8473C24.5679 64.0503 24.106 63.9542 23.7708 63.5947C23.5299 63.3364 23.5249 63.1948 23.5249 56.5123V49.6934L22.7374 48.6321C21.4035 46.8342 20.5746 45.1147 19.9783 42.9078C19.6202 41.5822 19.6015 41.4007 19.5931 39.1531C19.5835 36.5642 19.7181 35.6302 20.3727 33.7431C22.1862 28.5147 26.895 24.3807 32.1983 23.361C32.7294 23.2589 33.2732 23.1516 33.4066 23.1225C33.54 23.0934 40.4693 23.0796 48.8051 23.0919C62.9418 23.1126 64.0221 23.1287 64.8704 23.3323ZM29.7441 34.0707C28.8205 34.2005 27.6623 34.7892 26.973 35.4791C25.0143 37.4394 25.0141 40.5353 26.9726 42.4917C29.3993 44.9158 33.5046 44.2158 34.9494 41.1317C36.6489 37.5037 33.7073 33.5134 29.7441 34.0707ZM47.6532 34.0798C45.4333 34.4514 43.6872 36.4004 43.5567 38.6523C43.404 41.2891 45.1217 43.4289 47.7644 43.8939C49.6386 44.2237 51.8101 43.1972 52.8 41.5133C53.8525 39.7235 53.6192 37.2683 52.2481 35.7043C51.1448 34.4455 49.3206 33.8007 47.6532 34.0798ZM65.7546 34.0707C64.2458 34.2829 62.7232 35.4129 62.0577 36.8148C60.6246 39.8328 62.459 43.3535 65.748 43.8979C67.2988 44.1547 68.8894 43.6325 70.0313 42.4917C71.9828 40.5423 71.9893 37.4391 70.0462 35.4943C68.9187 34.366 67.3517 33.8461 65.7546 34.0707ZM31.7091 36.2926C32.4377 36.6367 32.8833 37.0888 33.2149 37.8208C33.6953 38.8808 33.4876 40.0461 32.6528 40.9735C31.9756 41.7259 31.323 41.9848 30.2722 41.9181C28.7292 41.8199 27.6452 40.7369 27.5468 39.1956C27.4799 38.1446 27.739 37.4941 28.4955 36.8149C29.4543 35.9536 30.5978 35.7678 31.7091 36.2926ZM50.0088 36.4164C52.0247 37.5966 51.9306 40.5484 49.8434 41.6057C48.097 42.4905 45.9905 41.4948 45.5964 39.5982C45.286 38.1046 46.1706 36.5866 47.6246 36.1174C48.2356 35.9202 49.4136 36.0679 50.0088 36.4164ZM67.4452 36.148C68.1139 36.3481 69.05 37.2212 69.3016 37.8794C69.8022 39.1889 69.2741 40.7802 68.0977 41.5068C67.3526 41.967 66.2299 42.0741 65.414 41.7628C64.7552 41.5115 63.8811 40.5763 63.6808 39.9084C62.9804 37.5732 65.1075 35.4483 67.4452 36.148ZM51.23 47.4351C54.0203 48.3441 56.1356 50.4547 57.071 53.2634C57.366 54.1493 57.3982 54.4374 57.4466 56.6245L57.4996 59.0166H56.5169H55.5343L55.5322 57.2301C55.5286 54.1796 54.9988 52.6347 53.4242 51.0833C51.9791 49.6594 50.4835 49.0379 48.5019 49.0379C46.5204 49.0379 45.0248 49.6594 43.5797 51.0833C42.0051 52.6347 41.4753 54.1796 41.4716 57.2301L41.4696 59.0166H40.487H39.5043L39.5573 56.6245C39.6056 54.4374 39.6379 54.1493 39.9329 53.2634C40.9683 50.1545 43.4117 47.939 46.6226 47.1975C47.7889 46.9283 50.0289 47.0437 51.23 47.4351ZM49.898 51.2101C51.4962 51.6742 52.9692 53.1593 53.286 54.626L53.3711 55.0196H48.5019H43.6328L43.7179 54.626C44.0257 53.2009 45.3782 51.7935 46.9558 51.2565C47.7525 50.9853 49.0531 50.9648 49.898 51.2101ZM53.4731 57.9871V59.0166H48.5019H43.5308V57.9871V56.9575H48.5019H53.4731V57.9871ZM58.8262 61.3511C59.203 61.536 59.6553 61.8757 59.8312 62.1062C60.5133 62.9996 60.5055 62.8959 60.5055 70.9783C60.5055 76.3379 60.4655 78.5614 60.3629 78.9034C60.1764 79.5254 59.3689 80.4316 58.7521 80.7116C58.29 80.9211 57.7102 80.9337 48.5019 80.9337C39.2937 80.9337 38.7139 80.9211 38.2518 80.7116C37.635 80.4316 36.8275 79.5254 36.641 78.9034C36.5384 78.5614 36.4984 76.3379 36.4984 70.9783C36.4984 62.9755 36.4956 63.0145 37.1262 62.1624C37.4741 61.6924 38.0812 61.3126 38.7962 61.1176C39.217 61.0028 41.5735 60.9729 48.7444 60.9912L58.1411 61.015L58.8262 61.3511ZM47.178 63.2058C45.5999 63.6297 44.3034 64.874 43.7693 66.4774C43.2061 68.1679 43.6576 70.1293 44.9107 71.4357L45.4708 72.0196V75.5104V79.0012H48.5019H51.5331V75.5104V72.0196L52.0932 71.4357C53.3463 70.1293 53.7978 68.1679 53.2346 66.4774C52.3857 63.9293 49.7618 62.5119 47.178 63.2058ZM49.775 65.3074C51.2267 65.9383 51.8938 67.868 51.1622 69.3199C50.9418 69.7574 50.1891 70.5113 49.7251 70.7594C49.4787 70.8911 49.4719 70.976 49.4719 73.9184V76.9422H48.5019H47.532V73.9184C47.532 70.976 47.5252 70.8911 47.2788 70.7594C46.8148 70.5113 46.0621 69.7574 45.8417 69.3199C45.3029 68.251 45.4837 66.9145 46.2869 66.0264C47.2151 65 48.4719 64.741 49.775 65.3074Z" fill="#FF803D"/>
</svg>
