<svg width="96" height="95" viewBox="0 0 96 95" fill="none" xmlns="http://www.w3.org/2000/svg">
<circle cx="48" cy="47.5" r="46.5" stroke="#FF803D" stroke-width="2"/>
<path fill-rule="evenodd" clip-rule="evenodd" d="M70.7504 22.222C70.3579 22.0324 70.0224 22.0651 69.7553 22.2737C69.4717 20.3577 67.8203 18.8636 65.8303 18.8636H29.3553C27.1688 18.8636 25.3787 20.661 25.3787 22.8475C25.3778 23.4089 25.3787 23.9547 25.3787 24.5158H23.7031C21.5166 24.5157 19.7266 26.3057 19.7266 28.4922V73.2735C19.7266 75.46 21.5166 77.2501 23.7031 77.2501H60.5405C62.5297 77.2501 64.1621 75.6176 64.1621 73.6285V67.1817L69.4463 61.9913C69.6824 61.7554 69.8008 61.6489 69.7979 61.3275L69.8149 37.1958L71.6891 33.9513C71.8355 33.7934 72.4141 33.164 73.0208 32.3511C74.3802 30.3289 75.4659 28.2343 76.1089 26.2372C76.21 25.9212 76.1374 25.5755 75.9177 25.3268C75.8463 25.2432 75.7664 25.1567 75.6951 25.0765L76.909 22.9723C77.6921 21.6161 77.1788 19.8806 75.8441 19.1099C74.1551 18.3113 72.6905 18.9174 71.926 20.184L70.7504 22.222ZM74.5393 20.62C74.6653 20.6342 74.7891 20.6716 74.9035 20.7379C75.3998 21.0244 75.5547 21.558 75.2806 22.0328L74.2671 23.7893C73.7425 23.4062 73.1781 23.0815 72.5842 22.8182L73.5608 21.1279C73.7664 20.7718 74.1614 20.5818 74.5393 20.6203V20.62ZM65.8303 20.7468C66.9989 20.7468 67.9308 21.6786 67.9308 22.8472V24.4051C66.6895 26.3145 65.6528 28.3149 65.0578 30.1731L60.1487 38.6615L60.0862 38.7276C59.3336 39.5481 59.0172 39.9257 58.7987 40.4068C58.5955 40.8543 58.5271 41.1967 58.1972 42.0162L58.1717 42.0446C56.6083 43.749 55.3656 45.7059 54.4803 47.8328C54.3042 48.2457 54.2948 48.6686 54.2448 49.0449L53.6986 53.6634C53.5952 54.5303 54.0559 55.3222 54.7157 55.7032C55.3755 56.0841 56.2973 56.0919 56.9964 55.5691L60.7192 52.7806C61.1086 52.572 61.3945 52.2229 61.6554 51.9769C63.0177 49.9734 64.1937 47.8178 64.8247 45.8576C65.377 45.1511 65.6386 44.9247 65.9264 44.5223C66.3754 43.7216 66.5443 43.1611 66.7559 42.4936L67.9313 40.4593V60.3034H59.2829C58.7628 60.3014 58.3396 60.7213 58.3375 61.2414V69.7151H29.0006C28.0293 69.7151 27.2625 68.9482 27.2625 67.977V63.7668C27.7832 63.6262 28.2595 63.6676 28.6125 63.7838C29.0805 63.9398 29.1477 64.2256 29.1477 64.069C29.1496 64.5862 29.5686 65.005 30.0858 65.007C30.6059 65.009 31.0291 64.5891 31.0312 64.069C31.0312 62.9703 30.1548 62.3128 29.2103 61.9979C28.4909 61.7743 27.9154 61.7946 27.2625 61.8655V58.106C27.8256 57.9288 28.3364 57.9245 28.6677 58.0141C29.099 58.1306 29.1477 58.2216 29.1477 58.4169C29.1487 58.9349 29.5678 59.3548 30.0858 59.3569C30.6066 59.3589 31.0302 58.9377 31.0312 58.4169C31.0311 57.3121 30.1346 56.4581 29.1533 56.1932C28.5176 55.9982 27.8524 56.0943 27.2625 56.1612V52.4624C27.8256 52.283 28.3364 52.2736 28.6677 52.3632C29.099 52.4797 29.1477 52.5724 29.1477 52.7678C29.1496 53.2851 29.5686 53.7039 30.0858 53.7059C30.6059 53.708 31.0291 53.2879 31.0312 52.7678C31.0311 51.663 30.1346 50.8072 29.1533 50.5423C28.5175 50.3493 27.8522 50.4451 27.2625 50.5103V46.8096C27.8256 46.631 28.3364 46.6228 28.6677 46.7121C29.099 46.8286 29.1477 46.9196 29.1477 47.1149C29.1459 47.635 29.5657 48.0583 30.0858 48.0603C30.6088 48.0624 31.0332 47.6379 31.0312 47.1149C31.0311 46.0101 30.1346 45.1617 29.1533 44.8968C28.5179 44.7029 27.8523 44.7961 27.2625 44.8602V41.1577C27.8256 40.9791 28.3364 40.9709 28.6677 41.0602C29.099 41.1767 29.1477 41.2677 29.1477 41.463C29.1459 41.9831 29.5657 42.4064 30.0858 42.4084C30.6088 42.4105 31.0332 41.986 31.0312 41.463C31.0311 40.3582 30.1346 39.5097 29.1533 39.2448C28.5175 39.0518 27.8521 39.1476 27.2625 39.2128V35.5066C27.8256 35.3297 28.3364 35.3251 28.6677 35.4147C29.099 35.5312 29.1477 35.6222 29.1477 35.8176C29.1496 36.3348 29.5686 36.7536 30.0858 36.7557C30.6088 36.7577 31.0332 36.3332 31.0312 35.8102C31.0311 34.7054 30.1345 33.8587 29.1533 33.5938C28.5176 33.3988 27.8524 33.4949 27.2625 33.5618V29.8556C27.8256 29.6785 28.3364 29.6743 28.6677 29.7639C29.099 29.8804 29.1477 29.9713 29.1477 30.1666C29.1487 30.6846 29.5678 31.1045 30.0858 31.1065C30.6066 31.1084 31.0302 30.6874 31.0312 30.1666C31.0311 29.0619 30.1345 28.2078 29.1533 27.943C28.5176 27.748 27.8524 27.844 27.2625 27.9109V25.4555V24.2121C27.8256 24.0327 28.3364 24.0233 28.6677 24.1129C29.099 24.2294 29.1477 24.3221 29.1477 24.5176C29.1496 25.0348 29.5686 25.4535 30.0858 25.4556C30.6059 25.4574 31.0291 25.0377 31.0312 24.5176C31.0311 23.4128 30.1345 22.5568 29.1533 22.2919C28.549 22.1094 27.9246 22.1877 27.3599 22.2461C27.6155 21.378 28.3984 20.7489 28.8768 20.7489L65.8303 20.7468ZM48.3331 22.84L44.9617 25.5364C43.7748 23.7865 41.7702 22.6303 39.5045 22.6303C35.875 22.6303 32.9143 25.5909 32.9143 29.2204C32.9143 32.8499 35.875 35.8107 39.5045 35.8107C43.134 35.8107 46.0947 32.8499 46.0947 29.2204C46.0947 28.5425 45.9921 27.8889 45.8004 27.2726L49.5084 24.3059C49.9121 23.9806 49.977 23.3905 49.6537 22.9853C49.3631 22.6433 48.7403 22.5528 48.3331 22.8401L48.3331 22.84ZM70.5996 24.2065C71.9284 24.5357 73.1272 25.224 74.074 26.2132C73.1794 28.5745 72.1652 30.5081 70.6934 32.1982C69.5158 31.5196 68.339 30.8398 67.1619 30.1603C67.9235 27.9737 69.0716 25.9473 70.5996 24.2065ZM39.5045 24.5154C41.1914 24.5154 42.6525 25.3962 43.4829 26.7189L39.7197 29.7282L38.4064 27.762C38.119 27.3269 37.5327 27.2082 37.0987 27.4973C36.6642 27.7852 36.5463 28.3714 36.8357 28.805L38.7191 31.6265C39.0247 32.0856 39.6577 32.185 40.0894 31.8419L44.1634 28.5827C44.1915 28.7925 44.2112 29.0033 44.2112 29.2209C44.2112 31.8326 42.1161 33.935 39.5045 33.935C36.8928 33.935 34.7977 31.8326 34.7977 29.2209C34.7977 26.6093 36.8928 24.516 39.5045 24.516H39.5045L39.5045 24.5154ZM23.7031 26.3988H25.3787C25.3778 40.2236 25.3786 54.7779 25.3787 67.9761C25.3787 69.9653 27.0111 71.5976 29.0003 71.5976H59.1849C59.5738 71.6061 59.6997 71.552 59.9428 71.3272L62.2787 69.0318V73.6282C62.2787 74.5995 61.5118 75.3663 60.5405 75.3663H23.7032C22.5345 75.3663 21.6119 74.4418 21.6119 73.2732V28.492C21.6119 27.3233 22.5345 26.3988 23.7032 26.3988H23.7031H23.7031ZM49.8634 30.1658C49.3447 30.1667 48.9245 30.5869 48.9235 31.1056C48.9216 31.6264 49.3426 32.05 49.8634 32.051H51.7468C52.2669 32.0491 52.6869 31.6257 52.6849 31.1056C52.6839 30.5876 52.2648 30.1678 51.7468 30.1658H49.8634ZM55.5137 30.1658C54.9929 30.1639 54.5693 30.5848 54.5683 31.1056C54.5664 31.6285 54.9907 32.053 55.5137 32.051H62.1039C62.6269 32.0529 63.0513 31.6285 63.0493 31.1056C63.0483 30.5848 62.6247 30.1637 62.1039 30.1658H55.5137ZM66.2736 31.8248C67.3894 32.4692 68.5052 33.1136 69.6211 33.7579L65.7052 40.5375C64.7408 39.6613 63.6003 39.0022 62.3595 38.6044L66.2736 31.8248ZM33.8523 39.5792C33.3322 39.5813 32.9123 40.0046 32.9143 40.5247C32.9162 41.0419 33.3351 41.4607 33.8523 41.4627H55.5137C56.0316 41.4616 56.4516 41.0426 56.4536 40.5247C56.4555 40.0039 56.0345 39.5803 55.5137 39.5792H33.8523ZM61.2302 40.3094C62.598 40.6355 63.8305 41.3479 64.7966 42.3695C64.6319 42.8592 64.4804 43.2997 64.392 43.4233C64.3243 43.518 64.158 43.7003 63.9248 43.9715C62.8886 42.9923 61.6363 42.2695 60.2701 41.8618C60.3885 41.524 60.4648 41.289 60.5129 41.1831C60.5757 41.0448 60.8883 40.6972 61.2302 40.3094H61.2302ZM33.8523 43.3461C33.3322 43.3481 32.9123 43.7714 32.9143 44.2915C32.9152 44.8095 33.3344 45.2294 33.8523 45.2314H35.7376C36.2556 45.2293 36.6746 44.8094 36.6756 44.2915C36.6775 43.7714 36.2577 43.3481 35.7376 43.3461H33.8523ZM39.5045 43.3461C38.9815 43.344 38.557 43.7685 38.5591 44.2915C38.56 44.8123 38.9837 45.2334 39.5045 45.2314H41.3879C41.9066 45.2304 42.3268 44.8102 42.3278 44.2915C42.3297 43.7707 41.9087 43.3471 41.3879 43.3461H39.5045ZM45.1566 43.3461C44.6337 43.344 44.2092 43.7685 44.2112 44.2915C44.2122 44.8123 44.6358 45.2334 45.1566 45.2314H50.8014C51.3222 45.2335 51.7458 44.8123 51.7468 44.2915C51.7487 43.7685 51.3244 43.344 50.8014 43.3461H45.1566ZM59.3523 43.6458C60.6871 43.9722 61.8885 44.6682 62.8396 45.6599C62.2104 47.5141 61.3402 49.2807 60.1542 50.8319C59.9179 51.1409 59.0889 51.3209 58.7251 51.1317C58.0213 50.767 57.3364 50.3726 56.6688 49.9453C56.3229 49.7248 56.0649 48.9158 56.2145 48.5566C56.9649 46.7539 58.0612 45.1176 59.3523 43.6457V43.6458ZM33.8523 47.1147C33.3322 47.1168 32.9123 47.54 32.9143 48.0601C32.9162 48.5773 33.3351 48.9962 33.8523 48.9981H41.2849C41.805 49.0002 42.2283 48.5802 42.2303 48.0601C42.2322 47.5371 41.8079 47.1127 41.2849 47.1147H33.8523ZM45.1566 47.1147C44.6337 47.1127 44.2092 47.5371 44.2112 48.0601C44.2131 48.5802 44.6365 49.0002 45.1566 48.9981H49.8634C50.3806 48.9962 50.7994 48.5773 50.8014 48.0601C50.8033 47.54 50.3835 47.1168 49.8634 47.1147H45.1566ZM33.8523 50.8816C33.3344 50.8836 32.9153 51.3035 32.9143 51.8215C32.9124 52.3415 33.3322 52.7649 33.8523 52.7669H48.9235C49.4443 52.7658 49.8654 52.3422 49.8634 51.8215C49.8624 51.3028 49.4422 50.8826 48.9235 50.8816H33.8523ZM55.8356 51.6394C56.4381 52.0176 57.0516 52.3716 57.6804 52.7043L55.8687 54.0599C55.7716 54.1325 55.7299 54.1104 55.659 54.0712C55.5882 54.0304 55.5546 54.0074 55.5689 53.8872L55.8356 51.6394ZM33.8505 54.6466C33.3304 54.6487 32.9104 55.0719 32.9125 55.592C32.9143 56.1093 33.3333 56.528 33.8505 56.53H35.7339C36.254 56.5321 36.6773 56.1121 36.6793 55.592C36.6812 55.0691 36.2569 54.6445 35.7339 54.6466H33.8505ZM39.5026 54.6466C38.9818 54.6476 38.5607 55.0712 38.5628 55.592C38.5646 56.11 38.9847 56.529 39.5026 56.53H41.3861C41.9062 56.5321 42.3294 56.1121 42.3315 55.592C42.3334 55.0691 41.9091 54.6445 41.3861 54.6466H39.5026ZM45.153 54.6466C44.6329 54.6487 44.2129 55.0719 44.2149 55.592C44.2168 56.1093 44.6357 56.528 45.153 56.53H50.8051C51.3223 56.5281 51.7411 56.1093 51.7431 55.592C51.745 55.0719 51.3252 54.6486 50.8051 54.6466H45.153ZM33.8505 58.4153C33.3304 58.4174 32.9104 58.8407 32.9125 59.3608C32.9143 59.878 33.3333 60.2967 33.8505 60.2988H41.2886C41.8058 60.2968 42.2246 59.878 42.2266 59.3608C42.2285 58.8407 41.8087 58.4174 41.2886 58.4153H33.8505ZM45.153 58.4153C44.6329 58.4174 44.2129 58.8407 44.2149 59.3608C44.2168 59.878 44.6357 60.2967 45.153 60.2988H54.5738C55.091 60.2968 55.5098 59.878 55.5119 59.3608C55.5137 58.8407 55.0939 58.4174 54.5738 58.4153H45.153ZM33.8505 62.1823C33.3304 62.1843 32.9104 62.6075 32.9125 63.1276C32.9143 63.6448 33.3333 64.0637 33.8505 64.0657H48.9217C49.4389 64.0637 49.8577 63.6448 49.8597 63.1276C49.8616 62.6075 49.4418 62.1843 48.9217 62.1823H33.8505ZM52.6885 62.1823C52.1656 62.1802 51.7411 62.6046 51.7431 63.1276C51.745 63.6477 52.1684 64.0677 52.6885 64.0657H54.5738C55.091 64.0637 55.5098 63.6448 55.5119 63.1276C55.5137 62.6075 55.0939 62.1843 54.5738 62.1823H52.6885ZM60.2205 62.185H66.5678L62.5711 66.1083L60.2205 68.413V62.185Z" fill="#FF803D"/>
</svg>
