<svg width="96" height="95" viewBox="0 0 96 95" fill="none" xmlns="http://www.w3.org/2000/svg">
<circle cx="48" cy="47.5" r="46.5" stroke="#FF803D" stroke-width="2"/>
<path fill-rule="evenodd" clip-rule="evenodd" d="M26.582 28.3751V43.7512L23.041 49.4192L19.5 55.0882L23.502 64.8072C26.765 72.7324 27.326 75.0285 26.543 77.2502C26.014 78.7485 25.582 80.428 25.582 80.9821C25.582 81.5362 29.182 81.99 33.582 81.99H41.582V76.7802C41.582 73.9138 41.863 71.2674 42.206 70.8977C42.549 70.5269 44.667 71.2351 46.914 72.4704C49.619 73.958 51.124 74.3073 51.373 73.5021C52.282 70.5635 53.582 72.7044 53.582 77.1391V81.99H61.582C65.982 81.99 69.582 81.5362 69.582 80.9821C69.582 80.428 69.15 78.7485 68.621 77.2502C67.838 75.0285 68.399 72.7313 71.667 64.7964L75.673 55.0666L71.726 48.8015C68.636 43.8957 67.994 42.1213 68.771 40.624C69.52 39.1817 69.326 38.3678 67.978 37.306C66.267 35.9564 66.268 35.7753 68.02 32.8939C70.194 29.3161 70.159 29.2762 59.332 22.955C53.485 19.5411 52.582 18.6119 52.582 16.0075V13H39.582H26.582V28.3751ZM50.582 35.6373V56.1187H45.582C42.832 56.1187 40.582 55.6337 40.582 55.0408C40.582 54.4479 41.43 53.9628 42.465 53.9628C43.508 53.9628 44.582 53.0002 44.872 51.8069C45.159 50.6211 46.112 49.6509 46.988 49.6509C48.364 49.6509 48.582 47.7516 48.582 35.7635C48.582 22.7815 48.451 21.8383 46.582 21.3111C45.482 21.0018 44.582 19.9745 44.582 19.0302C44.582 17.687 43.49 17.3119 39.582 17.3119C35.674 17.3119 34.582 17.687 34.582 19.0302C34.582 19.9745 33.682 21.0018 32.582 21.3111C30.713 21.8383 30.582 22.7815 30.582 35.7635C30.582 47.3894 30.826 49.6509 32.082 49.6509C33.082 49.6509 33.582 50.7289 33.582 52.8848C33.582 55.6153 33.193 56.1187 31.082 56.1187H28.582V35.6373V15.1559H39.582H50.582V35.6373ZM44.268 21.8113C46.406 23.978 46.581 25.0204 46.565 35.5554C46.548 46.3211 46.407 47.0994 44.033 49.527C42.65 50.9413 41.421 51.9114 41.301 51.6829C41.18 51.4544 40.569 50.2977 39.942 49.1119C39.122 47.5618 37.928 47.0325 35.692 47.2298L32.582 47.5036V35.9801C32.582 25.6338 32.804 24.2033 34.756 21.9622C37.486 18.8307 41.265 18.7714 44.268 21.8113ZM66.575 30.6119C66.59 32.6471 59.253 45.4533 57.487 46.472C54.815 48.0135 55.038 47.2428 59.719 38.7473C64.373 30.3036 64.38 30.3273 56.332 26.3722C54.27 25.3589 52.582 23.8476 52.582 23.0143C52.582 21.9579 54.703 22.7427 59.575 25.6025C63.422 27.8609 66.572 30.1149 66.575 30.6119ZM57.025 29.2762C58.981 30.5202 60.582 31.8073 60.582 32.1372C60.582 33.0847 53.534 46.417 53.033 46.417C52.785 46.417 52.582 42.0513 52.582 36.7153C52.582 31.3794 52.781 27.0136 53.025 27.0136C53.268 27.0136 55.068 28.0312 57.025 29.2762ZM34.582 33.4814C33.071 36.5245 35.012 40.1885 37.9 39.7455C39.439 39.5094 40.175 38.5371 40.398 36.4458C40.572 34.8159 41.191 33.4814 41.773 33.4814C42.416 33.4814 42.596 34.7513 42.232 36.7153C41.551 40.3836 42.972 41.0358 44.582 37.7933C46.093 34.7502 44.152 31.0862 41.264 31.5292C39.725 31.7653 38.989 32.7376 38.766 34.8289C38.592 36.4588 37.973 37.7933 37.391 37.7933C36.748 37.7933 36.568 36.5234 36.932 34.5594C37.613 30.891 36.192 30.2389 34.582 33.4814ZM66.537 39.6797C66.404 42.0588 61.801 49.8266 61.173 48.7314C60.413 47.4066 64.389 38.8712 65.766 38.8712C66.215 38.8712 66.562 39.2345 66.537 39.6797ZM70.353 50.3225L73.36 55.307L69.441 64.8266C66.666 71.5639 65.708 75.147 66.16 77.0895C66.786 79.7802 66.692 79.8341 61.308 79.8341H55.817L55.136 71.9994C54.72 67.2175 54.869 62.9908 55.518 61.1496C56.103 59.4917 56.582 55.9829 56.582 53.3538C56.582 49.8223 56.974 48.573 58.082 48.573C59.2 48.573 59.59 49.8762 59.614 53.6933C59.645 58.7544 61.275 62.5866 63.396 62.5866C64.055 62.5866 63.827 61.3426 62.821 59.4529C61.225 56.4561 61.256 56.0821 63.538 50.8292C64.85 47.8098 66.244 45.3391 66.635 45.3391C67.025 45.3391 68.699 47.5823 70.353 50.3225ZM29.637 58.2747C32.781 58.2747 33.319 59.205 31.382 61.293C30.449 62.2987 30.48 62.5866 31.522 62.5866C33.876 62.5866 35.517 58.9635 35.55 53.6933C35.574 49.8762 35.964 48.573 37.082 48.573C38.19 48.573 38.582 49.8223 38.582 53.3538C38.582 55.9829 39.061 59.4917 39.646 61.1496C40.295 62.9908 40.444 67.2175 40.028 71.9994L39.347 79.8341H33.856C28.472 79.8341 28.378 79.7802 29.004 77.0895C29.456 75.147 28.499 71.566 25.727 64.8363L21.812 55.3264L23.947 51.6797L26.082 48.034L26.387 53.1543C26.677 58.0289 26.833 58.2747 29.637 58.2747ZM53.678 55.818C52.802 57.4414 52.638 57.2258 52.612 54.4123C52.596 52.5841 52.919 50.7192 53.332 50.2675C54.526 48.96 54.821 53.7009 53.678 55.818ZM44.238 60.1008C46.669 61.818 46.899 61.818 48.063 60.1008C48.745 59.0972 50.052 58.2747 50.968 58.2747C52.496 58.2747 52.506 58.5409 51.082 61.5086C50.229 63.2872 49.129 64.7425 48.637 64.7425C47.083 64.7425 41.634 61.0267 41.129 59.6221C40.481 57.8198 41.155 57.9233 44.238 60.1008ZM52.582 65.6146C52.582 66.6871 51.999 68.4238 51.286 69.4748C50.047 71.3019 49.829 71.3019 46.286 69.4812C44.249 68.4335 42.582 66.9394 42.582 66.16C42.582 64.3771 43.433 64.4191 46.582 66.3594C49.902 68.4054 50.336 68.3537 51.082 65.8205C51.872 63.1363 52.582 63.0393 52.582 65.6146Z" fill="#FF803D"/>
</svg>
