<svg width="160" height="50" viewBox="0 0 160 50" fill="none" xmlns="http://www.w3.org/2000/svg">
<rect width="160" height="50" fill="#DCDCDC"/>
<path d="M66.1678 31V19.8H67.3518V29.976H73.6238V31H66.1678ZM78.6486 31.08C77.838 31.08 77.1073 30.8987 76.4566 30.536C75.8166 30.1627 75.31 29.656 74.9366 29.016C74.5633 28.3653 74.3766 27.624 74.3766 26.792C74.3766 25.9493 74.5633 25.208 74.9366 24.568C75.31 23.928 75.8166 23.4267 76.4566 23.064C77.0966 22.7013 77.8273 22.52 78.6486 22.52C79.4806 22.52 80.2166 22.7013 80.8566 23.064C81.5073 23.4267 82.014 23.928 82.3766 24.568C82.75 25.208 82.9366 25.9493 82.9366 26.792C82.9366 27.624 82.75 28.3653 82.3766 29.016C82.014 29.656 81.5073 30.1627 80.8566 30.536C80.206 30.8987 79.47 31.08 78.6486 31.08ZM78.6486 30.072C79.2566 30.072 79.7953 29.9387 80.2646 29.672C80.734 29.3947 81.102 29.0107 81.3686 28.52C81.646 28.0187 81.7846 27.4427 81.7846 26.792C81.7846 26.1307 81.646 25.5547 81.3686 25.064C81.102 24.5733 80.734 24.1947 80.2646 23.928C79.7953 23.6507 79.262 23.512 78.6646 23.512C78.0673 23.512 77.534 23.6507 77.0646 23.928C76.5953 24.1947 76.222 24.5733 75.9446 25.064C75.6673 25.5547 75.5286 26.1307 75.5286 26.792C75.5286 27.4427 75.6673 28.0187 75.9446 28.52C76.222 29.0107 76.5953 29.3947 77.0646 29.672C77.534 29.9387 78.062 30.072 78.6486 30.072ZM88.8399 34.184C88.0719 34.184 87.3359 34.072 86.6319 33.848C85.9279 33.624 85.3572 33.304 84.9199 32.888L85.4959 32.024C85.8905 32.376 86.3759 32.6533 86.9519 32.856C87.5385 33.0693 88.1572 33.176 88.8079 33.176C89.8745 33.176 90.6585 32.9253 91.1599 32.424C91.6612 31.9333 91.9119 31.1653 91.9119 30.12V28.024L92.0719 26.584L91.9599 25.144V22.6H93.0479V29.976C93.0479 31.4267 92.6905 32.488 91.9759 33.16C91.2719 33.8427 90.2265 34.184 88.8399 34.184ZM88.6319 30.68C87.8319 30.68 87.1119 30.5093 86.4719 30.168C85.8319 29.816 85.3252 29.3307 84.9519 28.712C84.5892 28.0933 84.4079 27.384 84.4079 26.584C84.4079 25.784 84.5892 25.08 84.9519 24.472C85.3252 23.8533 85.8319 23.3733 86.4719 23.032C87.1119 22.6907 87.8319 22.52 88.6319 22.52C89.3785 22.52 90.0505 22.6747 90.6479 22.984C91.2452 23.2933 91.7199 23.752 92.0719 24.36C92.4239 24.968 92.5999 25.7093 92.5999 26.584C92.5999 27.4587 92.4239 28.2 92.0719 28.808C91.7199 29.416 91.2452 29.88 90.6479 30.2C90.0505 30.52 89.3785 30.68 88.6319 30.68ZM88.7439 29.672C89.3625 29.672 89.9119 29.544 90.3919 29.288C90.8719 29.0213 91.2505 28.6587 91.5279 28.2C91.8052 27.7307 91.9439 27.192 91.9439 26.584C91.9439 25.976 91.8052 25.4427 91.5279 24.984C91.2505 24.5253 90.8719 24.168 90.3919 23.912C89.9119 23.6453 89.3625 23.512 88.7439 23.512C88.1359 23.512 87.5865 23.6453 87.0959 23.912C86.6159 24.168 86.2372 24.5253 85.9599 24.984C85.6932 25.4427 85.5599 25.976 85.5599 26.584C85.5599 27.192 85.6932 27.7307 85.9599 28.2C86.2372 28.6587 86.6159 29.0213 87.0959 29.288C87.5865 29.544 88.1359 29.672 88.7439 29.672ZM99.633 31.08C98.8223 31.08 98.0917 30.8987 97.441 30.536C96.801 30.1627 96.2943 29.656 95.921 29.016C95.5477 28.3653 95.361 27.624 95.361 26.792C95.361 25.9493 95.5477 25.208 95.921 24.568C96.2943 23.928 96.801 23.4267 97.441 23.064C98.081 22.7013 98.8117 22.52 99.633 22.52C100.465 22.52 101.201 22.7013 101.841 23.064C102.492 23.4267 102.998 23.928 103.361 24.568C103.734 25.208 103.921 25.9493 103.921 26.792C103.921 27.624 103.734 28.3653 103.361 29.016C102.998 29.656 102.492 30.1627 101.841 30.536C101.19 30.8987 100.454 31.08 99.633 31.08ZM99.633 30.072C100.241 30.072 100.78 29.9387 101.249 29.672C101.718 29.3947 102.086 29.0107 102.353 28.52C102.63 28.0187 102.769 27.4427 102.769 26.792C102.769 26.1307 102.63 25.5547 102.353 25.064C102.086 24.5733 101.718 24.1947 101.249 23.928C100.78 23.6507 100.246 23.512 99.649 23.512C99.0517 23.512 98.5183 23.6507 98.049 23.928C97.5797 24.1947 97.2063 24.5733 96.929 25.064C96.6517 25.5547 96.513 26.1307 96.513 26.792C96.513 27.4427 96.6517 28.0187 96.929 28.52C97.2063 29.0107 97.5797 29.3947 98.049 29.672C98.5183 29.9387 99.0463 30.072 99.633 30.072Z" fill="black"/>
</svg>
