<svg viewBox="0 0 24 24"  xmlns="http://www.w3.org/2000/svg" style="display:none">

	<symbol viewBox="0 0 16 16" id="select-arrow">
		<path d="M7.99999 9.98337C7.9111 9.98337 7.82488 9.9667 7.74133 9.93337C7.65777 9.90003 7.58844 9.85559 7.53333 9.80003L4.46666 6.73337C4.34444 6.61114 4.28333 6.45559 4.28333 6.2667C4.28333 6.07781 4.34444 5.92225 4.46666 5.80003C4.58888 5.67781 4.74444 5.6167 4.93333 5.6167C5.12221 5.6167 5.27777 5.67781 5.39999 5.80003L7.99999 8.40003L10.6 5.80003C10.7222 5.67781 10.8778 5.6167 11.0667 5.6167C11.2555 5.6167 11.4111 5.67781 11.5333 5.80003C11.6555 5.92225 11.7167 6.07781 11.7167 6.2667C11.7167 6.45559 11.6555 6.61114 11.5333 6.73337L8.46666 9.80003C8.39999 9.8667 8.32777 9.91403 8.24999 9.94203C8.17221 9.97003 8.08888 9.98381 7.99999 9.98337Z"/>
	</symbol>

	<symbol viewBox="0 0 20 20" id="phone">
		<path d="M13.75 17.4999C7.54688 17.4999 2.5 12.4531 2.5 6.24995C2.50235 5.18593 2.891 4.15896 3.59369 3.35999C4.29638 2.56102 5.26531 2.0444 6.32031 1.9062C6.58925 1.87638 6.8607 1.933 7.09529 2.06785C7.32989 2.20271 7.51542 2.40878 7.625 2.6562L9.19531 6.32026C9.27677 6.51045 9.30943 6.71797 9.29033 6.92398C9.27123 7.12999 9.20097 7.32797 9.08594 7.49994L7.78906 9.48432C8.37631 10.6761 9.34394 11.6382 10.5391 12.2187L12.5 10.914C12.6718 10.7982 12.8703 10.7281 13.0767 10.7103C13.2831 10.6926 13.4906 10.7277 13.6797 10.8124L17.3438 12.3749C17.5912 12.4845 17.7972 12.6701 17.9321 12.9046C18.0669 13.1392 18.1236 13.4107 18.0938 13.6796C17.9555 14.7346 17.4389 15.7036 16.64 16.4063C15.841 17.1089 14.814 17.4976 13.75 17.4999ZM6.47656 3.14838C5.72262 3.2453 5.02985 3.61371 4.52796 4.18462C4.02608 4.75553 3.7495 5.4898 3.75 6.24995C3.75207 8.90147 4.8063 11.4438 6.68122 13.3187C8.55613 15.1936 11.0985 16.2479 13.75 16.2499C14.5101 16.2504 15.2444 15.9739 15.8153 15.472C16.3862 14.9701 16.7546 14.2773 16.8516 13.5234L13.1875 11.9609L11.2344 13.2656C11.0547 13.3844 10.8473 13.4547 10.6324 13.4698C10.4175 13.4848 10.2023 13.4441 10.0078 13.3515C8.5523 12.6474 7.37495 11.4756 6.66406 10.0234C6.57033 9.82952 6.52828 9.61473 6.54196 9.39984C6.55565 9.18494 6.62462 8.97722 6.74219 8.79682L8.04688 6.81245L6.47656 3.14838Z"/>
	</symbol>

	<symbol viewBox="0 0 32 25" id="telegram">
		<path fill-rule="evenodd" clip-rule="evenodd" d="M30.6951 0.222434C30.9753 0.449046 31.1119 0.808919 31.0527 1.16441L27.2282 24.1114C27.172 24.4483 26.9479 24.7332 26.6338 24.867C26.3196 25.0009 25.9589 24.9652 25.6771 24.7724L16.802 18.6999L12.4188 23.1213C12.1335 23.4091 11.7027 23.4962 11.328 23.3419C10.9532 23.1877 10.7087 22.8225 10.7087 22.4172V14.8706L0.858622 13.4635C0.409508 13.3993 0.0598565 13.0409 0.00688337 12.5903C-0.0460897 12.1397 0.21089 11.7099 0.632876 11.5434L29.6991 0.0698568C30.0343 -0.0624683 30.4148 -0.00417762 30.6951 0.222434ZM12.7087 15.8992L15.124 17.5518L12.7087 19.9881V15.8992ZM17.2556 16.587C17.2469 16.5808 17.2381 16.5748 17.2293 16.5689L13.4588 13.9891L28.6852 3.20373L25.513 22.2368L17.2556 16.587ZM22.7303 4.97089L4.87888 12.0175L11.4557 12.957L22.7303 4.97089Z"/>
	</symbol>

	<symbol viewBox="0 0 30 30" id="instagram">
		<path d="M21.2498 2.49978C22.906 2.50472 24.4929 3.16484 25.664 4.33595C26.8352 5.50707 27.4953 7.09402 27.5002 8.75022V21.2498C27.4953 22.906 26.8352 24.4929 25.664 25.664C24.4929 26.8352 22.906 27.4953 21.2498 27.5002H8.75022C7.09402 27.4953 5.50707 26.8352 4.33595 25.664C3.16484 24.4929 2.50472 22.906 2.49978 21.2498V8.75022C2.50472 7.09402 3.16484 5.50707 4.33595 4.33595C5.50707 3.16484 7.09402 2.50472 8.75022 2.49978H21.2498ZM21.2498 0H8.75022C3.9375 0 0 3.9375 0 8.75022V21.2498C0 26.0625 3.9375 30 8.75022 30H21.2498C26.0625 30 30 26.0625 30 21.2498V8.75022C30 3.9375 26.0625 0 21.2498 0Z"/>
		<path d="M23.1248 8.75C22.7539 8.75 22.3914 8.64003 22.0831 8.43401C21.7747 8.22798 21.5344 7.93514 21.3925 7.59253C21.2506 7.24992 21.2135 6.87292 21.2858 6.50921C21.3582 6.14549 21.5367 5.8114 21.799 5.54918C22.0612 5.28695 22.3953 5.10838 22.759 5.03603C23.1227 4.96368 23.4997 5.00081 23.8423 5.14273C24.1849 5.28464 24.4778 5.52496 24.6838 5.83331C24.8898 6.14165 24.9998 6.50416 24.9998 6.875C25.0003 7.12138 24.9522 7.36543 24.8581 7.59316C24.7641 7.82088 24.626 8.02779 24.4518 8.20201C24.2776 8.37622 24.0707 8.51431 23.8429 8.60835C23.6152 8.70239 23.3712 8.75053 23.1248 8.75ZM15 9.99955C15.989 9.99955 16.9557 10.2928 17.778 10.8422C18.6003 11.3917 19.2412 12.1726 19.6196 13.0863C19.9981 13.9999 20.0971 15.0053 19.9041 15.9753C19.7112 16.9452 19.235 17.8362 18.5357 18.5355C17.8364 19.2348 16.9454 19.711 15.9755 19.9039C15.0055 20.0969 14.0002 19.9978 13.0865 19.6194C12.1728 19.2409 11.3919 18.6 10.8425 17.7778C10.293 16.9555 9.99978 15.9887 9.99978 14.9998C10.0012 13.6741 10.5285 12.4031 11.4659 11.4657C12.4033 10.5282 13.6743 10.001 15 9.99955ZM15 7.49978C13.5166 7.49978 12.0666 7.93964 10.8332 8.76376C9.59986 9.58787 8.63856 10.7592 8.07091 12.1297C7.50325 13.5001 7.35472 15.0081 7.64411 16.463C7.9335 17.9178 8.64781 19.2542 9.6967 20.3031C10.7456 21.352 12.082 22.0663 13.5368 22.3557C14.9917 22.6451 16.4997 22.4965 17.8701 21.9289C19.2406 21.3612 20.4119 20.3999 21.236 19.1666C22.0601 17.9332 22.5 16.4831 22.5 14.9998C22.5 13.0107 21.7098 11.103 20.3033 9.69648C18.8968 8.28995 16.9891 7.49978 15 7.49978Z"/>
	</symbol>

	<symbol viewBox="0 0 30 30" id="viber">
		<path d="M8.88414 6.22418C8.59521 6.18549 8.3006 6.23899 8.04932 6.3758H8.02756C7.44458 6.69048 6.91913 7.08669 6.4714 7.55298C6.0983 7.9492 5.8962 8.3497 5.84335 8.73589C5.81225 8.96475 5.83402 9.19647 5.90709 9.41532L5.93507 9.42962C6.35481 10.5639 6.90203 11.6553 7.57051 12.6823C8.43245 14.1248 9.49316 15.4589 10.7263 16.6515L10.7637 16.7002L10.8227 16.7402L10.8585 16.7788L10.902 16.8132C12.2028 17.9512 13.6562 18.9318 15.2269 19.7311C17.0225 20.6308 18.1122 21.0556 18.7667 21.233V21.2416C18.9579 21.2959 19.1321 21.3202 19.3077 21.3202C19.8651 21.2823 20.3927 21.0739 20.8064 20.7281C21.3116 20.3161 21.7391 19.8312 22.0718 19.292V19.282C22.3843 18.7384 22.2786 18.2263 21.8277 17.8788C20.9222 17.1508 19.943 16.5042 18.9035 15.9478C18.2071 15.6002 17.4997 15.8105 17.2137 16.1623L16.6027 16.8718C16.2887 17.2237 15.7197 17.175 15.7197 17.175L15.7042 17.1836C11.4586 16.1867 10.3253 12.2317 10.3253 12.2317C10.3253 12.2317 10.2724 11.6939 10.6657 11.4193L11.4306 10.8528C11.7975 10.5782 12.0524 9.92882 11.6591 9.28801C11.0584 8.33076 10.357 7.43008 9.56506 6.59893C9.39232 6.40332 9.15008 6.2701 8.88103 6.22275L8.88414 6.22418ZM16.0586 4.50488C15.8525 4.50488 15.6548 4.58023 15.509 4.71435C15.3632 4.84848 15.2813 5.03039 15.2813 5.22006C15.2813 5.40974 15.3632 5.59165 15.509 5.72577C15.6548 5.8599 15.8525 5.93525 16.0586 5.93525C18.0236 5.93525 19.656 6.52598 20.9478 7.65883C21.6116 8.27818 22.1293 9.01195 22.4682 9.81582C22.8087 10.6211 22.9641 11.4808 22.9237 12.3418C22.9151 12.5315 22.9887 12.7166 23.1283 12.8563C23.268 12.9961 23.4622 13.0791 23.6684 13.0871C23.8745 13.095 24.0757 13.0273 24.2276 12.8988C24.3795 12.7703 24.4697 12.5916 24.4783 12.4019C24.5265 11.3427 24.3354 10.2858 23.9171 9.29803C23.497 8.30555 22.8599 7.40297 22.0454 6.64614L22.0298 6.63183C20.427 5.22292 18.3998 4.50488 16.0586 4.50488Z"/>
		<path d="M16.0043 6.8569C15.7982 6.8569 15.6005 6.93225 15.4547 7.06637C15.3089 7.20049 15.2271 7.3824 15.2271 7.57208C15.2271 7.76176 15.3089 7.94367 15.4547 8.07779C15.6005 8.21191 15.7982 8.28726 16.0043 8.28726H16.0308C17.4486 8.38023 18.4808 8.81507 19.2037 9.52882C19.9453 10.264 20.3292 11.178 20.2997 12.308C20.295 12.4977 20.3723 12.6813 20.5147 12.8185C20.6571 12.9557 20.853 13.0353 21.0591 13.0396C21.2653 13.044 21.4649 12.9728 21.614 12.8418C21.7631 12.7108 21.8496 12.5306 21.8543 12.3409C21.8916 10.8576 21.3724 9.57745 20.3432 8.55617V8.55331C19.2908 7.51487 17.8465 6.96561 16.1085 6.85833L16.0821 6.85547L16.0043 6.8569Z"/>
		<path d="M15.975 9.25179C15.871 9.24335 15.7662 9.25427 15.6668 9.28392C15.5675 9.31357 15.4757 9.36133 15.3969 9.42435C15.318 9.48737 15.2538 9.56436 15.208 9.65072C15.1623 9.73708 15.1359 9.83104 15.1304 9.92699C15.125 10.0229 15.1406 10.1189 15.1764 10.2092C15.2122 10.2995 15.2674 10.3822 15.3387 10.4524C15.4099 10.5226 15.4959 10.5789 15.5913 10.6179C15.6868 10.6569 15.7898 10.6777 15.8942 10.6793C16.544 10.7108 16.9591 10.891 17.2202 11.1327C17.483 11.3759 17.6789 11.7664 17.7146 12.3771C17.7166 12.4731 17.7395 12.5677 17.782 12.6554C17.8245 12.7431 17.8858 12.8219 17.9622 12.8873C18.0385 12.9527 18.1284 13.0033 18.2265 13.0361C18.3246 13.0688 18.4288 13.0831 18.533 13.078C18.6372 13.0729 18.7392 13.0486 18.8329 13.0065C18.9267 12.9643 19.0102 12.9053 19.0787 12.8328C19.1471 12.7603 19.1989 12.6759 19.2311 12.5846C19.2633 12.4933 19.2752 12.3969 19.2661 12.3013C19.2164 11.4431 18.9241 10.685 18.3256 10.1272C17.7239 9.56933 16.9047 9.29756 15.975 9.25179Z"/>
		<path fill-rule="evenodd" clip-rule="evenodd" d="M7.4882 0.763059C12.435 -0.254353 17.565 -0.254353 22.5118 0.763059L23.0389 0.870336C24.4849 1.16778 25.8131 1.82829 26.8757 2.77847C27.9383 3.72865 28.6938 4.9313 29.0583 6.25279C30.3139 10.8055 30.3139 15.5746 29.0583 20.1273C28.6938 21.4488 27.9383 22.6514 26.8757 23.6016C25.8131 24.5518 24.4849 25.2123 23.0389 25.5098L22.5103 25.617C19.412 26.2545 16.2328 26.4947 13.063 26.3308L8.93865 29.7265C8.78315 29.8546 8.59315 29.9419 8.38845 29.9794C8.18376 30.0168 7.97189 30.0031 7.77495 29.9395C7.57801 29.876 7.40322 29.7649 7.26883 29.618C7.13445 29.4711 7.04538 29.2937 7.01094 29.1043L6.32847 25.3538C5.01979 24.9792 3.8374 24.302 2.89432 23.3869C1.95124 22.4719 1.27898 21.3496 0.941791 20.1273C-0.31393 15.5746 -0.31393 10.8055 0.941791 6.25279C1.30622 4.9313 2.06172 3.72865 3.12435 2.77847C4.18697 1.82829 5.51511 1.16778 6.9612 0.870336L7.4882 0.763059ZM22.0035 2.85568C17.3914 1.90707 12.6086 1.90707 7.99656 2.85568L7.468 2.96439C6.44308 3.17559 5.50184 3.64403 4.74881 4.3177C3.99577 4.99136 3.46041 5.84389 3.20218 6.78059C2.042 10.9869 2.042 15.3932 3.20218 19.5995C3.46054 20.5364 3.99613 21.389 4.74946 22.0627C5.50278 22.7364 6.44435 23.2047 7.46955 23.4157L7.60946 23.4443C7.8358 23.4909 8.0419 23.5985 8.20141 23.7534C8.36092 23.9083 8.46659 24.1035 8.50491 24.314L8.96196 26.8286L11.8722 24.4327C11.9884 24.3367 12.1244 24.2632 12.272 24.2165C12.4197 24.1699 12.5761 24.1509 12.7319 24.1609C15.8396 24.3638 18.9629 24.1494 22.0035 23.5244L22.5305 23.4157C23.5557 23.2047 24.4973 22.7364 25.2506 22.0627C26.0039 21.389 26.5395 20.5364 26.7979 19.5995C27.9576 15.3942 27.9576 10.9873 26.7979 6.78059C26.5395 5.8437 26.0039 4.99106 25.2506 4.31737C24.4973 3.64369 23.5557 3.17535 22.5305 2.96439L22.0035 2.85568Z"/>
	</symbol>

	<symbol viewBox="0 0 31 30" id="viber-2">
		<path fill-rule="evenodd" clip-rule="evenodd" d="M0.5 15C0.5 23.2845 7.2155 30 15.5 30C23.7845 30 30.5 23.2845 30.5 15C30.5 6.7155 23.7845 0 15.5 0C7.2155 0 0.5 6.7155 0.5 15ZM16.391 8.72732C16.3445 8.71982 16.2845 8.71532 16.2245 8.71082C15.9725 8.69282 15.449 8.65232 15.479 8.09282C15.4925 7.84982 15.5975 7.44482 16.151 7.44482C16.2111 7.44535 16.2711 7.44835 16.331 7.45382L16.3364 7.45418C16.3794 7.45706 16.4208 7.45982 16.454 7.45982C16.4675 7.4598 16.4811 7.4588 16.4945 7.45682L16.5365 7.45532C20.0135 7.57532 23.0255 10.8333 22.9835 14.4258C22.982 14.4729 22.9849 14.5272 22.9878 14.5831L22.988 14.5863C22.9985 14.8263 23.0105 15.1218 22.826 15.3213C22.769 15.3798 22.7002 15.4255 22.6241 15.4553C22.5481 15.485 22.4665 15.4982 22.385 15.4938H22.367C21.7733 15.4818 21.764 14.9125 21.7595 14.6378L21.7595 14.6373L21.7588 14.6018C21.7578 14.5375 21.7568 14.4781 21.7505 14.4273C21.32 10.9143 19.766 9.26432 16.391 8.72732ZM21.3725 18.7938C21.4432 18.8522 21.5147 18.9097 21.587 18.9663V18.9678L21.5871 18.9679C22.1301 19.3954 22.8064 19.9279 22.436 21.0078C22.013 22.2408 20.6375 23.3208 19.4915 23.3208H19.472C19.4517 23.3205 19.4315 23.3174 19.412 23.3118L19.2695 23.2758L19.2579 23.2731C19.0909 23.2344 18.8655 23.1821 18.6515 23.0868C16.2155 22.0038 14.1125 20.5638 12.4025 18.8043C10.6535 17.0073 9.26896 14.8293 8.28346 12.3303C7.94146 11.4663 7.92646 10.6368 8.24146 9.92882C8.56696 9.19832 9.21946 8.64332 10.127 8.32832C10.4649 8.203 10.8368 8.20406 11.174 8.33132C11.9645 8.63132 13.841 11.2713 13.886 12.1488C13.9265 12.9213 13.3505 13.3248 13.0415 13.5408C12.4955 13.9233 12.3965 14.3913 12.7055 15.1113C13.346 16.5963 14.4665 17.7213 16.034 18.4563C16.1985 18.5397 16.3792 18.5862 16.5635 18.5928C16.8275 18.5928 17.0435 18.4578 17.2205 18.1818C17.621 17.5563 18.1055 17.2383 18.6605 17.2383C19.073 17.2383 19.5095 17.4108 19.9955 17.7618C20.0744 17.819 20.1534 17.876 20.2325 17.9328L20.2806 17.9676C20.6437 18.2298 21.0191 18.5008 21.3725 18.7938ZM15.983 12.0093C16.127 11.5803 16.5365 11.5698 16.7315 11.5653C17.252 11.5518 17.8235 11.8323 18.2975 12.3303C18.77 12.8253 19.0475 13.4463 19.0415 13.9953C19.058 14.5203 18.8735 14.8098 18.491 14.8578C18.4671 14.8603 18.443 14.8613 18.419 14.8608C18.101 14.8608 17.8535 14.5968 17.816 14.2158C17.738 13.4028 17.342 12.9633 16.574 12.8358C16.3625 12.8013 16.1285 12.7368 16.007 12.5268C15.9245 12.3843 15.917 12.2103 15.983 12.0093ZM16.8533 9.5325C19.1408 9.816 20.9873 11.868 20.9693 14.106L20.9678 14.1075C20.9675 14.1175 20.9664 14.1276 20.9648 14.1375C20.961 14.1929 20.961 14.2486 20.9648 14.304L20.9648 14.3052C20.9724 14.5351 20.9879 15.0121 20.4803 15.0915C20.4293 15.1005 20.3813 15.1035 20.3363 15.1035C19.7903 15.1035 19.7588 14.58 19.7438 14.3295C19.7408 14.262 19.7378 14.199 19.7288 14.1465C19.3913 12.042 18.6983 11.2965 16.6418 10.824C16.5985 10.8122 16.5459 10.805 16.4902 10.7973L16.4663 10.794L16.4544 10.7922C16.2375 10.7596 15.9715 10.7196 15.8183 10.506C15.7711 10.4339 15.7388 10.3531 15.7234 10.2684C15.7079 10.1836 15.7096 10.0966 15.7283 10.0125C15.7613 9.81 15.8858 9.471 16.3553 9.471C16.4722 9.47417 16.5886 9.48722 16.7033 9.51L16.8533 9.5325Z"/>
	</symbol>

	<symbol viewBox="0 0 31 30" id="instagram-2">
		<path d="M15.5 10C14.1739 10 12.9021 10.5268 11.9645 11.4645C11.0268 12.4021 10.5 13.6739 10.5 15C10.5 16.3261 11.0268 17.5979 11.9645 18.5355C12.9021 19.4732 14.1739 20 15.5 20C16.8261 20 18.0979 19.4732 19.0355 18.5355C19.9732 17.5979 20.5 16.3261 20.5 15C20.5 13.6739 19.9732 12.4021 19.0355 11.4645C18.0979 10.5268 16.8261 10 15.5 10Z"/>
		<path fill-rule="evenodd" clip-rule="evenodd" d="M9.5 0C7.11305 0 4.82387 0.948212 3.13604 2.63604C1.44821 4.32387 0.5 6.61305 0.5 9V21C0.5 23.3869 1.44821 25.6761 3.13604 27.364C4.82387 29.0518 7.11305 30 9.5 30H21.5C23.8869 30 26.1761 29.0518 27.864 27.364C29.5518 25.6761 30.5 23.3869 30.5 21V9C30.5 6.61305 29.5518 4.32387 27.864 2.63604C26.1761 0.948212 23.8869 0 21.5 0H9.5ZM8.5 15C8.5 13.1435 9.2375 11.363 10.5503 10.0503C11.863 8.7375 13.6435 8 15.5 8C17.3565 8 19.137 8.7375 20.4497 10.0503C21.7625 11.363 22.5 13.1435 22.5 15C22.5 16.8565 21.7625 18.637 20.4497 19.9497C19.137 21.2625 17.3565 22 15.5 22C13.6435 22 11.863 21.2625 10.5503 19.9497C9.2375 18.637 8.5 16.8565 8.5 15ZM22.5 8H24.5V6H22.5V8Z"/>
	</symbol>

	<symbol viewBox="0 0 31 30" id="telegram-2">
		<path d="M30.5 15C30.5 18.9782 28.9196 22.7936 26.1066 25.6066C23.2936 28.4196 19.4782 30 15.5 30C11.5218 30 7.70644 28.4196 4.8934 25.6066C2.08035 22.7936 0.5 18.9782 0.5 15C0.5 11.0218 2.08035 7.20644 4.8934 4.3934C7.70644 1.58035 11.5218 0 15.5 0C19.4782 0 23.2936 1.58035 26.1066 4.3934C28.9196 7.20644 30.5 11.0218 30.5 15ZM16.0381 11.0738C14.5794 11.6813 11.6619 12.9375 7.28938 14.8425C6.58063 15.1237 6.2075 15.4012 6.17375 15.6712C6.1175 16.1269 6.68938 16.3069 7.4675 16.5525L7.79563 16.6556C8.56063 16.905 9.59188 17.1956 10.1262 17.2069C10.6137 17.2181 11.1556 17.0194 11.7537 16.6069C15.8394 13.8488 17.9488 12.4556 18.08 12.4256C18.1737 12.4031 18.305 12.3769 18.3913 12.4556C18.4794 12.5325 18.47 12.6806 18.4606 12.72C18.4044 12.9619 16.16 15.0469 14.9994 16.1269C14.6375 16.4644 14.3806 16.7025 14.3281 16.7569C14.2125 16.875 14.095 16.9913 13.9756 17.1056C13.2631 17.7919 12.7306 18.3056 14.0037 19.1456C14.6169 19.5506 15.1081 19.8825 15.5975 20.2162C16.13 20.58 16.6625 20.9419 17.3525 21.3956C17.5269 21.5081 17.6956 21.63 17.8588 21.7463C18.4794 22.1887 19.04 22.5863 19.7281 22.5225C20.1294 22.485 20.5438 22.11 20.7537 20.985C21.2506 18.3281 22.2275 12.5737 22.4525 10.2019C22.4662 10.0047 22.4581 9.80662 22.4281 9.61125C22.4105 9.4536 22.3342 9.30836 22.2144 9.20438C22.0438 9.08661 21.8404 9.02559 21.6331 9.03C21.0706 9.03938 20.2025 9.34125 16.0381 11.0738Z"/>
	</symbol>

	<symbol viewBox="0 0 24 24" id="click">
		<path fill-rule="evenodd" clip-rule="evenodd" d="M6.99369 1.51456C7.39376 1.40726 7.80507 1.64459 7.91238 2.04467L8.68938 4.94167C8.79668 5.34174 8.55934 5.75305 8.15927 5.86035C7.75919 5.96766 7.34789 5.73032 7.24058 5.33025L6.46358 2.43325C6.35628 2.03317 6.59362 1.62186 6.99369 1.51456ZM14.4803 3.51963C14.7732 3.81252 14.7732 4.28739 14.4803 4.58029L12.3583 6.70229C12.0654 6.99518 11.5905 6.99518 11.2976 6.70229C11.0048 6.40939 11.0048 5.93452 11.2976 5.64163L13.4196 3.51963C13.7125 3.22673 14.1874 3.22673 14.4803 3.51963ZM1.51357 6.99373C1.62083 6.59365 2.03212 6.35627 2.43221 6.46354L5.33021 7.24054C5.73029 7.34781 5.96766 7.7591 5.86039 8.15918C5.75313 8.55927 5.34184 8.79664 4.94175 8.68937L2.04375 7.91237C1.64367 7.8051 1.4063 7.39381 1.51357 6.99373ZM8.46965 8.46963C8.68455 8.25472 9.0079 8.19076 9.28844 8.30765L21.2884 13.3076C21.5765 13.4277 21.7601 13.7134 21.7496 14.0253C21.739 14.3371 21.5365 14.6099 21.2411 14.7102L17.1571 16.0965L20.8443 19.7836C21.1372 20.0765 21.1372 20.5514 20.8443 20.8443C20.5514 21.1372 20.0765 21.1372 19.7836 20.8443L16.0965 17.1571L14.7102 21.241C14.6099 21.5365 14.3371 21.739 14.0253 21.7495C13.7135 21.7601 13.4277 21.5764 13.3077 21.2884L8.30767 9.28842C8.19078 9.00788 8.25475 8.68453 8.46965 8.46963ZM10.3928 10.3928L13.9283 18.8779L15.0638 15.5329C15.1387 15.3121 15.3121 15.1387 15.5329 15.0638L18.8779 13.9283L10.3928 10.3928ZM6.70106 11.2974C6.99409 11.5901 6.99431 12.065 6.70156 12.358L4.58156 14.48C4.2888 14.7731 3.81393 14.7733 3.5209 14.4805C3.22787 14.1878 3.22764 13.7129 3.5204 13.4199L5.6404 11.2979C5.93315 11.0048 6.40803 11.0046 6.70106 11.2974Z"/>
	</symbol>

	<symbol viewBox="0 0 16 21" id="list-check">
		<path fill-rule="evenodd" clip-rule="evenodd" d="M14.9773 0.121337C15.4627 0.384828 15.6426 0.991905 15.3791 1.47728L4.91076 20.7611L0.086438 9.90633C-0.137866 9.40164 0.0894269 8.81068 0.594111 8.58638C1.0988 8.36208 1.68976 8.58937 1.91406 9.09405L5.08973 16.2393L13.6214 0.523099C13.8849 0.0377217 14.492 -0.142153 14.9773 0.121337Z"/>
	</symbol>

	<symbol viewBox="0 0 13 19" id="list-close">
		<path fill-rule="evenodd" clip-rule="evenodd" d="M12.5666 0.676051C13.0217 0.988937 13.137 1.61152 12.8241 2.06662L1.82414 18.0666C1.51125 18.5217 0.88867 18.637 0.433564 18.3241C-0.0215413 18.0112 -0.136834 17.3887 0.176051 16.9336L11.1761 0.933564C11.4889 0.478459 12.1115 0.363166 12.5666 0.676051Z"/>
		<path fill-rule="evenodd" clip-rule="evenodd" d="M0.433565 0.676051C-0.0215406 0.988937 -0.136833 1.61152 0.176051 2.06662L11.1761 18.0666C11.4889 18.5217 12.1115 18.637 12.5666 18.3241C13.0217 18.0112 13.137 17.3887 12.8241 16.9336L1.82414 0.933564C1.51125 0.478459 0.888671 0.363166 0.433565 0.676051Z"/>
	</symbol>

	<symbol viewBox="0 0 25 24" id="arrow-next">
		<path d="M21.1437 12.3938L14.3937 19.1438C14.342 19.1955 14.2807 19.2365 14.2131 19.2645C14.1455 19.2925 14.0731 19.3069 14 19.3069C13.9269 19.3069 13.8545 19.2925 13.7869 19.2645C13.7193 19.2365 13.658 19.1955 13.6063 19.1438C13.5545 19.0921 13.5135 19.0307 13.4855 18.9631C13.4576 18.8956 13.4432 18.8231 13.4432 18.75C13.4432 18.6769 13.4576 18.6045 13.4855 18.5369C13.5135 18.4694 13.5545 18.408 13.6063 18.3563L19.3906 12.5625H4.25C4.10082 12.5625 3.95774 12.5033 3.85225 12.3978C3.74676 12.2923 3.6875 12.1492 3.6875 12C3.6875 11.8508 3.74676 11.7078 3.85225 11.6023C3.95774 11.4968 4.10082 11.4375 4.25 11.4375H19.3906L13.6063 5.64377C13.5018 5.53934 13.4432 5.39771 13.4432 5.25002C13.4432 5.10234 13.5018 4.9607 13.6063 4.85627C13.7107 4.75184 13.8523 4.69318 14 4.69318C14.1477 4.69318 14.2893 4.75184 14.3937 4.85627L21.1437 11.6063C21.1971 11.6571 21.2395 11.7181 21.2685 11.7858C21.2975 11.8535 21.3125 11.9264 21.3125 12C21.3125 12.0737 21.2975 12.1465 21.2685 12.2142C21.2395 12.2819 21.1971 12.343 21.1437 12.3938Z"/>
	</symbol>

	<symbol viewBox="0 0 16 16" id="eye">
		<path d="M16 8C16 8 13 2.5 8 2.5C3 2.5 0 8 0 8C0 8 3 13.5 8 13.5C13 13.5 16 8 16 8ZM1.173 8C1.65651 7.26512 2.21264 6.58069 2.833 5.957C4.12 4.668 5.88 3.5 8 3.5C10.12 3.5 11.879 4.668 13.168 5.957C13.7884 6.58069 14.3445 7.26512 14.828 8C14.77 8.087 14.706 8.183 14.633 8.288C14.298 8.768 13.803 9.408 13.168 10.043C11.879 11.332 10.119 12.5 8 12.5C5.88 12.5 4.121 11.332 2.832 10.043C2.21165 9.41931 1.65652 8.73487 1.173 8Z" fill="#989898"/>
		<path d="M8 5.5C7.33696 5.5 6.70107 5.76339 6.23223 6.23223C5.76339 6.70107 5.5 7.33696 5.5 8C5.5 8.66304 5.76339 9.29893 6.23223 9.76777C6.70107 10.2366 7.33696 10.5 8 10.5C8.66304 10.5 9.29893 10.2366 9.76777 9.76777C10.2366 9.29893 10.5 8.66304 10.5 8C10.5 7.33696 10.2366 6.70107 9.76777 6.23223C9.29893 5.76339 8.66304 5.5 8 5.5ZM4.5 8C4.5 7.07174 4.86875 6.1815 5.52513 5.52513C6.1815 4.86875 7.07174 4.5 8 4.5C8.92826 4.5 9.8185 4.86875 10.4749 5.52513C11.1313 6.1815 11.5 7.07174 11.5 8C11.5 8.92826 11.1313 9.8185 10.4749 10.4749C9.8185 11.1313 8.92826 11.5 8 11.5C7.07174 11.5 6.1815 11.1313 5.52513 10.4749C4.86875 9.8185 4.5 8.92826 4.5 8Z"/>
	</symbol>

	<symbol viewBox="0 0 15 16" id="time">
		<path d="M7.5 0.5C11.6423 0.5 15 3.85775 15 8C15 12.1423 11.6423 15.5 7.5 15.5C3.35775 15.5 0 12.1423 0 8C0 3.85775 3.35775 0.5 7.5 0.5ZM7.5 1.54625C5.78836 1.54625 4.14682 2.2262 2.93651 3.43651C1.7262 4.64682 1.04625 6.28836 1.04625 8C1.04625 9.71164 1.7262 11.3532 2.93651 12.5635C4.14682 13.7738 5.78836 14.4537 7.5 14.4537C9.21164 14.4537 10.8532 13.7738 12.0635 12.5635C13.2738 11.3532 13.9537 9.71164 13.9537 8C13.9537 6.28836 13.2738 4.64682 12.0635 3.43651C10.8532 2.2262 9.21164 1.54625 7.5 1.54625ZM6.8025 4.68575C7.09125 4.68575 7.32525 4.9205 7.32525 5.20925V8.87225H10.9882C11.1236 8.87737 11.2516 8.93473 11.3455 9.03228C11.4395 9.12982 11.4919 9.25996 11.4919 9.39538C11.4919 9.53079 11.4395 9.66093 11.3455 9.75847C11.2516 9.85602 11.1236 9.91337 10.9882 9.9185H6.8025C6.66366 9.9185 6.53051 9.86335 6.43233 9.76517C6.33415 9.667 6.279 9.53384 6.279 9.395V5.21C6.279 4.9205 6.513 4.68575 6.8025 4.68575Z"/>
	</symbol>

	<symbol viewBox="0 0 24 24" id="close">
		<path d="M1.23692 0L24 22.7622L22.7631 24L0 1.23783L1.23692 0Z"/>
		<path d="M22.7631 0L24 1.23696L1.23692 23.9991L0 22.7631L22.7631 0Z"/>
	</symbol>

	<symbol viewBox="0 0 22 21" id="calendar">
		<path d="M20.5008 3.00016H18.3342V4.3335H20.3342V19.0002H1.66749V4.3335H3.66749V3.00016H1.50082C1.34498 3.00277 1.19118 3.03605 1.0482 3.0981C0.905222 3.16016 0.775869 3.24977 0.66753 3.36182C0.559191 3.47388 0.473987 3.60618 0.416786 3.75116C0.359585 3.89615 0.331507 4.05099 0.334156 4.20683V19.1268C0.331507 19.2827 0.359585 19.4375 0.416786 19.5825C0.473987 19.7275 0.559191 19.8598 0.66753 19.9718C0.775869 20.0839 0.905222 20.1735 1.0482 20.2356C1.19118 20.2976 1.34498 20.3309 1.50082 20.3335H20.5008C20.6567 20.3309 20.8105 20.2976 20.9534 20.2356C21.0964 20.1735 21.2258 20.0839 21.3341 19.9718C21.4425 19.8598 21.5277 19.7275 21.5849 19.5825C21.6421 19.4375 21.6701 19.2827 21.6675 19.1268V4.20683C21.6701 4.05099 21.6421 3.89615 21.5849 3.75116C21.5277 3.60618 21.4425 3.47388 21.3341 3.36182C21.2258 3.24977 21.0964 3.16016 20.9534 3.0981C20.8105 3.03605 20.6567 3.00277 20.5008 3.00016Z"/>
		<path d="M4.33416 8.3335H5.66749V9.66683H4.33416V8.3335Z"/>
		<path d="M8.33416 8.3335H9.66749V9.66683H8.33416V8.3335Z"/>
		<path d="M12.3342 8.3335H13.6675V9.66683H12.3342V8.3335Z"/>
		<path d="M16.3342 8.3335H17.6675V9.66683H16.3342V8.3335Z"/>
		<path d="M4.33416 11.6668H5.66749V13.0002H4.33416V11.6668Z"/>
		<path d="M8.33416 11.6668H9.66749V13.0002H8.33416V11.6668Z"/>
		<path d="M12.3342 11.6668H13.6675V13.0002H12.3342V11.6668Z"/>
		<path d="M16.3342 11.6668H17.6675V13.0002H16.3342V11.6668Z"/>
		<path d="M4.33416 15.0002H5.66749V16.3335H4.33416V15.0002Z"/>
		<path d="M8.33416 15.0002H9.66749V16.3335H8.33416V15.0002Z"/>
		<path d="M12.3342 15.0002H13.6675V16.3335H12.3342V15.0002Z"/>
		<path d="M16.3342 15.0002H17.6675V16.3335H16.3342V15.0002Z"/>
		<path d="M5.66749 5.66683C5.8443 5.66683 6.01387 5.59659 6.13889 5.47157C6.26392 5.34654 6.33416 5.17697 6.33416 5.00016V1.00016C6.33416 0.823352 6.26392 0.653782 6.13889 0.528758C6.01387 0.403734 5.8443 0.333496 5.66749 0.333496C5.49068 0.333496 5.32111 0.403734 5.19608 0.528758C5.07106 0.653782 5.00082 0.823352 5.00082 1.00016V5.00016C5.00082 5.17697 5.07106 5.34654 5.19608 5.47157C5.32111 5.59659 5.49068 5.66683 5.66749 5.66683Z"/>
		<path d="M16.3342 5.66683C16.511 5.66683 16.6805 5.59659 16.8056 5.47157C16.9306 5.34654 17.0008 5.17697 17.0008 5.00016V1.00016C17.0008 0.823352 16.9306 0.653782 16.8056 0.528758C16.6805 0.403734 16.511 0.333496 16.3342 0.333496C16.1573 0.333496 15.9878 0.403734 15.8628 0.528758C15.7377 0.653782 15.6675 0.823352 15.6675 1.00016V5.00016C15.6675 5.17697 15.7377 5.34654 15.8628 5.47157C15.9878 5.59659 16.1573 5.66683 16.3342 5.66683Z"/>
		<path d="M7.66749 3.00016H14.3342V4.3335H7.66749V3.00016Z"/>
	</symbol>
	
</svg>