<svg width="66" height="65" fill="none" xmlns="http://www.w3.org/2000/svg"><path fill-rule="evenodd" clip-rule="evenodd" d="M3.53.148C2.41.501 1.288 1.503.775 2.613L.5 3.207V52.01l.337.718A4.506 4.506 0 002.96 54.85l.719.336 14.467.034 14.467.033.37.73c1.26 2.475 4.01 5.279 6.589 6.72 5.923 3.31 12.819 3.029 18.48-.754 1.237-.826 3.597-3.189 4.432-4.436a18.311 18.311 0 002.714-6.364c.377-1.741.405-5.075.056-6.702-.78-3.639-2.323-6.538-4.797-9.01-3.435-3.432-8.065-5.255-12.866-5.063l-1.621.064-.002-10.82V8.8l-.304-.635c-.23-.485-1.142-1.468-3.846-4.148C39.87 2.084 38.075.396 37.83.266 37.404.04 36.7.03 20.724.006 7.268-.014 3.96.014 3.53.148zm32.796 4.235c.04 2.09.065 2.298.347 2.827.475.894.871 1.352 1.544 1.783.935.6 1.716.756 3.779.758l1.813.001v21.194l-.602.151c-.898.226-2.652.972-3.66 1.557-6.772 3.93-10.07 11.722-8.161 19.285l.29 1.15H4.292l-.554-.292a1.942 1.942 0 01-.846-.846l-.293-.554V27.66c0-16.462.041-23.847.135-24.095.179-.473.726-1.047 1.2-1.258.312-.14 3.294-.171 16.366-.175l15.984-.005.042 2.256zm5.74 3.192c-.122.025-.663.02-1.204-.01-1.136-.066-1.705-.368-2.134-1.132-.21-.371-.262-.69-.262-1.59V3.72l1.911 1.904c1.395 1.39 1.851 1.918 1.69 1.952zm-22.639-.978L18.26 7.764l-.512-.462c-.893-.806-1.377-.877-5.704-.83l-3.785.04-.669.37a3.275 3.275 0 00-1.5 1.659c-.242.579-.27 7.95-.033 8.74.215.717 1.126 1.68 1.855 1.962.535.206 1.034.232 4.544.232 4.352 0 4.387-.006 5.327-.83.261-.23.6-.651.754-.938.264-.493.28-.7.316-4.015l.037-3.495 1.577-1.589c.906-.912 1.612-1.731 1.658-1.924.094-.385-.2-1.053-.517-1.174-.113-.043-.388-.079-.61-.079-.34 0-.59.186-1.57 1.166zM16.068 8.77c.743.382.693.49-1 2.186l-1.583 1.585-.852-.822c-.813-.784-.993-.88-1.576-.83-.385.033-.827.599-.827 1.057 0 .339.21.609 1.374 1.772 1.27 1.27 1.41 1.373 1.863 1.373.451 0 .597-.106 1.87-1.359l1.38-1.359V14.5c0 2.073-.008 2.135-.304 2.431-.167.167-.496.34-.731.384-.235.044-1.907.062-3.714.04l-3.287-.04-.306-.357-.307-.356V9.266l.391-.329.391-.329 3.457.002c2.49.002 3.541.046 3.761.16zm8.672.168c-.506.426-.54 1.06-.08 1.52l.313.312h8.489l.276-.294c.162-.172.277-.459.277-.689 0-1.151-.11-1.178-4.881-1.178H25.13l-.391.33zm-.08 5.448c-.384.384-.415 1.057-.069 1.485l.243.3 3.704.037 3.705.038.377-.377c.403-.403.462-.707.236-1.203-.251-.55-.55-.592-4.322-.592h-3.561l-.313.312zm-4.064 6.316c-.14.077-.722.598-1.294 1.16l-1.04 1.02-.423-.357c-.956-.806-1.047-.82-5.447-.82-3.758 0-4.042.016-4.579.259-.768.348-1.243.815-1.604 1.578-.296.626-.301.695-.302 4.646l-.001 4.01.329.66c.181.364.536.831.788 1.039.868.715 1.224.766 5.37.766 4.253 0 4.592-.055 5.437-.874.957-.928.981-1.047 1.022-4.972l.036-3.495 1.576-1.59c.867-.873 1.592-1.702 1.611-1.842.067-.483-.144-.947-.52-1.141-.438-.227-.614-.235-.959-.047zm-4.458 3.237c.112.043.266.193.341.334.122.226-.042.435-1.426 1.821L13.49 27.66l-.869-.82c-.712-.671-.946-.82-1.295-.82-.582 0-1.096.518-1.096 1.104 0 .374.16.599 1.176 1.647 1.202 1.242 1.65 1.57 2.144 1.57.186 0 .765-.477 1.724-1.422l1.443-1.423v4.263l-.378.377-.377.377-3.704-.037-3.704-.038-.243-.3c-.227-.28-.243-.546-.243-3.977v-3.677l.312-.312.312-.312h3.62c1.992 0 3.713.035 3.826.079zm8.522.233c-.573.573-.295 1.596.487 1.788.155.038 3.558.053 7.56.033 7.088-.035 7.285-.043 7.533-.29.436-.436.462-.973.07-1.439l-.34-.404H24.973l-.313.312zm.451 5.112c-.744.286-.984 1.123-.5 1.74l.264.334h7.498l.312-.312c.404-.404.406-.962.005-1.428l-.306-.357-3.541-.025c-1.948-.014-3.627.007-3.732.048zm25.312 3.402a14.92 14.92 0 018.614 4.433c2.157 2.228 3.403 4.564 4.058 7.61.315 1.464.312 4.467-.005 5.947-1.292 6.02-5.879 10.604-11.905 11.894-1.48.317-4.486.32-5.952.005-3.13-.672-5.493-1.953-7.736-4.194-.709-.708-1.585-1.743-1.947-2.3-2.927-4.495-3.343-9.922-1.136-14.802 1.331-2.944 4.431-6.036 7.391-7.372 2.705-1.222 5.751-1.653 8.618-1.221zm-31.001 4.292l-1.173 1.172-.416-.395c-.911-.864-.912-.864-5.147-.907-2.446-.025-4.024.01-4.345.097-.86.232-1.688.883-2.08 1.64l-.355.682v3.942c0 2.654.048 4.105.15 4.441.2.67.99 1.54 1.727 1.903.593.292.667.297 4.61.295 3.504-.001 4.064-.029 4.467-.218a3.612 3.612 0 001.608-1.478l.348-.59.038-3.495.04-3.495 1.582-1.6c.87-.88 1.59-1.708 1.598-1.842.05-.832-.33-1.324-1.024-1.324-.405 0-.586.13-1.628 1.172zm-3.168 2.269c.185.145.336.33.336.411 0 .082-.7.85-1.556 1.706l-1.556 1.558-.858-.85c-.744-.739-.92-.852-1.322-.852-.58 0-1.068.503-1.068 1.1 0 .34.21.61 1.374 1.773 1.27 1.27 1.41 1.372 1.863 1.372.451 0 .597-.106 1.87-1.359l1.38-1.359v2.127c0 2.09-.006 2.133-.312 2.44l-.313.312H8.595l-.263-.335c-.253-.322-.264-.482-.26-3.972.003-2.659.046-3.69.159-3.836.357-.46.616-.492 4.176-.496 3.364-.003 3.527.008 3.848.26zm8.667-.11c-.653.374-.776 1.18-.26 1.695.305.305.355.312 2.358.312 2.004 0 2.054-.007 2.359-.312.515-.514.412-1.343-.206-1.663-.452-.233-3.855-.26-4.251-.032zm29.319.01c-.207.105-1.885 2.595-4.833 7.171-2.485 3.856-4.561 7.054-4.614 7.105-.054.052-.69-.488-1.413-1.2-1.457-1.433-1.69-1.528-2.36-.964-.303.255-.391.432-.391.784 0 .414.157.614 1.749 2.223.962.973 1.912 1.854 2.112 1.959.438.23.89.139 1.224-.247.135-.155 2.451-3.712 5.148-7.905 5.346-8.311 5.255-8.135 4.511-8.76-.436-.367-.668-.401-1.133-.166zM24.66 44.76c-.307.307-.402.83-.233 1.271.162.42.748.578 2.15.578 1.325 0 1.36-.008 1.724-.372.224-.223.372-.505.372-.708 0-.204-.148-.485-.372-.71-.368-.367-.386-.37-1.85-.37-1.4 0-1.495.016-1.79.311z" fill="#FF803D"/></svg>