<svg width="66" height="61" fill="none" xmlns="http://www.w3.org/2000/svg"><path fill-rule="evenodd" clip-rule="evenodd" d="M2.798.286c-.263.263-.286.478-.286 2.634 0 3.017-.01 3.001 1.848 3.072l1.3.05v14.019c0 13.828.005 14.022.287 14.305.284.284.477.286 21.513.286 18.98 0 21.26.024 21.545.223l.318.223v6.22c0 6.03.01 6.23.287 6.508.279.279.477.286 7.851.286 7.147 0 7.578-.014 7.802-.262.215-.237.237-1.016.237-8.228 0-7.685-.01-7.994-.294-8.752-.41-1.097-1.374-2.119-2.54-2.693l-.953-.47-5.563-.044-5.563-.046-5.034-3.307c-4.668-3.067-5.784-3.69-6.605-3.69-.63 0-1.812.455-2.304.887-1.488 1.307-1.54 3.68-.11 5.002.223.206 2.275 1.616 4.558 3.132 2.283 1.515 4.213 2.812 4.288 2.881.078.072-7.932.126-18.79.126H7.665V6.014h50.677v9.6l-.393-.11c-.217-.061-1.006-.111-1.754-.111-1.233 0-1.45.043-2.325.457-1.231.584-2.214 1.566-2.84 2.838-.464.942-.49 1.075-.49 2.504 0 1.43.026 1.562.492 2.508.61 1.242 1.57 2.195 2.834 2.818.905.445 1.053.473 2.469.473 1.397 0 1.576-.033 2.471-.457a6.093 6.093 0 002.873-2.873c.423-.895.457-1.075.457-2.469 0-1.344-.042-1.593-.398-2.352-.218-.467-.621-1.122-.894-1.456l-.498-.607V6.043l1.302-.05c1.858-.072 1.848-.056 1.848-3.073 0-2.156-.024-2.37-.287-2.634C62.925.002 62.733 0 33.005 0 3.275 0 3.082.002 2.798.286zm58.694 2.721v1.002H4.516V2.005h56.976v1.002zM10.45 8.8c-.193.193-.351.486-.351.65 0 .165.158.458.351.651l.352.352h33.38l.352-.352c.193-.193.352-.486.352-.65 0-.165-.159-.458-.352-.651l-.351-.352H10.802l-.352.352zm0 5.011c-.43.43-.444.78-.054 1.276l.296.378h10.655c10.464 0 10.66-.005 10.94-.287a.937.937 0 00-.09-1.421c-.374-.294-.471-.297-10.886-.297H10.8l-.35.351zm47.79 3.99c1.23.722 1.955 1.927 1.96 3.258.006 1.584-.669 2.753-2.022 3.503-.66.366-.914.424-1.84.421-1.245-.003-1.903-.283-2.74-1.165-.688-.725-.99-1.353-1.081-2.248-.181-1.766.875-3.42 2.604-4.076.236-.09.89-.142 1.452-.116.791.036 1.17.132 1.667.424zm-47.845.046c-.39.495-.374.846.055 1.275l.352.352H21.31c10.415 0 10.512-.003 10.886-.297a.937.937 0 00.09-1.421c-.28-.282-.476-.287-10.94-.287H10.692l-.296.378zm.322 3.633c-.632.254-.81 1.096-.332 1.574.28.28.477.286 8.353.286 7.5 0 8.081-.017 8.29-.25.453-.507.322-1.324-.255-1.587-.444-.202-15.558-.224-16.056-.023zm28.876 1.361c.23.12 2.515 1.6 5.076 3.29 2.562 1.689 4.802 3.154 4.978 3.255.24.137 1.768.201 6.047.255 6.253.078 6.097.057 7.002.953.807.8.8.726.8 8.421v7.093h-2.434V36.1l-.318-.223c-.444-.31-1.02-.277-1.342.079-.255.282-.275.616-.313 5.226l-.042 4.925h-7.72l-.003-5.62c-.002-5.245-.021-5.66-.28-6.23-.257-.567-.72-.904-6.617-4.81-3.488-2.31-6.469-4.344-6.624-4.52-.572-.648-.262-1.827.569-2.168.436-.178.76-.156 1.22.082zm-29.198 2.881c-.39.496-.374.847.055 1.276l.352.351h4.73c4.54 0 4.742-.011 5.017-.286.16-.159.286-.477.286-.716s-.127-.557-.286-.716c-.275-.275-.477-.286-5.071-.286h-4.786l-.296.377zm.322 10.655c-1.657.328-3.279 1.618-4.08 3.246-.45.916-.475 1.046-.475 2.544 0 1.454.033 1.645.42 2.437.537 1.098 1.774 2.337 2.873 2.873.791.388.982.42 2.436.42 1.498 0 1.627-.024 2.543-.475 3.665-1.804 4.49-6.538 1.638-9.392-1.466-1.466-3.354-2.049-5.355-1.653zm23.733.077c-3.147.847-5.037 3.993-4.25 7.076.467 1.83 1.514 3.098 3.23 3.913 1.2.57 2.978.7 4.175.307 1.672-.551 2.852-1.599 3.615-3.21.407-.859.444-1.06.44-2.37-.007-1.827-.34-2.74-1.433-3.92-1.559-1.684-3.709-2.352-5.777-1.796zM13.1 38.459c1.447.43 2.725 2.137 2.725 3.64 0 1.234-.87 2.749-1.937 3.375-.886.519-2.352.64-3.31.275-2.979-1.138-3.388-5.301-.677-6.89 1.107-.65 1.99-.76 3.2-.4zm24.368.168c.828.366 1.52 1.083 1.948 2.02.296.645.341.921.284 1.72-.153 2.136-1.711 3.597-3.833 3.593-1.527-.003-2.753-.75-3.44-2.094-.478-.938-.497-2.562-.04-3.414 1.01-1.89 3.177-2.667 5.081-1.825zM9.097 48.555c-1.482.19-3.738.702-4.427 1.004a4.683 4.683 0 00-2.26 2.085c-.345.651-.604 1.62-1.172 4.386-.402 1.953-.73 3.764-.73 4.023 0 1.004-.695.946 11.422.946h10.898l.292-.313c.16-.172.292-.395.292-.496 0-.632-1.614-7.87-1.864-8.362-.456-.893-1.37-1.807-2.195-2.192-2.053-.96-7.08-1.49-10.256-1.081zm23.549.055c-2.04.317-3.814.775-4.456 1.152-.84.492-1.855 1.677-2.119 2.471-.25.755-1.657 7.47-1.657 7.912 0 .155.13.41.287.568.28.281.477.286 11.215.286 10.406 0 10.94-.012 11.166-.262a1.1 1.1 0 00.237-.638c0-.766-1.464-7.501-1.785-8.213-.424-.939-1.331-1.848-2.273-2.278-.406-.185-1.543-.504-2.527-.71-2.245-.468-6.055-.604-8.088-.288zm-16.467 2.218c.863.172 1.798.409 2.075.524.613.256 1.362.958 1.569 1.469.122.303 1.299 5.825 1.299 6.097 0 .042-4.16.077-9.243.077-8.737 0-9.24-.014-9.168-.25.042-.139.31-1.411.597-2.829.286-1.417.638-2.847.78-3.176.498-1.15 1.487-1.59 4.794-2.137 1.698-.28 5.327-.169 7.297.225zm24.269.072c1.948.415 2.64.756 3.12 1.534.182.293.533 1.628.918 3.482l.623 3.007-9.154.037c-5.034.02-9.184.006-9.221-.032-.038-.038.2-1.373.528-2.967.708-3.438.933-3.926 2.055-4.467.63-.303 2.404-.714 4.33-1.002.237-.036 1.461-.044 2.72-.02 1.812.036 2.666.126 4.08.428z" fill="#FF803D"/></svg>