<svg width="60" height="65" fill="none" xmlns="http://www.w3.org/2000/svg"><path fill-rule="evenodd" clip-rule="evenodd" d="M6.311.246C3.68.931 1.9 2.582.84 5.322l-.273.705L.534 33.87.5 61.714h29.831l.83.505c6.298 3.823 14.008 3.697 20.116-.33 7.384-4.87 10.243-14.438 6.728-22.524-1.321-3.04-3.79-6.057-6.384-7.804l-.928-.624V7.615h3.329V7.29c0-.677-.426-2.189-.874-3.105-.34-.694-.727-1.211-1.429-1.91-1.105-1.1-2.081-1.66-3.535-2.03-.965-.244-1.479-.25-20.974-.243C8.107.008 7.185.019 6.311.246zm2.924 2.05c1.428.3 2.757 1.226 3.554 2.472.319.499.587 1.301.834 2.497l.073.35h34.82v11.048c0 6.077-.035 11.049-.078 11.049s-.605-.195-1.248-.434c-2.17-.803-3.54-1.026-6.292-1.027-2.71 0-3.636.14-5.909.89-2.711.894-4.83 2.17-6.939 4.182-2.79 2.66-4.528 5.84-5.42 9.914-.269 1.232-.226 5.585.07 6.92.723 3.27 2.284 6.39 4.254 8.5.381.408.693.777.693.82 0 .043-5.618.079-12.484.079H2.68v-26.34c0-25.444.008-26.367.241-27.11.327-1.042.769-1.753 1.522-2.453 1.339-1.242 3.045-1.725 4.792-1.357zm38.454.055a5.553 5.553 0 013.25 2.328c.217.335.394.646.394.692 0 .047-8.068.084-17.929.084-16.96 0-17.933-.012-18.005-.222a8.685 8.685 0 00-1.261-2.319l-.59-.76h16.689c14.67 0 16.781.023 17.452.197zM6.01 17.33v6.541l9.25-.032 9.25-.033V10.853l-9.25-.033-9.25-.033v6.542zm16.26 0v4.38H8.185v-8.762H22.27v4.381zm5.506-2.16v1.08h17.54v-2.159h-17.54v1.08zm.054 4.425c-.037.094-.05.594-.028 1.112l.038.94h17.41v-2.159l-8.678-.032c-7.191-.027-8.689-.003-8.744.139zM6.01 29.268v1.08l9.25-.032 9.25-.033.038-1.048.037-1.047H6.01v1.08zm38.154 1.385c6.268 1.349 11.071 5.94 12.633 12.076.481 1.89.56 4.939.175 6.79-.346 1.662-.641 2.544-1.353 4.042-1.106 2.326-3.2 4.803-5.31 6.276-1.827 1.278-4.19 2.254-6.53 2.697-1.6.304-4.333.28-5.953-.053-3.556-.73-5.98-2.018-8.455-4.495-2.515-2.516-3.895-5.09-4.55-8.482-.233-1.213-.266-1.737-.215-3.467.053-1.758.116-2.243.46-3.525 1.71-6.39 6.904-11.008 13.528-12.032 1.123-.173 4.438-.07 5.57.173zM6.009 34.601v1.08h14.084v-2.16H6.009v1.08zm37.61 6.635l-5.985 5.936-2.722-2.698-2.722-2.698-2.976 2.954-2.975 2.953 5.665 5.619 5.666 5.618 8.962-8.89 8.961-8.889-2.944-2.92-2.945-2.921-5.985 5.936zm1.376 7.271l-7.425 7.365-4.065-4.03c-2.236-2.218-4.066-4.089-4.066-4.158 0-.069.619-.74 1.375-1.493l1.374-1.368 2.723 2.699 2.723 2.698 5.985-5.936 5.985-5.936 1.408 1.397 1.408 1.397-7.425 7.365zM6.01 40.062v1.08h14.084v-2.16H6.009v1.08z" fill="#FF803D"/></svg>