<svg width="66" height="65" fill="none" xmlns="http://www.w3.org/2000/svg"><path fill-rule="evenodd" clip-rule="evenodd" d="M28.774.136c-.756.24-1.503.966-1.711 1.662-.106.352-.156 1.58-.156 3.81v3.29l-.569.36c-1.176.744-2.186 2.224-2.492 3.654-.078.365-.119 1.16-.09 1.765.045.943.12 1.242.52 2.086l.468.986-.507 1.009-.507 1.009H2.11l-.54.316a2 2 0 00-.804.866L.5 21.5l.003 20.839c.002 20.196.01 20.855.244 21.37.152.335.441.665.781.89l.54.358 28.448.036c19.06.024 28.778-.007 29.45-.095 2.677-.351 4.913-2.45 5.407-5.075.084-.447.128-8.347.127-22.753-.002-19.009-.028-22.18-.19-22.865-.576-2.45-2.596-4.473-5.044-5.05-1.933-.457-3.18-.093-3.791 1.106-.223.437-.241.807-.241 4.989v4.518h-20.96l-.453-.955-.453-.954.452-.92c1.214-2.475.73-5.214-1.248-7.068-.459-.43-.89-.78-.957-.78-.075 0-.122-1.34-.122-3.5 0-3.745-.046-4.07-.673-4.742C31.128.104 29.828-.2 28.774.136zm1.56 1.962c.24.24.255.424.255 3.241v2.987H28.81V5.34c0-2.817.015-3.001.254-3.241a1.02 1.02 0 01.635-.254c.212 0 .494.113.635.254zm.676 8.338c.81.276 1.773 1.175 2.207 2.06.3.612.355.882.353 1.741-.002.924-.043 1.093-.454 1.843-1.33 2.43-4.42 2.883-6.385.935-1.923-1.907-1.366-5.164 1.093-6.395.646-.323.924-.387 1.683-.387.5 0 1.176.091 1.503.202zm29.178.685c1.503.47 2.696 1.656 3.152 3.135.254.823.257 1.106.257 20.332v19.498l-.602-.464c-1.095-.84-2.056-1.176-3.714-1.298l-1.08-.08-.032-20.529c-.018-11.29-.005-20.6.028-20.687.091-.24 1.073-.194 1.991.093zm-33.231 8.393c.411.209.825.38.92.38.095 0 .173.05.173.11 0 .124-11.15 22.27-11.285 22.419-.048.05-.29-.525-.54-1.28l-.453-1.374 5.197-10.32c2.859-5.674 5.207-10.317 5.218-10.316.012 0 .358.172.77.381zM37.9 29.651l4.964 10.39-.436 1.272c-.24.699-.475 1.313-.524 1.364-.076.079-10.722-22.032-10.833-22.5-.023-.093.273-.29.703-.467.408-.168.775-.339.815-.379a.335.335 0 01.21-.071c.076 0 2.371 4.677 5.101 10.391zm-6.694-4.683c.847 1.777 1.54 3.288 1.54 3.357 0 .116-6.454.021-6.572-.096-.024-.025.706-1.546 1.622-3.38.917-1.835 1.712-3.286 1.768-3.224.057.062.795 1.566 1.642 3.343zm-8.49-3.234c0 .033-.75 1.525-1.666 3.315l-1.666 3.254-1.748-.042c-1.576-.037-1.775-.017-2.016.2-.18.164-.267.397-.267.712 0 .739.265.886 1.76.977.708.043 1.287.105 1.287.137 0 .032-1.029 2.096-2.286 4.588-1.257 2.492-2.286 4.665-2.285 4.828.001.576 1.386 4.542 1.683 4.82.605.568 1.408.64 2.097.188.19-.126 1.519-2.643 3.852-7.3 1.957-3.91 3.634-7.138 3.726-7.173.091-.035 2.063-.017 4.382.04l4.217.103 3.337 6.99c1.836 3.846 3.438 7.127 3.559 7.291.298.404 1.026.693 1.511.6.807-.152 1.038-.502 1.851-2.794.42-1.182.763-2.286.763-2.453 0-.167-.977-2.346-2.17-4.842a1004.4 1004.4 0 01-2.223-4.665c-.034-.08.444-.127 1.292-.127 1.26 0 1.36-.02 1.588-.3.315-.39.31-.968-.01-1.29-.2-.2-.424-.254-1.048-.254-.436 0-1.26-.037-1.83-.082l-1.037-.08-.415-.904a325.89 325.89 0 00-1.592-3.35l-1.176-2.448h20.048v15.385c0 16.902-.045 15.937.78 16.549.59.437.771.49 2.102.607 1.993.176 3.236.958 4.004 2.523.37.75.414.958.413 1.924 0 .929-.051 1.187-.358 1.813-.656 1.34-1.831 2.24-3.286 2.517-.703.133-56.938.177-57.284.044-.182-.07-.2-2.006-.2-20.634 0-11.307.037-20.596.084-20.643.095-.095 20.228-.119 20.228-.024zM7.453 47.676c-.718.39-.732.498-.732 5.687 0 4.741 0 4.756.29 5.186.166.247.479.497.73.584.636.22 42.52.22 43.156 0 .252-.087.565-.337.73-.584.29-.43.29-.445.29-5.186 0-4-.03-4.813-.192-5.127-.42-.813 1.19-.759-22.431-.753-18.764.004-21.538.029-21.841.193zm3.584 2.685c0 1.16.253 1.566.975 1.566s.93-.342.93-1.526v-1.017h2.412v1.572c0 1.398.03 1.609.263 1.907.33.42 1.01.459 1.387.08.228-.228.254-.423.254-1.906v-1.653h2.413v.96c0 .848.035.994.311 1.27.385.386.986.412 1.339.058.212-.212.254-.423.254-1.27v-1.018h2.392l.042 1.664c.04 1.57.058 1.678.341 1.907a1.05 1.05 0 001.26.045c.267-.188.281-.285.281-1.907v-1.709h2.38l.06 1.038c.051.884.102 1.072.348 1.271.158.129.446.233.64.233s.482-.105.64-.233c.246-.199.297-.387.348-1.27l.06-1.039h2.38v1.653c0 1.483.026 1.678.254 1.906.342.343 1.03.336 1.345-.013.206-.227.248-.509.284-1.906l.042-1.64h2.392v1.017c0 1.19.206 1.525.943 1.525.692 0 .96-.449.96-1.606v-.936h2.413v1.653c0 1.483.026 1.678.254 1.906.378.379 1.058.34 1.387-.08.234-.298.263-.51.263-1.907v-1.572h2.413v.977c0 1.16.252 1.566.974 1.566s.93-.342.93-1.526v-1.017h2.412v8.008H8.625v-8.008h2.412v.977z" fill="#FF803D"/></svg>