<svg width="66" height="65" fill="none" xmlns="http://www.w3.org/2000/svg"><path fill-rule="evenodd" clip-rule="evenodd" d="M11.033.231c-.484.166-1.308.931-5.355 4.977C1.33 9.552.875 10.047.686 10.63c-.188.583-.204 2.078-.174 16.072l.034 15.43.275.508c.324.599.947 1.212 1.568 1.542.415.22.892.239 7.029.272L16 44.49l.376-.375c.207-.207.376-.498.376-.646 0-.215-.277-.912-.417-1.048-.015-.015-2.965-.058-6.554-.095l-6.525-.068-.307-.356-.307-.357V11.957h3.41c4.057 0 4.453-.073 5.379-.998.926-.926.999-1.32.999-5.38V2.17l8.385.035c7.852.032 8.4.049 8.612.261.212.212.23.792.29 8.873l.064 8.646.356.306c.466.4 1.025.399 1.429-.005l.312-.312-.001-8.74-.002-8.74-.3-.645A3.201 3.201 0 0029.734.21c-.857-.292-17.843-.272-18.701.022zM44.97.134c-.755.23-1.316.735-5.74 5.176-3.28 3.292-4.72 4.824-4.862 5.17-.171.417-.202 1.175-.202 4.993v4.5l.312.312c.404.404.963.406 1.429.005l.356-.306.037-4.006.037-4.006 3.65-.04 3.649-.038.66-.348c.362-.19.803-.537.98-.769.687-.9.711-1.069.711-4.977V2.175H62.66l.371.371.372.372v38.627l-.307.357-.307.356-6.525.068c-3.59.037-6.539.08-6.554.095-.14.136-.417.833-.417 1.048 0 .148.17.44.376.646l.376.375 6.584-.036c6.136-.033 6.613-.052 7.028-.272.621-.33 1.244-.943 1.568-1.542l.275-.509V2.365l-.28-.524C64.827 1.109 63.9.328 63.217.157 62.57-.006 45.503-.028 44.971.134zM10.245 6.49c-.051 3.526.244 3.23-3.283 3.282-1.466.021-2.666-.007-2.666-.062 0-.134 5.751-5.885 5.885-5.885.057 0 .086 1.2.064 2.665zM43.69 9.244c-.26.49-.647.554-3.331.554h-2.567l2.986-2.987 2.986-2.987.035 2.574c.024 1.743-.011 2.662-.109 2.846zm-36.915 5.98c-.827.2-1.113 1.248-.499 1.825l.328.308 9.3.038c6.525.028 9.446-.003 9.784-.101 1.004-.293 1.092-1.586.135-1.985-.343-.144-2.067-.173-9.606-.16-5.054.008-9.303.042-9.442.076zm33.42.088c-.929.408-.822 1.694.163 1.982.339.098 3.259.129 9.783.101l9.3-.038.329-.308a1.049 1.049 0 000-1.544l-.328-.308-9.428-.028c-7.698-.024-9.5.003-9.82.143zM6.52 20.744c-.657.359-.782 1.178-.26 1.7l.312.313h19.31l.34-.405c.413-.49.364-1.032-.134-1.47l-.325-.285-9.494.004c-6.627.002-9.571.045-9.749.143zm33.438.139c-.498.437-.547.979-.134 1.47l.34.404h19.31l.312-.312c.307-.307.402-.829.233-1.27-.222-.578-.235-.578-10.267-.578h-9.47l-.324.286zm-8.778 2.009c-5.9.801-10.642 4.688-12.543 10.283-.992 2.919-1.003 6.558-.029 9.47a15.275 15.275 0 003.61 5.91 15.27 15.27 0 005.683 3.675l.789.286.037 4.654.038 4.654.337.718c.419.893 1.227 1.697 2.142 2.128.581.275.88.33 1.779.33.903 0 1.198-.055 1.8-.337.893-.419 1.696-1.227 2.128-2.14l.33-.7.038-4.653.037-4.654.79-.284c5.063-1.822 8.81-6.28 9.807-11.67.248-1.344.253-3.856.01-5.243-1.075-6.124-5.948-11.08-12.04-12.243-1.331-.255-3.582-.342-4.743-.184zm2.698 2.104l.282.075.036 8.784.035 8.785.353.753c.476 1.017 1.084 1.73 1.997 2.338 1.047.699 2.055.91 4.338.91h1.809l-.308.33c-.61.65-2.027 1.73-2.99 2.278a12.899 12.899 0 01-12.814 0c-.963-.549-2.38-1.628-2.99-2.279l-.308-.328h1.785c.981 0 2.092-.058 2.469-.13 1.614-.303 3.107-1.474 3.833-3.007l.41-.865.035-8.79c.033-8.196.05-8.793.255-8.847.335-.088 1.455-.093 1.773-.008zm-4.16 8.736v8.307l-.354.681c-.386.743-1.208 1.4-2.038 1.63-.258.072-1.618.13-3.024.131h-2.555l-.516-1.11c-.284-.612-.61-1.484-.724-1.938a48.14 48.14 0 00-.274-1.048c-.06-.207.124-.223 2.644-.225 2.942-.002 3.217-.055 3.516-.678.206-.43.112-.876-.26-1.222-.26-.243-.439-.258-3.193-.258h-2.918l.065-1.111a12.8 12.8 0 01.35-2.16l.284-1.048h2.342c2.648 0 3.074-.095 3.344-.747.198-.478.006-1.076-.424-1.323-.163-.093-1.04-.179-2.216-.217l-1.947-.064.628-.889c1.123-1.587 2.96-3.168 4.728-4.069.646-.33 2.226-.94 2.447-.947.052-.001.095 3.736.095 8.305zm7.72-7.984c2.504.942 4.79 2.704 6.258 4.822l.529.762-1.947.064c-1.176.038-2.052.124-2.215.217-.43.247-.622.845-.424 1.323.27.652.696.747 3.344.747h2.342l.284 1.048c.157.576.314 1.548.35 2.16l.065 1.111h-2.941c-2.76 0-2.957.016-3.193.251-.349.349-.438.81-.237 1.229.3.623.574.676 3.516.678 2.52.002 2.705.018 2.644.225-.036.122-.16.593-.274 1.048-.114.454-.44 1.326-.724 1.937l-.516 1.112-2.556-.001c-1.405 0-2.765-.06-3.023-.13-.83-.231-1.652-.888-2.038-1.63l-.354-.682v-8.307c0-5.324.044-8.307.124-8.307.069 0 .512.145.985.323zm-31.178.624c-.514.514-.412 1.343.206 1.662.535.276 11.65.276 12.184 0 .618-.32.72-1.148.206-1.662l-.312-.312H6.572l-.312.312zm40.93 0c-.514.514-.412 1.343.206 1.662.535.276 11.65.276 12.184 0 .617-.32.72-1.148.206-1.662l-.312-.312H47.502l-.312.312zM6.775 31.487c-.827.2-1.113 1.247-.499 1.824l.328.308 4.407.035c4.011.032 4.447.015 4.85-.19.839-.426.839-1.426 0-1.846-.397-.199-.88-.22-4.638-.207-2.307.008-4.309.042-4.449.076zm43.41.128c-.524.266-.743.761-.565 1.274.07.201.309.444.565.575.403.205.839.222 4.85.19l4.407-.035.328-.308c.236-.222.328-.438.328-.772s-.092-.55-.328-.772l-.328-.308-4.407-.035c-4.011-.031-4.447-.014-4.85.191zM6.52 37.003c-.658.367-.782 1.182-.26 1.704l.312.312h4.184c4.04 0 4.194-.01 4.518-.264.417-.327.462-1.076.092-1.533l-.243-.3-4.174-.03c-2.888-.021-4.253.013-4.429.11zm44.466-.016c-.634.255-.764 1.336-.214 1.768.324.255.479.264 4.518.264h4.184l.312-.312c.19-.19.312-.458.312-.688 0-1.132-.125-1.162-4.856-1.152-2.188.004-4.103.058-4.256.12zM35.184 57.095c0 4.476-.015 4.571-.805 5.264-1.075.944-2.784.527-3.345-.815-.132-.316-.172-1.345-.172-4.449v-4.038h4.321v4.038z" fill="#FF803D"/></svg>