<svg width="833" height="309" fill="none" xmlns="http://www.w3.org/2000/svg"><path d="M.028 140.478c12.191-13.877 51.488-44.325 111.15-55.099 18.075-2.562 65.828-3.775 112.244 11.872 14.512 5.505 52.137 17.158 86.544 19.724 7.24.54 12.229.994 15.476 1.374 17.595-3.625 47.454-11.803 76.939-26.052 36.263-17.523 90.573-16.338 113.195-13.554 31.396 4.12 105.15.685 149-46.02C719.39-25.66 806.564 3.78 830.766 54.61c19.362 40.664 19.532 112.68 17.197 143.605L20.128 308.332.028 140.478z" fill="#fff"/></svg>