<svg width="66" height="65" viewBox="0 0 66 65" fill="none" xmlns="http://www.w3.org/2000/svg">
<path fill-rule="evenodd" clip-rule="evenodd" d="M11.0327 0.231095C10.5487 0.396893 9.72527 1.16223 5.67753 5.20769C1.33032 9.55247 0.875257 10.0468 0.686369 10.6305C0.497863 11.2131 0.481593 12.7077 0.512227 26.702L0.546038 42.1314L0.820853 42.6396C1.14486 43.2386 1.76809 43.8515 2.38915 44.1817C2.80379 44.4022 3.28097 44.4207 9.41753 44.4543L16.0009 44.4905L16.3769 44.1147C16.5836 43.9081 16.7528 43.6175 16.7528 43.4688C16.7528 43.2543 16.4755 42.5569 16.3363 42.4212C16.3207 42.4059 13.3713 42.3631 9.78234 42.3259L3.25669 42.2584L2.9501 41.9019L2.64338 41.5454V26.7515V11.9575H6.05225C10.1104 11.9575 10.506 11.8841 11.4317 10.9588C12.3576 10.0334 12.431 9.63836 12.431 5.57943V2.16947L20.8159 2.2039C28.6682 2.23617 29.2151 2.25268 29.4277 2.46511C29.6397 2.67715 29.6588 3.25687 29.7181 11.3378L29.7817 19.9836L30.1384 20.2902C30.6043 20.6908 31.163 20.6887 31.567 20.2848L31.879 19.9731L31.8777 11.2327L31.8765 2.49242L31.5764 1.84816C31.2257 1.0954 30.5367 0.482396 29.7344 0.209116C28.8769 -0.0829673 11.8909 -0.0630207 11.0327 0.231095ZM44.9707 0.133649C44.2162 0.363098 43.6554 0.868876 39.2306 5.31034C35.9514 8.6019 34.5105 10.1341 34.3686 10.4802C34.1977 10.8974 34.167 11.6555 34.167 15.4727V19.9731L34.4791 20.2848C34.883 20.6887 35.4416 20.6908 35.9077 20.2903L36.2644 19.9837L36.3012 15.9778L36.3381 11.9717L39.9875 11.9328L43.6368 11.894L44.2963 11.5465C44.6589 11.3553 45.1005 11.0092 45.2775 10.7773C45.9642 9.87734 45.9884 9.70811 45.9884 5.79973V2.1748H54.324H62.6596L63.0311 2.54616L63.4027 2.91752V22.2315V41.5454L63.0959 41.9019L62.7893 42.2584L56.2637 42.3259C52.6747 42.3631 49.7253 42.4059 49.7097 42.4212C49.5705 42.5569 49.2933 43.2543 49.2933 43.4688C49.2933 43.6175 49.4625 43.9081 49.6692 44.1147L50.0452 44.4905L56.6285 44.4543C62.7651 44.4207 63.2422 44.4022 63.6569 44.1817C64.278 43.8515 64.9012 43.2386 65.2252 42.6396L65.5 42.1314V22.2484V2.36537L65.2193 1.84092C64.8276 1.109 63.9002 0.328414 63.2182 0.156899C62.5691 -0.0064844 45.5031 -0.0282096 44.9707 0.133649ZM10.2454 6.49113C10.1939 10.0167 10.4892 9.72157 6.96186 9.77303C5.4955 9.7945 4.29583 9.7663 4.29583 9.71052C4.29583 9.57661 10.047 3.82642 10.1808 3.82642C10.2378 3.82642 10.2669 5.0255 10.2454 6.49113ZM43.69 9.24375C43.4295 9.73339 43.0427 9.79768 40.3587 9.79768H37.7917L40.7778 6.81091L43.7639 3.82401L43.7992 6.398C43.823 8.14123 43.7878 9.05953 43.69 9.24375ZM6.7745 15.2247C5.9484 15.4244 5.66215 16.4723 6.27622 17.0491L6.60417 17.357L15.9049 17.3955C22.4294 17.4226 25.3496 17.3921 25.6875 17.2936C26.6917 17.0009 26.7802 15.7082 25.8234 15.3086C25.4796 15.1651 23.7565 15.1364 16.2166 15.1484C11.1633 15.1566 6.91432 15.1909 6.7745 15.2247ZM40.1948 15.3123C39.2664 15.7204 39.3725 17.0063 40.3585 17.2936C40.6965 17.3921 43.6166 17.4226 50.1411 17.3955L59.4419 17.357L59.7698 17.0491C60.2217 16.6246 60.2217 15.9296 59.7698 15.5052L59.4419 15.1972L50.014 15.1688C42.3159 15.1455 40.5143 15.1718 40.1948 15.3123ZM6.52028 20.7435C5.86298 21.1028 5.73778 21.9225 6.26033 22.4447L6.57227 22.7566H16.2273H25.8822L26.2226 22.3523C26.6355 21.8618 26.5861 21.3203 26.0885 20.8826L25.7634 20.5968L16.269 20.6006C9.64239 20.6034 6.69773 20.6464 6.52028 20.7435ZM39.9576 20.8826C39.4599 21.3203 39.4105 21.8618 39.8235 22.3523L40.1639 22.7566H49.8188H59.4738L59.7857 22.4447C60.0928 22.1378 60.1885 21.6162 60.0188 21.1742C59.7974 20.5975 59.7844 20.5968 49.7515 20.5968H40.2826L39.9576 20.8826ZM31.1799 22.8917C25.2793 23.6933 20.5381 27.5801 18.6373 33.1745C17.6455 36.0938 17.6343 39.7331 18.6083 42.6453C19.3602 44.8934 20.5798 46.8901 22.2185 48.5556C23.8487 50.2124 25.7827 51.4629 27.9009 52.23L28.6897 52.5156L28.7272 57.1697L28.7648 61.8238L29.1018 62.5423C29.5207 63.4353 30.3291 64.2385 31.2435 64.6701C31.8252 64.9446 32.124 65 33.023 65C33.9264 65 34.2213 64.9449 34.8223 64.6632C35.7158 64.2444 36.5194 63.4364 36.9511 62.5226L37.2813 61.8238L37.3189 57.1697L37.3564 52.5156L38.1451 52.2319C43.2095 50.4105 46.9561 45.9521 47.9529 40.5611C48.2011 39.2182 48.2057 36.7058 47.9624 35.3192C46.8878 29.1947 42.0151 24.2396 35.9229 23.0757C34.5918 22.8215 32.3407 22.7341 31.1799 22.8917ZM33.8777 24.9955L34.1604 25.0714L34.1955 33.8555L34.2306 42.6396L34.5836 43.393C35.0602 44.4102 35.6683 45.1221 36.5807 45.7312C37.6276 46.4299 38.6365 46.6416 40.9194 46.6416H42.7279L42.4196 46.9701C41.8095 47.6209 40.3931 48.7005 39.4296 49.2492C35.4422 51.5205 30.6038 51.5205 26.6165 49.2492C25.653 48.7005 24.2366 47.6209 23.6264 46.9701L23.3182 46.6416H25.1026C26.084 46.6416 27.1951 46.5836 27.5717 46.5127C29.1863 46.209 30.6788 45.038 31.4051 43.5054L31.8155 42.6396L31.8505 33.8501C31.8833 25.6545 31.9005 25.0569 32.1048 25.0033C32.44 24.9154 33.5602 24.9105 33.8777 24.9955ZM29.7181 33.7317V42.0389L29.3639 42.7204C28.978 43.4628 28.1564 44.1199 27.3255 44.3505C27.0685 44.4219 25.7081 44.4806 24.3025 44.481L21.747 44.4818L21.231 43.3701C20.9473 42.7587 20.6214 41.8868 20.5069 41.4326C20.3922 40.9784 20.269 40.5067 20.2331 40.3845C20.1722 40.1776 20.357 40.162 22.8774 40.1602C25.819 40.1582 26.0939 40.1052 26.3929 39.482C26.5994 39.0515 26.5047 38.6057 26.1335 38.26C25.8722 38.0167 25.6944 38.0023 22.9396 38.0023H20.0224L20.0873 36.8906C20.1229 36.2793 20.2801 35.3074 20.4366 34.7308L20.721 33.6827H23.0628C25.7109 33.6827 26.1368 33.5877 26.4067 32.936C26.6048 32.4583 26.4128 31.8599 25.9827 31.6133C25.8204 31.5202 24.9437 31.4342 23.7669 31.3958L21.8197 31.3323L22.4485 30.443C23.5706 28.856 25.4076 27.2749 27.1759 26.3741C27.8221 26.0449 29.4023 25.4335 29.6228 25.4272C29.6752 25.4257 29.7181 29.1628 29.7181 33.7317ZM37.4372 25.7484C39.9417 26.6903 42.2284 28.4519 43.6964 30.57L44.2247 31.3323L42.2784 31.3958C41.1022 31.4342 40.2257 31.5203 40.0633 31.6133C39.6332 31.8599 39.4413 32.4583 39.6393 32.936C39.9093 33.5877 40.3351 33.6827 42.9832 33.6827H45.325L45.6095 34.7308C45.7659 35.3074 45.9232 36.2793 45.9588 36.8906L46.0236 38.0023H43.0825C40.3234 38.0023 40.1258 38.0178 39.8902 38.2532C39.5413 38.602 39.4522 39.0633 39.6532 39.482C39.9521 40.1052 40.2271 40.1582 43.1687 40.1602C45.689 40.162 45.8739 40.1776 45.813 40.3845C45.777 40.5067 45.6538 40.9784 45.5392 41.4326C45.4247 41.8868 45.0987 42.7587 44.815 43.3701L44.2991 44.4818L41.7435 44.481C40.3379 44.4806 38.9776 44.4219 38.7205 44.3505C37.8896 44.1199 37.0681 43.4628 36.6822 42.7204L36.3279 42.0389V33.7317C36.3279 28.4077 36.3725 25.4246 36.4521 25.4246C36.5205 25.4246 36.9637 25.5703 37.4372 25.7484ZM6.26033 26.3717C5.74591 26.8858 5.84849 27.7146 6.46587 28.0338C7.00063 28.3102 18.1155 28.3102 18.6503 28.0338C19.2677 27.7146 19.3702 26.8858 18.8558 26.3717L18.5439 26.0598H12.5581H6.57227L6.26033 26.3717ZM47.1902 26.3717C46.6758 26.8858 46.7784 27.7146 47.3958 28.0338C47.9305 28.3102 59.0454 28.3102 59.5802 28.0338C60.1975 27.7146 60.3001 26.8858 59.7857 26.3717L59.4738 26.0598H53.488H47.5022L47.1902 26.3717ZM6.7745 31.4868C5.9484 31.6865 5.66215 32.7344 6.2761 33.3112L6.60392 33.6192L11.011 33.6541C15.0223 33.6857 15.4579 33.6687 15.8616 33.4635C16.6996 33.0375 16.6996 32.0381 15.8616 31.6184C15.4642 31.4193 14.9813 31.3977 11.2234 31.4108C8.91633 31.4188 6.91432 31.453 6.7745 31.4868ZM50.1845 31.615C49.6615 31.8809 49.4419 32.3761 49.6197 32.8886C49.6896 33.0901 49.9286 33.3334 50.1845 33.4635C50.5882 33.6687 51.0238 33.6857 55.035 33.6541L59.4421 33.6192L59.7699 33.3112C60.0062 33.0892 60.0978 32.8735 60.0978 32.5393C60.0978 32.205 60.0062 31.9893 59.7699 31.7673L59.4421 31.4593L55.035 31.4244C51.0238 31.3928 50.5882 31.4098 50.1845 31.615ZM6.52028 37.0028C5.86222 37.3697 5.73791 38.1846 6.26033 38.7068L6.57227 39.0187H10.7556C14.7952 39.0187 14.9504 39.0097 15.2738 38.7553C15.6905 38.4278 15.7355 37.6789 15.3658 37.2224L15.1231 36.9224L10.9487 36.8918C8.061 36.8706 6.6962 36.9049 6.52028 37.0028ZM50.9858 36.9868C50.3523 37.2419 50.2217 38.3226 50.7722 38.7553C51.0956 39.0097 51.2508 39.0187 55.2904 39.0187H59.4738L59.7857 38.7068C59.9766 38.5161 60.0978 38.2489 60.0978 38.0185C60.0978 36.8871 59.9726 36.8574 55.2421 36.8669C53.0539 36.8713 51.1386 36.9253 50.9858 36.9868ZM35.1839 57.0953C35.1839 61.5706 35.1693 61.6663 34.3793 62.3594C33.3042 63.303 31.5951 62.8863 31.0339 61.544C30.9018 61.2282 30.8621 60.1992 30.8621 57.0953V53.0575H33.023H35.1839V57.0953Z" fill="#FF803D"/>
</svg>
