<svg width="60" height="65" viewBox="0 0 60 65" fill="none" xmlns="http://www.w3.org/2000/svg">
<path fill-rule="evenodd" clip-rule="evenodd" d="M6.31122 0.246123C3.67884 0.930758 1.89852 2.58234 0.839675 5.32228L0.567346 6.02685L0.533673 33.8707L0.5 61.7145H15.4154H30.3308L31.161 62.2186C37.4591 66.0422 45.1694 65.9156 51.2767 61.8883C58.6612 57.0189 61.5196 47.4509 58.0052 39.3653C56.6837 36.325 54.2152 33.3076 51.621 31.5615L50.6928 30.9367V19.2754V7.6143H52.3572H54.0217V7.29008C54.0217 6.61293 53.5963 5.10143 53.1481 4.18541C52.8081 3.49074 52.4215 2.97374 51.7193 2.27501C50.6135 1.17434 49.6376 0.614285 48.1838 0.245362C47.2191 0.000640459 46.7053 -0.00532835 27.21 0.00152943C8.10677 0.00826021 7.1848 0.0190549 6.31122 0.246123ZM9.23539 2.29634C10.6625 2.59694 11.9917 3.5216 12.7887 4.76819C13.1075 5.26665 13.3758 6.06939 13.6234 7.26506L13.6957 7.6143H31.106H48.5162V18.6629C48.5162 24.7397 48.481 29.7116 48.4378 29.7116C48.3948 29.7116 47.833 29.5166 47.1895 29.2784C45.0202 28.4753 43.6495 28.2515 40.8981 28.2513C38.188 28.2511 37.2617 28.3904 34.9892 29.1404C32.2779 30.0349 30.1599 31.3116 28.0502 33.323C25.2603 35.9829 23.5222 39.1622 22.6306 43.2366C22.361 44.4691 22.4045 48.8219 22.6999 50.1579C23.4227 53.4276 24.984 56.5464 26.9543 58.6574C27.3351 59.0653 27.6466 59.4343 27.6466 59.4774C27.6466 59.5204 22.0291 59.5556 15.1633 59.5556H2.67991V33.2153C2.67991 7.77228 2.68811 6.84877 2.92113 6.10622C3.24826 5.06371 3.68959 4.35254 4.44346 3.65304C5.78193 2.41128 7.48773 1.92831 9.23539 2.29634ZM47.6891 2.35057C49.0226 2.69498 50.2032 3.54078 50.9399 4.67942C51.156 5.01368 51.3329 5.32494 51.3329 5.3713C51.3329 5.41752 43.265 5.45537 33.4042 5.45537C16.4433 5.45537 15.4712 5.44343 15.3993 5.23312C15.1412 4.47699 14.6502 3.57456 14.138 2.91418L13.5478 2.15347H30.2369C44.907 2.15347 47.0183 2.17735 47.6891 2.35057ZM6.0088 17.3295V23.8714L15.2593 23.8389L24.5098 23.8063V17.3295V10.8527L15.2593 10.8201L6.0088 10.7875V17.3295ZM22.2692 17.3295V21.7108H15.2273H8.18539V17.3295V12.9481H15.2273H22.2692V17.3295ZM27.7746 15.1706V16.25H36.545H45.3153V15.1706V14.0911H36.545H27.7746V15.1706ZM27.8289 19.5947C27.7924 19.6889 27.7798 20.1894 27.8006 20.7068L27.8386 21.6473H36.545H45.2513V20.5679V19.4884L36.5733 19.4558C29.3817 19.4287 27.884 19.4525 27.8289 19.5947ZM6.0088 29.268V30.3482L15.2593 30.3157L24.5098 30.2831L24.5469 29.2353L24.5841 28.1876H15.2964H6.0088V29.268ZM44.163 30.6533C50.4314 32.0018 55.2344 36.5927 56.7962 42.7287C57.2773 44.6189 57.3555 47.668 56.9705 49.5194C56.6249 51.1814 56.33 52.0625 55.6175 53.5614C54.5123 55.8866 52.4171 58.3635 50.3087 59.8374C48.4807 61.1152 46.1186 62.0908 43.7789 62.5342C42.1773 62.8377 39.4451 62.8133 37.8253 62.4811C34.2694 61.7519 31.8447 60.4629 29.3696 57.9861C26.8553 55.47 25.4748 52.8959 24.8205 49.504C24.5866 48.2912 24.5541 47.7671 24.6055 46.0369C24.6579 44.279 24.721 43.7942 25.0644 42.5124C26.7758 36.1228 31.9688 31.5045 38.5935 30.4802C39.7161 30.3066 43.0306 30.4095 44.163 30.6533ZM6.0088 34.6009V35.6804H13.0507H20.0926V34.6009V33.5215H13.0507H6.0088V34.6009ZM43.6191 41.2359L37.6342 47.1722L34.9119 44.4742L32.1896 41.7763L29.2142 44.7296L26.2387 47.683L31.9044 53.3017L37.5701 58.9205L46.5318 50.0308L55.4934 41.1412L52.5486 38.2204L49.604 35.2995L43.6191 41.2359ZM44.9952 48.507L37.5704 55.8723L33.5048 51.8412C31.2687 49.624 29.4391 47.7534 29.4391 47.6843C29.4391 47.6152 30.0577 46.9431 30.8138 46.1908L32.1885 44.8229L34.9114 47.5216L37.6342 50.2201L43.6189 44.284L49.6036 38.3478L51.0118 39.7446L52.4201 41.1415L44.9952 48.507ZM6.0088 40.0617V41.1412H13.0507H20.0926V40.0617V38.9823H13.0507H6.0088V40.0617Z" fill="#FF803D"/>
</svg>
