<svg width="66" height="65" viewBox="0 0 66 65" fill="none" xmlns="http://www.w3.org/2000/svg">
<path fill-rule="evenodd" clip-rule="evenodd" d="M3.53019 0.148373C2.40901 0.500662 1.28807 1.50326 0.774859 2.61287L0.5 3.20714V27.6081V52.0092L0.836801 52.727C1.26569 53.641 2.04664 54.4213 2.9614 54.8498L3.67977 55.1864L18.1467 55.2198L32.6136 55.2531L32.9846 55.9823C34.2443 58.4576 36.9932 61.262 39.5726 62.7033C45.4956 66.013 52.3918 65.7317 58.0528 61.9493C59.2897 61.1228 61.6501 58.7602 62.485 57.513C63.8026 55.5446 64.7079 53.4219 65.1994 51.1493C65.5759 49.4079 65.6036 46.0745 65.255 44.4474C64.4756 40.8081 62.9321 37.9091 60.4578 35.4367C57.0229 32.0047 52.3927 30.1823 47.5924 30.3735L45.9707 30.438L45.9694 19.6186L45.9682 8.79904L45.6654 8.1636C45.4345 7.67875 44.523 6.69572 41.8192 4.01555C39.8702 2.08355 38.0753 0.39645 37.8305 0.266438C37.4036 0.0397119 36.6995 0.0289093 20.7233 0.00565212C7.26757 -0.0139195 3.95908 0.0135316 3.53019 0.148373ZM36.3262 4.38271C36.3658 6.47243 36.3913 6.6806 36.6729 7.21043C37.1476 8.10361 37.5444 8.56164 38.2171 8.99298C39.1521 9.59245 39.9329 9.74902 41.996 9.75068L43.8085 9.7522V20.349V30.9459L43.2065 31.0972C42.3087 31.3232 40.5553 32.0692 39.5476 32.6541C32.7747 36.5848 29.4775 44.3757 31.3859 51.9395L31.676 53.0894H17.9841H4.29219L3.73828 52.7967C3.35976 52.5967 3.09177 52.3289 2.89157 51.9507L2.59865 51.3972V27.66C2.59865 11.1976 2.64011 3.81297 2.73398 3.56489C2.91268 3.09225 3.46011 2.51845 3.93415 2.30697C4.24615 2.16781 7.22839 2.13591 20.2997 2.13184L36.2836 2.12689L36.3262 4.38271ZM42.0663 7.57467C41.9443 7.60021 41.4026 7.59551 40.8625 7.56425C39.7264 7.49854 39.1575 7.19709 38.7276 6.43278C38.5188 6.06168 38.4664 5.74268 38.4664 4.84353V3.71867L40.3774 5.62348C41.772 7.01357 42.2282 7.54073 42.0663 7.57467ZM19.4273 6.59748L18.26 7.76365L17.7481 7.30155C16.8555 6.49568 16.3707 6.42515 12.0443 6.47116L8.25864 6.51144L7.59038 6.8814C6.88345 7.27283 6.39364 7.81448 6.08991 8.54079C5.84786 9.11956 5.82001 16.4906 6.05684 17.2804C6.27204 17.9983 7.18286 18.9617 7.91242 19.2429C8.44713 19.4491 8.94597 19.4745 12.4559 19.4745C16.8079 19.4745 16.8431 19.469 17.7829 18.6446C18.0443 18.4153 18.3835 17.9935 18.5368 17.7073C18.8011 17.2137 18.8174 17.0071 18.853 13.6919L18.8905 10.197L20.4673 8.60841C21.3734 7.69553 22.0787 6.87695 22.1254 6.68403C22.2186 6.29895 21.9244 5.63148 21.6079 5.51011C21.4947 5.46677 21.2204 5.43119 20.9982 5.43119C20.6587 5.43119 20.4085 5.61699 19.4273 6.59748ZM16.0684 8.76917C16.8108 9.15069 16.7613 9.25884 15.0682 10.9547L13.4854 12.54L12.6332 11.718C11.8204 10.9339 11.6397 10.8388 11.0568 10.8884C10.6725 10.921 10.2301 11.4866 10.2301 11.9452C10.2301 12.2839 10.4394 12.554 11.6038 13.7174C12.8748 14.9874 13.014 15.0899 13.467 15.0899C13.9185 15.0899 14.0643 14.9841 15.3367 13.7311L16.7168 12.3721V14.4993C16.7168 16.5724 16.7091 16.6343 16.4131 16.93C16.246 17.097 15.9169 17.2696 15.6817 17.3137C15.4466 17.3578 13.7753 17.3759 11.9678 17.3539L8.68142 17.314L8.37463 16.9574L8.06785 16.6008V12.9336V9.26647L8.45922 8.93744L8.85045 8.60841L12.3067 8.61031C14.7968 8.61158 15.8482 8.65606 16.0684 8.76917ZM24.7396 8.93744C24.2339 9.36268 24.2009 9.99761 24.6605 10.4569L24.9726 10.7689H29.2171H33.4616L33.7383 10.4748C33.8995 10.3033 34.0148 10.0163 34.0148 9.78613C34.0148 8.63497 33.9046 8.60841 29.1339 8.60841H25.1309L24.7396 8.93744ZM24.6605 14.3852C24.276 14.7693 24.2447 15.4422 24.5912 15.8701L24.8343 16.1702L28.5384 16.2074L32.2426 16.2448L32.6199 15.8677C33.0228 15.4652 33.0823 15.1615 32.8561 14.6651C32.6049 14.1141 32.3058 14.0732 28.5337 14.0732H24.9726L24.6605 14.3852ZM20.5961 20.7013C20.4562 20.7776 19.874 21.2993 19.3021 21.8606L18.2623 22.8811L17.8394 22.5243C16.8831 21.7178 16.7921 21.7041 12.3923 21.7041C8.63372 21.7041 8.35047 21.7201 7.81347 21.963C7.04485 22.3106 6.57005 22.7776 6.2087 23.5413C5.9126 24.1674 5.90802 24.2362 5.90688 28.1869L5.90561 32.1969L6.23503 32.8575C6.41628 33.2209 6.77076 33.6881 7.02285 33.8957C7.89118 34.6109 8.24693 34.6616 12.3923 34.6616C16.6464 34.6616 16.9851 34.6072 17.8299 33.7878C18.7865 32.8602 18.811 32.7413 18.8518 28.8155L18.8881 25.3206L20.464 23.7319C21.3308 22.8582 22.0558 22.029 22.0752 21.8892C22.1423 21.4057 21.9308 20.9421 21.5545 20.7477C21.1166 20.5213 20.9413 20.5129 20.5961 20.7013ZM16.1376 23.9376C16.2502 23.9807 16.4039 24.1311 16.4794 24.2718C16.6006 24.4983 16.437 24.7072 15.0534 26.0931L13.4904 27.6585L12.621 26.839C11.9086 26.1676 11.6747 26.0195 11.3262 26.0195C10.7442 26.0195 10.2301 26.5369 10.2301 27.1228C10.2301 27.4968 10.3906 27.7219 11.4058 28.7705C12.6083 30.0123 13.0565 30.3406 13.5503 30.3406C13.7365 30.3406 14.3147 29.8632 15.2737 28.9178L16.7168 27.4952V29.6266V31.7581L16.3394 32.135L15.9622 32.5121L12.258 32.4748L8.55385 32.4375L8.31078 32.1375C8.08413 31.8576 8.06785 31.5906 8.06785 28.1602V24.4829L8.3801 24.171L8.69223 23.859H12.3126C14.3038 23.859 16.025 23.8944 16.1376 23.9376ZM24.6605 24.171C24.0868 24.7442 24.3649 25.7666 25.1468 25.9589C25.3022 25.997 28.7045 26.012 32.7076 25.9922C39.7953 25.9569 39.9925 25.9494 40.2405 25.7014C40.6761 25.266 40.7023 24.7286 40.3107 24.2634L39.9701 23.859H32.4714H24.9726L24.6605 24.171ZM25.1114 29.2828C24.3675 29.5691 24.127 30.4065 24.6119 31.0224L24.8755 31.3573H28.6242H32.3729L32.685 31.0453C33.0893 30.6414 33.0914 30.0829 32.6905 29.6169L32.3837 29.2603L28.8429 29.2348C26.8955 29.2208 25.2163 29.2424 25.1114 29.2828ZM50.4229 32.6847C53.7523 33.1862 56.6982 34.7022 59.0371 37.1179C61.1943 39.3461 62.4397 41.6818 63.0946 44.7275C63.4096 46.1918 63.407 49.1952 63.0897 50.6747C61.7983 56.6955 57.2112 61.279 51.1855 62.5693C49.7048 62.8864 46.699 62.889 45.2335 62.5743C42.1023 61.9021 39.7403 60.6214 37.4966 58.3795C36.7883 57.6717 35.9122 56.6372 35.5497 56.0806C32.623 51.5849 32.2066 46.1582 34.4138 41.2778C35.7451 38.3339 38.8452 35.2418 41.8051 33.9055C44.5097 32.6844 47.5564 32.2529 50.4229 32.6847ZM19.4218 36.977L18.2492 38.1487L17.8328 37.7538C16.9216 36.8897 16.9213 36.8896 12.6856 36.847C10.2396 36.8225 8.66234 36.8577 8.34118 36.9441C7.48061 37.1756 6.65336 37.8275 6.26009 38.584L5.90561 39.2657V43.208C5.90561 45.862 5.95445 47.3134 6.05518 47.6491C6.25627 48.3198 7.04575 49.1892 7.78307 49.552C8.37616 49.8438 8.45031 49.8486 12.3923 49.8471C15.8966 49.8459 16.4567 49.8185 16.8604 49.6294C17.539 49.3117 18.076 48.818 18.4682 48.1514L18.8155 47.5611L18.8544 44.0661L18.8933 40.5712L20.4761 38.9716C21.3466 38.0919 22.0654 37.2627 22.0735 37.1289C22.1236 36.2971 21.7433 35.8054 21.0501 35.8054C20.6451 35.8054 20.4641 35.9356 19.4218 36.977ZM16.2545 39.246C16.4388 39.3908 16.5896 39.576 16.5896 39.6572C16.5896 39.7385 15.8897 40.5061 15.0341 41.3631L13.4785 42.921L12.6204 42.0702C11.8762 41.3322 11.7007 41.2193 11.2977 41.2193C10.7183 41.2193 10.2301 41.7222 10.2301 42.3194C10.2301 42.6581 10.4394 42.9282 11.6038 44.0915C12.8748 45.3615 13.014 45.4641 13.467 45.4641C13.9185 45.4641 14.0643 45.3582 15.3367 44.1053L16.7168 42.7463V44.8735C16.7168 46.9626 16.7112 47.0063 16.4046 47.3126L16.0924 47.6246H12.3437H8.59505L8.33152 47.2897C8.07853 46.9684 8.06798 46.8081 8.07192 43.3182C8.07485 40.659 8.11758 39.6278 8.23091 39.4817C8.58793 39.0211 8.8474 38.9903 12.407 38.9864C15.7709 38.9827 15.9336 38.9938 16.2545 39.246ZM24.9206 39.1361C24.2684 39.5097 24.1448 40.3159 24.6605 40.8311C24.966 41.1365 25.0159 41.1431 27.0193 41.1431C29.0227 41.1431 29.0725 41.1365 29.378 40.8311C29.8928 40.3169 29.7901 39.4878 29.1724 39.1685C28.7201 38.9348 25.3172 38.9087 24.9206 39.1361ZM54.2399 39.1461C54.0334 39.2506 52.3549 41.7409 49.4066 46.3174C46.9222 50.1735 44.8459 53.3708 44.7927 53.4222C44.7394 53.4738 44.1038 52.9339 43.3802 52.2224C41.9226 50.7892 41.6903 50.6943 41.0201 51.2579C40.7172 51.5125 40.6287 51.6899 40.6287 52.0421C40.6287 52.4564 40.7855 52.6557 42.3776 54.2651C43.3395 55.2376 44.29 56.1189 44.4899 56.2238C44.9284 56.4537 45.3804 56.3627 45.7143 55.9774C45.849 55.8219 48.1654 52.2646 50.8618 48.0722C56.2075 39.7609 56.1168 39.9369 55.373 39.3116C54.937 38.945 54.7049 38.911 54.2399 39.1461ZM24.6605 44.7594C24.3532 45.0663 24.2575 45.5881 24.4273 46.0303C24.5887 46.4504 25.175 46.6079 26.5775 46.6079C27.9018 46.6079 27.9367 46.6004 28.301 46.2364C28.5251 46.0125 28.6728 45.731 28.6728 45.5276C28.6728 45.3243 28.5251 45.0428 28.301 44.8189C27.9326 44.4509 27.9152 44.4474 26.4509 44.4474C25.051 44.4474 24.9561 44.4639 24.6605 44.7594Z" fill="#FF803D"/>
</svg>
