<svg width="66" height="65" viewBox="0 0 66 65" fill="none" xmlns="http://www.w3.org/2000/svg">
<path fill-rule="evenodd" clip-rule="evenodd" d="M28.7742 0.135713C28.0181 0.376085 27.271 1.10165 27.0627 1.79785C26.9572 2.15034 26.9069 3.37864 26.9068 5.60822L26.9065 8.89843L26.3385 9.25779C25.162 10.0019 24.1524 11.4823 23.8461 12.9123C23.7679 13.2775 23.7275 14.0717 23.7565 14.6772C23.8014 15.62 23.876 15.9193 24.2763 16.7632L24.7437 17.7486L24.237 18.7576L23.7303 19.7667H12.9198H2.1093L1.57075 20.0827C1.21172 20.2933 0.943587 20.5821 0.766101 20.9491L0.5 21.4994L0.502793 42.3378C0.505459 62.534 0.51295 63.1925 0.746677 63.7079C0.898517 64.0425 1.18823 64.3725 1.5281 64.5977L2.06842 64.9557L30.516 64.992C49.5762 65.0164 59.2942 64.985 59.9653 64.897C62.6427 64.5458 64.8788 62.4472 65.373 59.822C65.4572 59.375 65.5012 51.4748 65.5 37.0686C65.4983 18.0602 65.4722 14.8896 65.3107 14.2042C64.7337 11.7533 62.714 9.73116 60.2662 9.15342C58.3325 8.69696 57.0857 9.06076 56.4745 10.2598C56.2519 10.6965 56.234 11.0669 56.234 15.249V19.7667H45.7539H35.2736L34.821 18.8123L34.3683 17.8578L34.82 16.9374C36.0344 14.463 35.5505 11.7235 33.5716 9.87022C33.113 9.44057 32.6827 9.0891 32.6154 9.0891C32.54 9.0891 32.4931 7.7492 32.4931 5.58941C32.4931 1.84476 32.4472 1.52036 31.8205 0.847805C31.1278 0.104316 29.8283 -0.199486 28.7742 0.135713ZM30.3348 2.09784C30.5744 2.33771 30.5888 2.52151 30.5888 5.33925V8.32642H29.7001H28.8114V5.33925C28.8114 2.52151 28.8257 2.33771 29.0653 2.09784C29.2063 1.95662 29.4884 1.84361 29.7001 1.84361C29.9117 1.84361 30.1938 1.95662 30.3348 2.09784ZM31.0097 10.4355C31.8194 10.7117 32.7831 11.6112 33.2168 12.4954C33.5171 13.1078 33.5719 13.3781 33.5701 14.2372C33.5681 15.1612 33.5267 15.3296 33.1157 16.0804C31.7858 18.5105 28.6956 18.9627 26.7309 17.0147C24.808 15.1079 25.3647 11.8508 27.8239 10.6204C28.4704 10.2969 28.7479 10.2331 29.5073 10.2331C30.0074 10.2331 30.6835 10.3241 31.0097 10.4355ZM60.1881 11.1208C61.6906 11.5903 62.884 12.7773 63.3402 14.2559C63.594 15.0786 63.5975 15.3622 63.5975 34.588V54.0858L62.9945 53.6224C61.9004 52.7818 60.9385 52.4455 59.281 52.3236L58.2019 52.2443L58.1692 31.7154C58.1513 20.4245 58.1638 11.115 58.197 11.0276C58.2881 10.7879 59.2696 10.8339 60.1881 11.1208ZM26.9567 19.5141C27.368 19.7229 27.7821 19.8938 27.8771 19.8938C27.9719 19.8938 28.0496 19.9436 28.0496 20.0045C28.0496 20.1277 16.9009 42.2747 16.7646 42.4226C16.7172 42.4739 16.4746 41.8977 16.2252 41.1421L15.772 39.7685L20.9692 29.4498C23.8277 23.7746 26.176 19.1319 26.1875 19.1328C26.1992 19.1336 26.5453 19.3052 26.9567 19.5141ZM37.9011 29.6514L42.8647 40.0413L42.4293 41.3125C42.1898 42.0116 41.9537 42.6257 41.9047 42.677C41.8294 42.756 31.1833 20.6446 31.0717 20.1772C31.0494 20.0837 31.3449 19.8873 31.7749 19.71C32.1828 19.5418 32.5495 19.3713 32.5895 19.3312C32.6296 19.291 32.7243 19.259 32.8 19.2599C32.8755 19.2609 35.1711 23.937 37.9011 29.6514ZM31.2072 24.9679C32.0541 26.745 32.747 28.2556 32.747 28.3247C32.747 28.4405 26.2929 28.3463 26.1755 28.2289C26.1507 28.2041 26.8805 26.6828 27.7971 24.8484C28.7137 23.0139 29.5095 21.5634 29.5655 21.6249C29.6216 21.6866 30.3602 23.1909 31.2072 24.9679ZM22.7174 21.734C22.7174 21.7673 21.9676 23.259 21.0513 25.0488L19.385 28.3027L17.6368 28.2613C16.0615 28.2238 15.862 28.2436 15.6212 28.4619C15.4414 28.6247 15.3539 28.8576 15.3539 29.1731C15.3539 29.9115 15.6192 30.0587 17.1143 30.15C17.822 30.1931 18.4009 30.2546 18.4009 30.2866C18.4009 30.3185 17.3723 32.3835 16.1151 34.8753C14.8578 37.367 13.8294 39.5397 13.8298 39.7035C13.8311 40.279 15.2159 44.245 15.513 44.5236C16.118 45.0911 16.9206 45.1626 17.6098 44.7105C17.8009 44.5851 19.1289 42.0683 21.4616 37.4105C23.4195 33.5008 25.0964 30.2731 25.1878 30.2381C25.2793 30.2028 27.2514 30.2206 29.5704 30.2775L33.7868 30.3807L37.1244 37.3719C38.96 41.2171 40.5615 44.4978 40.683 44.6623C40.9809 45.0658 41.7085 45.3548 42.1941 45.2628C43.0006 45.1097 43.2324 44.7598 44.0454 42.4682C44.4648 41.2862 44.8079 40.1823 44.8079 40.0154C44.8079 39.8484 43.8314 37.6694 42.6377 35.1733C41.4442 32.6772 40.4437 30.5777 40.4146 30.5078C40.3811 30.4277 40.8593 30.3807 41.707 30.3807C42.9678 30.3807 43.0677 30.3617 43.2954 30.0806C43.6103 29.6916 43.6054 29.1131 43.2844 28.7918C43.0849 28.5919 42.8605 28.5374 42.237 28.5368C41.8007 28.5364 40.977 28.4996 40.4067 28.4552L39.3697 28.3743L38.9546 27.4708C38.7263 26.9739 38.0101 25.4662 37.3632 24.1203L36.1869 21.6734H46.2105H56.234V37.0582C56.234 53.9603 56.1886 52.9953 57.0141 53.6069C57.6034 54.0437 57.7853 54.0962 59.1156 54.2138C61.1093 54.3898 62.3516 55.1723 63.1202 56.7365C63.4895 57.4877 63.5339 57.6953 63.5334 58.6612C63.5328 59.5898 63.4819 59.8478 63.1755 60.4735C62.5194 61.8139 61.3438 62.7143 59.889 62.9905C59.1858 63.1241 2.95065 63.168 2.6052 63.0353C2.42314 62.9654 2.40435 61.0291 2.40435 42.4006C2.40435 31.0938 2.44244 21.8047 2.48903 21.7582C2.584 21.6631 22.7174 21.6391 22.7174 21.734ZM7.45253 47.6764C6.73472 48.0664 6.72088 48.174 6.72088 53.3631C6.72088 58.1041 6.72164 58.1187 7.01098 58.5494C7.17666 58.7962 7.48961 59.0464 7.74098 59.1331C8.37729 59.3525 50.2611 59.3525 50.8974 59.1331C51.1488 59.0464 51.4617 58.7962 51.6274 58.5494C51.9167 58.1187 51.9175 58.1041 51.9175 53.3631C51.9175 49.3622 51.887 48.5498 51.7249 48.236C51.3049 47.423 52.9144 47.477 29.2938 47.4826C10.5298 47.487 7.75583 47.5117 7.45253 47.6764ZM11.0374 50.3612C11.0374 51.5204 11.2902 51.9265 12.0117 51.9265C12.7336 51.9265 12.9418 51.5851 12.9418 50.4011V49.3842H14.1479H15.3539V50.956C15.3539 52.3536 15.3831 52.5648 15.6171 52.8627C15.9468 53.2824 16.6263 53.3219 17.0044 52.9434C17.2323 52.7152 17.2583 52.5197 17.2583 51.0367V49.3842H18.4644H19.6705V50.3433C19.6705 51.1921 19.7063 51.3383 19.9822 51.6144C20.3668 51.9997 20.968 52.0256 21.3209 51.6723C21.5326 51.4604 21.5748 51.2486 21.5748 50.4011V49.3842H22.7709H23.9668L24.0087 51.0482C24.0481 52.6186 24.0674 52.7259 24.3502 52.955C24.7132 53.249 25.2278 53.2673 25.6091 52.9997C25.877 52.812 25.8914 52.7148 25.8914 51.093V49.3842H27.0812H28.2709L28.331 50.4221C28.382 51.3062 28.4335 51.4944 28.6787 51.6932C28.837 51.8215 29.1252 51.9265 29.3192 51.9265C29.5132 51.9265 29.8014 51.8215 29.9597 51.6932C30.2048 51.4944 30.2564 51.3062 30.3074 50.4221L30.3675 49.3842H31.5572H32.747V51.0367C32.747 52.5197 32.7731 52.7152 33.0009 52.9434C33.343 53.2858 34.0303 53.2792 34.346 52.9304C34.5521 52.7028 34.5941 52.421 34.6297 51.0237L34.6716 49.3842H35.8675H37.0636V50.4011C37.0636 51.5919 37.2704 51.9265 38.0065 51.9265C38.6991 51.9265 38.9679 51.4774 38.9679 50.3204V49.3842H40.174H41.3801V51.0367C41.3801 52.5197 41.4061 52.7152 41.634 52.9434C42.0121 53.3219 42.6916 53.2824 43.0213 52.8627C43.2552 52.5648 43.2844 52.3536 43.2844 50.956V49.3842H44.4905H45.6966V50.3612C45.6966 51.5204 45.9494 51.9265 46.6709 51.9265C47.3928 51.9265 47.601 51.5851 47.601 50.4011V49.3842H48.8071H50.0131V53.3883V57.3924H29.3192H8.62523V53.3883V49.3842H9.83132H11.0374V50.3612Z" fill="#FF803D"/>
</svg>
