<svg width="66" height="61" viewBox="0 0 66 61" fill="none" xmlns="http://www.w3.org/2000/svg">
<path fill-rule="evenodd" clip-rule="evenodd" d="M2.79783 0.286382C2.53486 0.549424 2.51152 0.763638 2.51152 2.91952C2.51152 5.93742 2.50165 5.92095 4.35981 5.9924L5.66095 6.04252V20.0609C5.66095 33.8886 5.66481 34.0833 5.94726 34.3659C6.23099 34.6497 6.42439 34.6522 27.4603 34.6522C46.4405 34.6522 48.7207 34.6759 49.0052 34.8752L49.3234 35.098V41.3188C49.3234 47.3486 49.3321 47.5482 49.6097 47.8258C49.8889 48.105 50.0869 48.1122 57.4611 48.1122C64.6081 48.1122 65.0392 48.0977 65.2631 47.8503C65.4775 47.6133 65.5 46.8339 65.5 39.6223C65.5 31.9371 65.4897 31.6282 65.206 30.87C64.7958 29.7733 63.832 28.7512 62.6668 28.1773L61.7132 27.7075L56.1498 27.6625L50.5865 27.6175L45.5528 24.3103C40.885 21.2434 39.7686 20.6195 38.9479 20.6195C38.3179 20.6195 37.1359 21.0749 36.6437 21.507C35.1559 22.8136 35.1038 25.1862 36.5336 26.5085C36.7574 26.7154 38.8086 28.1249 41.092 29.6406C43.3753 31.1562 45.3048 32.4528 45.3795 32.522C45.4575 32.594 37.4482 32.6476 26.5903 32.6476H7.66513V19.3308V6.01402H33.0037H58.3422V10.8136V15.6133L57.9485 15.5032C57.7321 15.4426 56.9429 15.393 56.1949 15.393C54.9625 15.393 54.7444 15.4359 53.8699 15.8502C52.6388 16.4336 51.6561 17.4155 51.0298 18.6882C50.5663 19.6298 50.5402 19.7632 50.5402 21.1923C50.5402 22.6223 50.5662 22.7543 51.0315 23.7C51.6428 24.9419 52.6012 25.8945 53.8663 26.5176C54.7711 26.963 54.9195 26.9915 56.335 26.9915C57.7318 26.9915 57.9112 26.9583 58.8062 26.5343C60.0551 25.9425 61.0871 24.9102 61.6787 23.661C62.1025 22.7662 62.1358 22.5861 62.1358 21.1923C62.1358 19.8479 62.0938 19.599 61.7383 18.8396C61.5196 18.3726 61.117 17.7175 60.8436 17.3837L60.3464 16.7767V11.4096V6.04252L61.6475 5.9924C63.5057 5.92095 63.4958 5.93742 63.4958 2.91952C63.4958 0.763638 63.4725 0.549424 63.2095 0.286382C62.9251 0.00186149 62.7324 0 33.0037 0C3.27497 0 3.08228 0.00186149 2.79783 0.286382ZM61.4916 3.00701V4.00935H33.0037H4.5157V3.00701V2.00467H33.0037H61.4916V3.00701ZM10.4502 8.79981C10.257 8.99312 10.0988 9.28594 10.0988 9.45061C10.0988 9.61528 10.257 9.90811 10.4502 10.1014L10.8015 10.4529H27.4922H44.1828L44.5341 10.1014C44.7274 9.90811 44.8856 9.61528 44.8856 9.45061C44.8856 9.28594 44.7274 8.99312 44.5341 8.79981L44.1828 8.44827H27.4922H10.8015L10.4502 8.79981ZM10.4502 13.8115C10.0209 14.2408 10.0059 14.5919 10.3955 15.0873L10.6922 15.4646H21.3469C31.8108 15.4646 32.0067 15.4595 32.2879 15.1783C32.6999 14.7661 32.6585 14.1198 32.197 13.7568C31.8232 13.4627 31.7257 13.46 21.3107 13.46H10.8015L10.4502 13.8115ZM58.2404 17.8019C59.4699 18.5226 60.1948 19.7279 60.2001 21.0594C60.2064 22.6429 59.5313 23.8125 58.1784 24.562C57.5171 24.9284 57.2641 24.9864 56.338 24.9835C55.0933 24.9797 54.4349 24.6996 53.598 23.8177C52.9103 23.0929 52.6083 22.4652 52.5166 21.5699C52.3358 19.804 53.3923 18.1509 55.1212 17.4945C55.3574 17.4047 56.0109 17.3523 56.5734 17.3778C57.3642 17.4138 57.7424 17.51 58.2404 17.8019ZM10.3955 17.8466C10.0059 18.3421 10.0209 18.6932 10.4502 19.1225L10.8015 19.474H21.3107C31.7257 19.474 31.8232 19.4713 32.197 19.1772C32.6585 18.8142 32.6999 18.1678 32.2879 17.7557C32.0067 17.4745 31.8108 17.4693 21.3469 17.4693H10.6922L10.3955 17.8466ZM10.7165 21.4797C10.0849 21.7343 9.90766 22.5762 10.3851 23.0538C10.6647 23.3334 10.8622 23.3401 18.7375 23.3401C26.2387 23.3401 26.8193 23.3225 27.0276 23.0896C27.4807 22.5827 27.3497 21.766 26.7731 21.5031C26.3289 21.3008 11.2154 21.2786 10.7165 21.4797ZM39.5927 22.841C39.8233 22.9603 42.1077 24.4404 44.6691 26.1302C47.2306 27.8199 49.4707 29.285 49.6469 29.3857C49.8866 29.5226 51.4153 29.587 55.6938 29.6406C61.947 29.7187 61.7914 29.6975 62.6957 30.5938C63.5028 31.3936 63.4958 31.32 63.4958 39.015V46.1075H62.279H61.0622V41.104V36.1003L60.7439 35.8775C60.2997 35.5662 59.7247 35.5997 59.4023 35.9559C59.147 36.2378 59.127 36.5723 59.0885 41.1823L59.0473 46.1075H55.1875H51.3276L51.3244 40.4873C51.3216 35.2419 51.3028 34.8264 51.0446 34.2573C50.7873 33.6903 50.3238 33.3535 44.4268 29.4477C40.9392 27.1377 37.9583 25.1034 37.8027 24.9268C37.2311 24.2789 37.5408 23.0999 38.372 22.7595C38.8078 22.5811 39.1322 22.6029 39.5927 22.841ZM10.3955 25.7221C10.0059 26.2176 10.0209 26.5687 10.4502 26.998L10.8015 27.3495H15.5322C20.072 27.3495 20.2744 27.3379 20.5491 27.0631C20.7082 26.904 20.8354 26.5859 20.8354 26.3472C20.8354 26.1085 20.7082 25.7903 20.5491 25.6312C20.2743 25.3563 20.072 25.3448 15.4776 25.3448H10.6922L10.3955 25.7221ZM10.7168 36.3771C9.06032 36.7046 7.43837 37.9952 6.63713 39.6234C6.18619 40.5395 6.16199 40.669 6.16199 42.1668C6.16199 43.6214 6.19477 43.812 6.58187 44.604C7.1187 45.7024 8.35642 46.9405 9.45457 47.4774C10.2464 47.8646 10.4369 47.8974 11.8912 47.8974C13.3886 47.8974 13.518 47.8732 14.434 47.4222C18.099 45.6175 18.9243 40.8838 16.0715 38.0303C14.6057 36.5643 12.7179 35.9815 10.7168 36.3771ZM34.4503 36.454C31.3026 37.3006 29.4126 40.4472 30.1998 43.5301C30.6671 45.3596 31.714 46.6276 33.4307 47.4431C34.6308 48.0133 36.4083 48.1438 37.6047 47.7498C39.2766 47.1989 40.4568 46.1511 41.2204 44.5392C41.6268 43.6814 41.6642 43.48 41.6596 42.1698C41.6531 40.3434 41.3194 39.4307 40.2269 38.2502C38.6683 36.5664 36.518 35.8977 34.4503 36.454ZM13.1002 38.4587C14.5468 38.8884 15.825 40.5957 15.825 42.0982C15.825 43.3326 14.9555 44.8476 13.8877 45.4735C13.0015 45.993 11.5359 46.1147 10.5773 45.7485C7.59899 44.6109 7.19014 40.4479 9.90064 38.8591C11.0085 38.2097 11.8904 38.0993 13.1002 38.4587ZM37.4681 38.6269C38.2964 38.9935 38.9874 39.7097 39.416 40.6461C39.7115 41.2916 39.7572 41.5681 39.7001 42.3664C39.5472 44.5028 37.9886 45.9638 35.8668 45.9598C34.34 45.9569 33.1135 45.21 32.4276 43.8656C31.9493 42.9281 31.9299 41.3043 32.3864 40.4515C33.3978 38.5624 35.5643 37.7845 37.4681 38.6269ZM9.09668 48.5547C7.61545 48.7451 5.35875 49.2572 4.67031 49.5587C3.69728 49.985 2.89461 50.7253 2.40917 51.6441C2.06516 52.2951 1.80648 53.2635 1.23758 56.0304C0.835887 57.9835 0.507344 59.7937 0.507344 60.0533C0.507344 61.057 -0.187104 60.9994 11.9297 60.9994H22.8285L23.1204 60.686C23.2808 60.5137 23.4122 60.2905 23.4122 60.1901C23.4122 59.5579 21.798 52.3192 21.5475 51.828C21.092 50.9346 20.1776 50.0214 19.3528 49.6358C17.3005 48.6759 12.2726 48.146 9.09668 48.5547ZM32.6458 48.6098C30.606 48.9267 28.8325 49.3852 28.1896 49.762C27.3506 50.2539 26.3349 51.4387 26.0712 52.2332C25.8207 52.9877 24.4143 59.7035 24.4143 60.1448C24.4143 60.2998 24.5432 60.5555 24.7006 60.713C24.9819 60.9944 25.1778 60.9994 35.9162 60.9994C46.3224 60.9994 46.8567 60.9868 47.0823 60.7375C47.2126 60.5934 47.3192 60.3062 47.3192 60.099C47.3192 59.3331 45.855 52.5977 45.5337 51.8856C45.1103 50.9471 44.203 50.0383 43.2605 49.6083C42.8552 49.4234 41.7183 49.1041 40.7341 48.8988C38.4887 48.4301 34.679 48.2941 32.6458 48.6098ZM16.1786 50.8278C17.0424 51.0005 17.9765 51.2366 18.2543 51.3525C18.8666 51.6079 19.6162 52.3096 19.8225 52.8205C19.9452 53.1245 21.1218 58.6459 21.1218 58.9177C21.1218 58.9601 16.9624 58.9947 11.8786 58.9947C3.14212 58.9947 2.6395 58.981 2.71123 58.7441C2.75288 58.6064 3.0213 57.3337 3.3079 55.9161C3.59435 54.4985 3.94551 53.0693 4.08824 52.74C4.58628 51.5909 5.57548 51.1499 8.88195 50.6031C10.5798 50.3225 14.2085 50.4342 16.1786 50.8278ZM40.4478 50.8996C42.3958 51.3151 43.0881 51.6555 43.5688 52.4341C43.7498 52.727 44.1011 54.0616 44.4855 55.9161L45.1088 58.9231L35.9555 58.9599C30.9213 58.9803 26.7714 58.9658 26.7336 58.928C26.6957 58.8902 26.9334 57.5549 27.2618 55.9606C27.9702 52.5228 28.1945 52.0352 29.3173 51.4942C29.9464 51.1911 31.7207 50.7803 33.6479 50.4915C33.8841 50.4561 35.1081 50.4476 36.3678 50.4726C38.1787 50.5085 39.033 50.5979 40.4478 50.8996Z" fill="#FF803D"/>
</svg>
