<svg width="72" height="72" viewBox="0 0 72 72" fill="none" xmlns="http://www.w3.org/2000/svg">
<circle cx="36" cy="36" r="35" stroke="#FF803D" stroke-width="2"/>
<path fill-rule="evenodd" clip-rule="evenodd" d="M53.241 16.8414C52.9435 16.6977 52.6893 16.7224 52.4869 16.8805C52.2719 15.4284 51.0203 14.2961 49.5121 14.2961H21.8679C20.2107 14.2961 18.854 15.6583 18.854 17.3154C18.8533 17.7409 18.854 18.1546 18.854 18.5798H17.5841C15.927 18.5797 14.5703 19.9364 14.5703 21.5935V55.5331C14.5703 57.1902 15.927 58.5468 17.5841 58.5468H45.503C47.0106 58.5468 48.2478 57.3096 48.2477 55.8021V50.9161L52.2527 46.9823C52.4316 46.8035 52.5213 46.7228 52.5191 46.4792L52.532 28.1899L53.9525 25.7309C54.0634 25.6113 54.5019 25.1343 54.9617 24.5182C55.9921 22.9856 56.8149 21.3981 57.3022 19.8845C57.3788 19.645 57.3238 19.383 57.1573 19.1945C57.1031 19.1311 57.0426 19.0656 56.9886 19.0048L57.9086 17.41C58.5021 16.3821 58.1131 15.0668 57.1015 14.4827C55.8214 13.8775 54.7114 14.3369 54.132 15.2968L53.241 16.8414ZM56.1126 15.6272C56.2081 15.638 56.3019 15.6663 56.3886 15.7166C56.7647 15.9337 56.8822 16.3382 56.6744 16.698L55.9063 18.0292C55.5087 17.7389 55.0809 17.4928 54.6308 17.2933L55.371 16.0122C55.5268 15.7423 55.8262 15.5983 56.1126 15.6274V15.6272ZM49.5121 15.7233C50.3978 15.7233 51.104 16.4295 51.104 17.3152V18.4959C50.1633 19.943 49.3776 21.4591 48.9266 22.8675L45.2061 29.3008L45.1587 29.3509C44.5883 29.9727 44.3485 30.2589 44.1829 30.6236C44.0289 30.9627 43.977 31.2222 43.727 31.8433L43.7077 31.8648C42.5228 33.1565 41.581 34.6397 40.91 36.2517C40.7765 36.5646 40.7694 36.8851 40.7315 37.1703L40.3175 40.6706C40.2392 41.3277 40.5883 41.9279 41.0884 42.2166C41.5885 42.5053 42.2871 42.5112 42.8169 42.115L45.6384 40.0016C45.9336 39.8435 46.1502 39.5789 46.348 39.3925C47.3804 37.874 48.2717 36.2403 48.7499 34.7547C49.1685 34.2192 49.3668 34.0476 49.5849 33.7427C49.9252 33.1358 50.0533 32.711 50.2136 32.2051L51.1044 30.6633V45.7031H44.5499C44.1557 45.7016 43.8349 46.0198 43.8333 46.414V52.8361H21.5991C20.8629 52.8361 20.2817 52.2549 20.2817 51.5188V48.328C20.6764 48.2214 21.0373 48.2528 21.3049 48.3409C21.6596 48.459 21.7106 48.6757 21.7106 48.557C21.712 48.949 22.0295 49.2664 22.4215 49.2679C22.8157 49.2694 23.1365 48.9512 23.138 48.557C23.138 47.7243 22.4739 47.2259 21.758 46.9873C21.2128 46.8178 20.7766 46.8332 20.2817 46.887V44.0377C20.7085 43.9034 21.0957 43.9001 21.3467 43.968C21.6736 44.0563 21.7106 44.1253 21.7106 44.2733C21.7113 44.6659 22.029 44.9841 22.4215 44.9857C22.8162 44.9872 23.1372 44.668 23.138 44.2733C23.138 43.436 22.4585 42.7887 21.7147 42.588C21.233 42.4402 20.7288 42.513 20.2817 42.5637V39.7604C20.7085 39.6244 21.0957 39.6173 21.3467 39.6852C21.6736 39.7735 21.7106 39.8438 21.7106 39.9919C21.712 40.3839 22.0295 40.7014 22.4215 40.7029C22.8157 40.7044 23.1365 40.3861 23.138 39.9919C23.138 39.1546 22.4585 38.5059 21.7147 38.3052C21.2329 38.1589 20.7287 38.2315 20.2817 38.2809V35.4762C20.7085 35.3409 21.0957 35.3346 21.3467 35.4023C21.6736 35.4906 21.7106 35.5595 21.7106 35.7076C21.7091 36.1018 22.0273 36.4226 22.4215 36.4241C22.8179 36.4257 23.1396 36.1039 23.138 35.7076C23.138 34.8702 22.4585 34.2272 21.7147 34.0265C21.2332 33.8795 20.7288 33.9502 20.2817 33.9987V31.1927C20.7085 31.0573 21.0957 31.0511 21.3467 31.1188C21.6736 31.2071 21.7106 31.276 21.7106 31.424C21.7091 31.8182 22.0273 32.139 22.4215 32.1406C22.8179 32.1421 23.1396 31.8204 23.138 31.424C23.138 30.5867 22.4585 29.9436 21.7147 29.7429C21.2329 29.5966 20.7286 29.6692 20.2817 29.7186V26.9097C20.7086 26.7756 21.0957 26.7722 21.3467 26.8401C21.6736 26.9284 21.7106 26.9973 21.7106 27.1454C21.712 27.5374 22.0295 27.8548 22.4215 27.8564C22.8179 27.8579 23.1396 27.5362 23.138 27.1398C23.138 26.3025 22.4585 25.6608 21.7147 25.46C21.233 25.3122 20.7288 25.3851 20.2817 25.4358V22.6269C20.7085 22.4926 21.0957 22.4894 21.3467 22.5573C21.6736 22.6456 21.7106 22.7145 21.7106 22.8626C21.7113 23.2551 22.029 23.5734 22.4215 23.5749C22.8162 23.5763 23.1372 23.2573 23.138 22.8626C23.138 22.0253 22.4585 21.378 21.7147 21.1773C21.233 21.0295 20.7288 21.1022 20.2817 21.1529V19.292V18.3497C20.7085 18.2137 21.0957 18.2066 21.3467 18.2745C21.6736 18.3628 21.7106 18.433 21.7106 18.5812C21.712 18.9732 22.0295 19.2905 22.4215 19.2921C22.8157 19.2935 23.1365 18.9753 23.138 18.5812C23.138 17.7439 22.4585 17.0951 21.7147 16.8944C21.2568 16.756 20.7835 16.8154 20.3556 16.8596C20.5493 16.2017 21.1426 15.7249 21.5052 15.7249L49.5121 15.7233ZM36.2511 17.3097L33.6959 19.3533C32.7963 18.0271 31.2771 17.1508 29.5599 17.1508C26.8091 17.1508 24.5653 19.3947 24.5653 22.1454C24.5653 24.8962 26.8091 27.1401 29.5599 27.1401C32.3107 27.1401 34.5546 24.8962 34.5546 22.1454C34.5546 21.6317 34.4768 21.1363 34.3316 20.6692L37.1418 18.4207C37.4477 18.1742 37.497 17.727 37.252 17.4199C37.0317 17.1606 36.5597 17.0921 36.2511 17.3099L36.2511 17.3097ZM53.1267 18.3454C54.1338 18.5949 55.0424 19.1165 55.76 19.8663C55.082 21.6559 54.3133 23.1214 53.1978 24.4023C52.3053 23.888 51.4134 23.3727 50.5213 22.8578C51.0985 21.2006 51.9686 19.6647 53.1267 18.3454ZM29.5599 18.5795C30.8384 18.5795 31.9458 19.2471 32.5751 20.2496L29.723 22.5303L28.7277 21.0401C28.5099 20.7103 28.0655 20.6204 27.7366 20.8395C27.4072 21.0577 27.3179 21.502 27.5372 21.8306L28.9647 23.969C29.1963 24.317 29.676 24.3923 30.0032 24.1323L33.0909 21.6621C33.1122 21.8211 33.1271 21.9809 33.1271 22.1458C33.1271 24.1252 31.5392 25.7186 29.5599 25.7186C27.5805 25.7186 25.9927 24.1252 25.9927 22.1458C25.9927 20.1665 27.5805 18.58 29.5599 18.58H29.5599L29.5599 18.5795ZM17.5841 20.007H18.854C18.8533 30.4847 18.8539 41.5153 18.854 51.5182C18.854 53.0257 20.0912 54.2629 21.5988 54.2629H44.4756C44.7704 54.2693 44.8657 54.2283 45.05 54.058L46.8203 52.3183V55.8019C46.8203 56.538 46.2391 57.1191 45.503 57.1191H17.5842C16.6985 57.1191 15.9992 56.4185 15.9992 55.5328V21.5933C15.9992 20.7076 16.6985 20.007 17.5842 20.007H17.5841H17.5841ZM37.4109 22.8619C37.0178 22.8626 36.6993 23.1811 36.6985 23.5742C36.6971 23.9689 37.0161 24.2899 37.4109 24.2907H38.8383C39.2325 24.2893 39.5508 23.9684 39.5492 23.5742C39.5485 23.1816 39.2308 22.8634 38.8383 22.8619H37.4109ZM41.6932 22.8619C41.2985 22.8605 40.9775 23.1795 40.9767 23.5742C40.9753 23.9705 41.2968 24.2923 41.6932 24.2907H46.6879C47.0842 24.2922 47.4059 23.9705 47.4044 23.5742C47.4037 23.1795 47.0826 22.8603 46.6879 22.8619H41.6932ZM49.848 24.1193C50.6937 24.6077 51.5394 25.0961 52.3851 25.5843L49.4173 30.7226C48.6863 30.0585 47.822 29.559 46.8816 29.2575L49.848 24.1193ZM25.2762 29.9963C24.882 29.9979 24.5637 30.3187 24.5652 30.7129C24.5667 31.1049 24.8842 31.4223 25.2762 31.4238H41.6932C42.0857 31.423 42.404 31.1054 42.4055 30.7129C42.407 30.3181 42.0879 29.9971 41.6932 29.9963H25.2762ZM46.0257 30.5497C47.0624 30.7968 47.9965 31.3368 48.7287 32.1111C48.6038 32.4822 48.489 32.816 48.422 32.9097C48.3707 32.9815 48.2447 33.1197 48.0679 33.3252C47.2826 32.5831 46.3335 32.0352 45.2981 31.7263C45.3878 31.4703 45.4456 31.2921 45.4821 31.2119C45.5297 31.1071 45.7666 30.8436 46.0257 30.5497H46.0257ZM25.2762 32.8512C24.882 32.8528 24.5637 33.1736 24.5652 33.5677C24.5659 33.9603 24.8836 34.2785 25.2762 34.2801H26.705C27.0976 34.2785 27.4152 33.9603 27.4159 33.5677C27.4174 33.1736 27.0992 32.8527 26.705 32.8512H25.2762ZM29.5599 32.8512C29.1635 32.8496 28.8418 33.1714 28.8434 33.5677C28.8441 33.9625 29.1652 34.2816 29.5599 34.2801H30.9873C31.3804 34.2793 31.6989 33.9608 31.6997 33.5677C31.7011 33.173 31.3821 32.8519 30.9873 32.8512H29.5599ZM33.8436 32.8512C33.4473 32.8496 33.1256 33.1714 33.1271 33.5677C33.1278 33.9625 33.4489 34.2816 33.8436 34.2801H38.1218C38.5165 34.2816 38.8375 33.9625 38.8383 33.5677C38.8397 33.1714 38.5181 32.8496 38.1218 32.8512H33.8436ZM44.6025 33.0784C45.6141 33.3257 46.5247 33.8533 47.2455 34.6048C46.7686 36.0102 46.1091 37.349 45.2102 38.5247C45.0311 38.7588 44.4028 38.8953 44.1271 38.7519C43.5937 38.4755 43.0746 38.1765 42.5686 37.8527C42.3065 37.6856 42.111 37.0725 42.2243 36.8002C42.793 35.434 43.6239 34.1939 44.6025 33.0783V33.0784ZM25.2762 35.7074C24.882 35.709 24.5637 36.0298 24.5652 36.4239C24.5667 36.8159 24.8842 37.1334 25.2762 37.1349H30.9093C31.3035 37.1365 31.6243 36.8181 31.6258 36.4239C31.6272 36.0276 31.3056 35.7059 30.9093 35.7074H25.2762ZM33.8436 35.7074C33.4473 35.7059 33.1256 36.0276 33.1271 36.4239C33.1285 36.8181 33.4495 37.1364 33.8436 37.1349H37.4109C37.8029 37.1334 38.1203 36.8159 38.1218 36.4239C38.1232 36.0298 37.805 35.709 37.4109 35.7074H33.8436ZM25.2762 38.5623C24.8836 38.5638 24.566 38.8821 24.5652 39.2746C24.5638 39.6688 24.882 39.9897 25.2762 39.9912H36.6985C37.0932 39.9904 37.4124 39.6693 37.4109 39.2746C37.4101 38.8816 37.0916 38.5631 36.6985 38.5623H25.2762ZM41.9371 39.1366C42.3938 39.4233 42.8587 39.6916 43.3353 39.9438L41.9622 40.9712C41.8887 41.0262 41.857 41.0094 41.8033 40.9797C41.7496 40.9488 41.7242 40.9314 41.735 40.8403L41.9371 39.1366ZM25.2748 41.4158C24.8806 41.4174 24.5623 41.7382 24.5638 42.1323C24.5653 42.5243 24.8828 42.8417 25.2748 42.8432H26.7022C27.0964 42.8448 27.4172 42.5265 27.4187 42.1323C27.4202 41.736 27.0986 41.4142 26.7022 41.4158H25.2748ZM29.5585 41.4158C29.1638 41.4166 28.8446 41.7376 28.8462 42.1323C28.8476 42.5249 29.166 42.8425 29.5585 42.8432H30.986C31.3801 42.8448 31.7009 42.5265 31.7025 42.1323C31.7039 41.736 31.3823 41.4142 30.986 41.4158H29.5585ZM33.8408 41.4158C33.4467 41.4174 33.1284 41.7382 33.1299 42.1323C33.1313 42.5243 33.4488 42.8417 33.8408 42.8432H38.1246C38.5166 42.8418 38.834 42.5243 38.8355 42.1323C38.8369 41.7382 38.5187 41.4173 38.1246 41.4158H33.8408ZM25.2748 44.2721C24.8806 44.2737 24.5623 44.5945 24.5638 44.9886C24.5653 45.3806 24.8828 45.698 25.2748 45.6995H30.9121C31.3041 45.6981 31.6215 45.3806 31.623 44.9886C31.6244 44.5945 31.3062 44.2737 30.9121 44.2721H25.2748ZM33.8408 44.2721C33.4467 44.2737 33.1284 44.5945 33.1299 44.9886C33.1313 45.3806 33.4488 45.698 33.8408 45.6995H40.9809C41.3729 45.6981 41.6903 45.3806 41.6918 44.9886C41.6932 44.5945 41.375 44.2737 40.9809 44.2721H33.8408ZM25.2748 47.127C24.8806 47.1286 24.5623 47.4493 24.5638 47.8435C24.5653 48.2355 24.8828 48.553 25.2748 48.5545H36.6971C37.0891 48.553 37.4065 48.2355 37.4081 47.8435C37.4095 47.4493 37.0913 47.1286 36.6971 47.127H25.2748ZM39.552 47.127C39.1557 47.1255 38.834 47.4471 38.8355 47.8435C38.8369 48.2377 39.1578 48.556 39.552 48.5545H40.9809C41.3729 48.553 41.6903 48.2355 41.6918 47.8435C41.6932 47.4493 41.375 47.1286 40.9809 47.127H39.552ZM45.2604 47.1291H50.0711L47.0419 50.1025L45.2604 51.8493V47.1291Z" fill="#FF803D"/>
</svg>
