<svg width="72" height="72" viewBox="0 0 72 72" fill="none" xmlns="http://www.w3.org/2000/svg">
<circle cx="36" cy="36" r="35" stroke="#FF803D" stroke-width="2"/>
<path fill-rule="evenodd" clip-rule="evenodd" d="M34.3067 12.0236C34.1258 12.0448 33.5761 12.1056 33.0851 12.1589C29.985 12.4952 26.5519 13.6579 23.7816 15.3101C20.2559 17.4128 17.3902 20.2772 15.2866 23.8014C13.6472 26.5478 12.5584 29.7394 12.1141 33.1008C11.962 34.2517 11.962 37.7733 12.1141 38.9241C12.5584 42.2855 13.6472 45.4771 15.2866 48.2236C17.3902 51.7478 20.2559 54.6121 23.7816 56.7148C26.5292 58.3535 29.7222 59.4419 33.0851 59.886C34.2365 60.038 37.7596 60.038 38.9109 59.886C44.7619 59.1132 49.7215 56.5445 53.7691 52.1906C56.0084 49.7818 57.7603 46.7858 58.8354 43.5264C59.6829 40.9571 60 38.9112 60 36.0125C60 33.868 59.9094 32.9206 59.5243 31.0345C58.204 24.5678 54.0473 18.7888 48.2145 15.3101C45.4949 13.6882 42.2518 12.5768 39.0049 12.1539C38.1808 12.0467 34.8893 11.9553 34.3067 12.0236ZM39.2868 13.6116C39.8294 13.6935 40.8452 13.9024 41.544 14.0758C49.5109 16.0522 55.9305 22.4531 57.9356 30.4194C58.4553 32.484 58.5896 33.6325 58.5896 36.0125C58.5896 38.3925 58.4553 39.541 57.9356 41.6055C56.3392 47.9476 51.9106 53.4018 46.0053 56.2983C44.3812 57.0948 43.1842 57.5404 41.5935 57.9404C39.5281 58.4599 38.3791 58.5941 35.998 58.5941C33.617 58.5941 32.468 58.4599 30.4025 57.9404C22.4538 55.9414 16.0603 49.5508 14.0605 41.6055C13.5408 39.541 13.4065 38.3925 13.4065 36.0125C13.4065 33.6325 13.5408 32.484 14.0605 30.4194C15.6568 24.0773 20.0855 18.6232 25.9908 15.7267C28.6572 14.4188 31.0682 13.7499 34.2597 13.4324C35.06 13.3528 38.3484 13.47 39.2868 13.6116ZM34.2597 16.5803C30.4523 16.9337 26.9078 18.344 23.9386 20.6867C20.2371 23.6071 17.7027 27.7672 16.8273 32.3598C16.016 36.6155 16.6457 40.9776 18.6358 44.8882C19.3701 46.3311 20.7097 48.3032 21.2718 48.769C21.5089 48.9655 21.9995 48.8684 22.2116 48.5829C22.4657 48.2412 22.3883 48.0074 21.7462 47.1769C19.0976 43.7511 17.6805 39.3631 17.9034 35.2783C18.1223 31.269 19.4079 27.8148 21.8119 24.777C27.9873 16.9732 39.2332 15.6381 47.1673 21.7669C47.9983 22.4087 48.2321 22.4861 48.574 22.2321C48.8595 22.02 48.9567 21.5297 48.7601 21.2927C48.5392 21.0263 47.4122 20.1638 46.605 19.6434C42.9474 17.2854 38.5138 16.1854 34.2597 16.5803ZM35.557 19.7085L35.2933 19.935L35.2632 21.4695C35.2286 23.2426 35.3192 23.6942 35.7396 23.8419C35.9059 23.9002 36.0902 23.9002 36.2564 23.8419C36.6768 23.6942 36.7675 23.2426 36.7328 21.4695L36.7028 19.935L36.4391 19.7085C36.2941 19.5838 36.0957 19.4819 35.998 19.4819C35.9004 19.4819 35.702 19.5838 35.557 19.7085ZM27.6676 21.7803C27.3116 22.0296 27.3319 22.374 27.747 23.1282C28.2719 24.0816 28.4609 24.2813 28.8486 24.2924C29.2284 24.3032 29.5145 24.0139 29.5145 23.6192C29.5145 23.3646 28.6742 21.8574 28.4546 21.7179C28.2696 21.6004 27.8804 21.6313 27.6676 21.7803ZM43.5415 21.7179C43.3218 21.8574 42.4816 23.3646 42.4816 23.6192C42.4816 24.0139 42.7677 24.3032 43.1474 24.2924C43.5351 24.2813 43.7242 24.0816 44.2491 23.1282C44.6642 22.374 44.6845 22.0296 44.3285 21.7803C44.1156 21.6313 43.7264 21.6004 43.5415 21.7179ZM49.8177 23.3924C49.5009 23.795 49.5505 23.9516 50.2984 24.9098C52.8731 28.2082 54.3134 32.7019 54.0926 36.7467C53.8738 40.756 52.5882 44.2101 50.1842 47.248C44.0088 55.0517 32.7628 56.3868 24.8287 50.258C23.9978 49.6163 23.7639 49.5389 23.4221 49.7928C23.1365 50.0049 23.0394 50.4953 23.2359 50.7323C23.4598 51.0021 24.5888 51.8643 25.3911 52.3781C26.9908 53.4024 28.3735 54.0555 30.1105 54.6072C36.2602 56.5601 42.9935 55.3338 48.0575 51.3383C51.759 48.4178 54.2933 44.2577 55.1688 39.6652C55.9801 35.4095 55.3503 31.0473 53.3603 27.1367C52.6345 25.7107 51.7128 24.3286 50.9016 23.4502C50.5359 23.0542 50.102 23.0311 49.8177 23.3924ZM26.7392 26.3347C26.4503 26.4504 26.2884 26.6923 26.2884 27.0082C26.2884 27.2573 26.7676 27.7715 30.1668 31.17C33.6927 34.6951 34.0357 35.0652 33.9411 35.242C33.8837 35.349 33.8372 35.7036 33.8377 36.0298C33.8396 37.2776 34.7414 38.17 36.0022 38.1719C36.5303 38.1726 36.6887 38.1296 37.1237 37.8675C37.532 37.6214 37.6861 37.4529 37.9182 36.9987C38.0766 36.6887 38.2099 36.4244 38.2144 36.4113C38.2189 36.3982 39.9918 36.1148 42.1542 35.7813C45.262 35.3022 46.1206 35.1399 46.2512 35.0068C46.7199 34.529 46.4334 33.8522 45.7624 33.8522C45.5588 33.8522 43.7159 34.1101 41.6672 34.4253C38.1445 34.9672 37.9373 34.9891 37.8479 34.8296C37.703 34.5707 37.3038 34.2276 36.918 34.0304C36.5236 33.8288 35.5457 33.786 35.2272 33.9564C35.0504 34.051 34.6808 33.7098 31.1695 30.2085C29.0447 28.0898 27.2217 26.3343 27.1184 26.3073C27.015 26.2802 26.8444 26.2925 26.7392 26.3347ZM22.1156 27.4377C21.7321 27.5115 21.4811 28.1324 21.6972 28.4723C21.8367 28.6919 23.3447 29.5318 23.5993 29.5318C24.2407 29.5318 24.5188 28.765 24.0299 28.3446C23.8006 28.1473 22.4312 27.3592 22.3616 27.3843C22.3422 27.3913 22.2314 27.4154 22.1156 27.4377ZM48.8212 27.8029C47.8889 28.3317 47.7341 28.4827 47.723 28.8747C47.7125 29.2455 48.0061 29.5318 48.3968 29.5318C48.6514 29.5318 50.1594 28.6919 50.2989 28.4723C50.4257 28.273 50.3807 27.8689 50.2102 27.6736C49.9012 27.3198 49.6281 27.3452 48.8212 27.8029ZM20.0494 35.3271C19.8027 35.3747 19.4603 35.7774 19.4603 36.0199C19.4603 36.1133 19.5622 36.3084 19.6869 36.4534L19.9135 36.7169L21.4487 36.747C23.2226 36.7816 23.6744 36.691 23.8221 36.2708C23.9618 35.8733 23.7944 35.5174 23.4048 35.3838C23.0936 35.2771 20.5327 35.2338 20.0494 35.3271ZM36.5323 35.4653C37.0169 35.9203 36.6783 36.7639 36.0112 36.7639C35.562 36.7639 35.2463 36.4592 35.2463 36.0256C35.2463 35.3428 36.0355 34.9989 36.5323 35.4653ZM48.5913 35.3798C48.2019 35.5182 48.0348 35.8748 48.174 36.2708C48.3217 36.691 48.7735 36.7816 50.5473 36.747L52.0825 36.7169L52.3092 36.4534C52.5952 36.1208 52.5952 35.9042 52.3092 35.5716L52.0825 35.308L50.5004 35.2859C49.4305 35.2709 48.8124 35.3014 48.5913 35.3798ZM22.5564 42.9656C22.1239 43.2254 21.7372 43.4896 21.6972 43.5527C21.5796 43.7375 21.6105 44.1265 21.7597 44.3393C22.009 44.6951 22.3536 44.6749 23.1082 44.2599C24.062 43.7352 24.2618 43.5463 24.2728 43.1587C24.2836 42.7792 23.9942 42.4932 23.5993 42.4932C23.4582 42.4932 22.9891 42.7057 22.5564 42.9656ZM47.9272 42.6656C47.7762 42.7878 47.7168 42.9315 47.7232 43.1587C47.7343 43.5463 47.9341 43.7352 48.8879 44.2599C49.6425 44.6749 49.987 44.6951 50.2364 44.3393C50.3855 44.1265 50.4164 43.7375 50.2989 43.5527C50.1594 43.3331 48.6514 42.4932 48.3968 42.4932C48.2557 42.4932 48.0444 42.5708 47.9272 42.6656ZM28.6921 47.733C28.2945 47.7951 27.33 49.3952 27.4188 49.8454C27.5095 50.3054 28.1393 50.5501 28.4995 50.2654C28.7464 50.0702 29.5145 48.666 29.5145 48.4097C29.5145 47.941 29.171 47.6582 28.6921 47.733ZM42.8785 47.7635C42.6455 47.8497 42.4816 48.1247 42.4816 48.4296C42.4816 48.6708 43.2596 50.0781 43.4966 50.2654C43.6965 50.4234 44.0871 50.4137 44.3285 50.2446C44.6738 50.0029 44.6642 49.649 44.2942 48.9739C43.6631 47.8226 43.378 47.5789 42.8785 47.7635ZM35.535 48.3097C35.2847 48.5599 35.2229 49.1007 35.2608 50.7089C35.2933 52.0886 35.2936 52.0901 35.557 52.3165C35.702 52.4411 35.9004 52.543 35.998 52.543C36.0957 52.543 36.2941 52.4411 36.4391 52.3165C36.7025 52.0901 36.7028 52.0886 36.7353 50.7089C36.7849 48.6034 36.6492 48.1286 35.998 48.1286C35.843 48.1286 35.6346 48.2101 35.535 48.3097Z" fill="#FF803D"/>
</svg>
