<svg width="72" height="72" viewBox="0 0 72 72" fill="none" xmlns="http://www.w3.org/2000/svg">
<circle cx="36" cy="36" r="35" stroke="#FF803D" stroke-width="2"/>
<path d="M32.1379 47.7187C32.1724 47.7585 32.1914 47.8112 32.1909 47.8657L31.9711 49.8265C31.9323 50.1466 31.9745 50.472 32.0932 50.7682C32.212 51.0645 32.4029 51.3207 32.6457 51.5095C32.8935 51.7037 33.1844 51.8241 33.4891 51.8585C33.7938 51.893 34.1015 51.8402 34.3813 51.7056L36.0789 50.8886C36.1068 50.8722 36.1381 50.8635 36.1699 50.8635C36.2017 50.8635 36.233 50.8722 36.2608 50.8886L37.9585 51.7056C38.2386 51.8386 38.5461 51.8904 38.8505 51.8561C39.1549 51.8217 39.4457 51.7022 39.6941 51.5095C39.9369 51.3207 40.1278 51.0645 40.2465 50.7682C40.3653 50.472 40.4075 50.1466 40.3686 49.8265L40.1488 47.8657C40.1474 47.815 40.1637 47.7654 40.1943 47.7269L41.4752 46.3135C41.6844 46.0796 41.8303 45.7885 41.8971 45.4717C41.9639 45.1549 41.949 44.8244 41.8541 44.5161C41.7611 44.2037 41.5916 43.9242 41.3635 43.7071C41.1354 43.4899 40.8572 43.3432 40.5581 43.2824L38.7164 42.8903C38.6895 42.8854 38.6639 42.874 38.6416 42.8571C38.6193 42.8401 38.6008 42.8179 38.5876 42.7922L37.6857 41.0275C37.5336 40.7461 37.3156 40.5126 37.0537 40.3503C36.7917 40.188 36.4948 40.1025 36.1926 40.1025C35.8905 40.1025 35.5936 40.188 35.3316 40.3503C35.0696 40.5126 34.8517 40.7461 34.6996 41.0275L33.7825 42.7514C33.7692 42.7771 33.7508 42.7993 33.7285 42.8162C33.7062 42.8332 33.6806 42.8445 33.6537 42.8494L31.812 43.2416C31.5129 43.3024 31.2347 43.4491 31.0066 43.6662C30.7785 43.8834 30.609 44.1629 30.516 44.4752C30.4097 44.7863 30.386 45.1231 30.4475 45.4478C30.5091 45.7726 30.6536 46.0724 30.8646 46.3135L32.1379 47.7187ZM31.9333 44.9736C31.9436 44.9381 31.9636 44.9067 31.9906 44.8834C32.0176 44.8601 32.0504 44.846 32.0848 44.8429L33.8962 44.4589C34.1367 44.4068 34.3644 44.3005 34.5642 44.1471C34.764 43.9936 34.9315 43.7964 35.0558 43.5684L35.9728 41.8445C36.0714 41.6648 36.2229 41.6648 36.3215 41.8445L37.2385 43.5684C37.3677 43.8019 37.5423 44.0025 37.7503 44.1563C37.9584 44.31 38.1949 44.4133 38.4436 44.4589L40.2777 44.8429C40.3121 44.846 40.3449 44.8601 40.3719 44.8834C40.3989 44.9067 40.4189 44.9381 40.4293 44.9736C40.4378 45.0045 40.4388 45.0373 40.4322 45.0688C40.4255 45.1003 40.4115 45.1294 40.3914 45.1533L39.1181 46.5994C38.9495 46.7935 38.8221 47.0249 38.7449 47.2775C38.6677 47.53 38.6424 47.7977 38.6709 48.0618L38.8907 50.0226C38.8958 50.055 38.8911 50.0882 38.8775 50.1176C38.8639 50.147 38.842 50.1709 38.8149 50.186C38.7836 50.2088 38.7467 50.221 38.7088 50.221C38.671 50.221 38.6341 50.2088 38.6027 50.186L36.905 49.369C36.6812 49.2598 36.4383 49.2033 36.1926 49.2033C35.9469 49.2033 35.7041 49.2598 35.4802 49.369L33.7825 50.186C33.7512 50.2088 33.7142 50.221 33.6764 50.221C33.6386 50.221 33.6016 50.2088 33.5703 50.186C33.5433 50.1709 33.5214 50.147 33.5078 50.1176C33.4941 50.0882 33.4895 50.055 33.4945 50.0226L33.7143 48.0618C33.7428 47.7977 33.7176 47.53 33.6404 47.2775C33.5631 47.0249 33.4358 46.7935 33.2671 46.5994L31.9939 45.1533C31.9698 45.132 31.9514 45.104 31.9408 45.0724C31.9301 45.0408 31.9275 45.0067 31.9333 44.9736Z" fill="#FF803D"/>
<path d="M39.5055 36.8687C39.4124 36.8306 39.3133 36.8127 39.2138 36.8159C39.1143 36.819 39.0164 36.8433 38.9256 36.8873C38.8348 36.9313 38.7529 36.9942 38.6847 37.0723C38.6164 37.1504 38.5631 37.2423 38.5278 37.3426C38.4925 37.4429 38.4758 37.5497 38.4788 37.657C38.4817 37.7642 38.5043 37.8698 38.5451 37.9677C38.5859 38.0656 38.6442 38.1538 38.7167 38.2274C38.7891 38.301 38.8743 38.3584 38.9674 38.3965C40.7024 39.0988 42.1537 40.4354 43.0682 42.1731C43.9826 43.9108 44.3021 45.9394 43.9711 47.9052C43.64 49.8709 42.6793 51.6489 41.2565 52.9292C39.8338 54.2095 38.0393 54.9108 36.1859 54.9108C34.3326 54.9108 32.5381 54.2095 31.1153 52.9292C29.6925 51.6489 28.7319 49.8709 28.4008 47.9052C28.0697 45.9394 28.3892 43.9108 29.3037 42.1731C30.2181 40.4354 31.6694 39.0988 33.4044 38.3965C33.5 38.3593 33.5876 38.3019 33.6622 38.2275C33.7367 38.1531 33.7966 38.0633 33.8383 37.9635C33.88 37.8636 33.9027 37.7558 33.905 37.6463C33.9073 37.5368 33.8891 37.428 33.8516 37.3262C33.817 37.2252 33.7642 37.1325 33.6963 37.0535C33.6284 36.9745 33.5466 36.9108 33.4558 36.866C33.3649 36.8212 33.2667 36.7962 33.1669 36.7925C33.067 36.7887 32.9674 36.8063 32.8739 36.8442C30.8046 37.6815 29.0736 39.2752 27.9829 41.3475C26.8922 43.4198 26.5109 45.8391 26.9056 48.1834C27.3003 50.5277 28.4459 52.6482 30.1426 54.1752C31.8393 55.7021 33.9794 56.5385 36.1897 56.5385C38.4 56.5385 40.5401 55.7021 42.2368 54.1752C43.9335 52.6482 45.0791 50.5277 45.4738 48.1834C45.8685 45.8391 45.4872 43.4198 44.3965 41.3475C43.3058 39.2752 41.5748 37.6815 39.5055 36.8442V36.8687Z" fill="#FF803D"/>
<path d="M36.172 37.7346C36.5905 37.7346 36.9299 37.3688 36.9299 36.9176C36.9299 36.4664 36.5905 36.1006 36.172 36.1006C35.7534 36.1006 35.4141 36.4664 35.4141 36.9176C35.4141 37.3688 35.7534 37.7346 36.172 37.7346Z" fill="#FF803D"/>
<path d="M49.4026 12.3758C49.3341 12.2608 49.2399 12.1661 49.1287 12.1004C49.0175 12.0348 48.8927 12.0002 48.7659 12H23.5735C23.4467 12.0002 23.322 12.0348 23.2108 12.1004C23.0995 12.1661 23.0054 12.2608 22.9369 12.3758L18.1015 20.5457C18.035 20.6699 18 20.8108 18 20.9542C18 21.0976 18.035 21.2385 18.1015 21.3627L26.7339 37.392C26.6147 37.7953 26.4465 38.1799 26.2337 38.5358C25.9205 38.9329 25.5585 39.282 25.1575 39.5733C24.3468 40.097 23.7102 40.8833 23.3386 41.82C23.1401 42.7906 23.2248 43.8037 23.5811 44.7203C23.7549 45.2467 23.8595 45.7967 23.8918 46.3543C23.8581 46.9117 23.7536 47.4615 23.5811 47.9883C23.2245 48.902 23.1397 49.9126 23.3386 50.8804C23.7102 51.8172 24.3468 52.6035 25.1575 53.1272C25.5585 53.4185 25.9205 53.7676 26.2337 54.1647C26.4935 54.6151 26.695 55.1016 26.8325 55.6108C27.0482 56.5941 27.5406 57.4815 28.2422 58.1516C29.0462 58.6578 29.9739 58.8886 30.9024 58.8134C31.3971 58.7947 31.8919 58.8497 32.3727 58.9768C32.8105 59.1705 33.2212 59.429 33.5929 59.7448C34.3255 60.3918 35.2253 60.7797 36.1697 60.8559C37.1219 60.7588 38.0225 60.3448 38.7466 59.6712C39.1159 59.3561 39.524 59.0977 39.9592 58.9033C40.44 58.7761 40.9348 58.7212 41.4295 58.7399C42.358 58.815 43.2857 58.5843 44.0897 58.0781C44.7913 57.408 45.2837 56.5206 45.4994 55.5373C45.6369 55.0281 45.8383 54.5415 46.0981 54.0912C46.4113 53.6941 46.7734 53.345 47.1743 53.0536C47.985 52.5299 48.6216 51.7436 48.9933 50.8069C49.1862 49.8502 49.1042 48.8528 48.7583 47.9474C48.5846 47.4211 48.48 46.8711 48.4476 46.3135C48.4813 45.7561 48.5859 45.2063 48.7583 44.6795C49.115 43.7658 49.1997 42.7552 49.0009 41.7874C48.6292 40.8506 47.9926 40.0643 47.1819 39.5406C46.781 39.2493 46.4189 38.9002 46.1057 38.5031C45.893 38.1472 45.7248 37.7626 45.6055 37.3593L54.2531 21.3954C54.3196 21.2712 54.3546 21.1303 54.3546 20.9869C54.3546 20.8435 54.3196 20.7026 54.2531 20.5784L49.4026 12.3758ZM50.3575 17.0245L41.2628 33.8871C40.4211 33.9453 39.5909 33.6529 38.9436 33.0701L48.7962 14.3856L50.3575 17.0245ZM46.1663 16.0849H26.1731L24.8771 13.634H47.4623L46.1663 16.0849ZM45.3023 17.7189L44.0063 20.1699H28.3331L27.075 17.7189H45.3023ZM43.1424 21.8039L37.64 32.2041C37.1946 31.921 36.6869 31.7717 36.1697 31.7717C35.6526 31.7717 35.1449 31.921 34.6994 32.2041L29.1971 21.8039H43.1424ZM23.5356 14.4019L33.3883 33.0864C32.741 33.6692 31.9107 33.9617 31.0691 33.9034L21.9744 17.0408L23.5356 14.4019ZM19.6249 20.9869L21.0649 18.5359L29.4169 34.0587C29.01 34.1317 28.6234 34.3015 28.2852 34.5559C27.9469 34.8103 27.6655 35.1428 27.4615 35.5292L19.6249 20.9869ZM46.2725 40.8723C46.8089 41.2244 47.2463 41.7271 47.5381 42.3266C47.6175 42.9792 47.5311 43.6427 47.288 44.2465C47.0739 44.9124 46.9538 45.6091 46.9318 46.3135C46.9612 47.0191 47.0889 47.7159 47.3108 48.3805C47.5461 48.9865 47.6247 49.65 47.5381 50.3004C47.2401 50.903 46.7945 51.406 46.2497 51.7546C45.724 52.1378 45.254 52.6031 44.8552 53.1353C44.5043 53.7134 44.2336 54.3437 44.0518 55.0062C43.9191 55.6638 43.6201 56.269 43.1878 56.7546C42.6278 57.0477 42.0038 57.1693 41.384 57.1059C40.7397 57.0854 40.0961 57.168 39.4741 57.351C38.8907 57.5913 38.344 57.9245 37.8523 58.3395C37.3758 58.7924 36.7943 59.0973 36.1697 59.2219C35.5371 59.1016 34.9472 58.7964 34.4645 58.3395C33.9727 57.9245 33.426 57.5913 32.8426 57.351C32.2208 57.1676 31.5771 57.085 30.9327 57.1059C30.3129 57.1693 29.6889 57.0477 29.1289 56.7546C28.6966 56.269 28.3976 55.6638 28.2649 55.0062C28.0831 54.3437 27.8124 53.7134 27.4615 53.1353C27.0627 52.6031 26.5927 52.1378 26.067 51.7546C25.5306 51.4025 25.0931 50.8998 24.8013 50.3004C24.7219 49.6478 24.8084 48.9842 25.0514 48.3805C25.2655 47.7146 25.3856 47.0178 25.4076 46.3135C25.3783 45.6079 25.2506 44.9111 25.0287 44.2465C24.7934 43.6404 24.7148 42.9769 24.8013 42.3266C25.0993 41.7239 25.545 41.2209 26.0897 40.8723C26.6155 40.4891 27.0855 40.0238 27.4843 39.4916C27.8352 38.9135 28.1058 38.2832 28.2876 37.6207C28.4203 36.9631 28.7194 36.358 29.1516 35.8724C29.7116 35.5792 30.3356 35.4577 30.9554 35.5211C31.5998 35.5415 32.2434 35.4589 32.8653 35.276C33.4487 35.0356 33.9954 34.7024 34.4872 34.2874C34.9636 33.8346 35.5451 33.5296 36.1697 33.4051C36.8024 33.5254 37.3922 33.8306 37.875 34.2874C38.3668 34.7024 38.9135 35.0356 39.4969 35.276C40.1187 35.4594 40.7624 35.542 41.4068 35.5211C42.0265 35.4577 42.6505 35.5792 43.2106 35.8724C43.6428 36.358 43.9419 36.9631 44.0746 37.6207C44.2564 38.2832 44.527 38.9135 44.8779 39.4916C45.2767 40.0238 45.7467 40.4891 46.2725 40.8723ZM44.8779 35.4966C44.6706 35.1162 44.3877 34.7901 44.0497 34.5415C43.7116 34.2929 43.3267 34.128 42.9226 34.0587L51.2594 18.6094L52.6994 21.0604L44.8779 35.4966Z" fill="#FF803D"/>
</svg>
